<svg width="89" height="85" viewBox="0 0 89 85" fill="none" xmlns="http://www.w3.org/2000/svg">
<path d="M30.68 0.199993C12.32 0.199993 1.88 9.2 1.76 24.92H20.36C20.48 19.88 24.08 16.88 29.96 16.88C35.72 16.88 38.96 19.76 38.96 25.04C38.96 31.64 35 34.52 26.12 34.52H23.36V48.2H26.12C38 48.2 42.32 50.72 42.32 57.92C42.32 64.64 38.6 68.12 31.28 68.12C23.96 68.12 19.88 64.76 19.4 58.28H0.44C0.44 75.44 11.36 84.8 31.16 84.8C50.12 84.8 61.16 75.56 61.16 59.84C61.16 48.56 55.16 41.6 44.24 39.92V39.68C53.36 37.64 58.64 30.92 58.64 21.56C58.64 7.87999 48.68 0.199993 30.68 0.199993ZM88.3934 63.68H69.1934V83H88.3934V63.68Z" fill="#F2F5F8"/>
</svg>
