<svg width="89" height="83" viewBox="0 0 89 83" fill="none" xmlns="http://www.w3.org/2000/svg">
<path d="M35.24 27.36C29.72 27.36 25.04 28.8 21.8 31.32H21.44L23 16.08H53.6V-1.43051e-06H10.16L5.96 47.4H20.24C22.76 43.44 26.36 41.4 31.04 41.4C38.36 41.4 42.68 45.96 42.68 53.28C42.68 61.2 37.64 66.12 29.36 66.12C23 66.12 16.88 63.36 11.6 58.08L0.92 72.6C8.72 79.32 18.32 82.8 29.48 82.8C49.4 82.8 61.64 71.88 61.64 53.88C61.64 37.8 51.2 27.36 35.24 27.36ZM88.745 61.68H69.545V81H88.745V61.68Z" fill="#F2F5F8"/>
</svg>
