<svg width="56" height="56" viewBox="0 0 56 56" fill="none" xmlns="http://www.w3.org/2000/svg">
<circle cx="28" cy="28" r="28" fill="#F8FAFB"/>
<path d="M39.1945 39.2002V39.1992H39.2V30.6255C39.2 26.4312 38.3394 23.2002 33.666 23.2002C31.4194 23.2002 29.9117 24.4938 29.2962 25.7201H29.2312V23.5918H24.8V39.1992H29.4141V31.471C29.4141 29.4362 29.7817 27.4686 32.1834 27.4686C34.5498 27.4686 34.5851 29.7907 34.5851 31.6015V39.2002H39.1945Z" fill="#00CCC2"/>
<path d="M17 24H22V39H17V24Z" fill="#00CCC2"/>
<path d="M19.2 16.7998C17.8751 16.7998 16.8 17.8699 16.8 19.1886C16.8 20.5074 17.8751 21.5998 19.2 21.5998C20.525 21.5998 21.6 20.5074 21.6 19.1886C21.5992 17.8699 20.5241 16.7998 19.2 16.7998V16.7998Z" fill="#00CCC2"/>
</svg>
