<svg width="24" height="24" viewBox="0 0 24 24" fill="none" xmlns="http://www.w3.org/2000/svg">
<path d="M23.1945 23.2002V23.1992H23.2V14.6255C23.2 10.4312 22.3394 7.2002 17.666 7.2002C15.4194 7.2002 13.9117 8.49375 13.2962 9.7201H13.2312V7.59177H8.80005V23.1992H13.4141V15.471C13.4141 13.4362 13.7817 11.4686 16.1834 11.4686C18.5498 11.4686 18.5851 13.7907 18.5851 15.6015V23.2002H23.1945Z" fill="#00CCC2"/>
<path d="M1 8H6V23H1V8Z" fill="#00CCC2"/>
<path d="M3.20005 0.799805C1.87514 0.799805 0.800049 1.86988 0.800049 3.18862C0.800049 4.50735 1.87514 5.5998 3.20005 5.5998C4.52496 5.5998 5.60005 4.50735 5.60005 3.18862C5.59922 1.86988 4.52413 0.799805 3.20005 0.799805V0.799805Z" fill="#00CCC2"/>
</svg>
