<svg width="46" height="46" viewBox="0 0 46 46" fill="none" xmlns="http://www.w3.org/2000/svg">
<circle cx="23" cy="23" r="23" fill="#1977F3"/>
<path fill-rule="evenodd" clip-rule="evenodd" d="M24.0996 32.0112C28.5515 31.4666 32 27.6573 32 23.039C32 18.0469 27.9706 14 23 14C18.0294 14 14 18.0469 14 23.039C14 27.4927 17.2072 31.1942 21.4286 31.9407V25.3402H19.25V22.6624H21.4286V20.5527C21.4286 18.2603 22.781 17.013 24.7552 17.013C25.7013 17.013 26.5138 17.0864 26.75 17.1191V19.5144H25.3807C24.3071 19.5144 24.0996 20.0442 24.099 20.8182V22.663H26.5219L26.19 25.3408H24.0996V32.0112Z" fill="white"/>
</svg>
