<svg width="46" height="46" viewBox="0 0 46 46" fill="none" xmlns="http://www.w3.org/2000/svg">
<circle cx="23" cy="23" r="23" fill="#0A66C2"/>
<path d="M31.3959 31.4001V31.3994H31.4001V24.9691C31.4001 21.8234 30.7546 19.4001 27.2496 19.4001C25.5646 19.4001 24.4338 20.3703 23.9722 21.2901H23.9234V19.6938H20.6001V31.3994H24.0606V25.6032C24.0606 24.0771 24.3363 22.6014 26.1376 22.6014C27.9124 22.6014 27.9389 24.343 27.9389 25.7011V31.4001H31.3959Z" fill="white"/>
<path d="M14.75 20H18.5V31.25H14.75V20Z" fill="white"/>
<path d="M16.4001 14.5999C15.4064 14.5999 14.6001 15.4024 14.6001 16.3915C14.6001 17.3805 15.4064 18.1999 16.4001 18.1999C17.3938 18.1999 18.2001 17.3805 18.2001 16.3915C18.1995 15.4024 17.3932 14.5999 16.4001 14.5999V14.5999Z" fill="white"/>
</svg>
