<svg width="46" height="46" viewBox="0 0 46 46" fill="none" xmlns="http://www.w3.org/2000/svg">
<circle cx="23" cy="23" r="23" fill="white"/>
<circle cx="23" cy="23" r="23" fill="url(#paint0_radial_1988_863)"/>
<circle cx="23" cy="23" r="23" fill="white"/>
<circle cx="23" cy="23" r="23" fill="url(#paint1_radial_1988_863)"/>
<circle cx="23" cy="23" r="23" fill="url(#paint2_radial_1988_863)"/>
<g clip-path="url(#clip0_1988_863)">
<path fill-rule="evenodd" clip-rule="evenodd" d="M19.2094 14H26.7906C29.6565 14 32 16.3435 32 19.2094V26.7906C32 29.6565 29.6565 32 26.7906 32H19.2094C16.3435 32 14 29.6565 14 26.7906V19.2094C14 16.3435 16.3435 14 19.2094 14ZM19.2094 15.6024H26.7906C28.7741 15.6024 30.3976 17.2259 30.3976 19.2094V26.7906C30.3976 28.7741 28.7741 30.3976 26.7906 30.3976H19.2094C17.2259 30.3976 15.6024 28.7741 15.6024 26.7906V19.2094C15.6024 17.2259 17.2259 15.6024 19.2094 15.6024ZM23 18.3765C25.5553 18.3765 27.6235 20.4447 27.6235 23C27.6235 25.5553 25.5553 27.6235 23 27.6235C20.4447 27.6235 18.3765 25.5553 18.3765 23C18.3765 20.4447 20.4447 18.3765 23 18.3765ZM23 19.9718C24.6729 19.9718 26.0282 21.3271 26.0282 23C26.0282 24.6729 24.6729 26.0282 23 26.0282C21.3271 26.0282 19.9718 24.6729 19.9718 23C19.9718 21.3271 21.3271 19.9718 23 19.9718ZM27.9412 19.2094C27.3624 19.2094 26.8894 18.7365 26.8894 18.1576C26.8894 17.5788 27.3553 17.1059 27.9412 17.1059C28.52 17.1059 28.9929 17.5788 28.9929 18.1576C28.9929 18.7365 28.52 19.2094 27.9412 19.2094Z" fill="white"/>
</g>
<defs>
<radialGradient id="paint0_radial_1988_863" cx="0" cy="0" r="1" gradientUnits="userSpaceOnUse" gradientTransform="translate(12.2188 49.543) rotate(-90) scale(45.5894 42.4017)">
<stop stop-color="#FFDD55"/>
<stop offset="0.1" stop-color="#FFDD55"/>
<stop offset="0.5" stop-color="#FF543E"/>
<stop offset="1" stop-color="#C837AB"/>
</radialGradient>
<radialGradient id="paint1_radial_1988_863" cx="0" cy="0" r="1" gradientUnits="userSpaceOnUse" gradientTransform="translate(12.2188 49.543) rotate(-90) scale(45.5894 42.4017)">
<stop stop-color="#FFDD55"/>
<stop offset="0.1" stop-color="#FFDD55"/>
<stop offset="0.5" stop-color="#FF543E"/>
<stop offset="1" stop-color="#C837AB"/>
</radialGradient>
<radialGradient id="paint2_radial_1988_863" cx="0" cy="0" r="1" gradientUnits="userSpaceOnUse" gradientTransform="translate(-7.70524 3.31376) rotate(78.6806) scale(20.3786 84.0017)">
<stop stop-color="#3771C8"/>
<stop offset="0.128" stop-color="#3771C8"/>
<stop offset="1" stop-color="#6600FF" stop-opacity="0"/>
</radialGradient>
<clipPath id="clip0_1988_863">
<rect width="18" height="18" fill="white" transform="translate(14 14)"/>
</clipPath>
</defs>
</svg>
