<svg width="46" height="46" viewBox="0 0 46 46" fill="none" xmlns="http://www.w3.org/2000/svg">
<circle cx="23" cy="23" r="23" fill="#FF0000"/>
<path d="M31.6229 18.2328C31.4146 17.3601 30.8067 16.6721 30.0356 16.4364C28.6285 16 22.9944 16 22.9944 16C22.9944 16 17.363 16 15.9531 16.4204C15.1961 16.6561 14.5741 17.3601 14.3659 18.2328C14 19.8254 14 23.1316 14 23.1316C14 23.1316 14 26.4538 14.3715 28.0305C14.5797 28.9032 15.1876 29.5912 15.9587 29.8269C17.3827 30.2633 23 30.2633 23 30.2633C23 30.2633 28.6313 30.2633 30.0413 29.8428C30.8124 29.6071 31.4202 28.9191 31.6285 28.0464C32 26.4538 32 23.1476 32 23.1476C32 23.1476 32.0084 19.8254 31.6229 18.2328ZM21.2045 26.1862V20.077L25.8874 23.1316L21.2045 26.1862Z" fill="white"/>
</svg>
