<?xml version="1.0" standalone="no"?>
<!DOCTYPE svg PUBLIC "-//W3C//DTD SVG 1.1//EN" "http://www.w3.org/Graphics/SVG/1.1/DTD/svg11.dtd" >
<svg xmlns="http://www.w3.org/2000/svg" xmlns:xlink="http://www.w3.org/1999/xlink" version="1.1">
<metadata>
Created by FontForge 20170924 at Mon Jun  6 22:26:45 2016
 By www-data
Copyright \(c\) 2015 by Reto Moser. All rights reserved.
</metadata>
<defs>
<font id="GTEestiProDisplay-Bold" horiz-adv-x="600" >
  <font-face 
    font-family="GT Eesti Pro Display"
    font-weight="700"
    font-stretch="normal"
    units-per-em="1000"
    panose-1="0 0 8 0 0 0 0 0 0 0"
    ascent="750"
    descent="-250"
    x-height="462"
    cap-height="700"
    bbox="-453 -252 1202 900"
    underline-thickness="50"
    underline-position="-100"
    stemh="145"
    stemv="155"
    unicode-range="U+0020-FB02"
  />
<missing-glyph horiz-adv-x="770" 
d="M385 -15c-211 0 -365 154 -365 365c0 212 154 365 365 365c212 0 365 -153 365 -365c0 -211 -153 -365 -365 -365zM385 10c197 0 342 146 342 345l-51 65l-70 -30l-68 90l-79 -44l-74 118l-74 -118l-79 44l-68 -90l-70 30l-51 -65c0 -199 145 -345 342 -345zM282 318
c-20 0 -35 15 -35 35s15 35 35 35s35 -15 35 -35s-15 -35 -35 -35zM487 318c-20 0 -35 15 -35 35s15 35 35 35s35 -15 35 -35s-15 -35 -35 -35zM343 255l36 101c1 5 6 7 11 5c4 -1 7 -6 5 -11l-28 -78h34c5 0 9 -4 9 -9c0 -4 -4 -8 -9 -8h-58zM188 171c-40 0 -69 29 -69 69
s29 69 69 69s69 -29 69 -69s-29 -69 -69 -69zM581 171c-40 0 -69 29 -69 69s29 69 69 69s69 -29 69 -69s-29 -69 -69 -69zM385 193c-29 0 -52 -11 -62 -30c-2 -4 -4 -6 -9 -6s-8 4 -8 9c0 23 39 45 79 45s79 -22 79 -45c0 -5 -3 -9 -8 -9c-4 0 -7 2 -9 6
c-10 19 -33 30 -62 30z" />
    <glyph glyph-name="fi" unicode="fi" horiz-adv-x="599" 
d="M92 489c0 153 73 221 222 221h31v-140h-13c-66 0 -89 -18 -89 -86v-22h98v-126h-98v-336h-151v336h-81v126h81v27zM396 699h162v-152h-162v152zM402 0v462h151v-462h-151z" />
    <glyph glyph-name="fl" unicode="fl" horiz-adv-x="599" 
d="M92 489c0 153 73 221 222 221h31v-140h-13c-66 0 -89 -18 -89 -86v-22h98v-126h-98v-336h-151v336h-81v126h81v27zM402 700h151v-700h-151v700z" />
    <glyph glyph-name="f_f" unicode="ff" horiz-adv-x="709" 
d="M92 489c0 153 73 221 222 221h31v-140h-13c-66 0 -89 -18 -89 -86v-22h98v-126h-98v-336h-151v336h-81v126h81v27zM687 570c-66 0 -89 -18 -89 -86v-22h98v-126h-98v-336h-151v336h-81v126h81v27c0 153 73 221 222 221h31v-140h-13z" />
    <glyph glyph-name="f_f_i" unicode="ffi" horiz-adv-x="953" 
d="M92 489c0 153 73 221 222 221h31v-140h-13c-66 0 -89 -18 -89 -86v-22h98v-126h-98v-336h-151v336h-81v126h81v27zM447 489c0 153 73 221 222 221h31v-140h-13c-66 0 -89 -18 -89 -86v-22h98v-126h-98v-336h-151v336h-81v126h81v27zM750 699h162v-152h-162v152zM756 0
v462h151v-462h-151z" />
    <glyph glyph-name="f_f_l" unicode="ffl" horiz-adv-x="954" 
d="M92 489c0 153 73 221 222 221h31v-140h-13c-66 0 -89 -18 -89 -86v-22h98v-126h-98v-336h-151v336h-81v126h81v27zM447 489c0 153 73 221 222 221h31v-140h-13c-66 0 -89 -18 -89 -86v-22h98v-126h-98v-336h-151v336h-81v126h81v27zM756 700h151v-700h-151v700z" />
    <glyph glyph-name=".notdef" horiz-adv-x="770" 
d="M385 -15c-211 0 -365 154 -365 365c0 212 154 365 365 365c212 0 365 -153 365 -365c0 -211 -153 -365 -365 -365zM385 10c197 0 342 146 342 345l-51 65l-70 -30l-68 90l-79 -44l-74 118l-74 -118l-79 44l-68 -90l-70 30l-51 -65c0 -199 145 -345 342 -345zM282 318
c-20 0 -35 15 -35 35s15 35 35 35s35 -15 35 -35s-15 -35 -35 -35zM487 318c-20 0 -35 15 -35 35s15 35 35 35s35 -15 35 -35s-15 -35 -35 -35zM343 255l36 101c1 5 6 7 11 5c4 -1 7 -6 5 -11l-28 -78h34c5 0 9 -4 9 -9c0 -4 -4 -8 -9 -8h-58zM188 171c-40 0 -69 29 -69 69
s29 69 69 69s69 -29 69 -69s-29 -69 -69 -69zM581 171c-40 0 -69 29 -69 69s29 69 69 69s69 -29 69 -69s-29 -69 -69 -69zM385 193c-29 0 -52 -11 -62 -30c-2 -4 -4 -6 -9 -6s-8 4 -8 9c0 23 39 45 79 45s79 -22 79 -45c0 -5 -3 -9 -8 -9c-4 0 -7 2 -9 6
c-10 19 -33 30 -62 30z" />
    <glyph glyph-name="NULL" horiz-adv-x="0" 
 />
    <glyph glyph-name="NULL" horiz-adv-x="0" 
 />
    <glyph glyph-name="CR" horiz-adv-x="348" 
 />
    <glyph glyph-name="space" unicode=" " horiz-adv-x="263" 
 />
    <glyph glyph-name="exclam" unicode="!" horiz-adv-x="327" 
d="M110 229l-33 471h173l-32 -471h-108zM244 161v-161h-160v161h160z" />
    <glyph glyph-name="quotedbl" unicode="&#x22;" horiz-adv-x="354" 
d="M73 462l-23 253h111l-23 -253h-65zM216 462l-23 253h111l-23 -253h-65z" />
    <glyph glyph-name="numbersign" unicode="#" horiz-adv-x="644" 
d="M594 441h-118l-30 -164h107v-68h-119l-38 -209h-73l38 209h-131l-38 -209h-73l38 209h-107v68h119l30 164h-108v68h120l35 191h73l-35 -191h131l35 191h73l-35 -191h106v-68zM373 277l30 164h-131l-30 -164h131z" />
    <glyph glyph-name="dollar" unicode="$" horiz-adv-x="561" 
d="M531 195c0 -126 -90 -204 -229 -210v-62h-28v62c-155 4 -244 97 -244 229h155c4 -62 35 -89 89 -94v159c-93 37 -212 77 -212 225c0 118 88 182 212 186v72h28v-72c128 -6 219 -75 219 -219h-154c-1 53 -25 76 -65 81v-127c94 -37 229 -75 229 -230zM211 501
c0 -30 26 -49 63 -65v117c-42 -2 -63 -20 -63 -52zM302 120c55 4 79 29 79 64c0 41 -33 63 -79 83v-147z" />
    <glyph glyph-name="percent" unicode="%" horiz-adv-x="793" 
d="M215 690c94 0 164 -64 164 -165c0 -100 -70 -164 -164 -164c-95 0 -165 64 -165 164c0 101 70 165 165 165zM157 0l396 675h78l-396 -675h-78zM215 619c-52 0 -90 -36 -90 -94c0 -57 38 -94 90 -94c51 0 89 37 89 94c0 58 -38 94 -89 94zM579 324c94 0 164 -64 164 -164
c0 -101 -70 -165 -164 -165s-165 64 -165 165c0 100 71 164 165 164zM579 254c-51 0 -89 -37 -89 -94c0 -58 38 -94 89 -94s89 36 89 94c0 57 -38 94 -89 94z" />
    <glyph glyph-name="ampersand" unicode="&#x26;" horiz-adv-x="729" 
d="M703 309c-37 -63 -73 -120 -112 -169l104 -140h-178l-30 41c-53 -36 -112 -56 -186 -56c-150 0 -265 78 -265 243c0 101 54 184 154 215c-19 35 -27 69 -27 100c0 89 60 147 183 147c57 0 117 -13 167 -29l-39 -131c-41 13 -78 23 -107 23c-28 0 -43 -10 -43 -34
c0 -15 8 -30 21 -48l155 -208c25 35 51 76 76 121zM298 134c36 0 68 10 98 28l-125 167c-48 -12 -81 -47 -81 -96c0 -63 44 -99 108 -99z" />
    <glyph glyph-name="quotesingle" unicode="'" horiz-adv-x="221" 
d="M171 715l-23 -253h-75l-23 253h121z" />
    <glyph glyph-name="parenleft" unicode="(" horiz-adv-x="334" 
d="M203 787l106 -64c-65 -100 -133 -226 -133 -418c0 -201 70 -351 133 -456l-107 -64c-78 133 -153 286 -153 520c0 224 73 356 154 482z" />
    <glyph glyph-name="parenright" unicode=")" horiz-adv-x="334" 
d="M131 -215l-107 64c64 105 133 255 133 456c0 192 -67 318 -133 418l107 64c80 -126 153 -258 153 -482c0 -234 -75 -387 -153 -520z" />
    <glyph glyph-name="asterisk" unicode="*" horiz-adv-x="435" 
d="M405 542l-123 -28l83 -94l-83 -61l-64 109l-65 -110l-83 62l84 94l-124 28l32 97l116 -50l-12 126h103l-12 -126l116 50z" />
    <glyph glyph-name="plus" unicode="+" 
d="M334 541v-212h211v-63h-211v-212h-68v212h-211v63h211v212h68z" />
    <glyph glyph-name="comma" unicode="," horiz-adv-x="243" 
d="M201 161v-161l-91 -164h-64l57 164h-62v161h160z" />
    <glyph glyph-name="hyphen" unicode="-" horiz-adv-x="421" 
d="M372 333v-135h-322v135h322z" />
    <glyph glyph-name="period" unicode="." horiz-adv-x="243" 
d="M201 161v-161h-160v161h160z" />
    <glyph glyph-name="slash" unicode="/" horiz-adv-x="638" 
d="M502 791l106 -57l-472 -859l-106 58z" />
    <glyph glyph-name="zero" unicode="0" horiz-adv-x="621" 
d="M310 690c179 0 279 -127 279 -352s-101 -353 -279 -353c-177 0 -279 128 -279 353s101 352 279 352zM310 547c-77 0 -122 -76 -122 -209s45 -210 122 -210c78 0 123 77 123 210s-45 209 -123 209z" />
    <glyph glyph-name="one" unicode="1" horiz-adv-x="339" 
d="M239 675v-675h-153v530h-38v145h191z" />
    <glyph glyph-name="two" unicode="2" horiz-adv-x="534" 
d="M37 0v119l227 225c62 61 84 97 84 136c0 45 -27 71 -77 71c-58 0 -88 -31 -88 -89h-153c0 144 91 228 245 228c144 0 230 -75 230 -199c0 -77 -33 -137 -121 -220l-146 -139l269 2v-134h-470z" />
    <glyph glyph-name="three" unicode="3" horiz-adv-x="544" 
d="M264 690c150 0 233 -64 233 -178c0 -78 -44 -134 -120 -151v-2c91 -14 141 -72 141 -166c0 -131 -92 -208 -250 -208c-165 0 -256 78 -256 221h158c4 -54 38 -82 99 -82s92 29 92 85c0 60 -36 81 -135 81h-23v114h23c74 0 107 24 107 79c0 44 -27 68 -75 68
c-49 0 -79 -25 -80 -67h-155c1 131 88 206 241 206z" />
    <glyph glyph-name="four" unicode="4" horiz-adv-x="581" 
d="M551 244v-131h-61v-113h-142v113h-333v115l318 447h157v-431h61zM169 244h179v247h-4z" />
    <glyph glyph-name="five" unicode="5" horiz-adv-x="547" 
d="M302 447c133 0 220 -87 220 -221c0 -150 -102 -241 -268 -241c-93 0 -173 29 -238 85l89 121c44 -44 95 -67 148 -67c69 0 111 41 111 107c0 61 -36 99 -97 99c-39 0 -69 -17 -90 -50h-119l35 395h362v-134h-255l-13 -127h3c27 21 66 33 112 33z" />
    <glyph glyph-name="six" unicode="6" horiz-adv-x="572" 
d="M292 -15c-167 0 -271 100 -271 260c0 92 38 180 118 275l132 159h182l-236 -268l3 -2c39 35 69 47 115 47c130 0 217 -91 217 -226c0 -144 -107 -245 -260 -245zM287 124c64 0 109 43 109 104c0 62 -44 104 -109 104s-109 -43 -109 -104s45 -104 109 -104z" />
    <glyph glyph-name="seven" unicode="7" horiz-adv-x="489" 
d="M473 675v-135l-263 -540h-160l265 534h-291v141h449z" />
    <glyph glyph-name="eight" unicode="8" horiz-adv-x="586" 
d="M293 -15c-162 0 -258 74 -258 199c0 88 50 154 129 172v3c-68 19 -109 76 -109 149c0 113 91 182 238 182s239 -69 239 -182c0 -73 -42 -130 -110 -149v-3c80 -18 129 -84 129 -172c0 -125 -96 -199 -258 -199zM293 418c46 0 78 29 78 71c0 43 -31 72 -78 72
s-78 -29 -78 -72c0 -42 32 -71 78 -71zM293 120c58 0 96 38 96 92c0 55 -40 93 -96 93s-96 -38 -96 -93c0 -54 39 -92 96 -92z" />
    <glyph glyph-name="nine" unicode="9" horiz-adv-x="556" 
d="M100 0l235 251l-2 2c-36 -23 -71 -35 -109 -35c-118 0 -213 103 -213 231c0 142 109 241 264 241c163 0 265 -100 265 -257c0 -103 -44 -198 -143 -307l-114 -126h-183zM276 341c64 0 109 43 109 104s-46 105 -109 105c-62 0 -108 -44 -108 -105s45 -104 108 -104z" />
    <glyph glyph-name="colon" unicode=":" horiz-adv-x="243" 
d="M201 462v-161h-160v161h160zM201 161v-161h-160v161h160z" />
    <glyph glyph-name="semicolon" unicode=";" horiz-adv-x="243" 
d="M202 462v-161h-160v161h160zM201 161v-161l-91 -164h-64l57 164h-62v161h160z" />
    <glyph glyph-name="less" unicode="&#x3c;" 
d="M534 543v-76l-391 -168l391 -167v-76l-468 208v71z" />
    <glyph glyph-name="equal" unicode="=" 
d="M553 440v-66h-506v66h506zM553 227v-66h-506v66h506z" />
    <glyph glyph-name="greater" unicode="&#x3e;" 
d="M66 543l468 -208v-71l-468 -208v76l391 167l-391 168v76z" />
    <glyph glyph-name="question" unicode="?" horiz-adv-x="491" 
d="M249 715c142 0 206 -86 206 -189c0 -70 -34 -112 -68 -149c-39 -39 -77 -73 -77 -134v-14h-149v29c0 86 46 134 86 174c31 30 57 54 57 84c0 35 -20 56 -60 56c-48 0 -73 -31 -73 -72h-146c0 130 75 215 224 215zM315 161v-161h-160v161h160z" />
    <glyph glyph-name="at" unicode="@" horiz-adv-x="934" 
d="M478 690c249 0 415 -149 415 -380c0 -132 -56 -264 -192 -264c-65 0 -107 35 -126 82h-2c-27 -45 -69 -77 -138 -77c-104 0 -192 75 -192 217c0 144 90 219 193 219c63 0 102 -29 127 -70h2v55h115v-278c0 -38 19 -50 37 -50c33 0 74 42 74 149c0 213 -142 302 -310 302
c-191 0 -339 -110 -339 -332c0 -219 164 -318 339 -318c62 0 121 14 170 32l33 -90c-61 -22 -133 -37 -205 -37c-211 0 -438 126 -438 412c0 271 178 428 437 428zM469 365c-52 0 -93 -37 -93 -96c0 -58 41 -96 93 -96s93 38 93 96c0 59 -41 96 -93 96z" />
    <glyph glyph-name="A" unicode="A" horiz-adv-x="716" 
d="M543 0l-50 142h-270l-49 -142h-174l276 700h164l276 -700h-173zM272 280h173l-87 247z" />
    <glyph glyph-name="B" unicode="B" horiz-adv-x="625" 
d="M456 369c79 -13 143 -56 143 -172c0 -144 -112 -197 -238 -197h-300v700h290c123 0 216 -52 216 -174c0 -81 -38 -131 -111 -155v-2zM333 559h-117v-137h116c47 0 79 26 79 70c0 43 -33 67 -78 67zM338 141c59 0 100 25 100 76s-38 76 -101 76h-121v-152h122z" />
    <glyph glyph-name="C" unicode="C" horiz-adv-x="667" 
d="M405 -15c-221 0 -384 142 -384 365s163 365 384 365c109 0 190 -35 251 -78l-84 -136c-45 30 -99 54 -167 54c-122 0 -213 -78 -213 -205s91 -205 213 -205c68 0 122 24 167 54l84 -136c-61 -43 -142 -78 -251 -78z" />
    <glyph glyph-name="D" unicode="D" horiz-adv-x="683" 
d="M284 700c221 0 378 -132 378 -350s-157 -350 -378 -350h-223v700h223zM297 559h-81v-418h81c113 0 198 74 198 209s-85 209 -198 209z" />
    <glyph glyph-name="E" unicode="E" horiz-adv-x="530" 
d="M216 141h283v-141h-438v700h433v-141h-278v-114h250v-141h-250v-163z" />
    <glyph glyph-name="F" unicode="F" horiz-adv-x="515" 
d="M508 559h-292v-147h253v-141h-253v-271h-155v700h447v-141z" />
    <glyph glyph-name="G" unicode="G" horiz-adv-x="751" 
d="M734 405c1 -12 1 -24 1 -36c0 -220 -108 -384 -343 -384c-216 0 -371 139 -371 367c0 217 144 363 382 363c113 0 201 -34 276 -92l-101 -133c-54 41 -110 65 -179 65c-133 0 -207 -88 -207 -204c0 -119 76 -206 211 -206c113 0 160 64 168 121h-180v139h343z" />
    <glyph glyph-name="H" unicode="H" horiz-adv-x="723" 
d="M507 700h155v-700h-155v294h-291v-294h-155v700h155v-260h291v260z" />
    <glyph glyph-name="I" unicode="I" horiz-adv-x="277" 
d="M216 700v-700h-155v700h155z" />
    <glyph glyph-name="J" unicode="J" horiz-adv-x="301" 
d="M240 700v-523c0 -124 -58 -180 -180 -180h-50v145h34c25 0 41 16 41 49v509h155z" />
    <glyph glyph-name="K" unicode="K" horiz-adv-x="726" 
d="M726 0h-221l-289 336v-336h-155v700h155v-310l249 310h211l-289 -328z" />
    <glyph glyph-name="L" unicode="L" horiz-adv-x="496" 
d="M216 700v-554h279v-146h-434v700h155z" />
    <glyph glyph-name="M" unicode="M" horiz-adv-x="887" 
d="M709 700l178 -700h-161l-95 399h-2l-130 -299h-111l-129 299h-2l-95 -399h-162l179 700h117l147 -357h2l147 357h117z" />
    <glyph glyph-name="N" unicode="N" horiz-adv-x="744" 
d="M683 700v-700h-132l-334 431h-1v-431h-155v700h131l335 -433h1v433h155z" />
    <glyph glyph-name="O" unicode="O" horiz-adv-x="780" 
d="M390 715c208 0 369 -146 369 -365s-161 -365 -369 -365s-369 146 -369 365s161 365 369 365zM390 555c-112 0 -198 -79 -198 -205s86 -205 198 -205s198 79 198 205s-86 205 -198 205z" />
    <glyph glyph-name="P" unicode="P" horiz-adv-x="575" 
d="M311 700c177 0 258 -98 258 -224c0 -137 -81 -236 -258 -236h-95v-240h-155v700h250zM298 380c64 0 106 31 106 93c0 61 -42 86 -106 86h-82v-179h82z" />
    <glyph glyph-name="Q" unicode="Q" horiz-adv-x="794" 
d="M801 0h-178l-36 36c-57 -33 -124 -51 -197 -51c-208 0 -369 146 -369 365s161 365 369 365s369 -146 369 -365c0 -92 -29 -171 -77 -232zM390 145c26 0 52 4 74 12l-154 154h177l73 -73c18 31 28 69 28 112c0 126 -86 205 -198 205s-198 -79 -198 -205s86 -205 198 -205z
" />
    <glyph glyph-name="R" unicode="R" horiz-adv-x="617" 
d="M422 0l-175 265h-31v-265h-155v700h280c157 0 238 -97 238 -219c0 -102 -55 -183 -163 -208l200 -273h-194zM216 559v-164h102c62 0 97 24 97 82c0 52 -35 82 -97 82h-102z" />
    <glyph glyph-name="S" unicode="S" horiz-adv-x="544" 
d="M280 715c67 0 144 -15 227 -51l-65 -137c-64 30 -112 44 -158 44c-49 0 -64 -17 -64 -41c0 -21 13 -35 53 -59l116 -73c84 -51 133 -107 133 -205c0 -135 -92 -208 -255 -208c-94 0 -182 24 -261 70l70 139c67 -41 133 -64 197 -64c56 0 86 19 86 56c0 32 -27 51 -66 75
l-107 67c-91 54 -129 121 -129 200c0 114 75 187 223 187z" />
    <glyph glyph-name="T" unicode="T" horiz-adv-x="534" 
d="M529 700v-141h-184v-559h-155v559h-185v141h524z" />
    <glyph glyph-name="U" unicode="U" horiz-adv-x="706" 
d="M650 700v-417c0 -181 -100 -296 -297 -296c-198 0 -298 115 -298 296v417h165v-403c0 -88 45 -150 133 -150s133 62 133 150v403h164z" />
    <glyph glyph-name="V" unicode="V" horiz-adv-x="696" 
d="M696 700l-265 -700h-166l-265 700h185l162 -500h2l162 500h185z" />
    <glyph glyph-name="W" unicode="W" horiz-adv-x="1066" 
d="M1060 700l-235 -700h-137l-154 454h-2l-154 -454h-137l-235 700h181l125 -450h2l151 450h136l151 -450h2l125 450h181z" />
    <glyph glyph-name="X" unicode="X" horiz-adv-x="722" 
d="M721 0h-198l-162 244l-162 -244h-198l260 369l-236 331h197l139 -207l139 207h197l-236 -331z" />
    <glyph glyph-name="Y" unicode="Y" horiz-adv-x="659" 
d="M659 700l-252 -448v-252h-155v252l-252 448h186l142 -293h2l143 293h186z" />
    <glyph glyph-name="Z" unicode="Z" horiz-adv-x="568" 
d="M212 145h336v-145h-528v145l329 410h-303v145h492v-145z" />
    <glyph glyph-name="bracketleft" unicode="[" horiz-adv-x="341" 
d="M331 764v-108h-130v-763h130v-108h-257v979h257z" />
    <glyph glyph-name="backslash" unicode="\" horiz-adv-x="638" 
d="M502 -125l-472 859l106 57l472 -858z" />
    <glyph glyph-name="bracketright" unicode="]" horiz-adv-x="341" 
d="M10 -215v108h130v763h-130v108h257v-979h-257z" />
    <glyph glyph-name="asciicircum" unicode="^" 
d="M372 715l144 -322h-105l-111 254l-111 -254h-105l144 322h144z" />
    <glyph glyph-name="underscore" unicode="_" horiz-adv-x="533" 
d="M523 -15v-112h-513v112h513z" />
    <glyph glyph-name="grave" unicode="`" horiz-adv-x="380" 
d="M215 707l115 -154h-118l-162 154h165z" />
    <glyph glyph-name="a" unicode="a" horiz-adv-x="586" 
d="M240 -15c-120 0 -219 84 -219 246s99 246 219 246c75 0 122 -31 151 -78h2v63h151v-462h-151v63h-2c-29 -47 -76 -78 -151 -78zM282 123c61 0 107 42 107 108s-46 108 -107 108c-60 0 -106 -42 -106 -108s46 -108 106 -108z" />
    <glyph glyph-name="b" unicode="b" horiz-adv-x="591" 
d="M350 -15c-74 0 -121 31 -150 78h-2v-63h-151v700h151v-301h2c29 47 76 78 150 78c120 0 220 -84 220 -246s-100 -246 -220 -246zM308 123c61 0 107 42 107 108s-46 108 -107 108c-60 0 -106 -42 -106 -108s46 -108 106 -108z" />
    <glyph glyph-name="c" unicode="c" horiz-adv-x="451" 
d="M278 -15c-148 0 -257 97 -257 246s109 246 257 246c65 0 117 -16 167 -45l-62 -121c-28 18 -57 28 -98 28c-60 0 -113 -39 -113 -108s53 -108 113 -108c41 0 70 10 98 28l62 -121c-50 -29 -102 -45 -167 -45z" />
    <glyph glyph-name="d" unicode="d" horiz-adv-x="591" 
d="M240 -15c-120 0 -219 84 -219 246s99 246 219 246c75 0 122 -31 151 -78h2v301h151v-700h-151v63h-2c-29 -47 -76 -78 -151 -78zM282 123c61 0 107 42 107 108s-46 108 -107 108c-60 0 -106 -42 -106 -108s46 -108 106 -108z" />
    <glyph glyph-name="e" unicode="e" horiz-adv-x="511" 
d="M265 476c139 0 229 -80 229 -247v-34h-331c10 -58 56 -84 118 -84c56 0 105 23 134 42l55 -114c-49 -30 -112 -54 -191 -54c-155 0 -258 97 -258 244c0 156 102 247 244 247zM260 369c-51 0 -89 -25 -96 -85h184c-2 54 -39 85 -88 85z" />
    <glyph glyph-name="f" unicode="f" horiz-adv-x="355" 
d="M332 570c-66 0 -89 -18 -89 -86v-22h98v-126h-98v-336h-151v336h-81v126h81v27c0 153 73 221 222 221h31v-140h-13z" />
    <glyph glyph-name="g" unicode="g" horiz-adv-x="586" 
d="M295 -215c-48 0 -120 7 -198 23l25 141c76 -18 127 -23 162 -23c76 0 109 25 109 106v30h-2c-27 -36 -74 -70 -152 -70c-121 0 -218 80 -218 240c0 161 99 245 219 245c75 0 122 -31 151 -78h2v63h151v-462c-1 -145 -89 -215 -249 -215zM282 123c61 0 107 42 107 108
s-46 108 -107 108c-60 0 -106 -42 -106 -108s46 -108 106 -108z" />
    <glyph glyph-name="h" unicode="h" horiz-adv-x="563" 
d="M198 700v-299h2c32 49 82 76 148 76c102 0 174 -59 174 -191v-286h-151v244c0 69 -29 100 -84 100c-51 0 -89 -30 -89 -112v-232h-151v700h151z" />
    <glyph glyph-name="i" unicode="i" horiz-adv-x="244" 
d="M203 699v-152h-162v152h162zM47 0v462h151v-462h-151z" />
    <glyph glyph-name="j" unicode="j" horiz-adv-x="244" 
d="M203 699v-152h-162v152h162zM-39 -63h25c42 0 61 21 61 66v459h151v-458c0 -139 -61 -207 -187 -207h-50v140z" />
    <glyph glyph-name="k" unicode="k" horiz-adv-x="555" 
d="M550 0h-195l-157 212v-212h-151v700h151v-420l135 182h187l-183 -210z" />
    <glyph glyph-name="l" unicode="l" horiz-adv-x="244" 
d="M198 700v-700h-151v700h151z" />
    <glyph glyph-name="m" unicode="m" horiz-adv-x="848" 
d="M46 0v462h148v-68h2c26 51 76 83 144 83c71 0 121 -34 145 -90h2c32 57 87 90 155 90c96 0 165 -64 165 -176v-301h-151v251c0 58 -22 93 -75 93c-46 0 -82 -28 -82 -115v-229h-145v251c0 58 -22 93 -75 93c-46 0 -82 -28 -82 -115v-229h-151z" />
    <glyph glyph-name="n" unicode="n" horiz-adv-x="563" 
d="M347 477c102 0 174 -59 174 -191v-286h-150v244c0 69 -29 100 -85 100c-51 0 -89 -30 -89 -112v-232h-151v462h148v-70h2c32 54 86 85 151 85z" />
    <glyph glyph-name="o" unicode="o" horiz-adv-x="561" 
d="M280 477c150 0 260 -98 260 -246s-110 -246 -260 -246c-149 0 -259 98 -259 246s110 246 259 246zM280 339c-60 0 -108 -42 -108 -108s48 -108 108 -108c61 0 108 42 108 108s-47 108 -108 108z" />
    <glyph glyph-name="p" unicode="p" horiz-adv-x="590" 
d="M46 -200v662h151v-63h2c29 47 77 78 151 78c120 0 219 -84 219 -246s-99 -246 -219 -246c-74 0 -122 31 -151 78h-2v-263h-151zM308 123c60 0 106 42 106 108s-46 108 -106 108c-61 0 -107 -42 -107 -108s46 -108 107 -108z" />
    <glyph glyph-name="q" unicode="q" horiz-adv-x="586" 
d="M393 -200v263h-2c-29 -47 -76 -78 -151 -78c-120 0 -219 84 -219 246s99 246 219 246c75 0 122 -31 151 -78h2v63h151v-662h-151zM282 123c61 0 107 42 107 108s-46 108 -107 108c-60 0 -106 -42 -106 -108s46 -108 106 -108z" />
    <glyph glyph-name="r" unicode="r" horiz-adv-x="362" 
d="M352 476v-151h-13c-101 0 -142 -37 -142 -155v-170h-151v462h148v-94h2c27 76 80 108 153 108h3z" />
    <glyph glyph-name="s" unicode="s" horiz-adv-x="434" 
d="M219 -15c-61 0 -139 13 -209 48l57 124c50 -29 107 -53 164 -53c27 0 42 6 42 21c0 18 -18 21 -32 27l-81 32c-76 29 -113 74 -113 143c0 95 65 150 198 150c52 0 108 -9 167 -28l-42 -122c-49 20 -100 34 -137 34c-30 0 -37 -8 -37 -20c0 -14 12 -20 35 -29l80 -30
c70 -26 112 -63 112 -141c0 -110 -81 -156 -204 -156z" />
    <glyph glyph-name="t" unicode="t" horiz-adv-x="362" 
d="M346 336h-95v-139c0 -43 11 -57 50 -57h17v-140h-63c-94 0 -155 45 -155 156v180h-90v126h90v185h151v-185h95v-126z" />
    <glyph glyph-name="u" unicode="u" horiz-adv-x="557" 
d="M216 -15c-98 0 -175 60 -175 192v285h156v-252c0 -67 31 -93 76 -93c53 0 87 37 87 122v223h151v-462h-148v72h-2c-33 -53 -77 -87 -145 -87z" />
    <glyph glyph-name="v" unicode="v" horiz-adv-x="545" 
d="M373 462h167l-192 -462h-151l-192 462h167l100 -293z" />
    <glyph glyph-name="w" unicode="w" horiz-adv-x="808" 
d="M654 462h149l-168 -462h-129l-102 270l-101 -270h-129l-169 462h150l86 -271l94 271h139l94 -271z" />
    <glyph glyph-name="x" unicode="x" horiz-adv-x="563" 
d="M384 0l-102 144l-103 -144h-174l185 242l-168 220h175l85 -122l84 122h175l-168 -220l185 -242h-174z" />
    <glyph glyph-name="y" unicode="y" horiz-adv-x="560" 
d="M402 462h153l-307 -662h-152l116 244l-207 418h174l108 -255z" />
    <glyph glyph-name="z" unicode="z" horiz-adv-x="451" 
d="M199 127h237v-127h-420v114l217 221h-201v127h389v-111z" />
    <glyph glyph-name="braceleft" unicode="{" horiz-adv-x="416" 
d="M406 763v-124h-30c-52 0 -90 -15 -90 -87v-114c0 -88 -37 -142 -123 -162v-2c86 -20 123 -74 123 -162v-116c0 -71 37 -87 90 -87h30v-124h-39c-104 0 -204 54 -204 205v118c0 67 -50 98 -128 102v130c78 4 128 35 128 102v116c0 151 100 205 204 205h39z" />
    <glyph glyph-name="bar" unicode="|" horiz-adv-x="328" 
d="M218 727v-942h-108v942h108z" />
    <glyph glyph-name="braceright" unicode="}" horiz-adv-x="416" 
d="M10 -215v124h31c52 0 90 16 90 87v116c0 88 36 142 122 162v2c-86 20 -122 74 -122 162v114c0 72 -39 87 -91 87h-30v124h40c104 0 203 -54 203 -205v-116c0 -67 50 -98 128 -102v-130c-78 -4 -128 -35 -128 -102v-118c0 -151 -99 -205 -203 -205h-40z" />
    <glyph glyph-name="asciitilde" unicode="~" 
d="M197 403c97 0 143 -61 212 -61c48 0 76 24 114 53l64 -99c-61 -50 -118 -79 -182 -79c-95 0 -140 60 -212 60c-50 0 -78 -24 -117 -53l-63 98c62 52 118 81 184 81z" />
    <glyph glyph-name="exclamdown" unicode="&#xa1;" horiz-adv-x="327" 
d="M84 339v161h160v-161h-160zM77 -200l33 471h108l32 -471h-173z" />
    <glyph glyph-name="cent" unicode="&#xa2;" horiz-adv-x="441" 
d="M411 158v-143c-29 -14 -71 -27 -124 -30v-49h-28v49c-140 6 -240 102 -240 246s101 240 240 246v55h28v-55c52 -3 94 -16 124 -29v-144c-55 23 -86 30 -124 31v-208c38 1 69 9 124 31zM175 231c0 -55 35 -93 84 -102v204c-49 -9 -84 -47 -84 -102z" />
    <glyph glyph-name="sterling" unicode="&#xa3;" horiz-adv-x="558" 
d="M218 137l2 -5h286v-132h-446v111c64 35 112 82 112 136c0 36 -21 65 -44 98h-88v30h68c-19 31 -35 67 -35 115c0 125 84 200 239 200c132 0 230 -64 230 -220h-155c-3 48 -30 79 -81 79c-47 0 -76 -27 -76 -67c0 -36 25 -71 49 -107h155v-30h-135c17 -27 30 -55 30 -85
c0 -59 -50 -95 -111 -123z" />
    <glyph glyph-name="currency" unicode="&#xa4;" 
d="M538 323c0 -62 -22 -117 -60 -158l55 -55l-20 -20l-56 56c-41 -35 -95 -55 -157 -55s-116 20 -158 55l-56 -56l-19 20l55 55c-38 41 -60 96 -60 158c0 63 23 118 61 158l-56 56l20 19l56 -56c41 35 95 55 157 55s116 -20 157 -55l56 56l20 -20l-55 -55
c38 -41 60 -95 60 -158zM300 221c60 0 102 44 102 102c0 59 -42 102 -102 102s-102 -43 -102 -102c0 -58 42 -102 102 -102z" />
    <glyph glyph-name="yen" unicode="&#xa5;" horiz-adv-x="652" 
d="M632 675l-186 -356h117v-30h-133l-29 -56h162v-30h-164v-203h-146v203h-164v30h162l-29 56h-133v30h117l-186 356h181l125 -284l125 284h181z" />
    <glyph glyph-name="brokenbar" unicode="&#xa6;" horiz-adv-x="328" 
d="M218 727v-388h-108v388h108zM218 181v-396h-108v396h108z" />
    <glyph glyph-name="section" unicode="&#xa7;" horiz-adv-x="584" 
d="M534 270c0 -70 -36 -125 -88 -162c22 -26 36 -57 36 -98c0 -103 -73 -169 -202 -169c-72 0 -135 19 -190 57l68 113c40 -26 91 -43 134 -43c37 0 54 15 54 36c0 78 -296 83 -296 282c0 70 35 125 87 162c-22 26 -36 58 -36 98c0 103 73 169 203 169c71 0 135 -19 189 -53
l-68 -117c-40 26 -91 43 -134 43c-36 0 -53 -15 -53 -36c0 -78 296 -83 296 -282zM187 296c0 -52 76 -77 150 -113c30 18 59 45 59 78c0 51 -75 76 -150 112c-30 -18 -59 -45 -59 -77z" />
    <glyph glyph-name="dieresis" unicode="&#xa8;" horiz-adv-x="412" 
d="M174 690v-135h-124v135h124zM362 690v-135h-124v135h124z" />
    <glyph glyph-name="copyright" unicode="&#xa9;" horiz-adv-x="828" 
d="M414 -15c-206 0 -364 149 -364 365s158 365 364 365s364 -149 364 -365s-158 -365 -364 -365zM414 59c161 0 286 116 286 291s-125 291 -286 291s-286 -116 -286 -291s125 -291 286 -291zM422 127c-136 0 -234 97 -234 227s98 227 234 227c64 0 111 -20 152 -48l-50 -83
c-26 16 -59 33 -104 33c-75 0 -126 -52 -126 -129s51 -129 126 -129c45 0 78 17 104 34l50 -84c-41 -28 -88 -48 -152 -48z" />
    <glyph glyph-name="ordfeminine" unicode="&#xaa;" horiz-adv-x="444" 
d="M190 338c-76 0 -145 57 -145 163s69 163 145 163c47 0 79 -21 97 -54h2v44h109v-306h-109v44h-2c-18 -33 -50 -54 -97 -54zM224 439c37 0 65 24 65 62s-28 62 -65 62c-38 0 -65 -24 -65 -62s27 -62 65 -62z" />
    <glyph glyph-name="guillemotleft" unicode="&#xab;" horiz-adv-x="578" 
d="M341 413l-164 -175l164 -176h-162l-164 176l164 175h162zM568 413l-163 -175l163 -176h-162l-163 176l163 175h162z" />
    <glyph glyph-name="logicalnot" unicode="&#xac;" 
d="M71 432h458v-66v-199h-68v199h-390v66z" />
    <glyph glyph-name="uni00AD" unicode="&#xad;" horiz-adv-x="421" 
d="M372 333v-135h-322v135h322z" />
    <glyph glyph-name="registered" unicode="&#xae;" horiz-adv-x="560" 
d="M280 715c138 0 239 -100 239 -241s-101 -241 -239 -241s-239 100 -239 241s101 241 239 241zM280 291c106 0 178 76 178 183s-72 183 -178 183s-178 -76 -178 -183s72 -183 178 -183zM385 532c0 -39 -20 -68 -56 -79l62 -101h-62l-54 96h-24v-96h-53v260h98
c56 0 89 -33 89 -80zM251 562v-64h41c23 0 36 12 36 32s-13 32 -36 32h-41z" />
    <glyph glyph-name="macron" unicode="&#xaf;" horiz-adv-x="425" 
d="M375 673v-99h-325v99h325z" />
    <glyph glyph-name="degree" unicode="&#xb0;" horiz-adv-x="370" 
d="M185 690c84 0 145 -59 145 -145c0 -87 -61 -145 -145 -145c-83 0 -145 58 -145 145c0 86 62 145 145 145zM185 624c-44 0 -78 -32 -78 -79c0 -48 34 -79 78 -79s78 31 78 79c0 47 -34 79 -78 79z" />
    <glyph glyph-name="plusminus" unicode="&#xb1;" 
d="M334 519v-128h205v-63h-205v-128h-68v128h-205v63h205v128h68zM539 156v-66h-478v66h478z" />
    <glyph glyph-name="uni00B2" unicode="&#xb2;" horiz-adv-x="413" 
d="M38 348v104l149 130c32 28 57 49 57 76c0 19 -14 32 -40 32c-29 0 -45 -16 -47 -46h-127c2 90 53 159 179 159c106 0 167 -46 167 -136c0 -60 -30 -102 -85 -144l-70 -55h157v-120h-340z" />
    <glyph glyph-name="uni00B3" unicode="&#xb3;" horiz-adv-x="412" 
d="M211 338c-115 0 -182 48 -185 157h122c3 -25 16 -42 55 -42c37 0 56 14 56 39c0 33 -29 40 -84 40v80c46 0 69 14 69 44c0 26 -18 38 -45 38c-30 0 -45 -18 -47 -40h-120c1 85 53 149 174 149c104 0 167 -48 167 -121c0 -53 -33 -89 -83 -99v-2c63 -8 97 -46 97 -106
c0 -77 -55 -137 -176 -137z" />
    <glyph glyph-name="acute" unicode="&#xb4;" horiz-adv-x="380" 
d="M330 707l-162 -154h-118l115 154h165z" />
    <glyph glyph-name="paragraph" unicode="&#xb6;" horiz-adv-x="663" 
d="M613 700v-111h-65v-695h-107v695h-90v-695h-107v416c-110 0 -194 80 -194 199c0 115 88 191 204 191h359z" />
    <glyph glyph-name="periodcentered" unicode="&#xb7;" horiz-adv-x="243" 
d="M201 462v-161h-160v161h160z" />
    <glyph glyph-name="cedilla" unicode="&#xb8;" horiz-adv-x="284" 
d="M177 39l-32 -77c54 -9 89 -22 89 -62c0 -53 -71 -77 -168 -112l-16 37c52 22 81 36 81 53c0 18 -17 24 -56 33l48 128h54z" />
    <glyph glyph-name="uni00B9" unicode="&#xb9;" horiz-adv-x="257" 
d="M68 348v322h-18v123h146v-445h-128z" />
    <glyph glyph-name="ordmasculine" unicode="&#xba;" horiz-adv-x="437" 
d="M219 664c100 0 173 -67 173 -163s-73 -163 -173 -163c-101 0 -174 67 -174 163s73 163 174 163zM219 562c-36 0 -63 -23 -63 -61s27 -61 63 -61c35 0 62 23 62 61s-27 61 -62 61z" />
    <glyph glyph-name="guillemotright" unicode="&#xbb;" horiz-adv-x="578" 
d="M10 413h162l163 -175l-163 -176h-162l163 176zM237 413h162l164 -175l-164 -176h-162l164 176z" />
    <glyph glyph-name="onequarter" unicode="&#xbc;" horiz-adv-x="682" 
d="M72 289v305h-27v81h107v-386h-80zM459 675h78l-396 -675h-78zM657 135v-70h-37v-65h-77v65h-200v65l199 256h78v-251h37zM427 135h116v144h-2z" />
    <glyph glyph-name="onehalf" unicode="&#xbd;" horiz-adv-x="696" 
d="M152 675v-386h-80v305h-27v81h107zM63 0l396 675h78l-396 -675h-78zM536 395c83 0 132 -45 132 -113c0 -49 -25 -86 -66 -125l-82 -79h154v-78h-277l-1 64l138 132c29 29 49 52 49 78c0 28 -19 46 -51 46s-57 -17 -59 -56h-80c1 71 44 131 143 131z" />
    <glyph glyph-name="threequarters" unicode="&#xbe;" horiz-adv-x="801" 
d="M320 396c0 -65 -45 -116 -142 -116c-92 0 -144 45 -148 126h81c2 -31 24 -53 66 -53c37 0 59 17 59 49c0 37 -29 49 -91 49v71c48 -1 78 12 78 47c0 31 -20 44 -53 44c-30 0 -55 -16 -56 -48h-77c2 70 47 119 138 119c84 0 131 -43 131 -100c0 -47 -27 -79 -74 -90v-1
c49 -8 88 -32 88 -97zM578 675h78l-396 -675h-78zM776 135v-70h-37v-65h-77v65h-200v65l199 256h78v-251h37zM546 135h116v144h-2z" />
    <glyph glyph-name="questiondown" unicode="&#xbf;" horiz-adv-x="440" 
d="M151 339v161h160v-161h-160zM217 -215c-141 0 -206 86 -206 189c0 70 34 112 69 149c38 39 77 73 77 134v14h149v-29c0 -86 -47 -134 -87 -174c-30 -30 -57 -54 -57 -84c0 -35 21 -56 61 -56c47 0 72 31 72 72h146c0 -130 -74 -215 -224 -215z" />
    <glyph glyph-name="Agrave" unicode="&#xc0;" horiz-adv-x="716" 
d="M416 743h-108l-172 120h165zM543 0l-50 142h-270l-49 -142h-174l276 700h164l276 -700h-173zM272 280h173l-87 247z" />
    <glyph glyph-name="Aacute" unicode="&#xc1;" horiz-adv-x="716" 
d="M580 863l-171 -120h-109l115 120h165zM543 0l-50 142h-270l-49 -142h-174l276 700h164l276 -700h-173zM272 280h173l-87 247z" />
    <glyph glyph-name="Acircumflex" unicode="&#xc2;" horiz-adv-x="716" 
d="M358 805l-67 -62h-125l120 120h144l120 -120h-125zM543 0l-50 142h-270l-49 -142h-174l276 700h164l276 -700h-173zM272 280h173l-87 247z" />
    <glyph glyph-name="Atilde" unicode="&#xc3;" horiz-adv-x="716" 
d="M263 774c-24 0 -40 -14 -54 -38l-47 15c19 70 49 120 116 120c56 0 139 -36 176 -36c24 0 41 15 55 39l47 -16c-20 -69 -50 -120 -116 -120c-57 0 -139 36 -177 36zM543 0l-50 142h-270l-49 -142h-174l276 700h164l276 -700h-173zM272 280h173l-87 247z" />
    <glyph glyph-name="Adieresis" unicode="&#xc4;" horiz-adv-x="716" 
d="M316 857v-114h-133v114h133zM534 857v-114h-134v114h134zM543 0l-50 142h-270l-49 -142h-174l276 700h164l276 -700h-173zM272 280h173l-87 247z" />
    <glyph glyph-name="Aring" unicode="&#xc5;" horiz-adv-x="716" 
d="M543 0l-50 142h-270l-49 -142h-174l267 675c-19 21 -30 48 -30 80c0 68 50 117 121 117c70 0 120 -49 120 -117c0 -31 -11 -59 -29 -79l267 -676h-173zM358 811c-35 0 -57 -25 -57 -56s22 -55 57 -55c34 0 57 24 57 55s-23 56 -57 56zM272 280h173l-87 247z" />
    <glyph glyph-name="AE" unicode="&#xc6;" horiz-adv-x="999" 
d="M705 141h262v-141h-326h-86v142h-267l-86 -142h-202l463 700h242h258v-141h-258v-114h231v-141h-231v-163zM372 280h183v302z" />
    <glyph glyph-name="Ccedilla" unicode="&#xc7;" horiz-adv-x="667" 
d="M656 63c-59 -42 -135 -75 -238 -78l-10 -23c54 -9 89 -22 89 -62c0 -53 -71 -77 -168 -112l-16 37c52 22 81 36 81 53c0 18 -17 24 -56 33l28 75c-200 16 -345 154 -345 364c0 223 163 365 384 365c109 0 190 -35 251 -78l-84 -136c-45 30 -99 54 -167 54
c-122 0 -213 -78 -213 -205s91 -205 213 -205c68 0 122 24 167 54z" />
    <glyph glyph-name="Egrave" unicode="&#xc8;" horiz-adv-x="530" 
d="M350 743h-108l-172 120h165zM216 141h283v-141h-438v700h433v-141h-278v-114h250v-141h-250v-163z" />
    <glyph glyph-name="Eacute" unicode="&#xc9;" horiz-adv-x="530" 
d="M514 863l-171 -120h-109l115 120h165zM216 304v-163h283v-141h-438v700h433v-141h-278v-114h250v-141h-250z" />
    <glyph glyph-name="Ecircumflex" unicode="&#xca;" horiz-adv-x="530" 
d="M291 805l-67 -62h-125l120 120h144l120 -120h-125zM216 141h283v-141h-438v700h433v-141h-278v-114h250v-141h-250v-163z" />
    <glyph glyph-name="Edieresis" unicode="&#xcb;" horiz-adv-x="530" 
d="M250 857v-114h-133v114h133zM468 857v-114h-134v114h134zM216 141h283v-141h-438v700h433v-141h-278v-114h250v-141h-250v-163z" />
    <glyph glyph-name="Igrave" unicode="&#xcc;" horiz-adv-x="277" 
d="M82 863l115 -120h-108l-172 120h165zM216 700v-700h-155v700h155z" />
    <glyph glyph-name="Iacute" unicode="&#xcd;" horiz-adv-x="277" 
d="M360 863l-171 -120h-109l115 120h165zM216 700v-700h-155v700h155z" />
    <glyph glyph-name="Icircumflex" unicode="&#xce;" horiz-adv-x="277" 
d="M210 863l120 -120h-125l-67 62l-67 -62h-125l120 120h144zM216 700v-700h-155v700h155z" />
    <glyph glyph-name="Idieresis" unicode="&#xcf;" horiz-adv-x="277" 
d="M96 857v-114h-133v114h133zM314 857v-114h-134v114h134zM216 700v-700h-155v700h155z" />
    <glyph glyph-name="Eth" unicode="&#xd0;" horiz-adv-x="684" 
d="M285 700c221 0 378 -132 378 -350s-157 -350 -378 -350h-223v293h-71v126h71v281h223zM298 141c113 0 198 74 198 209s-85 209 -198 209h-81v-140h131v-126h-131v-152h81z" />
    <glyph glyph-name="Ntilde" unicode="&#xd1;" horiz-adv-x="744" 
d="M453 738c-57 0 -139 36 -177 36c-24 0 -40 -14 -54 -38l-47 15c19 70 49 120 116 120c56 0 139 -36 176 -36c24 0 41 15 55 39l47 -16c-20 -69 -50 -120 -116 -120zM683 700v-700h-132l-334 431h-1v-431h-155v700h131l335 -433h1v433h155z" />
    <glyph glyph-name="Ograve" unicode="&#xd2;" horiz-adv-x="780" 
d="M333 863l115 -120h-108l-172 120h165zM390 715c208 0 369 -146 369 -365s-161 -365 -369 -365s-369 146 -369 365s161 365 369 365zM390 555c-112 0 -198 -79 -198 -205s86 -205 198 -205s198 79 198 205s-86 205 -198 205z" />
    <glyph glyph-name="Oacute" unicode="&#xd3;" horiz-adv-x="780" 
d="M612 863l-171 -120h-109l115 120h165zM390 715c208 0 369 -146 369 -365s-161 -365 -369 -365s-369 146 -369 365s161 365 369 365zM390 555c-112 0 -198 -79 -198 -205s86 -205 198 -205s198 79 198 205s-86 205 -198 205z" />
    <glyph glyph-name="Ocircumflex" unicode="&#xd4;" horiz-adv-x="780" 
d="M461 863l120 -120h-125l-67 62l-67 -62h-125l120 120h144zM390 715c208 0 369 -146 369 -365s-161 -365 -369 -365s-369 146 -369 365s161 365 369 365zM390 555c-112 0 -198 -79 -198 -205s86 -205 198 -205s198 79 198 205s-86 205 -198 205z" />
    <glyph glyph-name="Otilde" unicode="&#xd5;" horiz-adv-x="780" 
d="M472 738c-57 0 -139 36 -177 36c-24 0 -40 -14 -54 -38l-47 15c19 70 49 120 116 120c56 0 139 -36 176 -36c24 0 41 15 55 39l47 -16c-20 -69 -50 -120 -116 -120zM390 715c208 0 369 -146 369 -365s-161 -365 -369 -365s-369 146 -369 365s161 365 369 365zM390 555
c-112 0 -198 -79 -198 -205s86 -205 198 -205s198 79 198 205s-86 205 -198 205z" />
    <glyph glyph-name="Odieresis" unicode="&#xd6;" horiz-adv-x="780" 
d="M348 857v-114h-133v114h133zM566 857v-114h-134v114h134zM390 715c208 0 369 -146 369 -365s-161 -365 -369 -365s-369 146 -369 365s161 365 369 365zM390 555c-112 0 -198 -79 -198 -205s86 -205 198 -205s198 79 198 205s-86 205 -198 205z" />
    <glyph glyph-name="multiply" unicode="&#xd7;" 
d="M475 520l47 -47l-174 -175l174 -175l-47 -47l-175 174l-175 -174l-47 47l174 175l-174 175l47 47l175 -174z" />
    <glyph glyph-name="Oslash" unicode="&#xd8;" horiz-adv-x="780" 
d="M634 631c77 -64 125 -162 125 -281c0 -219 -161 -365 -369 -365c-75 0 -144 19 -201 54l-40 -53l-43 30l40 53c-77 64 -125 162 -125 281c0 219 161 365 369 365c75 0 144 -19 201 -54l40 53l43 -30zM192 350c0 -62 20 -112 54 -147l246 327c-29 16 -64 25 -102 25
c-112 0 -198 -79 -198 -205zM390 145c112 0 198 79 198 205c0 62 -20 112 -54 147l-246 -327c29 -16 64 -25 102 -25z" />
    <glyph glyph-name="Ugrave" unicode="&#xd9;" horiz-adv-x="706" 
d="M296 863l115 -120h-108l-172 120h165zM650 700v-417c0 -181 -100 -296 -297 -296c-198 0 -298 115 -298 296v417h165v-403c0 -88 45 -150 133 -150s133 62 133 150v403h164z" />
    <glyph glyph-name="Uacute" unicode="&#xda;" horiz-adv-x="706" 
d="M575 863l-171 -120h-109l115 120h165zM650 700v-417c0 -181 -100 -296 -297 -296c-198 0 -298 115 -298 296v417h165v-403c0 -88 45 -150 133 -150s133 62 133 150v403h164z" />
    <glyph glyph-name="Ucircumflex" unicode="&#xdb;" horiz-adv-x="706" 
d="M424 863l120 -120h-125l-67 62l-67 -62h-125l120 120h144zM650 700v-417c0 -181 -100 -296 -297 -296c-198 0 -298 115 -298 296v417h165v-403c0 -88 45 -150 133 -150s133 62 133 150v403h164z" />
    <glyph glyph-name="Udieresis" unicode="&#xdc;" horiz-adv-x="706" 
d="M311 857v-114h-133v114h133zM529 857v-114h-134v114h134zM650 700v-417c0 -181 -100 -296 -297 -296c-198 0 -298 115 -298 296v417h165v-403c0 -88 45 -150 133 -150s133 62 133 150v403h164z" />
    <glyph glyph-name="Yacute" unicode="&#xdd;" horiz-adv-x="659" 
d="M551 863l-171 -120h-109l115 120h165zM659 700l-252 -448v-252h-155v252l-252 448h186l142 -293h2l143 293h186z" />
    <glyph glyph-name="Thorn" unicode="&#xde;" horiz-adv-x="603" 
d="M217 700v-113h101c180 0 264 -102 264 -235c0 -134 -84 -237 -264 -237h-101v-115h-156v700h156zM318 449h-101v-196h101c66 0 110 32 110 99c0 65 -44 97 -110 97z" />
    <glyph glyph-name="germandbls" unicode="&#xdf;" horiz-adv-x="594" 
d="M380 399c129 -8 193 -76 193 -187c0 -142 -106 -217 -284 -217h-49v130h40c104 0 141 33 141 100c0 85 -60 112 -164 112v112c71 0 105 24 105 72c0 45 -32 66 -76 66c-54 0 -88 -30 -88 -94v-623h-151v610c0 139 75 235 246 235c143 0 219 -67 219 -167
c0 -73 -39 -129 -132 -147v-2z" />
    <glyph glyph-name="agrave" unicode="&#xe0;" horiz-adv-x="586" 
d="M221 707l115 -154h-118l-162 154h165zM240 -15c-120 0 -219 84 -219 246s99 246 219 246c75 0 122 -31 151 -78h2v63h151v-462h-151v63h-2c-29 -47 -76 -78 -151 -78zM282 123c61 0 107 42 107 108s-46 108 -107 108c-60 0 -106 -42 -106 -108s46 -108 106 -108z" />
    <glyph glyph-name="aacute" unicode="&#xe1;" horiz-adv-x="586" 
d="M495 707l-162 -154h-118l115 154h165zM240 -15c-120 0 -219 84 -219 246s99 246 219 246c75 0 122 -31 151 -78h2v63h151v-462h-151v63h-2c-29 -47 -76 -78 -151 -78zM282 123c61 0 107 42 107 108s-46 108 -107 108c-60 0 -106 -42 -106 -108s46 -108 106 -108z" />
    <glyph glyph-name="acircumflex" unicode="&#xe2;" horiz-adv-x="586" 
d="M349 707l122 -154h-125l-68 82l-67 -82h-125l122 154h141zM240 -15c-120 0 -219 84 -219 246s99 246 219 246c75 0 122 -31 151 -78h2v63h151v-462h-151v63h-2c-29 -47 -76 -78 -151 -78zM282 123c61 0 107 42 107 108s-46 108 -107 108c-60 0 -106 -42 -106 -108
s46 -108 106 -108z" />
    <glyph glyph-name="atilde" unicode="&#xe3;" horiz-adv-x="586" 
d="M199 707c58 0 128 -46 166 -46c26 0 42 21 54 46l57 -19c-20 -76 -51 -133 -116 -133c-59 0 -128 46 -167 46c-25 0 -41 -21 -54 -46l-56 19c19 76 50 133 116 133zM240 -15c-120 0 -219 84 -219 246s99 246 219 246c75 0 122 -31 151 -78h2v63h151v-462h-151v63h-2
c-29 -47 -76 -78 -151 -78zM282 123c61 0 107 42 107 108s-46 108 -107 108c-60 0 -106 -42 -106 -108s46 -108 106 -108z" />
    <glyph glyph-name="adieresis" unicode="&#xe4;" horiz-adv-x="586" 
d="M247 690v-135h-124v135h124zM435 690v-135h-124v135h124zM240 -15c-120 0 -219 84 -219 246s99 246 219 246c75 0 122 -31 151 -78h2v63h151v-462h-151v63h-2c-29 -47 -76 -78 -151 -78zM282 123c61 0 107 42 107 108s-46 108 -107 108c-60 0 -106 -42 -106 -108
s46 -108 106 -108z" />
    <glyph glyph-name="aring" unicode="&#xe5;" horiz-adv-x="586" 
d="M278 747c70 0 120 -49 120 -117s-50 -117 -120 -117s-120 49 -120 117s50 117 120 117zM278 685c-34 0 -56 -24 -56 -55s22 -55 56 -55s56 24 56 55s-22 55 -56 55zM240 -15c-120 0 -219 84 -219 246s99 246 219 246c75 0 122 -31 151 -78h2v63h151v-462h-151v63h-2
c-29 -47 -76 -78 -151 -78zM282 123c61 0 107 42 107 108s-46 108 -107 108c-60 0 -106 -42 -106 -108s46 -108 106 -108z" />
    <glyph glyph-name="ae" unicode="&#xe6;" horiz-adv-x="828" 
d="M211 -15c-116 0 -187 64 -187 165c0 99 69 162 183 162c58 0 107 -17 136 -42h2v20c0 33 -25 72 -103 72c-28 0 -73 -6 -132 -20l-30 115c57 12 108 20 163 20c78 0 136 -17 169 -85h2c34 50 93 84 175 84c131 0 222 -79 222 -247v-34h-328c14 -59 58 -84 116 -84
c56 0 104 22 133 42l55 -114c-49 -30 -114 -54 -188 -54c-91 0 -155 35 -192 93h-2c-51 -68 -122 -93 -194 -93zM484 284h181c-2 54 -39 85 -87 85c-44 0 -87 -25 -94 -85zM266 98c46 0 82 21 82 58s-36 59 -81 59c-47 0 -77 -23 -77 -59s29 -58 76 -58z" />
    <glyph glyph-name="ccedilla" unicode="&#xe7;" horiz-adv-x="451" 
d="M445 30c-45 -26 -90 -41 -146 -44l-10 -24c54 -9 89 -22 89 -62c0 -53 -71 -77 -168 -112l-16 37c52 22 81 36 81 53c0 18 -17 24 -56 33l28 75c-132 13 -226 107 -226 245c0 149 109 246 257 246c65 0 117 -16 167 -45l-62 -121c-28 18 -57 28 -98 28
c-60 0 -113 -39 -113 -108s53 -108 113 -108c41 0 70 10 98 28z" />
    <glyph glyph-name="egrave" unicode="&#xe8;" horiz-adv-x="511" 
d="M206 707l115 -154h-118l-162 154h165zM265 476c139 0 229 -80 229 -247v-34h-331c10 -58 56 -84 118 -84c56 0 105 23 134 42l55 -114c-49 -30 -112 -54 -191 -54c-155 0 -258 97 -258 244c0 156 102 247 244 247zM260 369c-51 0 -89 -25 -96 -85h184
c-2 54 -39 85 -88 85z" />
    <glyph glyph-name="eacute" unicode="&#xe9;" horiz-adv-x="511" 
d="M480 707l-162 -154h-118l115 154h165zM265 476c139 0 229 -80 229 -247v-34h-331c10 -58 56 -84 118 -84c56 0 105 23 134 42l55 -114c-49 -30 -112 -54 -191 -54c-155 0 -258 97 -258 244c0 156 102 247 244 247zM260 369c-51 0 -89 -25 -96 -85h184
c-2 54 -39 85 -88 85z" />
    <glyph glyph-name="ecircumflex" unicode="&#xea;" horiz-adv-x="511" 
d="M334 707l122 -154h-125l-68 82l-67 -82h-125l122 154h141zM265 476c139 0 229 -80 229 -247v-34h-331c10 -58 56 -84 118 -84c56 0 105 23 134 42l55 -114c-49 -30 -112 -54 -191 -54c-155 0 -258 97 -258 244c0 156 102 247 244 247zM260 369c-51 0 -89 -25 -96 -85h184
c-2 54 -39 85 -88 85z" />
    <glyph glyph-name="edieresis" unicode="&#xeb;" horiz-adv-x="511" 
d="M233 690v-135h-124v135h124zM421 690v-135h-124v135h124zM265 476c139 0 229 -80 229 -247v-34h-331c10 -58 56 -84 118 -84c56 0 105 23 134 42l55 -114c-49 -30 -112 -54 -191 -54c-155 0 -258 97 -258 244c0 156 102 247 244 247zM260 369c-51 0 -89 -25 -96 -85h184
c-2 54 -39 85 -88 85z" />
    <glyph glyph-name="igrave" unicode="&#xec;" horiz-adv-x="244" 
d="M107 707l75 -154h-118l-93 154h136zM47 0v462h151v-462h-151z" />
    <glyph glyph-name="iacute" unicode="&#xed;" horiz-adv-x="244" 
d="M63 553l75 154h136l-93 -154h-118zM47 0v462h151v-462h-151z" />
    <glyph glyph-name="icircumflex" unicode="&#xee;" horiz-adv-x="244" 
d="M193 707l87 -154h-116l-42 91l-42 -91h-116l87 154h142zM47 0v462h151v-462h-151z" />
    <glyph glyph-name="idieresis" unicode="&#xef;" horiz-adv-x="244" 
d="M105 690v-135h-105v135h105zM244 690v-135h-105v135h105zM47 0v462h151v-462h-151z" />
    <glyph glyph-name="eth" unicode="&#xf0;" horiz-adv-x="567" 
d="M396 664c89 -73 140 -186 140 -355c0 -241 -134 -324 -266 -324c-157 0 -249 108 -249 247c0 157 110 245 225 245c64 0 122 -24 157 -85h2c-10 89 -47 149 -103 189l-92 -81l-61 65l66 58c-31 11 -66 18 -102 23l24 115c67 -8 128 -24 180 -48l77 68l60 -66zM274 121
c63 0 112 44 112 111c0 69 -48 111 -113 111c-67 0 -111 -45 -111 -111c0 -68 48 -111 112 -111z" />
    <glyph glyph-name="ntilde" unicode="&#xf1;" horiz-adv-x="563" 
d="M209 707c58 0 128 -46 166 -46c26 0 42 21 54 46l57 -19c-20 -76 -51 -133 -116 -133c-59 0 -128 46 -167 46c-25 0 -41 -21 -54 -46l-56 19c19 76 50 133 116 133zM347 477c102 0 174 -59 174 -191v-286h-150v244c0 69 -29 100 -85 100c-51 0 -89 -30 -89 -112v-232
h-151v462h148v-70h2c32 54 86 85 151 85z" />
    <glyph glyph-name="ograve" unicode="&#xf2;" horiz-adv-x="561" 
d="M222 707l115 -154h-118l-162 154h165zM280 477c150 0 260 -98 260 -246s-110 -246 -260 -246c-149 0 -259 98 -259 246s110 246 259 246zM280 339c-60 0 -108 -42 -108 -108s48 -108 108 -108c61 0 108 42 108 108s-47 108 -108 108z" />
    <glyph glyph-name="oacute" unicode="&#xf3;" horiz-adv-x="561" 
d="M496 707l-162 -154h-118l115 154h165zM280 477c150 0 260 -98 260 -246s-110 -246 -260 -246c-149 0 -259 98 -259 246s110 246 259 246zM280 339c-60 0 -108 -42 -108 -108s48 -108 108 -108c61 0 108 42 108 108s-47 108 -108 108z" />
    <glyph glyph-name="ocircumflex" unicode="&#xf4;" horiz-adv-x="561" 
d="M350 707l122 -154h-125l-68 82l-67 -82h-125l122 154h141zM280 477c150 0 260 -98 260 -246s-110 -246 -260 -246c-149 0 -259 98 -259 246s110 246 259 246zM280 339c-60 0 -108 -42 -108 -108s48 -108 108 -108c61 0 108 42 108 108s-47 108 -108 108z" />
    <glyph glyph-name="otilde" unicode="&#xf5;" horiz-adv-x="561" 
d="M200 707c58 0 128 -46 166 -46c26 0 42 21 54 46l57 -19c-20 -76 -51 -133 -116 -133c-59 0 -128 46 -167 46c-25 0 -41 -21 -54 -46l-56 19c19 76 50 133 116 133zM280 477c150 0 260 -98 260 -246s-110 -246 -260 -246c-149 0 -259 98 -259 246s110 246 259 246z
M280 339c-60 0 -108 -42 -108 -108s48 -108 108 -108c61 0 108 42 108 108s-47 108 -108 108z" />
    <glyph glyph-name="odieresis" unicode="&#xf6;" horiz-adv-x="561" 
d="M248 690v-135h-124v135h124zM436 690v-135h-124v135h124zM280 477c150 0 260 -98 260 -246s-110 -246 -260 -246c-149 0 -259 98 -259 246s110 246 259 246zM280 339c-60 0 -108 -42 -108 -108s48 -108 108 -108c61 0 108 42 108 108s-47 108 -108 108z" />
    <glyph glyph-name="divide" unicode="&#xf7;" 
d="M348 513v-98h-96v98h96zM559 330v-63h-518v63h518zM348 182v-98h-96v98h96z" />
    <glyph glyph-name="oslash" unicode="&#xf8;" horiz-adv-x="561" 
d="M462 413c49 -43 78 -106 78 -182c0 -148 -110 -246 -260 -246c-60 0 -113 16 -156 44l-38 -43l-27 23l37 42c-47 43 -75 105 -75 180c0 148 110 246 259 246c59 0 111 -15 154 -42l37 42l27 -24zM172 231c0 -27 8 -51 22 -68l143 162c-16 9 -36 14 -57 14
c-60 0 -108 -42 -108 -108zM280 123c61 0 108 42 108 108c0 29 -9 53 -23 71l-144 -163c17 -11 37 -16 59 -16z" />
    <glyph glyph-name="ugrave" unicode="&#xf9;" horiz-adv-x="557" 
d="M223 707l115 -154h-118l-162 154h165zM216 -15c-98 0 -175 60 -175 192v285h156v-252c0 -67 31 -93 76 -93c53 0 87 37 87 122v223h151v-462h-148v72h-2c-33 -53 -77 -87 -145 -87z" />
    <glyph glyph-name="uacute" unicode="&#xfa;" horiz-adv-x="557" 
d="M497 707l-162 -154h-118l115 154h165zM216 -15c-98 0 -175 60 -175 192v285h156v-252c0 -67 31 -93 76 -93c53 0 87 37 87 122v223h151v-462h-148v72h-2c-33 -53 -77 -87 -145 -87z" />
    <glyph glyph-name="ucircumflex" unicode="&#xfb;" horiz-adv-x="557" 
d="M351 707l122 -154h-125l-68 82l-67 -82h-125l122 154h141zM216 -15c-98 0 -175 60 -175 192v285h156v-252c0 -67 31 -93 76 -93c53 0 87 37 87 122v223h151v-462h-148v72h-2c-33 -53 -77 -87 -145 -87z" />
    <glyph glyph-name="udieresis" unicode="&#xfc;" horiz-adv-x="557" 
d="M249 690v-135h-124v135h124zM437 690v-135h-124v135h124zM216 -15c-98 0 -175 60 -175 192v285h156v-252c0 -67 31 -93 76 -93c53 0 87 37 87 122v223h151v-462h-148v72h-2c-33 -53 -77 -87 -145 -87z" />
    <glyph glyph-name="yacute" unicode="&#xfd;" horiz-adv-x="560" 
d="M504 707l-162 -154h-118l115 154h165zM402 462h153l-307 -662h-152l116 244l-207 418h174l108 -255z" />
    <glyph glyph-name="thorn" unicode="&#xfe;" horiz-adv-x="590" 
d="M47 -200v900h151v-301h2c29 47 76 78 150 78c120 0 220 -84 220 -246s-100 -246 -220 -246c-74 0 -121 31 -150 78h-2v-263h-151zM308 123c61 0 107 42 107 108s-46 108 -107 108c-60 0 -106 -42 -106 -108s46 -108 106 -108z" />
    <glyph glyph-name="ydieresis" unicode="&#xff;" horiz-adv-x="560" 
d="M256 690v-135h-124v135h124zM444 690v-135h-124v135h124zM402 462h153l-307 -662h-152l116 244l-207 418h174l108 -255z" />
    <glyph glyph-name="Amacron" unicode="&#x100;" horiz-adv-x="716" 
d="M520 844v-95h-324v95h324zM543 0l-50 142h-270l-49 -142h-174l276 700h164l276 -700h-173zM272 280h173l-87 247z" />
    <glyph glyph-name="amacron" unicode="&#x101;" horiz-adv-x="586" 
d="M442 673v-99h-325v99h325zM240 -15c-120 0 -219 84 -219 246s99 246 219 246c75 0 122 -31 151 -78h2v63h151v-462h-151v63h-2c-29 -47 -76 -78 -151 -78zM282 123c61 0 107 42 107 108s-46 108 -107 108c-60 0 -106 -42 -106 -108s46 -108 106 -108z" />
    <glyph glyph-name="Abreve" unicode="&#x102;" horiz-adv-x="716" 
d="M358 735c-93 0 -154 49 -164 129h103c3 -25 25 -44 61 -44c37 0 58 19 61 44h103c-9 -80 -70 -129 -164 -129zM543 0l-50 142h-270l-49 -142h-174l276 700h164l276 -700h-173zM272 280h173l-87 247z" />
    <glyph glyph-name="abreve" unicode="&#x103;" horiz-adv-x="586" 
d="M443 700c0 -97 -70 -162 -164 -162c-93 0 -164 65 -164 162h95c2 -35 19 -70 69 -70s67 35 69 70h95zM240 -15c-120 0 -219 84 -219 246s99 246 219 246c75 0 122 -31 151 -78h2v63h151v-462h-151v63h-2c-29 -47 -76 -78 -151 -78zM282 123c61 0 107 42 107 108
s-46 108 -107 108c-60 0 -106 -42 -106 -108s46 -108 106 -108z" />
    <glyph glyph-name="Aogonek" unicode="&#x104;" horiz-adv-x="716" 
d="M573 -116c9 0 25 3 39 6l12 -94c-29 -5 -54 -8 -70 -8c-67 0 -111 25 -111 85c0 46 37 88 95 139l-45 130h-270l-49 -142h-174l276 700h164l276 -700h-98c-45 -43 -71 -74 -71 -94c0 -14 12 -22 26 -22zM272 280h173l-87 247z" />
    <glyph glyph-name="aogonek" unicode="&#x105;" horiz-adv-x="586" 
d="M474 0c-45 -43 -71 -74 -71 -94c0 -14 12 -22 26 -22c9 0 24 3 38 6l13 -94c-29 -5 -55 -8 -71 -8c-66 0 -110 25 -110 85c0 45 37 87 94 138v52h-2c-29 -47 -76 -78 -151 -78c-120 0 -219 84 -219 246s99 246 219 246c75 0 122 -31 151 -78h2v63h151v-462h-70zM282 123
c61 0 107 42 107 108s-46 108 -107 108c-60 0 -106 -42 -106 -108s46 -108 106 -108z" />
    <glyph glyph-name="Cacute" unicode="&#x106;" horiz-adv-x="667" 
d="M623 863l-171 -120h-109l115 120h165zM405 -15c-221 0 -384 142 -384 365s163 365 384 365c109 0 190 -35 251 -78l-84 -136c-45 30 -99 54 -167 54c-122 0 -213 -78 -213 -205s91 -205 213 -205c68 0 122 24 167 54l84 -136c-61 -43 -142 -78 -251 -78z" />
    <glyph glyph-name="cacute" unicode="&#x107;" horiz-adv-x="451" 
d="M485 707l-162 -154h-118l115 154h165zM278 -15c-148 0 -257 97 -257 246s109 246 257 246c65 0 117 -16 167 -45l-62 -121c-28 18 -57 28 -98 28c-60 0 -113 -39 -113 -108s53 -108 113 -108c41 0 70 10 98 28l62 -121c-50 -29 -102 -45 -167 -45z" />
    <glyph glyph-name="Ccircumflex" unicode="&#x108;" horiz-adv-x="667" 
d="M473 863l120 -120h-125l-67 62l-67 -62h-125l120 120h144zM405 -15c-221 0 -384 142 -384 365s163 365 384 365c109 0 190 -35 251 -78l-84 -136c-45 30 -99 54 -167 54c-122 0 -213 -78 -213 -205s91 -205 213 -205c68 0 122 24 167 54l84 -136
c-61 -43 -142 -78 -251 -78z" />
    <glyph glyph-name="ccircumflex" unicode="&#x109;" horiz-adv-x="451" 
d="M340 707l122 -154h-125l-68 82l-67 -82h-125l122 154h141zM278 -15c-148 0 -257 97 -257 246s109 246 257 246c65 0 117 -16 167 -45l-62 -121c-28 18 -57 28 -98 28c-60 0 -113 -39 -113 -108s53 -108 113 -108c41 0 70 10 98 28l62 -121c-50 -29 -102 -45 -167 -45z
" />
    <glyph glyph-name="Cdotaccent" unicode="&#x10a;" horiz-adv-x="667" 
d="M472 871v-128h-142v128h142zM405 -15c-221 0 -384 142 -384 365s163 365 384 365c109 0 190 -35 251 -78l-84 -136c-45 30 -99 54 -167 54c-122 0 -213 -78 -213 -205s91 -205 213 -205c68 0 122 24 167 54l84 -136c-61 -43 -142 -78 -251 -78z" />
    <glyph glyph-name="cdotaccent" unicode="&#x10b;" horiz-adv-x="451" 
d="M351 699v-152h-162v152h162zM278 -15c-148 0 -257 97 -257 246s109 246 257 246c65 0 117 -16 167 -45l-62 -121c-28 18 -57 28 -98 28c-60 0 -113 -39 -113 -108s53 -108 113 -108c41 0 70 10 98 28l62 -121c-50 -29 -102 -45 -167 -45z" />
    <glyph glyph-name="Ccaron" unicode="&#x10c;" horiz-adv-x="667" 
d="M473 743h-144l-120 120h125l67 -62l67 62h125zM405 -15c-221 0 -384 142 -384 365s163 365 384 365c109 0 190 -35 251 -78l-84 -136c-45 30 -99 54 -167 54c-122 0 -213 -78 -213 -205s91 -205 213 -205c68 0 122 24 167 54l84 -136c-61 -43 -142 -78 -251 -78z" />
    <glyph glyph-name="ccaron" unicode="&#x10d;" horiz-adv-x="451" 
d="M462 700l-122 -154h-141l-122 154h125l67 -82l68 82h125zM278 -15c-148 0 -257 97 -257 246s109 246 257 246c65 0 117 -16 167 -45l-62 -121c-28 18 -57 28 -98 28c-60 0 -113 -39 -113 -108s53 -108 113 -108c41 0 70 10 98 28l62 -121c-50 -29 -102 -45 -167 -45z" />
    <glyph glyph-name="Dcaron" unicode="&#x10e;" horiz-adv-x="683" 
d="M354 743h-144l-120 120h125l67 -62l67 62h125zM284 700c221 0 378 -132 378 -350s-157 -350 -378 -350h-223v700h223zM297 559h-81v-418h81c113 0 198 74 198 209s-85 209 -198 209z" />
    <glyph glyph-name="dcaron" unicode="&#x10f;" horiz-adv-x="727" 
d="M582 715h139v-140l-82 -82h-54l45 82h-48v140zM393 399v301h151v-700h-151v63h-2c-29 -47 -76 -78 -151 -78c-120 0 -219 84 -219 246s99 246 219 246c75 0 122 -31 151 -78h2zM282 123c61 0 107 42 107 108s-46 108 -107 108c-60 0 -106 -42 -106 -108s46 -108 106 -108
z" />
    <glyph glyph-name="Dcroat" unicode="&#x110;" horiz-adv-x="684" 
d="M285 700c221 0 378 -132 378 -350s-157 -350 -378 -350h-223v293h-71v126h71v281h223zM298 141c113 0 198 74 198 209s-85 209 -198 209h-81v-140h131v-126h-131v-152h81z" />
    <glyph glyph-name="dcroat" unicode="&#x111;" horiz-adv-x="613" 
d="M613 633v-87h-69v-546h-151v63h-2c-29 -47 -76 -78 -151 -78c-120 0 -219 84 -219 246s99 246 219 246c75 0 122 -31 151 -78h2v147h-135v87h135v67h151v-67h69zM282 123c61 0 107 42 107 108s-46 108 -107 108c-60 0 -106 -42 -106 -108s46 -108 106 -108z" />
    <glyph glyph-name="Emacron" unicode="&#x112;" horiz-adv-x="530" 
d="M453 844v-95h-324v95h324zM216 141h283v-141h-438v700h433v-141h-278v-114h250v-141h-250v-163z" />
    <glyph glyph-name="emacron" unicode="&#x113;" horiz-adv-x="511" 
d="M427 673v-99h-325v99h325zM265 476c139 0 229 -80 229 -247v-34h-331c10 -58 56 -84 118 -84c56 0 105 23 134 42l55 -114c-49 -30 -112 -54 -191 -54c-155 0 -258 97 -258 244c0 156 102 247 244 247zM260 369c-51 0 -89 -25 -96 -85h184c-2 54 -39 85 -88 85z" />
    <glyph glyph-name="Ebreve" unicode="&#x114;" horiz-adv-x="530" 
d="M292 735c-93 0 -154 49 -164 129h103c3 -25 25 -44 61 -44c37 0 58 19 61 44h103c-9 -80 -70 -129 -164 -129zM216 141h283v-141h-438v700h433v-141h-278v-114h250v-141h-250v-163z" />
    <glyph glyph-name="ebreve" unicode="&#x115;" horiz-adv-x="511" 
d="M428 700c0 -97 -70 -162 -164 -162c-93 0 -164 65 -164 162h95c2 -35 19 -70 69 -70s67 35 69 70h95zM265 476c139 0 229 -80 229 -247v-34h-331c10 -58 56 -84 118 -84c56 0 105 23 134 42l55 -114c-49 -30 -112 -54 -191 -54c-155 0 -258 97 -258 244
c0 156 102 247 244 247zM260 369c-51 0 -89 -25 -96 -85h184c-2 54 -39 85 -88 85z" />
    <glyph glyph-name="Edotaccent" unicode="&#x116;" horiz-adv-x="530" 
d="M363 871v-128h-142v128h142zM216 141h283v-141h-438v700h433v-141h-278v-114h250v-141h-250v-163z" />
    <glyph glyph-name="edotaccent" unicode="&#x117;" horiz-adv-x="511" 
d="M346 699v-152h-162v152h162zM265 476c139 0 229 -80 229 -247v-34h-331c10 -58 56 -84 118 -84c56 0 105 23 134 42l55 -114c-49 -30 -112 -54 -191 -54c-155 0 -258 97 -258 244c0 156 102 247 244 247zM260 369c-51 0 -89 -25 -96 -85h184c-2 54 -39 85 -88 85z" />
    <glyph glyph-name="Eogonek" unicode="&#x118;" horiz-adv-x="530" 
d="M474 0c-45 -43 -71 -74 -71 -94c0 -14 12 -22 26 -22c9 0 24 3 38 6l13 -94c-29 -5 -55 -8 -71 -8c-66 0 -110 25 -110 85c0 42 31 81 82 127h-320v700h433v-141h-278v-114h250v-141h-250v-163h283v-141h-25z" />
    <glyph glyph-name="eogonek" unicode="&#x119;" horiz-adv-x="511" 
d="M494 229v-34h-331c10 -58 56 -84 118 -84c56 0 105 23 134 42l55 -114c-17 -11 -36 -20 -57 -29h3c-52 -48 -82 -83 -82 -104c0 -14 12 -22 26 -22c9 0 24 3 38 6l13 -94c-29 -5 -55 -8 -71 -8c-66 0 -110 25 -110 85c0 37 25 73 66 112h-17c-155 0 -258 97 -258 244
c0 156 102 247 244 247c139 0 229 -80 229 -247zM164 284h184c-2 54 -39 85 -88 85c-51 0 -89 -25 -96 -85z" />
    <glyph glyph-name="Ecaron" unicode="&#x11a;" horiz-adv-x="530" 
d="M363 743h-144l-120 120h125l67 -62l67 62h125zM216 141h283v-141h-438v700h433v-141h-278v-114h250v-141h-250v-163z" />
    <glyph glyph-name="ecaron" unicode="&#x11b;" horiz-adv-x="511" 
d="M456 700l-122 -154h-141l-122 154h125l67 -82l68 82h125zM265 476c139 0 229 -80 229 -247v-34h-331c10 -58 56 -84 118 -84c56 0 105 23 134 42l55 -114c-49 -30 -112 -54 -191 -54c-155 0 -258 97 -258 244c0 156 102 247 244 247zM260 369c-51 0 -89 -25 -96 -85h184
c-2 54 -39 85 -88 85z" />
    <glyph glyph-name="Gcircumflex" unicode="&#x11c;" horiz-adv-x="751" 
d="M388 805l-67 -62h-125l120 120h144l120 -120h-125zM734 405c1 -12 1 -24 1 -36c0 -220 -108 -384 -343 -384c-216 0 -371 139 -371 367c0 217 144 363 382 363c113 0 201 -34 276 -92l-101 -133c-54 41 -110 65 -179 65c-133 0 -207 -88 -207 -204
c0 -119 76 -206 211 -206c113 0 160 64 168 121h-180v139h343z" />
    <glyph glyph-name="gcircumflex" unicode="&#x11d;" horiz-adv-x="586" 
d="M358 707l122 -154h-125l-68 82l-67 -82h-125l122 154h141zM295 -215c-48 0 -120 7 -198 23l25 141c76 -18 127 -23 162 -23c76 0 109 25 109 106v30h-2c-27 -36 -74 -70 -152 -70c-121 0 -218 80 -218 240c0 161 99 245 219 245c75 0 122 -31 151 -78h2v63h151v-462
c-1 -145 -89 -215 -249 -215zM282 123c61 0 107 42 107 108s-46 108 -107 108c-60 0 -106 -42 -106 -108s46 -108 106 -108z" />
    <glyph glyph-name="Gbreve" unicode="&#x11e;" horiz-adv-x="751" 
d="M388 735c-93 0 -154 49 -164 129h103c3 -25 25 -44 61 -44c37 0 58 19 61 44h103c-9 -80 -70 -129 -164 -129zM734 405c1 -12 1 -24 1 -36c0 -220 -108 -384 -343 -384c-216 0 -371 139 -371 367c0 217 144 363 382 363c113 0 201 -34 276 -92l-101 -133
c-54 41 -110 65 -179 65c-133 0 -207 -88 -207 -204c0 -119 76 -206 211 -206c113 0 160 64 168 121h-180v139h343z" />
    <glyph glyph-name="gbreve" unicode="&#x11f;" horiz-adv-x="586" 
d="M452 700c0 -97 -70 -162 -164 -162c-93 0 -164 65 -164 162h95c2 -35 19 -70 69 -70s67 35 69 70h95zM295 -215c-48 0 -120 7 -198 23l25 141c76 -18 127 -23 162 -23c76 0 109 25 109 106v30h-2c-27 -36 -74 -70 -152 -70c-121 0 -218 80 -218 240c0 161 99 245 219 245
c75 0 122 -31 151 -78h2v63h151v-462c-1 -145 -89 -215 -249 -215zM282 123c61 0 107 42 107 108s-46 108 -107 108c-60 0 -106 -42 -106 -108s46 -108 106 -108z" />
    <glyph glyph-name="Gdotaccent" unicode="&#x120;" horiz-adv-x="751" 
d="M459 871v-128h-142v128h142zM734 405c1 -12 1 -24 1 -36c0 -220 -108 -384 -343 -384c-216 0 -371 139 -371 367c0 217 144 363 382 363c113 0 201 -34 276 -92l-101 -133c-54 41 -110 65 -179 65c-133 0 -207 -88 -207 -204c0 -119 76 -206 211 -206
c113 0 160 64 168 121h-180v139h343z" />
    <glyph glyph-name="gdotaccent" unicode="&#x121;" horiz-adv-x="586" 
d="M369 699v-152h-162v152h162zM295 -215c-48 0 -120 7 -198 23l25 141c76 -18 127 -23 162 -23c76 0 109 25 109 106v30h-2c-27 -36 -74 -70 -152 -70c-121 0 -218 80 -218 240c0 161 99 245 219 245c75 0 122 -31 151 -78h2v63h151v-462c-1 -145 -89 -215 -249 -215z
M282 123c61 0 107 42 107 108s-46 108 -107 108c-60 0 -106 -42 -106 -108s46 -108 106 -108z" />
    <glyph glyph-name="Gcommaaccent" unicode="&#x122;" horiz-adv-x="751" 
d="M734 405c1 -12 1 -24 1 -36c0 -220 -108 -384 -343 -384c-216 0 -371 139 -371 367c0 217 144 363 382 363c113 0 201 -34 276 -92l-101 -133c-54 41 -110 65 -179 65c-133 0 -207 -88 -207 -204c0 -119 76 -206 211 -206c113 0 160 64 168 121h-180v139h343zM333 -148
v101h137v-101l-65 -62h-52l33 62h-53z" />
    <glyph glyph-name="gcommaaccent" unicode="&#x123;" horiz-adv-x="586" 
d="M360 641v-101h-137v101l65 62h52l-33 -62h53zM393 462h151v-462c-1 -145 -89 -215 -249 -215c-48 0 -120 7 -198 23l25 141c76 -18 127 -23 162 -23c76 0 109 25 109 106v30h-2c-27 -36 -74 -70 -152 -70c-121 0 -218 80 -218 240c0 161 99 245 219 245
c75 0 122 -31 151 -78h2v63zM282 123c61 0 107 42 107 108s-46 108 -107 108c-60 0 -106 -42 -106 -108s46 -108 106 -108z" />
    <glyph glyph-name="Hcircumflex" unicode="&#x124;" horiz-adv-x="723" 
d="M361 805l-67 -62h-125l120 120h144l120 -120h-125zM507 700h155v-700h-155v294h-291v-294h-155v700h155v-260h291v260z" />
    <glyph glyph-name="hcircumflex" unicode="&#x125;" horiz-adv-x="563" 
d="M194 863l120 -120h-125l-67 62l-67 -62h-125l120 120h144zM198 700v-299h2c32 49 82 76 148 76c102 0 174 -59 174 -191v-286h-151v244c0 69 -29 100 -84 100c-51 0 -89 -30 -89 -112v-232h-151v700h151z" />
    <glyph glyph-name="Hbar" unicode="&#x126;" horiz-adv-x="741" 
d="M741 625v-117h-70v-508h-155v294h-291v-294h-155v508h-70v117h70v75h155v-75h291v75h155v-75h70zM516 440v68h-291v-68h291z" />
    <glyph glyph-name="hbar" unicode="&#x127;" horiz-adv-x="563" 
d="M348 477c102 0 174 -59 174 -191v-286h-151v244c0 69 -29 100 -84 100c-51 0 -89 -30 -89 -112v-232h-151v546h-65v87h65v67h151v-67h132v-87h-132v-145h2c32 49 82 76 148 76z" />
    <glyph glyph-name="Itilde" unicode="&#x128;" horiz-adv-x="277" 
d="M220 738c-57 0 -139 36 -177 36c-24 0 -40 -14 -54 -38l-47 15c19 70 49 120 116 120c56 0 139 -36 176 -36c24 0 41 15 55 39l47 -16c-20 -69 -50 -120 -116 -120zM216 700v-700h-155v700h155z" />
    <glyph glyph-name="itilde" unicode="&#x129;" horiz-adv-x="244" 
d="M62 707c47 0 98 -46 129 -46c22 0 31 21 37 46l53 -19c-14 -79 -47 -133 -98 -133c-47 0 -98 46 -129 46c-22 0 -31 -21 -37 -46l-53 19c15 78 47 133 98 133zM47 0v462h151v-462h-151z" />
    <glyph glyph-name="Imacron" unicode="&#x12a;" horiz-adv-x="277" 
d="M300 844v-95h-324v95h324zM216 700v-700h-155v700h155z" />
    <glyph glyph-name="imacron" unicode="&#x12b;" horiz-adv-x="244" 
d="M235 673v-99h-225v99h225zM47 0v462h151v-462h-151z" />
    <glyph glyph-name="Ibreve" unicode="&#x12c;" horiz-adv-x="277" 
d="M302 864c-9 -80 -70 -129 -164 -129c-93 0 -154 49 -164 129h103c3 -25 25 -44 61 -44c37 0 58 19 61 44h103zM216 700v-700h-155v700h155z" />
    <glyph glyph-name="ibreve" unicode="&#x12d;" horiz-adv-x="244" 
d="M257 700c0 -116 -58 -162 -135 -162s-135 46 -135 162h92c0 -48 11 -70 43 -70s43 22 43 70h92zM47 0v462h151v-462h-151z" />
    <glyph glyph-name="Iogonek" unicode="&#x12e;" horiz-adv-x="277" 
d="M179 0c-45 -43 -71 -74 -71 -94c0 -14 12 -22 26 -22c9 0 24 3 38 6l13 -94c-29 -5 -55 -8 -71 -8c-66 0 -110 25 -110 85c0 42 31 81 82 127h-25v700h155v-700h-37z" />
    <glyph glyph-name="iogonek" unicode="&#x12f;" horiz-adv-x="244" 
d="M41 699h162v-152h-162v152zM47 0v462h151v-462h-44c-45 -43 -71 -74 -71 -94c0 -14 12 -22 26 -22c9 0 24 3 38 6l13 -94c-29 -5 -55 -8 -71 -8c-66 0 -110 25 -110 85c0 42 31 81 82 127h-14z" />
    <glyph glyph-name="Idotaccent" unicode="&#x130;" horiz-adv-x="277" 
d="M209 871v-128h-142v128h142zM216 700v-700h-155v700h155z" />
    <glyph glyph-name="dotlessi" unicode="&#x131;" horiz-adv-x="244" 
d="M47 0v462h151v-462h-151z" />
    <glyph glyph-name="IJ" unicode="&#x132;" horiz-adv-x="578" 
d="M216 700v-700h-155v700h155zM517 700v-523c0 -124 -58 -180 -180 -180h-50v145h34c25 0 41 16 41 49v509h155z" />
    <glyph glyph-name="ij" unicode="&#x133;" horiz-adv-x="488" 
d="M203 699v-152h-162v152h162zM447 699v-152h-162v152h162zM47 0v462h151v-462h-151zM205 -63h26c41 0 60 21 60 66v459h151v-458c0 -139 -61 -207 -187 -207h-50v140z" />
    <glyph glyph-name="Jcircumflex" unicode="&#x134;" horiz-adv-x="301" 
d="M234 863l120 -120h-125l-67 62l-67 -62h-125l120 120h144zM240 700v-523c0 -124 -58 -180 -180 -180h-50v145h34c25 0 41 16 41 49v509h155z" />
    <glyph glyph-name="jcircumflex" unicode="&#x135;" horiz-adv-x="244" 
d="M193 707l87 -154h-116l-42 91l-42 -91h-116l87 154h142zM-39 -63h25c42 0 61 21 61 66v459h151v-458c0 -139 -61 -207 -187 -207h-50v140z" />
    <glyph glyph-name="Kcommaaccent" unicode="&#x136;" horiz-adv-x="726" 
d="M387 372l339 -372h-221l-289 336v-336h-155v700h155v-310l249 310h211zM280 -148v101h137v-101l-65 -62h-52l33 62h-53z" />
    <glyph glyph-name="kcommaaccent" unicode="&#x137;" horiz-adv-x="555" 
d="M337 252l213 -252h-195l-157 212v-212h-151v700h151v-420l135 182h187zM197 -148v101h137v-101l-65 -62h-52l33 62h-53z" />
    <glyph glyph-name="kgreenlandic" unicode="&#x138;" horiz-adv-x="554" 
d="M550 0h-195l-158 212v-212h-151v462h151v-182l136 182h186l-183 -210z" />
    <glyph glyph-name="Lacute" unicode="&#x139;" horiz-adv-x="496" 
d="M364 863l-171 -120h-109l115 120h165zM216 700v-554h279v-146h-434v700h155z" />
    <glyph glyph-name="lacute" unicode="&#x13a;" horiz-adv-x="244" 
d="M347 863l-171 -120h-109l115 120h165zM198 700v-700h-151v700h151z" />
    <glyph glyph-name="Lcommaaccent" unicode="&#x13b;" horiz-adv-x="496" 
d="M216 146h279v-146h-434v700h155v-554zM211 -148v101h137v-101l-65 -62h-52l33 62h-53z" />
    <glyph glyph-name="lcommaaccent" unicode="&#x13c;" horiz-adv-x="244" 
d="M47 700h151v-700h-151v700zM57 -148v101h137v-101l-65 -62h-52l33 62h-53z" />
    <glyph glyph-name="Lcaron" unicode="&#x13d;" horiz-adv-x="496" 
d="M322 419l53 156h-56v140h140v-140l-83 -156h-54zM216 146h279v-146h-434v700h155v-554z" />
    <glyph glyph-name="lcaron" unicode="&#x13e;" horiz-adv-x="389" 
d="M244 715h139v-140l-82 -82h-54l45 82h-48v140zM47 0v700h151v-700h-151z" />
    <glyph glyph-name="Ldot" unicode="&#x13f;" horiz-adv-x="496" 
d="M216 700v-554h279v-146h-434v700h155zM447 462v-161h-160v161h160z" />
    <glyph glyph-name="ldot" unicode="&#x140;" horiz-adv-x="398" 
d="M198 700v-700h-151v700h151zM388 463v-161h-160v161h160z" />
    <glyph glyph-name="Lslash" unicode="&#x141;" horiz-adv-x="496" 
d="M216 146h279v-146h-434v276l-71 -36v91l71 37v332h155v-252l172 89v-91l-172 -89v-211z" />
    <glyph glyph-name="lslash" unicode="&#x142;" horiz-adv-x="313" 
d="M303 510v-92l-71 -36v-382h-151v304l-71 -37v91l71 37v305h151v-227z" />
    <glyph glyph-name="Nacute" unicode="&#x143;" horiz-adv-x="744" 
d="M593 863l-171 -120h-109l115 120h165zM683 700v-700h-132l-334 431h-1v-431h-155v700h131l335 -433h1v433h155z" />
    <glyph glyph-name="nacute" unicode="&#x144;" horiz-adv-x="563" 
d="M504 707l-162 -154h-118l115 154h165zM347 477c102 0 174 -59 174 -191v-286h-150v244c0 69 -29 100 -85 100c-51 0 -89 -30 -89 -112v-232h-151v462h148v-70h2c32 54 86 85 151 85z" />
    <glyph glyph-name="Ncommaaccent" unicode="&#x145;" horiz-adv-x="744" 
d="M528 700h155v-700h-132l-334 431h-1v-431h-155v700h131l335 -433h1v433zM303 -148v101h137v-101l-65 -62h-52l33 62h-53z" />
    <glyph glyph-name="ncommaaccent" unicode="&#x146;" horiz-adv-x="563" 
d="M347 477c102 0 174 -59 174 -191v-286h-150v244c0 69 -29 100 -85 100c-51 0 -89 -30 -89 -112v-232h-151v462h148v-70h2c32 54 86 85 151 85zM220 -148v101h137v-101l-65 -62h-52l33 62h-53z" />
    <glyph glyph-name="Ncaron" unicode="&#x147;" horiz-adv-x="744" 
d="M443 743h-144l-120 120h125l67 -62l67 62h125zM683 700v-700h-132l-334 431h-1v-431h-155v700h131l335 -433h1v433h155z" />
    <glyph glyph-name="ncaron" unicode="&#x148;" horiz-adv-x="563" 
d="M481 700l-122 -154h-141l-122 154h125l67 -82l68 82h125zM347 477c102 0 174 -59 174 -191v-286h-150v244c0 69 -29 100 -85 100c-51 0 -89 -30 -89 -112v-232h-151v462h148v-70h2c32 54 86 85 151 85z" />
    <glyph glyph-name="napostrophe" unicode="&#x149;" horiz-adv-x="663" 
d="M151 715v-140l-83 -156h-54l53 156h-56v140h140zM448 477c101 0 174 -59 174 -191v-286h-151v244c0 69 -29 100 -84 100c-51 0 -90 -30 -90 -112v-232h-151v462h148v-70h2c32 54 86 85 152 85z" />
    <glyph glyph-name="Eng" unicode="&#x14a;" horiz-adv-x="744" 
d="M528 700h155v-700v-21c0 -131 -71 -179 -187 -179h-71v146h43c42 0 60 14 60 57v28l-311 400h-1v-431h-155v700h131l335 -432h1v432z" />
    <glyph glyph-name="eng" unicode="&#x14b;" horiz-adv-x="563" 
d="M521 286v-286v-23c0 -129 -65 -177 -170 -177h-68v135h40c27 0 47 5 47 50v16h1v243c0 69 -29 100 -85 100c-51 0 -89 -30 -89 -112v-232h-151v462h148v-70h2c32 54 86 85 151 85c102 0 174 -59 174 -191z" />
    <glyph glyph-name="Omacron" unicode="&#x14c;" horiz-adv-x="780" 
d="M552 844v-95h-324v95h324zM390 715c208 0 369 -146 369 -365s-161 -365 -369 -365s-369 146 -369 365s161 365 369 365zM390 555c-112 0 -198 -79 -198 -205s86 -205 198 -205s198 79 198 205s-86 205 -198 205z" />
    <glyph glyph-name="omacron" unicode="&#x14d;" horiz-adv-x="561" 
d="M443 673v-99h-325v99h325zM280 477c150 0 260 -98 260 -246s-110 -246 -260 -246c-149 0 -259 98 -259 246s110 246 259 246zM280 339c-60 0 -108 -42 -108 -108s48 -108 108 -108c61 0 108 42 108 108s-47 108 -108 108z" />
    <glyph glyph-name="Obreve" unicode="&#x14e;" horiz-adv-x="780" 
d="M554 864c-9 -80 -70 -129 -164 -129c-93 0 -154 49 -164 129h103c3 -25 25 -44 61 -44c37 0 58 19 61 44h103zM390 715c208 0 369 -146 369 -365s-161 -365 -369 -365s-369 146 -369 365s161 365 369 365zM390 555c-112 0 -198 -79 -198 -205s86 -205 198 -205
s198 79 198 205s-86 205 -198 205z" />
    <glyph glyph-name="obreve" unicode="&#x14f;" horiz-adv-x="561" 
d="M444 700c0 -97 -70 -162 -164 -162c-93 0 -164 65 -164 162h95c2 -35 19 -70 69 -70s67 35 69 70h95zM280 477c150 0 260 -98 260 -246s-110 -246 -260 -246c-149 0 -259 98 -259 246s110 246 259 246zM280 339c-60 0 -108 -42 -108 -108s48 -108 108 -108
c61 0 108 42 108 108s-47 108 -108 108z" />
    <glyph glyph-name="Ohungarumlaut" unicode="&#x150;" horiz-adv-x="780" 
d="M493 863l-113 -120h-102l98 120h117zM651 863l-113 -120h-102l98 120h117zM390 715c208 0 369 -146 369 -365s-161 -365 -369 -365s-369 146 -369 365s161 365 369 365zM390 555c-112 0 -198 -79 -198 -205s86 -205 198 -205s198 79 198 205s-86 205 -198 205z" />
    <glyph glyph-name="ohungarumlaut" unicode="&#x151;" horiz-adv-x="561" 
d="M394 707l-142 -154h-102l122 154h122zM553 707l-142 -154h-102l122 154h122zM280 477c150 0 260 -98 260 -246s-110 -246 -260 -246c-149 0 -259 98 -259 246s110 246 259 246zM280 339c-60 0 -108 -42 -108 -108s48 -108 108 -108c61 0 108 42 108 108s-47 108 -108 108
z" />
    <glyph glyph-name="OE" unicode="&#x152;" horiz-adv-x="1057" 
d="M743 141h283v-141h-438v48c-49 -41 -116 -63 -198 -63c-208 0 -369 146 -369 365s161 365 369 365c82 0 149 -22 198 -63v48h432v-141h-277v-114h250v-141h-250v-163zM390 145c113 0 202 78 202 205s-89 205 -202 205c-112 0 -198 -79 -198 -205s86 -205 198 -205z" />
    <glyph glyph-name="oe" unicode="&#x153;" horiz-adv-x="861" 
d="M615 476c142 0 230 -88 230 -243v-40h-331c14 -54 58 -78 117 -78c56 0 105 21 134 39l54 -118c-54 -31 -110 -51 -189 -51c-83 0 -146 26 -187 79h-2c-40 -52 -98 -79 -173 -79c-143 0 -247 101 -247 246s104 246 247 246c75 0 133 -27 173 -78h2c38 49 98 77 172 77z
M611 361c-50 0 -87 -22 -99 -77h183c-1 51 -38 77 -84 77zM268 341c-59 0 -106 -42 -106 -110s47 -110 106 -110c58 0 105 42 105 110s-47 110 -105 110z" />
    <glyph glyph-name="Racute" unicode="&#x154;" horiz-adv-x="617" 
d="M498 863l-171 -120h-109l115 120h165zM422 0l-175 265h-31v-265h-155v700h280c157 0 238 -97 238 -219c0 -102 -55 -183 -163 -208l200 -273h-194zM216 559v-164h102c62 0 97 24 97 82c0 52 -35 82 -97 82h-102z" />
    <glyph glyph-name="racute" unicode="&#x155;" horiz-adv-x="362" 
d="M400 707l-162 -154h-118l115 154h165zM352 476v-151h-13c-101 0 -142 -37 -142 -155v-170h-151v462h148v-94h2c27 76 80 108 153 108h3z" />
    <glyph glyph-name="Rcommaaccent" unicode="&#x156;" horiz-adv-x="617" 
d="M416 273l200 -273h-194l-175 265h-31v-265h-155v700h280c157 0 238 -97 238 -219c0 -102 -55 -183 -163 -208zM216 559v-164h102c62 0 97 24 97 82c0 52 -35 82 -97 82h-102zM256 -148v101h137v-101l-65 -62h-52l33 62h-53z" />
    <glyph glyph-name="rcommaaccent" unicode="&#x157;" horiz-adv-x="362" 
d="M349 476h3v-151h-13c-101 0 -142 -37 -142 -155v-170h-151v462h148v-94h2c27 76 80 108 153 108zM55 -148v101h137v-101l-65 -62h-52l33 62h-53z" />
    <glyph glyph-name="Rcaron" unicode="&#x158;" horiz-adv-x="617" 
d="M348 743h-144l-120 120h125l67 -62l67 62h125zM422 0l-175 265h-31v-265h-155v700h280c157 0 238 -97 238 -219c0 -102 -55 -183 -163 -208l200 -273h-194zM216 559v-164h102c62 0 97 24 97 82c0 52 -35 82 -97 82h-102z" />
    <glyph glyph-name="rcaron" unicode="&#x159;" horiz-adv-x="362" 
d="M377 700l-122 -154h-141l-122 154h125l67 -82l68 82h125zM352 476v-151h-13c-101 0 -142 -37 -142 -155v-170h-151v462h148v-94h2c27 76 80 108 153 108h3z" />
    <glyph glyph-name="Sacute" unicode="&#x15a;" horiz-adv-x="544" 
d="M511 863l-171 -120h-109l115 120h165zM280 715c67 0 144 -15 227 -51l-65 -137c-64 30 -112 44 -158 44c-49 0 -64 -17 -64 -41c0 -21 13 -35 53 -59l116 -73c84 -51 133 -107 133 -205c0 -135 -92 -208 -255 -208c-94 0 -182 24 -261 70l70 139c67 -41 133 -64 197 -64
c56 0 86 19 86 56c0 32 -27 51 -66 75l-107 67c-91 54 -129 121 -129 200c0 114 75 187 223 187z" />
    <glyph glyph-name="sacute" unicode="&#x15b;" horiz-adv-x="434" 
d="M454 707l-162 -154h-118l115 154h165zM219 -15c-61 0 -139 13 -209 48l57 124c50 -29 107 -53 164 -53c27 0 42 6 42 21c0 18 -18 21 -32 27l-81 32c-76 29 -113 74 -113 143c0 95 65 150 198 150c52 0 108 -9 167 -28l-42 -122c-49 20 -100 34 -137 34
c-30 0 -37 -8 -37 -20c0 -14 12 -20 35 -29l80 -30c70 -26 112 -63 112 -141c0 -110 -81 -156 -204 -156z" />
    <glyph glyph-name="Scircumflex" unicode="&#x15c;" horiz-adv-x="544" 
d="M361 863l120 -120h-125l-67 62l-67 -62h-125l120 120h144zM280 715c67 0 144 -15 227 -51l-65 -137c-64 30 -112 44 -158 44c-49 0 -64 -17 -64 -41c0 -21 13 -35 53 -59l116 -73c84 -51 133 -107 133 -205c0 -135 -92 -208 -255 -208c-94 0 -182 24 -261 70l70 139
c67 -41 133 -64 197 -64c56 0 86 19 86 56c0 32 -27 51 -66 75l-107 67c-91 54 -129 121 -129 200c0 114 75 187 223 187z" />
    <glyph glyph-name="scircumflex" unicode="&#x15d;" horiz-adv-x="434" 
d="M309 707l122 -154h-125l-68 82l-67 -82h-125l122 154h141zM219 -15c-61 0 -139 13 -209 48l57 124c50 -29 107 -53 164 -53c27 0 42 6 42 21c0 18 -18 21 -32 27l-81 32c-76 29 -113 74 -113 143c0 95 65 150 198 150c52 0 108 -9 167 -28l-42 -122
c-49 20 -100 34 -137 34c-30 0 -37 -8 -37 -20c0 -14 12 -20 35 -29l80 -30c70 -26 112 -63 112 -141c0 -110 -81 -156 -204 -156z" />
    <glyph glyph-name="Scedilla" unicode="&#x15e;" horiz-adv-x="544" 
d="M522 193c0 -126 -80 -198 -223 -207l-10 -24c54 -9 89 -22 89 -62c0 -53 -71 -77 -168 -112l-16 37c52 22 81 36 81 53c0 18 -17 24 -56 33l28 74c-86 3 -168 27 -241 70l70 139c67 -41 133 -64 197 -64c56 0 86 19 86 56c0 32 -27 51 -66 75l-107 67
c-91 54 -129 121 -129 200c0 114 75 187 223 187c67 0 144 -15 227 -51l-65 -137c-64 30 -112 44 -158 44c-49 0 -64 -17 -64 -41c0 -21 13 -35 53 -59l116 -73c84 -51 133 -107 133 -205z" />
    <glyph glyph-name="scedilla" unicode="&#x15f;" horiz-adv-x="434" 
d="M423 141c0 -102 -70 -149 -178 -155l-10 -24c54 -9 89 -22 89 -62c0 -53 -71 -77 -168 -112l-16 37c52 22 81 36 81 53c0 18 -17 24 -56 33l28 75c-56 3 -123 16 -183 47l57 124c50 -29 107 -53 164 -53c27 0 42 6 42 21c0 18 -18 21 -32 27l-81 32
c-76 29 -113 74 -113 143c0 95 65 150 198 150c52 0 108 -9 167 -28l-42 -122c-49 20 -100 34 -137 34c-30 0 -37 -8 -37 -20c0 -14 12 -20 35 -29l80 -30c70 -26 112 -63 112 -141z" />
    <glyph glyph-name="Scaron" unicode="&#x160;" horiz-adv-x="544" 
d="M361 743h-144l-120 120h125l67 -62l67 62h125zM280 715c67 0 144 -15 227 -51l-65 -137c-64 30 -112 44 -158 44c-49 0 -64 -17 -64 -41c0 -21 13 -35 53 -59l116 -73c84 -51 133 -107 133 -205c0 -135 -92 -208 -255 -208c-94 0 -182 24 -261 70l70 139
c67 -41 133 -64 197 -64c56 0 86 19 86 56c0 32 -27 51 -66 75l-107 67c-91 54 -129 121 -129 200c0 114 75 187 223 187z" />
    <glyph glyph-name="scaron" unicode="&#x161;" horiz-adv-x="434" 
d="M431 700l-122 -154h-141l-122 154h125l67 -82l68 82h125zM219 -15c-61 0 -139 13 -209 48l57 124c50 -29 107 -53 164 -53c27 0 42 6 42 21c0 18 -18 21 -32 27l-81 32c-76 29 -113 74 -113 143c0 95 65 150 198 150c52 0 108 -9 167 -28l-42 -122
c-49 20 -100 34 -137 34c-30 0 -37 -8 -37 -20c0 -14 12 -20 35 -29l80 -30c70 -26 112 -63 112 -141c0 -110 -81 -156 -204 -156z" />
    <glyph glyph-name="uni0162" unicode="&#x162;" horiz-adv-x="534" 
d="M345 0h-59l-16 -38c54 -9 89 -22 89 -62c0 -53 -71 -77 -168 -112l-16 37c52 22 81 36 81 53c0 18 -17 24 -56 33l33 89h-43v559h-185v141h524v-141h-184v-559z" />
    <glyph glyph-name="uni0163" unicode="&#x163;" horiz-adv-x="362" 
d="M346 336h-95v-139c0 -43 11 -57 50 -57h17v-140h-63h-5l-16 -38c54 -9 89 -22 89 -62c0 -53 -71 -77 -168 -112l-16 37c52 22 81 36 81 53c0 18 -17 24 -56 33l36 95c-62 16 -100 62 -100 150v180h-90v126h90v185h151v-185h95v-126z" />
    <glyph glyph-name="Tcaron" unicode="&#x164;" horiz-adv-x="534" 
d="M339 743h-144l-120 120h125l67 -62l67 62h125zM529 700v-141h-184v-559h-155v559h-185v141h524z" />
    <glyph glyph-name="tcaron" unicode="&#x165;" horiz-adv-x="463" 
d="M314 715h139v-140l-82 -82h-54l45 82h-48v140zM251 647v-185h95v-126h-95v-139c0 -43 11 -57 50 -57h17v-140h-63c-94 0 -155 45 -155 156v180h-90v126h90v185h151z" />
    <glyph glyph-name="Tbar" unicode="&#x166;" horiz-adv-x="534" 
d="M529 559h-184v-97h116v-117h-116v-345h-155v345h-116v117h116v97h-185v141h524v-141z" />
    <glyph glyph-name="tbar" unicode="&#x167;" horiz-adv-x="373" 
d="M346 336h-95v-46h86v-76h-86v-17c0 -43 11 -57 50 -57h17v-140h-63c-94 0 -155 45 -155 156v58h-76v76h76v46h-90v126h90v185h151v-185h95v-126z" />
    <glyph glyph-name="Utilde" unicode="&#x168;" horiz-adv-x="706" 
d="M434 738c-57 0 -139 36 -177 36c-24 0 -40 -14 -54 -38l-47 15c19 70 49 120 116 120c56 0 139 -36 176 -36c24 0 41 15 55 39l47 -16c-20 -69 -50 -120 -116 -120zM650 700v-417c0 -181 -100 -296 -297 -296c-198 0 -298 115 -298 296v417h165v-403
c0 -88 45 -150 133 -150s133 62 133 150v403h164z" />
    <glyph glyph-name="utilde" unicode="&#x169;" horiz-adv-x="557" 
d="M201 707c58 0 128 -46 166 -46c26 0 42 21 54 46l57 -19c-20 -76 -51 -133 -116 -133c-59 0 -128 46 -167 46c-25 0 -41 -21 -54 -46l-56 19c19 76 50 133 116 133zM216 -15c-98 0 -175 60 -175 192v285h156v-252c0 -67 31 -93 76 -93c53 0 87 37 87 122v223h151v-462
h-148v72h-2c-33 -53 -77 -87 -145 -87z" />
    <glyph glyph-name="Umacron" unicode="&#x16a;" horiz-adv-x="706" 
d="M514 844v-95h-324v95h324zM650 700v-417c0 -181 -100 -296 -297 -296c-198 0 -298 115 -298 296v417h165v-403c0 -88 45 -150 133 -150s133 62 133 150v403h164z" />
    <glyph glyph-name="umacron" unicode="&#x16b;" horiz-adv-x="557" 
d="M444 673v-99h-325v99h325zM216 -15c-98 0 -175 60 -175 192v285h156v-252c0 -67 31 -93 76 -93c53 0 87 37 87 122v223h151v-462h-148v72h-2c-33 -53 -77 -87 -145 -87z" />
    <glyph glyph-name="Ubreve" unicode="&#x16c;" horiz-adv-x="706" 
d="M517 864c-9 -80 -70 -129 -164 -129c-93 0 -154 49 -164 129h103c3 -25 25 -44 61 -44c37 0 58 19 61 44h103zM650 700v-417c0 -181 -100 -296 -297 -296c-198 0 -298 115 -298 296v417h165v-403c0 -88 45 -150 133 -150s133 62 133 150v403h164z" />
    <glyph glyph-name="ubreve" unicode="&#x16d;" horiz-adv-x="557" 
d="M445 700c0 -97 -70 -162 -164 -162c-93 0 -164 65 -164 162h95c2 -35 19 -70 69 -70s67 35 69 70h95zM216 -15c-98 0 -175 60 -175 192v285h156v-252c0 -67 31 -93 76 -93c53 0 87 37 87 122v223h151v-462h-148v72h-2c-33 -53 -77 -87 -145 -87z" />
    <glyph glyph-name="Uring" unicode="&#x16e;" horiz-adv-x="706" 
d="M353 872c70 0 120 -49 120 -117s-50 -117 -120 -117c-71 0 -121 49 -121 117s50 117 121 117zM353 811c-35 0 -57 -25 -57 -56s22 -55 57 -55c34 0 57 24 57 55s-23 56 -57 56zM650 700v-417c0 -181 -100 -296 -297 -296c-198 0 -298 115 -298 296v417h165v-403
c0 -88 45 -150 133 -150s133 62 133 150v403h164z" />
    <glyph glyph-name="uring" unicode="&#x16f;" horiz-adv-x="557" 
d="M280 747c70 0 120 -49 120 -117s-50 -117 -120 -117s-120 49 -120 117s50 117 120 117zM280 685c-34 0 -56 -24 -56 -55s22 -55 56 -55s56 24 56 55s-22 55 -56 55zM216 -15c-98 0 -175 60 -175 192v285h156v-252c0 -67 31 -93 76 -93c53 0 87 37 87 122v223h151v-462
h-148v72h-2c-33 -53 -77 -87 -145 -87z" />
    <glyph glyph-name="Uhungarumlaut" unicode="&#x170;" horiz-adv-x="706" 
d="M456 863l-113 -120h-102l98 120h117zM614 863l-113 -120h-102l98 120h117zM650 700v-417c0 -181 -100 -296 -297 -296c-198 0 -298 115 -298 296v417h165v-403c0 -88 45 -150 133 -150s133 62 133 150v403h164z" />
    <glyph glyph-name="uhungarumlaut" unicode="&#x171;" horiz-adv-x="557" 
d="M394 707l-142 -154h-102l122 154h122zM553 707l-142 -154h-102l122 154h122zM216 -15c-98 0 -175 60 -175 192v285h156v-252c0 -67 31 -93 76 -93c53 0 87 37 87 122v223h151v-462h-148v72h-2c-33 -53 -77 -87 -145 -87z" />
    <glyph glyph-name="Uogonek" unicode="&#x172;" horiz-adv-x="706" 
d="M486 700h164v-417c0 -159 -77 -267 -229 -291c-40 -39 -63 -68 -63 -86c0 -14 12 -22 26 -22c9 0 24 3 38 6l13 -94c-29 -5 -55 -8 -71 -8c-66 0 -110 25 -110 85c0 38 26 74 69 115c-178 11 -268 124 -268 295v417h165v-403c0 -88 45 -150 133 -150s133 62 133 150v403z
" />
    <glyph glyph-name="uogonek" unicode="&#x173;" horiz-adv-x="557" 
d="M444 0c-45 -43 -71 -74 -71 -94c0 -14 12 -22 26 -22c9 0 24 3 38 6l13 -94c-29 -5 -55 -8 -71 -8c-66 0 -110 25 -110 85c0 45 37 87 94 138v61h-2c-33 -53 -77 -87 -145 -87c-98 0 -175 60 -175 192v285h156v-252c0 -67 31 -93 76 -93c53 0 87 37 87 122v223h151v-462
h-67z" />
    <glyph glyph-name="Wcircumflex" unicode="&#x174;" horiz-adv-x="1066" 
d="M604 863l120 -120h-125l-67 62l-67 -62h-125l120 120h144zM1060 700l-235 -700h-137l-154 454h-2l-154 -454h-137l-235 700h181l125 -450h2l151 450h136l151 -450h2l125 450h181z" />
    <glyph glyph-name="wcircumflex" unicode="&#x175;" horiz-adv-x="808" 
d="M404 635l-67 -82h-125l122 154h141l122 -154h-125zM654 462h149l-168 -462h-129l-102 270l-101 -270h-129l-169 462h150l86 -271l94 271h139l94 -271z" />
    <glyph glyph-name="Ycircumflex" unicode="&#x176;" horiz-adv-x="659" 
d="M329 805l-67 -62h-125l120 120h144l120 -120h-125zM659 700l-252 -448v-252h-155v252l-252 448h186l142 -293h2l143 293h186z" />
    <glyph glyph-name="ycircumflex" unicode="&#x177;" horiz-adv-x="560" 
d="M287 635l-67 -82h-125l122 154h141l122 -154h-125zM402 462h153l-307 -662h-152l116 244l-207 418h174l108 -255z" />
    <glyph glyph-name="Ydieresis" unicode="&#x178;" horiz-adv-x="659" 
d="M287 857v-114h-133v114h133zM505 857v-114h-134v114h134zM659 700l-252 -448v-252h-155v252l-252 448h186l142 -293h2l143 293h186z" />
    <glyph glyph-name="Zacute" unicode="&#x179;" horiz-adv-x="568" 
d="M508 863l-171 -120h-109l115 120h165zM212 145h336v-145h-528v145l329 410h-303v145h492v-145z" />
    <glyph glyph-name="zacute" unicode="&#x17a;" horiz-adv-x="451" 
d="M453 707l-162 -154h-118l115 154h165zM421 351l-222 -224h237v-127h-420v114l217 221h-201v127h389v-111z" />
    <glyph glyph-name="Zdotaccent" unicode="&#x17b;" horiz-adv-x="568" 
d="M357 871v-128h-142v128h142zM212 145h336v-145h-528v145l329 410h-303v145h492v-145z" />
    <glyph glyph-name="zdotaccent" unicode="&#x17c;" horiz-adv-x="451" 
d="M318 699v-152h-162v152h162zM199 127h237v-127h-420v114l217 221h-201v127h389v-111z" />
    <glyph glyph-name="Zcaron" unicode="&#x17d;" horiz-adv-x="568" 
d="M358 743h-144l-120 120h125l67 -62l67 62h125zM212 145h336v-145h-528v145l329 410h-303v145h492v-145z" />
    <glyph glyph-name="zcaron" unicode="&#x17e;" horiz-adv-x="451" 
d="M307 546h-141l-122 154h125l67 -82l68 82h125zM199 127h237v-127h-420v114l217 221h-201v127h389v-111z" />
    <glyph glyph-name="florin" unicode="&#x192;" horiz-adv-x="405" 
d="M348 543c-54 0 -80 -21 -80 -72v-9h116v-30h-116v-415c0 -135 -67 -217 -190 -217h-58v133h41c34 0 62 20 62 74v425h-95v30h95v8c0 126 67 205 214 205h47v-132h-36z" />
    <glyph glyph-name="AEacute" unicode="&#x1fc;" horiz-adv-x="999" 
d="M916 863l-171 -120h-109l115 120h165zM705 141h262v-141h-326h-86v142h-267l-86 -142h-202l463 700h242h258v-141h-258v-114h231v-141h-231v-163zM372 280h183v302z" />
    <glyph glyph-name="aeacute" unicode="&#x1fd;" horiz-adv-x="828" 
d="M638 707l-162 -154h-118l115 154h165zM211 -15c-116 0 -187 64 -187 165c0 99 69 162 183 162c58 0 107 -17 136 -42h2v20c0 33 -25 72 -103 72c-28 0 -73 -6 -132 -20l-30 115c57 12 108 20 163 20c78 0 136 -17 169 -85h2c34 50 93 84 175 84c131 0 222 -79 222 -247
v-34h-328c14 -59 58 -84 116 -84c56 0 104 22 133 42l55 -114c-49 -30 -114 -54 -188 -54c-91 0 -155 35 -192 93h-2c-51 -68 -122 -93 -194 -93zM484 284h181c-2 54 -39 85 -87 85c-44 0 -87 -25 -94 -85zM266 98c46 0 82 21 82 58s-36 59 -81 59c-47 0 -77 -23 -77 -59
s29 -58 76 -58z" />
    <glyph glyph-name="Oslashacute" unicode="&#x1fe;" horiz-adv-x="780" 
d="M612 863l-171 -120h-109l115 120h165zM634 631c77 -64 125 -162 125 -281c0 -219 -161 -365 -369 -365c-75 0 -144 19 -201 54l-40 -53l-43 30l40 53c-77 64 -125 162 -125 281c0 219 161 365 369 365c75 0 144 -19 201 -54l40 53l43 -30zM192 350c0 -62 20 -112 54 -147
l246 327c-29 16 -64 25 -102 25c-112 0 -198 -79 -198 -205zM390 145c112 0 198 79 198 205c0 62 -20 112 -54 147l-246 -327c29 -16 64 -25 102 -25z" />
    <glyph glyph-name="oslashacute" unicode="&#x1ff;" horiz-adv-x="561" 
d="M497 707l-162 -154h-118l115 154h165zM462 413c49 -43 78 -106 78 -182c0 -148 -110 -246 -260 -246c-60 0 -113 16 -156 44l-38 -43l-27 23l37 42c-47 43 -75 105 -75 180c0 148 110 246 259 246c59 0 111 -15 154 -42l37 42l27 -24zM172 231c0 -27 8 -51 22 -68
l143 162c-16 9 -36 14 -57 14c-60 0 -108 -42 -108 -108zM280 123c61 0 108 42 108 108c0 29 -9 53 -23 71l-144 -163c17 -11 37 -16 59 -16z" />
    <glyph glyph-name="Scommaaccent" unicode="&#x218;" horiz-adv-x="544" 
d="M389 398c84 -51 133 -107 133 -205c0 -135 -92 -208 -255 -208c-94 0 -182 24 -261 70l70 139c67 -41 133 -64 197 -64c56 0 86 19 86 56c0 32 -27 51 -66 75l-107 67c-91 54 -129 121 -129 200c0 114 75 187 223 187c67 0 144 -15 227 -51l-65 -137
c-64 30 -112 44 -158 44c-49 0 -64 -17 -64 -41c0 -21 13 -35 53 -59zM218 -148v101h137v-101l-65 -62h-52l33 62h-53z" />
    <glyph glyph-name="scommaaccent" unicode="&#x219;" horiz-adv-x="434" 
d="M311 282c70 -26 112 -63 112 -141c0 -110 -81 -156 -204 -156c-61 0 -139 13 -209 48l57 124c50 -29 107 -53 164 -53c27 0 42 6 42 21c0 18 -18 21 -32 27l-81 32c-76 29 -113 74 -113 143c0 95 65 150 198 150c52 0 108 -9 167 -28l-42 -122c-49 20 -100 34 -137 34
c-30 0 -37 -8 -37 -20c0 -14 12 -20 35 -29zM164 -148v101h137v-101l-65 -62h-52l33 62h-53z" />
    <glyph glyph-name="uni021A" unicode="&#x21a;" horiz-adv-x="534" 
d="M529 700v-141h-184v-559h-155v559h-185v141h524zM199 -148v101h137v-101l-65 -62h-52l33 62h-53z" />
    <glyph glyph-name="uni021B" unicode="&#x21b;" horiz-adv-x="362" 
d="M346 336h-95v-139c0 -43 11 -57 50 -57h17v-140h-63c-94 0 -155 45 -155 156v180h-90v126h90v185h151v-185h95v-126zM163 -148v101h137v-101l-65 -62h-52l33 62h-53z" />
    <glyph glyph-name="uni0237" unicode="&#x237;" horiz-adv-x="244" 
d="M-39 -63h25c42 0 61 21 61 66v459h151v-458c0 -139 -61 -207 -187 -207h-50v140z" />
    <glyph glyph-name="uni02BC" unicode="&#x2bc;" horiz-adv-x="187" 
d="M22 715h140v-140l-83 -156h-54l53 156h-56v140z" />
    <glyph glyph-name="circumflex" unicode="&#x2c6;" horiz-adv-x="485" 
d="M313 707l122 -154h-125l-68 82l-67 -82h-125l122 154h141z" />
    <glyph glyph-name="caron" unicode="&#x2c7;" horiz-adv-x="485" 
d="M435 700l-122 -154h-141l-122 154h125l67 -82l68 82h125z" />
    <glyph glyph-name="breve" unicode="&#x2d8;" horiz-adv-x="428" 
d="M378 700c0 -97 -70 -162 -164 -162c-93 0 -164 65 -164 162h95c2 -35 19 -70 69 -70s67 35 69 70h95z" />
    <glyph glyph-name="dotaccent" unicode="&#x2d9;" horiz-adv-x="262" 
d="M212 699v-152h-162v152h162z" />
    <glyph glyph-name="ring" unicode="&#x2da;" horiz-adv-x="340" 
d="M170 747c70 0 120 -49 120 -117s-50 -117 -120 -117s-120 49 -120 117s50 117 120 117zM170 685c-34 0 -56 -24 -56 -55s22 -55 56 -55s56 24 56 55s-22 55 -56 55z" />
    <glyph glyph-name="ogonek" unicode="&#x2db;" horiz-adv-x="287" 
d="M159 24l77 -14c-52 -48 -82 -83 -82 -104c0 -14 12 -22 26 -22c9 0 25 3 39 6l12 -94c-29 -5 -54 -9 -70 -9c-67 0 -111 25 -111 86c0 49 43 94 109 151z" />
    <glyph glyph-name="tilde" unicode="&#x2dc;" horiz-adv-x="493" 
d="M166 707c58 0 128 -46 166 -46c26 0 42 21 54 46l57 -19c-20 -76 -51 -133 -116 -133c-59 0 -128 46 -167 46c-25 0 -41 -21 -54 -46l-56 19c19 76 50 133 116 133z" />
    <glyph glyph-name="hungarumlaut" unicode="&#x2dd;" horiz-adv-x="503" 
d="M294 707l-142 -154h-102l122 154h122zM453 707l-142 -154h-102l122 154h122z" />
    <glyph glyph-name="gravecomb" unicode="&#x300;" horiz-adv-x="0" 
d="M-165 707l115 -154h-118l-162 154h165z" />
    <glyph glyph-name="acutecomb" unicode="&#x301;" horiz-adv-x="0" 
d="M-50 707l-162 -154h-118l115 154h165z" />
    <glyph glyph-name="uni0302" unicode="&#x302;" horiz-adv-x="0" 
d="M-172 707l122 -154h-125l-68 82l-67 -82h-125l122 154h141z" />
    <glyph glyph-name="tildecomb" unicode="&#x303;" horiz-adv-x="0" 
d="M-327 707c58 0 128 -46 166 -46c26 0 42 21 54 46l57 -19c-20 -76 -51 -133 -116 -133c-59 0 -128 46 -167 46c-25 0 -41 -21 -54 -46l-56 19c19 76 50 133 116 133z" />
    <glyph glyph-name="uni0304" unicode="&#x304;" horiz-adv-x="0" 
d="M-50 673v-99h-325v99h325z" />
    <glyph glyph-name="uni0306" unicode="&#x306;" horiz-adv-x="0" 
d="M-50 700c0 -97 -70 -162 -164 -162c-93 0 -164 65 -164 162h95c2 -35 19 -70 69 -70s67 35 69 70h95z" />
    <glyph glyph-name="uni0307" unicode="&#x307;" horiz-adv-x="0" 
d="M-50 699v-152h-162v152h162z" />
    <glyph glyph-name="uni0308" unicode="&#x308;" horiz-adv-x="0" 
d="M-238 690v-135h-124v135h124zM-50 690v-135h-124v135h124z" />
    <glyph glyph-name="uni030A" unicode="&#x30a;" horiz-adv-x="0" 
d="M-170 747c70 0 120 -49 120 -117s-50 -117 -120 -117s-120 49 -120 117s50 117 120 117zM-170 685c-34 0 -56 -24 -56 -55s22 -55 56 -55s56 24 56 55s-22 55 -56 55z" />
    <glyph glyph-name="uni030B" unicode="&#x30b;" horiz-adv-x="0" 
d="M-209 707l-142 -154h-102l122 154h122zM-50 707l-142 -154h-102l122 154h122z" />
    <glyph glyph-name="uni030C" unicode="&#x30c;" horiz-adv-x="0" 
d="M-50 700l-122 -154h-141l-122 154h125l67 -82l68 82h125z" />
    <glyph glyph-name="uni0326" unicode="&#x326;" horiz-adv-x="0" 
d="M-187 -47h137v-101l-65 -62h-52l33 62h-53v101z" />
    <glyph glyph-name="uni0327" unicode="&#x327;" horiz-adv-x="0" 
d="M-107 39l-32 -77c54 -9 89 -22 89 -62c0 -53 -71 -77 -168 -112l-16 37c52 22 81 36 81 53c0 18 -17 24 -56 33l48 128h54z" />
    <glyph glyph-name="uni0328" unicode="&#x328;" horiz-adv-x="0" 
d="M-128 24l77 -14c-52 -48 -82 -83 -82 -104c0 -14 12 -22 26 -22c9 0 25 3 39 6l12 -94c-29 -5 -54 -9 -70 -9c-67 0 -111 25 -111 86c0 49 43 94 109 151z" />
    <glyph glyph-name="uni0394" unicode="&#x394;" horiz-adv-x="628" 
d="M359 700l249 -700h-588l249 700h90zM314 473l-119 -373h238z" />
    <glyph glyph-name="uni03A9" unicode="&#x3a9;" horiz-adv-x="741" 
d="M371 715c209 0 340 -130 340 -318c0 -137 -90 -238 -198 -263v-3h188v-131h-290v218c89 11 150 85 150 174c0 108 -71 178 -190 178c-120 0 -191 -70 -191 -178c0 -89 61 -163 151 -174v-218h-291v131h188v3c-108 25 -198 126 -198 263c0 188 131 318 341 318z" />
    <glyph glyph-name="uni03BC" unicode="&#x3bc;" horiz-adv-x="557" 
d="M360 462h151v-462h-148v72h-2c-33 -53 -77 -87 -145 -87c-9 0 -17 0 -25 1v-186h-145v324c-3 16 -5 34 -5 53v285h156v-252c0 -67 31 -93 76 -93c53 0 87 37 87 122v223z" />
    <glyph glyph-name="pi" unicode="&#x3c0;" horiz-adv-x="639" 
d="M609 477v-131h-90v-346h-136v346h-97l-79 -346h-137l78 345c-44 -3 -81 -9 -118 -19v131c36 12 79 20 156 20h423z" />
    <glyph glyph-name="uni0401" unicode="&#x401;" horiz-adv-x="530" 
d="M250 857v-114h-133v114h133zM468 857v-114h-134v114h134zM216 141h283v-141h-438v700h433v-141h-278v-114h250v-141h-250v-163z" />
    <glyph glyph-name="uni0402" unicode="&#x402;" horiz-adv-x="742" 
d="M529 431c134 0 198 -56 198 -181v-57c0 -145 -80 -193 -208 -193h-74v145h47c56 0 80 15 80 63v19c0 46 -25 58 -85 58c-56 0 -104 -3 -157 -9v-277l-155 1v555h-170v145h568v-145h-243v-132c64 6 127 8 199 8z" />
    <glyph glyph-name="uni0403" unicode="&#x403;" horiz-adv-x="493" 
d="M491 863l-171 -120h-109l115 120h165zM488 700v-145h-272v-555h-155v700h427z" />
    <glyph glyph-name="uni0404" unicode="&#x404;" horiz-adv-x="658" 
d="M388 145c63 0 126 22 175 54l84 -138c-65 -41 -153 -76 -263 -76c-210 0 -363 130 -363 365s153 365 363 365c110 0 198 -35 263 -76l-84 -138c-49 32 -112 54 -175 54c-89 0 -158 -41 -185 -124h254v-142h-259c21 -96 94 -144 190 -144z" />
    <glyph glyph-name="uni0405" unicode="&#x405;" horiz-adv-x="544" 
d="M280 715c67 0 144 -15 227 -51l-65 -137c-64 30 -112 44 -158 44c-49 0 -64 -17 -64 -41c0 -21 13 -35 53 -59l116 -73c84 -51 133 -107 133 -205c0 -135 -92 -208 -255 -208c-94 0 -182 24 -261 70l70 139c67 -41 133 -64 197 -64c56 0 86 19 86 56c0 32 -27 51 -66 75
l-107 67c-91 54 -129 121 -129 200c0 114 75 187 223 187z" />
    <glyph glyph-name="uni0406" unicode="&#x406;" horiz-adv-x="277" 
d="M216 700v-700h-155v700h155z" />
    <glyph glyph-name="uni0407" unicode="&#x407;" horiz-adv-x="277" 
d="M96 857v-114h-133v114h133zM314 857v-114h-134v114h134zM216 700v-700h-155v700h155z" />
    <glyph glyph-name="uni0408" unicode="&#x408;" horiz-adv-x="301" 
d="M240 700v-523c0 -124 -58 -180 -180 -180h-50v145h34c25 0 41 16 41 49v509h155z" />
    <glyph glyph-name="uni0409" unicode="&#x409;" horiz-adv-x="1044" 
d="M795 451c126 0 238 -62 238 -226c0 -163 -112 -225 -238 -225h-279v555h-256v-378c0 -124 -58 -180 -180 -180h-70v145h54c25 0 41 16 41 49v509h566v-249h124zM773 140c59 0 99 27 99 85c0 59 -40 86 -99 86h-102v-171h102z" />
    <glyph glyph-name="uni040A" unicode="&#x40a;" horiz-adv-x="1024" 
d="M775 451c127 0 238 -62 238 -226c0 -163 -111 -225 -238 -225h-279v311h-280v-311h-155v700h155v-249h280v249h155v-249h124zM753 140c59 0 99 27 99 85c0 59 -40 86 -99 86h-102v-171h102z" />
    <glyph glyph-name="uni040B" unicode="&#x40b;" horiz-adv-x="741" 
d="M515 440c142 0 211 -65 211 -209v-231h-155v217c0 51 -28 77 -73 77h-169v-294h-155v555h-169v145h324h244v-145h-244v-115h186z" />
    <glyph glyph-name="uni040C" unicode="&#x40c;" horiz-adv-x="726" 
d="M570 863l-171 -120h-109l115 120h165zM726 0h-221l-289 336v-336h-155v700h155v-310l249 310h211l-289 -328z" />
    <glyph glyph-name="uni040E" unicode="&#x40e;" horiz-adv-x="713" 
d="M369 724c-103 0 -158 54 -164 140h103c1 -34 21 -60 61 -60c41 0 60 26 61 60h103c-5 -86 -61 -140 -164 -140zM534 700h179l-340 -700h-179l83 172l-277 528h205l159 -348z" />
    <glyph glyph-name="uni040F" unicode="&#x40f;" horiz-adv-x="722" 
d="M662 700v-700h-228v-140h-145v140h-228v700h155v-555h291v555h155z" />
    <glyph glyph-name="uni0410" unicode="&#x410;" horiz-adv-x="716" 
d="M543 0l-50 142h-270l-49 -142h-174l276 700h164l276 -700h-173zM272 280h173l-87 247z" />
    <glyph glyph-name="uni0411" unicode="&#x411;" horiz-adv-x="613" 
d="M350 451c126 0 238 -62 238 -226c0 -163 -112 -225 -238 -225h-289v700h155h338v-145h-338v-104h134zM328 140c59 0 99 27 99 85c0 59 -40 86 -99 86h-112v-171h112z" />
    <glyph glyph-name="uni0412" unicode="&#x412;" horiz-adv-x="625" 
d="M456 369c79 -13 143 -56 143 -172c0 -144 -112 -197 -238 -197h-300v700h290c123 0 216 -52 216 -174c0 -81 -38 -131 -111 -155v-2zM333 559h-117v-137h116c47 0 79 26 79 70c0 43 -33 67 -78 67zM338 141c59 0 100 25 100 76s-38 76 -101 76h-121v-152h122z" />
    <glyph glyph-name="uni0413" unicode="&#x413;" horiz-adv-x="493" 
d="M488 700v-145h-272v-555h-155v700h427z" />
    <glyph glyph-name="uni0414" unicode="&#x414;" horiz-adv-x="712" 
d="M621 130h84v-270h-145v125h-410v-125h-145v270h82c34 87 47 171 47 286v284h487v-570zM289 415c0 -119 -13 -201 -46 -285h223v425h-177v-140z" />
    <glyph glyph-name="uni0415" unicode="&#x415;" horiz-adv-x="530" 
d="M216 141h283v-141h-438v700h433v-141h-278v-114h250v-141h-250v-163z" />
    <glyph glyph-name="uni0416" unicode="&#x416;" horiz-adv-x="1127" 
d="M1127 0h-219l-271 345v-345h-147v345l-272 -345h-218l311 366l-266 334h204l241 -319v319h147v-319l238 319h207l-266 -334z" />
    <glyph glyph-name="uni0417" unicode="&#x417;" horiz-adv-x="599" 
d="M277 715c167 0 268 -58 268 -178c0 -93 -60 -145 -155 -165v-2c110 -15 183 -63 183 -179c0 -114 -76 -206 -289 -206c-102 0 -197 23 -273 64l69 135c61 -32 127 -54 199 -54c96 0 138 32 138 80c0 61 -72 82 -184 82h-64v137h65c108 0 154 32 154 77
c0 37 -30 64 -114 64c-63 0 -138 -21 -192 -44l-56 141c61 22 144 48 251 48z" />
    <glyph glyph-name="uni0418" unicode="&#x418;" horiz-adv-x="744" 
d="M61 700h155v-442h1l335 442h131v-700h-155v441h-1l-334 -441h-132v700z" />
    <glyph glyph-name="uni0419" unicode="&#x419;" horiz-adv-x="744" 
d="M545 864c-5 -86 -61 -140 -164 -140s-158 54 -164 140h103c1 -34 21 -60 61 -60c41 0 60 26 61 60h103zM61 700h155v-442h1l335 442h131v-700h-155v441h-1l-334 -441h-132v700z" />
    <glyph glyph-name="uni041A" unicode="&#x41a;" horiz-adv-x="726" 
d="M726 0h-221l-289 336v-336h-155v700h155v-310l249 310h211l-289 -328z" />
    <glyph glyph-name="uni041B" unicode="&#x41b;" horiz-adv-x="717" 
d="M656 700v-700h-155v555h-251v-378c0 -124 -58 -180 -180 -180h-60v145h44c25 0 41 16 41 49v509h561z" />
    <glyph glyph-name="uni041C" unicode="&#x41c;" horiz-adv-x="887" 
d="M709 700l178 -700h-161l-95 399h-2l-130 -299h-111l-129 299h-2l-95 -399h-162l179 700h117l147 -357h2l147 357h117z" />
    <glyph glyph-name="uni041D" unicode="&#x41d;" horiz-adv-x="723" 
d="M507 700h155v-700h-155v294h-291v-294h-155v700h155v-260h291v260z" />
    <glyph glyph-name="uni041E" unicode="&#x41e;" horiz-adv-x="780" 
d="M390 715c208 0 369 -146 369 -365s-161 -365 -369 -365s-369 146 -369 365s161 365 369 365zM390 555c-112 0 -198 -79 -198 -205s86 -205 198 -205s198 79 198 205s-86 205 -198 205z" />
    <glyph glyph-name="uni041F" unicode="&#x41f;" horiz-adv-x="722" 
d="M661 700v-700h-155v555h-290v-555h-155v700h600z" />
    <glyph glyph-name="uni0420" unicode="&#x420;" horiz-adv-x="575" 
d="M311 700c177 0 258 -98 258 -224c0 -137 -81 -236 -258 -236h-95v-240h-155v700h250zM298 380c64 0 106 31 106 93c0 61 -42 86 -106 86h-82v-179h82z" />
    <glyph glyph-name="uni0421" unicode="&#x421;" horiz-adv-x="667" 
d="M405 -15c-221 0 -384 142 -384 365s163 365 384 365c109 0 190 -35 251 -78l-84 -136c-45 30 -99 54 -167 54c-122 0 -213 -78 -213 -205s91 -205 213 -205c68 0 122 24 167 54l84 -136c-61 -43 -142 -78 -251 -78z" />
    <glyph glyph-name="uni0422" unicode="&#x422;" horiz-adv-x="534" 
d="M529 700v-141h-184v-559h-155v559h-185v141h524z" />
    <glyph glyph-name="uni0423" unicode="&#x423;" horiz-adv-x="713" 
d="M534 700h179l-340 -700h-179l83 172l-277 528h205l159 -348z" />
    <glyph glyph-name="uni0424" unicode="&#x424;" horiz-adv-x="838" 
d="M817 350c0 -188 -120 -312 -325 -316v-64h-146v64c-205 4 -325 128 -325 316c0 187 120 312 325 316v64h146v-64c205 -4 325 -129 325 -316zM183 351c0 -109 54 -172 168 -173v344c-112 -1 -168 -60 -168 -171zM487 178c114 1 168 64 168 173c0 111 -56 170 -168 171
v-344z" />
    <glyph glyph-name="uni0425" unicode="&#x425;" horiz-adv-x="722" 
d="M721 0h-198l-162 244l-162 -244h-198l260 369l-236 331h197l139 -207l139 207h197l-236 -331z" />
    <glyph glyph-name="uni0426" unicode="&#x426;" horiz-adv-x="745" 
d="M645 145h93v-285h-146v140h-531v700h155v-555h274v555h155v-555z" />
    <glyph glyph-name="uni0427" unicode="&#x427;" horiz-adv-x="629" 
d="M413 700h155v-700h-155v260h-186c-143 0 -212 65 -212 209v231h155v-217c0 -51 29 -77 74 -77h169v294z" />
    <glyph glyph-name="uni0428" unicode="&#x428;" horiz-adv-x="1096" 
d="M61 0v700h155v-555h254v555h155v-555h255v555h155v-700h-974z" />
    <glyph glyph-name="uni0429" unicode="&#x429;" horiz-adv-x="1135" 
d="M1035 145h93v-285h-145v140h-922v700h155v-555h254v555h155v-555h255v555h155v-555z" />
    <glyph glyph-name="uni042A" unicode="&#x42a;" horiz-adv-x="735" 
d="M485 451c127 0 239 -62 239 -226c0 -163 -112 -225 -239 -225h-289v555h-191v145h346v-145v-104h134zM464 140c58 0 98 27 98 85c0 59 -40 86 -98 86h-113v-171h113z" />
    <glyph glyph-name="uni042B" unicode="&#x42b;" horiz-adv-x="874" 
d="M350 451c126 0 238 -62 238 -226c0 -163 -112 -225 -238 -225h-289v700h155v-249h134zM658 700h155v-700h-155v700zM328 140c59 0 99 27 99 85c0 59 -40 86 -99 86h-112v-171h112z" />
    <glyph glyph-name="uni042C" unicode="&#x42c;" horiz-adv-x="599" 
d="M350 451c126 0 238 -62 238 -226c0 -163 -112 -225 -238 -225h-289v700h155v-249h134zM328 140c59 0 99 27 99 85c0 59 -40 86 -99 86h-112v-171h112z" />
    <glyph glyph-name="uni042D" unicode="&#x42d;" horiz-adv-x="658" 
d="M274 715c210 0 363 -130 363 -365s-153 -365 -363 -365c-110 0 -198 35 -263 76l84 138c49 -32 112 -54 175 -54c97 0 169 48 190 144h-259v142h254c-26 83 -95 124 -185 124c-63 0 -126 -22 -175 -54l-84 138c65 41 153 76 263 76z" />
    <glyph glyph-name="uni042E" unicode="&#x42e;" horiz-adv-x="1052" 
d="M662 715c208 0 369 -146 369 -365s-161 -365 -369 -365c-184 0 -330 114 -362 292h-84v-277h-155v700h155v-277h84c32 178 178 292 362 292zM662 145c113 0 199 79 199 205s-86 205 -199 205c-112 0 -198 -79 -198 -205s86 -205 198 -205z" />
    <glyph glyph-name="uni042F" unicode="&#x42f;" horiz-adv-x="637" 
d="M286 700h290v-700h-155v263h-52l-170 -263h-188l186 275c-99 29 -150 108 -150 206c0 122 82 219 239 219zM308 395h113v164h-113c-61 0 -96 -30 -96 -82c0 -58 35 -82 96 -82z" />
    <glyph glyph-name="uni0430" unicode="&#x430;" horiz-adv-x="586" 
d="M240 -15c-120 0 -219 84 -219 246s99 246 219 246c75 0 122 -31 151 -78h2v63h151v-462h-151v63h-2c-29 -47 -76 -78 -151 -78zM282 123c61 0 107 42 107 108s-46 108 -107 108c-60 0 -106 -42 -106 -108s46 -108 106 -108z" />
    <glyph glyph-name="uni0431" unicode="&#x431;" horiz-adv-x="571" 
d="M291 -15c-143 0 -270 77 -270 317c0 149 48 255 127 299c50 28 150 51 185 63c32 11 39 24 40 41h153c0 -66 -23 -117 -85 -140c-44 -17 -167 -39 -214 -63c-53 -26 -70 -79 -77 -149h3c29 79 99 114 178 114c126 0 219 -92 219 -236c0 -147 -96 -246 -259 -246zM287 123
c60 0 108 41 108 108s-48 108 -108 108c-59 0 -107 -41 -107 -108s48 -108 107 -108z" />
    <glyph glyph-name="uni0432" unicode="&#x432;" horiz-adv-x="526" 
d="M405 245c64 -8 100 -42 100 -111c0 -94 -69 -134 -148 -134h-311v462h303c93 0 142 -45 142 -112c0 -46 -24 -91 -86 -104v-1zM289 358h-92v-72h92c30 0 46 14 46 37c0 25 -16 35 -46 35zM297 104c33 0 51 15 51 43c0 26 -18 39 -50 39h-101v-82h100z" />
    <glyph glyph-name="uni0433" unicode="&#x433;" horiz-adv-x="383" 
d="M378 462v-136h-181v-326h-151v462h332z" />
    <glyph glyph-name="uni0434" unicode="&#x434;" horiz-adv-x="580" 
d="M511 111h59v-241h-126v120h-313v-120h-126v241h60c22 39 31 78 31 128v223h148h205h62v-351zM244 235c0 -48 -9 -87 -27 -124h145v220h-118v-96z" />
    <glyph glyph-name="uni0435" unicode="&#x435;" horiz-adv-x="511" 
d="M265 476c139 0 229 -80 229 -247v-34h-331c10 -58 56 -84 118 -84c56 0 105 23 134 42l55 -114c-49 -30 -112 -54 -191 -54c-155 0 -258 97 -258 244c0 156 102 247 244 247zM260 369c-51 0 -89 -25 -96 -85h184c-2 54 -39 85 -88 85z" />
    <glyph glyph-name="uni0436" unicode="&#x436;" horiz-adv-x="856" 
d="M851 0h-194l-158 212v-212h-142v212l-157 -212h-195l206 252l-176 210h186l136 -183v183h142v-183l136 183h186l-176 -210z" />
    <glyph glyph-name="uni0437" unicode="&#x437;" horiz-adv-x="449" 
d="M211 -15c-70 0 -149 12 -205 36l43 110c43 -14 103 -30 157 -30c52 0 74 13 74 39c0 30 -24 45 -70 45h-92v100h94c35 0 52 16 52 41c0 26 -26 37 -67 37c-45 0 -94 -11 -141 -23l-33 109c48 12 111 28 191 28c127 0 203 -31 203 -127c0 -55 -32 -92 -98 -104v-2
c68 -9 110 -53 110 -117c0 -92 -66 -142 -218 -142z" />
    <glyph glyph-name="uni0438" unicode="&#x438;" horiz-adv-x="575" 
d="M46 0v462h151v-250h2l196 250h133v-462h-151v250h-2l-196 -250h-133z" />
    <glyph glyph-name="uni0439" unicode="&#x439;" horiz-adv-x="575" 
d="M460 654c0 -97 -70 -162 -164 -162c-93 0 -164 65 -164 162h95c2 -35 19 -70 69 -70s67 35 69 70h95zM46 0v462h151v-250h2l196 250h133v-462h-151v250h-2l-196 -250h-133z" />
    <glyph glyph-name="uni043A" unicode="&#x43a;" horiz-adv-x="554" 
d="M550 0h-195l-158 212v-212h-151v462h151v-182l136 182h186l-183 -210z" />
    <glyph glyph-name="uni043B" unicode="&#x43b;" horiz-adv-x="565" 
d="M519 462v-462h-151v326h-135v-159c0 -115 -67 -168 -168 -168h-55v140h31c24 0 41 12 41 56v267h437z" />
    <glyph glyph-name="uni043C" unicode="&#x43c;" horiz-adv-x="697" 
d="M10 0l144 462h109l84 -202h2l85 202h109l143 -462h-146l-69 245h-2l-74 -186h-93l-74 186h-2l-69 -245h-147z" />
    <glyph glyph-name="uni043D" unicode="&#x43d;" horiz-adv-x="561" 
d="M364 462h151v-462h-151v172h-167v-172h-151v462h151v-154h167v154z" />
    <glyph glyph-name="uni043E" unicode="&#x43e;" horiz-adv-x="561" 
d="M280 477c150 0 260 -98 260 -246s-110 -246 -260 -246c-149 0 -259 98 -259 246s110 246 259 246zM280 339c-60 0 -108 -42 -108 -108s48 -108 108 -108c61 0 108 42 108 108s-47 108 -108 108z" />
    <glyph glyph-name="uni043F" unicode="&#x43f;" horiz-adv-x="564" 
d="M517 462v-462h-150v326h-170v-326h-151v462h151h320z" />
    <glyph glyph-name="uni0440" unicode="&#x440;" horiz-adv-x="590" 
d="M46 -200v662h151v-63h2c29 47 77 78 151 78c120 0 219 -84 219 -246s-99 -246 -219 -246c-74 0 -122 31 -151 78h-2v-263h-151zM308 123c60 0 106 42 106 108s-46 108 -106 108c-61 0 -107 -42 -107 -108s46 -108 107 -108z" />
    <glyph glyph-name="uni0441" unicode="&#x441;" horiz-adv-x="451" 
d="M278 -15c-148 0 -257 97 -257 246s109 246 257 246c65 0 117 -16 167 -45l-62 -121c-28 18 -57 28 -98 28c-60 0 -113 -39 -113 -108s53 -108 113 -108c41 0 70 10 98 28l62 -121c-50 -29 -102 -45 -167 -45z" />
    <glyph glyph-name="uni0442" unicode="&#x442;" horiz-adv-x="455" 
d="M450 462v-136h-147v-326h-151v326h-147v136h445z" />
    <glyph glyph-name="uni0443" unicode="&#x443;" horiz-adv-x="560" 
d="M402 462h153l-307 -662h-152l116 244l-207 418h174l108 -255z" />
    <glyph glyph-name="uni0444" unicode="&#x444;" horiz-adv-x="888" 
d="M372 -200v263h-2c-27 -47 -67 -78 -141 -78c-117 0 -203 84 -203 246s86 246 203 246c74 0 114 -31 141 -78h2v276h145v-276h2c27 47 66 78 140 78c117 0 203 -84 203 -246s-86 -246 -203 -246c-74 0 -113 31 -140 78h-2v-263h-145zM281 117c60 0 96 39 96 114
s-36 114 -96 114s-96 -39 -96 -114s36 -114 96 -114zM607 117c61 0 96 39 96 114s-35 114 -96 114c-60 0 -95 -39 -95 -114s35 -114 95 -114z" />
    <glyph glyph-name="uni0445" unicode="&#x445;" horiz-adv-x="563" 
d="M384 0l-102 144l-103 -144h-174l185 242l-168 220h175l85 -122l84 122h175l-168 -220l185 -242h-174z" />
    <glyph glyph-name="uni0446" unicode="&#x446;" horiz-adv-x="592" 
d="M516 136h65v-266h-144v130h-240h-151v462h151v-326h168v326h151v-326z" />
    <glyph glyph-name="uni0447" unicode="&#x447;" horiz-adv-x="509" 
d="M312 462h151v-462h-151v149h-132c-106 0 -170 48 -170 171v142h151v-130c0 -41 19 -52 57 -52h94v182z" />
    <glyph glyph-name="uni0448" unicode="&#x448;" horiz-adv-x="859" 
d="M662 462h150v-462h-150h-308h-249h-59v462h151v-326h157v326h151v-326h157v326z" />
    <glyph glyph-name="uni0449" unicode="&#x449;" horiz-adv-x="888" 
d="M812 136h65v-266h-144v130h-228h-308h-151v462h151v-326h157v326h151v-326h157v326h150v-326z" />
    <glyph glyph-name="uni044A" unicode="&#x44a;" horiz-adv-x="594" 
d="M400 336c106 0 179 -52 179 -168c0 -115 -73 -168 -179 -168h-253v326h-142v136h293v-126h102zM368 116c38 0 60 17 60 52s-22 52 -60 52h-70v-104h70z" />
    <glyph glyph-name="uni044B" unicode="&#x44b;" horiz-adv-x="717" 
d="M300 336c106 0 179 -52 179 -168c0 -115 -73 -168 -179 -168h-254v462h151v-126h103zM520 462h151v-462h-151v462zM268 116c38 0 59 18 59 52c0 35 -21 52 -59 52h-71v-104h71z" />
    <glyph glyph-name="uni044C" unicode="&#x44c;" horiz-adv-x="494" 
d="M300 336c106 0 179 -52 179 -168c0 -115 -73 -168 -179 -168h-254v462h151v-126h103zM268 116c38 0 59 18 59 52c0 35 -21 52 -59 52h-71v-104h71z" />
    <glyph glyph-name="uni044D" unicode="&#x44d;" horiz-adv-x="453" 
d="M182 477c147 0 246 -87 246 -246s-99 -246 -246 -246c-66 0 -125 13 -176 41l62 126c29 -16 63 -28 104 -28c48 0 85 16 99 62h-137v90h137c-14 46 -51 62 -99 62c-41 0 -75 -12 -104 -28l-62 126c51 27 110 41 176 41z" />
    <glyph glyph-name="uni044E" unicode="&#x44e;" horiz-adv-x="795" 
d="M515 477c150 0 259 -98 259 -246s-109 -246 -259 -246c-127 0 -225 71 -252 183h-66v-168h-151v462h151v-168h66c27 112 125 183 252 183zM515 123c61 0 108 42 108 108s-47 108 -108 108s-108 -42 -108 -108s47 -108 108 -108z" />
    <glyph glyph-name="uni044F" unicode="&#x44f;" horiz-adv-x="541" 
d="M206 462h289v-462h-151v149h-22l-119 -149h-188l133 157c-70 21 -107 82 -107 149c0 98 66 156 165 156zM273 347c-45 0 -63 -21 -63 -50c0 -27 18 -49 63 -49h71v99h-71z" />
    <glyph glyph-name="uni0451" unicode="&#x451;" horiz-adv-x="511" 
d="M233 649v-135h-114v135h114zM410 649v-135h-114v135h114zM265 476c139 0 229 -80 229 -247v-34h-331c10 -58 56 -84 118 -84c56 0 105 23 134 42l55 -114c-49 -30 -112 -54 -191 -54c-155 0 -258 97 -258 244c0 156 102 247 244 247zM260 369c-51 0 -89 -25 -96 -85h184
c-2 54 -39 85 -88 85z" />
    <glyph glyph-name="uni0452" unicode="&#x452;" horiz-adv-x="563" 
d="M522 -23c0 -129 -65 -177 -170 -177h-68v135h40c27 0 47 5 47 50v16v243c0 69 -29 100 -84 100c-51 0 -89 -30 -89 -112v-232h-151v546h-65v87h65v67h151v-67h132v-87h-132v-145h2c32 49 82 76 148 76c102 0 174 -59 174 -191v-309z" />
    <glyph glyph-name="uni0453" unicode="&#x453;" horiz-adv-x="383" 
d="M427 657l-162 -154h-118l115 154h165zM378 462v-136h-181v-326h-151v462h332z" />
    <glyph glyph-name="uni0454" unicode="&#x454;" horiz-adv-x="454" 
d="M281 124c41 0 75 12 105 28l61 -126c-51 -28 -109 -41 -175 -41c-148 0 -246 87 -246 246s98 246 246 246c66 0 124 -14 175 -41l-61 -126c-30 16 -64 28 -105 28c-48 0 -85 -16 -98 -62h137v-90h-137c13 -46 50 -62 98 -62z" />
    <glyph glyph-name="uni0455" unicode="&#x455;" horiz-adv-x="434" 
d="M219 -15c-61 0 -139 13 -209 48l57 124c50 -29 107 -53 164 -53c27 0 42 6 42 21c0 18 -18 21 -32 27l-81 32c-76 29 -113 74 -113 143c0 95 65 150 198 150c52 0 108 -9 167 -28l-42 -122c-49 20 -100 34 -137 34c-30 0 -37 -8 -37 -20c0 -14 12 -20 35 -29l80 -30
c70 -26 112 -63 112 -141c0 -110 -81 -156 -204 -156z" />
    <glyph glyph-name="uni0456" unicode="&#x456;" horiz-adv-x="244" 
d="M203 699v-152h-162v152h162zM47 0v462h151v-462h-151z" />
    <glyph glyph-name="uni0457" unicode="&#x457;" horiz-adv-x="244" 
d="M110 649v-135h-114v135h114zM248 649v-135h-114v135h114zM47 0v462h151v-462h-151z" />
    <glyph glyph-name="uni0458" unicode="&#x458;" horiz-adv-x="244" 
d="M203 699v-152h-162v152h162zM-39 -63h25c42 0 61 21 61 66v459h151v-458c0 -139 -61 -207 -187 -207h-50v140z" />
    <glyph glyph-name="uni0459" unicode="&#x459;" horiz-adv-x="794" 
d="M600 336c106 0 179 -52 179 -168c0 -115 -73 -168 -179 -168h-252v326h-126v-160c0 -114 -67 -167 -167 -167h-45v140h21c23 0 41 12 41 56v267h427v-126h101zM569 115c37 0 59 19 59 53c0 35 -22 52 -59 52h-70v-105h70z" />
    <glyph glyph-name="uni045A" unicode="&#x45a;" horiz-adv-x="800" 
d="M606 327c106 0 179 -51 179 -163c0 -113 -73 -164 -179 -164h-252v211h-157v-211h-151v462h151v-135h157v135h151v-135h101zM575 116c38 0 59 16 59 47c0 32 -21 48 -59 48h-70v-95h70z" />
    <glyph glyph-name="uni045B" unicode="&#x45b;" horiz-adv-x="563" 
d="M348 477c102 0 174 -59 174 -191v-286h-151v244c0 69 -29 100 -84 100c-51 0 -89 -30 -89 -112v-232h-151v546h-65v87h65v67h151v-67h132v-87h-132v-145h2c32 49 82 76 148 76z" />
    <glyph glyph-name="uni045C" unicode="&#x45c;" horiz-adv-x="554" 
d="M484 657l-162 -154h-118l115 154h165zM550 0h-195l-158 212v-212h-151v462h151v-182l136 182h186l-183 -210z" />
    <glyph glyph-name="uni045E" unicode="&#x45e;" horiz-adv-x="560" 
d="M288 492c-93 0 -164 65 -164 162h95c2 -35 19 -70 69 -70s67 35 69 70h95c0 -97 -70 -162 -164 -162zM402 462h153l-307 -662h-152l116 244l-207 418h174l108 -255z" />
    <glyph glyph-name="uni045F" unicode="&#x45f;" horiz-adv-x="559" 
d="M362 462h151v-462h-166v-130h-135v130h-166v462h151v-331h165v331z" />
    <glyph glyph-name="uni0462" unicode="&#x462;" horiz-adv-x="642" 
d="M393 451c127 0 238 -62 238 -226c0 -163 -111 -225 -238 -225h-289v517h-99v118h99v65h155v-65h208v-118h-208v-66h134zM371 140c59 0 99 27 99 85c0 59 -40 86 -99 86h-112v-171h112z" />
    <glyph glyph-name="uni0463" unicode="&#x463;" horiz-adv-x="521" 
d="M321 336c110 0 185 -52 185 -168c0 -115 -75 -168 -185 -168h-253v386h-86v76h86v238h151v-238h141v-76h-141v-50h102zM289 120c36 0 56 16 56 48s-20 48 -56 48h-70v-96h70z" />
    <glyph glyph-name="uni0472" unicode="&#x472;" horiz-adv-x="780" 
d="M390 715c208 0 369 -146 369 -365s-161 -365 -369 -365s-369 146 -369 365s161 365 369 365zM390 560c-106 0 -188 -65 -205 -171h410c-17 106 -99 171 -205 171zM390 140c106 0 188 65 205 171h-410c17 -106 99 -171 205 -171z" />
    <glyph glyph-name="uni0473" unicode="&#x473;" horiz-adv-x="561" 
d="M280 477c150 0 260 -98 260 -246s-110 -246 -260 -246c-149 0 -259 98 -259 246s110 246 259 246zM280 349c-56 0 -102 -33 -114 -88h229c-13 55 -58 88 -115 88zM280 113c57 0 102 33 115 88h-229c12 -55 58 -88 114 -88z" />
    <glyph glyph-name="uni0474" unicode="&#x474;" horiz-adv-x="734" 
d="M628 517l-198 -517h-165l-265 700h185l161 -503h2l129 377c31 89 78 136 191 136c24 0 41 -1 66 -4v-144c-15 2 -32 3 -41 3c-29 0 -50 -11 -65 -48z" />
    <glyph glyph-name="uni0475" unicode="&#x475;" horiz-adv-x="533" 
d="M514 471h14v-139h-10c-24 0 -38 -12 -46 -33l-124 -299h-151l-192 462h166l101 -293l69 197c26 78 82 105 173 105z" />
    <glyph glyph-name="uni048E" unicode="&#x48e;" horiz-adv-x="575" 
d="M569 476c0 -84 -31 -154 -95 -196l47 -67l-50 -35l-54 76c-31 -9 -66 -14 -106 -14h-95v-240h-155v700h250c177 0 258 -98 258 -224zM298 380c10 0 19 1 28 3l-43 62l50 35l49 -70c14 15 22 36 22 63c0 61 -42 86 -106 86h-82v-179h82z" />
    <glyph glyph-name="uni048F" unicode="&#x48f;" horiz-adv-x="590" 
d="M569 231c0 -91 -31 -157 -79 -198l44 -53l-44 -38l-50 61c-28 -12 -58 -18 -90 -18c-74 0 -122 31 -151 78h-2v-263h-151v662h151v-63h2c29 47 77 78 151 78c120 0 219 -84 219 -246zM308 123c10 0 20 1 30 4l-45 54l44 38l51 -62c17 18 26 44 26 74
c0 66 -46 108 -106 108c-61 0 -107 -42 -107 -108s46 -108 107 -108z" />
    <glyph glyph-name="uni0490" unicode="&#x490;" horiz-adv-x="512" 
d="M352 840h155v-286h-291v-554h-155v700h291v140z" />
    <glyph glyph-name="uni0491" unicode="&#x491;" horiz-adv-x="417" 
d="M276 553h136v-222h-215v-331h-151v462h230v91z" />
    <glyph glyph-name="uni0492" unicode="&#x492;" horiz-adv-x="515" 
d="M509 555h-272v-158h189v-136h-189v-261h-155v261h-77v136h77v303h427v-145z" />
    <glyph glyph-name="uni0493" unicode="&#x493;" horiz-adv-x="427" 
d="M422 326h-181v-73h124v-109h-124v-144h-151v144h-80v109h80v209h332v-136z" />
    <glyph glyph-name="uni0494" unicode="&#x494;" horiz-adv-x="628" 
d="M414 402c134 0 198 -56 198 -181v-217c0 -151 -83 -204 -216 -204h-73v145h56c54 0 78 21 78 84v169c0 45 -25 58 -85 58c-56 0 -103 -3 -156 -9v-247h-155v700h427v-145h-272v-161c64 6 127 8 198 8z" />
    <glyph glyph-name="uni0495" unicode="&#x495;" horiz-adv-x="530" 
d="M328 257c120 0 181 -57 181 -173v-73c0 -145 -79 -211 -191 -211h-57v136h42c39 0 55 25 55 75v60c0 43 -21 54 -59 54c-30 0 -68 -4 -102 -10v-115h-151v462h372v-136h-221v-80c43 6 92 11 131 11z" />
    <glyph glyph-name="uni0496" unicode="&#x496;" horiz-adv-x="1119" 
d="M1032 111h95v-251h-146v140h-73l-271 345v-345h-147v345l-272 -345h-218l311 366l-266 334h204l241 -319v319h147v-319l238 319h207l-266 -334z" />
    <glyph glyph-name="uni0497" unicode="&#x497;" horiz-adv-x="866" 
d="M791 74h65v-204h-126v130h-73l-158 212v-212h-142v212l-157 -212h-195l206 252l-176 210h186l136 -183v183h142v-183l136 183h186l-176 -210z" />
    <glyph glyph-name="uni0498" unicode="&#x498;" horiz-adv-x="599" 
d="M573 191c0 -107 -67 -194 -249 -205l-10 -24c54 -9 89 -22 89 -62c0 -53 -71 -77 -168 -112l-16 37c52 22 81 36 81 53c0 18 -17 24 -56 33l28 74c-98 2 -188 24 -261 64l69 135c61 -32 127 -54 199 -54c96 0 138 32 138 80c0 61 -72 82 -184 82h-64v137h65
c108 0 154 32 154 77c0 37 -30 64 -114 64c-63 0 -138 -21 -192 -44l-56 141c61 22 144 48 251 48c167 0 268 -58 268 -178c0 -93 -60 -145 -155 -165v-2c110 -15 183 -63 183 -179z" />
    <glyph glyph-name="uni0499" unicode="&#x499;" horiz-adv-x="449" 
d="M429 127c0 -83 -54 -132 -178 -141l-10 -24c54 -9 89 -22 89 -62c0 -53 -71 -77 -168 -112l-16 37c52 22 81 36 81 53c0 18 -17 24 -56 33l28 74c-67 1 -140 14 -193 36l43 110c43 -14 103 -30 157 -30c52 0 74 13 74 39c0 30 -24 45 -70 45h-92v100h94c35 0 52 16 52 41
c0 26 -26 37 -67 37c-45 0 -94 -11 -141 -23l-33 109c48 12 111 28 191 28c127 0 203 -31 203 -127c0 -55 -32 -92 -98 -104v-2c68 -9 110 -53 110 -117z" />
    <glyph glyph-name="uni049A" unicode="&#x49a;" horiz-adv-x="720" 
d="M625 111h103v-251h-146v140h-77l-289 336v-336h-155v700h155v-310l249 310h211l-289 -328z" />
    <glyph glyph-name="uni049B" unicode="&#x49b;" horiz-adv-x="564" 
d="M487 74h67v-204h-126v130h-73l-158 212v-212h-151v462h151v-182l136 182h186l-183 -210z" />
    <glyph glyph-name="uni049C" unicode="&#x49c;" horiz-adv-x="806" 
d="M584 0l-226 301h-34v-127h-52v127h-56v-301h-155v700h155v-254h56v121h52v-121h46l173 254h208l-253 -328l308 -372h-222z" />
    <glyph glyph-name="uni049D" unicode="&#x49d;" horiz-adv-x="585" 
d="M389 0l-121 191h-16v-93h-28v93h-27v-191h-151v462h151v-161h27v96h28v-96h14l112 161h182l-168 -211l188 -251h-191z" />
    <glyph glyph-name="uni049E" unicode="&#x49e;" horiz-adv-x="759" 
d="M758 0h-220l-290 336v-336h-155v547h-88v106h88v47h155v-47h107v-106h-107v-158l249 311h211l-289 -328z" />
    <glyph glyph-name="uni049F" unicode="&#x49f;" horiz-adv-x="555" 
d="M550 0h-195l-157 212v-212h-151v546h-65v87h65v67h151v-67h132v-87h-132v-266l135 182h187l-183 -210z" />
    <glyph glyph-name="uni04A0" unicode="&#x4a0;" horiz-adv-x="861" 
d="M860 0h-220l-290 336v-336h-155v555h-190v145h262h83v-311l249 311h212l-290 -328z" />
    <glyph glyph-name="uni04A1" unicode="&#x4a1;" horiz-adv-x="655" 
d="M650 0h-195l-157 211v-211h-151v326h-142v136h289h4v-181l135 181h187l-183 -210z" />
    <glyph glyph-name="uni04A2" unicode="&#x4a2;" horiz-adv-x="725" 
d="M662 111h71v-251h-145v140h-81v294h-291v-294h-155v700h155v-260h291v260h155v-589z" />
    <glyph glyph-name="uni04A3" unicode="&#x4a3;" horiz-adv-x="589" 
d="M515 74h64v-204h-126v130h-89v172h-167v-172h-151v462h151v-154h167v154h151v-388z" />
    <glyph glyph-name="uni04A4" unicode="&#x4a4;" horiz-adv-x="902" 
d="M897 700v-145h-255v-555h-155v294h-271v-294h-155v700h155v-260h271v260h410z" />
    <glyph glyph-name="uni04A5" unicode="&#x4a5;" horiz-adv-x="693" 
d="M689 462v-136h-185v-326h-151v172h-156v-172h-151v462h151v-154h156v154h336z" />
    <glyph glyph-name="uni04A6" unicode="&#x4a6;" horiz-adv-x="1073" 
d="M860 447c134 0 198 -57 198 -182v-72c0 -145 -79 -193 -208 -193h-73v145h56c49 0 70 16 70 63v34c0 46 -25 59 -85 59c-56 0 -103 -4 -157 -9v-292h-155v555h-290v-555h-155v700h600v-262c64 6 127 9 199 9z" />
    <glyph glyph-name="uni04A7" unicode="&#x4a7;" horiz-adv-x="855" 
d="M654 305c119 0 180 -57 180 -173v-120c0 -146 -78 -212 -189 -212h-57v136h42c38 0 54 25 54 76v108c0 42 -22 53 -60 53c-31 0 -71 -4 -107 -11v-162h-150v326h-170v-326h-151v462h151h259h61v-169c45 7 100 12 137 12z" />
    <glyph glyph-name="uni04A8" unicode="&#x4a8;" horiz-adv-x="827" 
d="M822 16c-48 -20 -103 -31 -158 -31c-56 0 -108 10 -148 28c-39 -19 -81 -28 -133 -28c-213 0 -352 148 -352 368c0 232 153 362 393 362c31 0 66 -4 102 -11l-35 -136c-19 3 -41 5 -63 5c-140 0 -226 -73 -226 -226c0 -135 71 -219 172 -232c-36 47 -60 110 -60 186
c0 138 91 218 215 218c127 0 207 -82 207 -209c0 -84 -31 -152 -74 -200c4 0 9 -1 14 -1c48 0 79 9 110 22zM529 378c-41 0 -63 -31 -63 -91c0 -58 21 -103 59 -133c39 32 64 80 64 140c0 50 -17 84 -60 84z" />
    <glyph glyph-name="uni04A9" unicode="&#x4a9;" 
d="M568 92l27 -88c-32 -12 -60 -19 -95 -19c-38 0 -72 8 -101 28c-32 -22 -74 -28 -113 -28c-163 0 -265 94 -265 251c0 170 123 241 282 241c36 0 76 -4 112 -10l-26 -114c-21 4 -43 6 -64 6c-89 0 -155 -35 -155 -131c0 -67 33 -119 96 -137c-17 27 -26 59 -26 94
c0 99 73 147 165 147c87 0 151 -45 151 -137c0 -50 -20 -90 -49 -119c20 2 40 7 61 16zM403 231c-25 0 -44 -19 -44 -58c0 -32 11 -56 32 -72c30 15 52 40 52 79c0 29 -13 51 -40 51z" />
    <glyph glyph-name="uni04AA" unicode="&#x4aa;" horiz-adv-x="667" 
d="M656 63c-59 -42 -135 -75 -238 -78l-10 -23c54 -9 89 -22 89 -62c0 -53 -71 -77 -168 -112l-16 37c52 22 81 36 81 53c0 18 -17 24 -56 33l28 75c-200 16 -345 154 -345 364c0 223 163 365 384 365c109 0 190 -35 251 -78l-84 -136c-45 30 -99 54 -167 54
c-122 0 -213 -78 -213 -205s91 -205 213 -205c68 0 122 24 167 54z" />
    <glyph glyph-name="uni04AB" unicode="&#x4ab;" horiz-adv-x="451" 
d="M445 30c-45 -26 -90 -41 -146 -44l-10 -24c54 -9 89 -22 89 -62c0 -53 -71 -77 -168 -112l-16 37c52 22 81 36 81 53c0 18 -17 24 -56 33l28 75c-132 13 -226 107 -226 245c0 149 109 246 257 246c65 0 117 -16 167 -45l-62 -121c-28 18 -57 28 -98 28
c-60 0 -113 -39 -113 -108s53 -108 113 -108c41 0 70 10 98 28z" />
    <glyph glyph-name="uni04AC" unicode="&#x4ac;" horiz-adv-x="534" 
d="M529 559h-184v-448h92v-251h-145v140h-102v559h-185v141h524v-141z" />
    <glyph glyph-name="uni04AD" unicode="&#x4ad;" horiz-adv-x="455" 
d="M450 326h-147v-252h64v-204h-126v130h-89v326h-147v136h445v-136z" />
    <glyph glyph-name="uni04AE" unicode="&#x4ae;" horiz-adv-x="659" 
d="M659 700l-252 -448v-252h-155v252l-252 448h186l142 -293h2l143 293h186z" />
    <glyph glyph-name="uni04AF" unicode="&#x4af;" horiz-adv-x="545" 
d="M540 462l-192 -462v-200h-151v200l-192 462h166l101 -292l101 292h167z" />
    <glyph glyph-name="uni04B0" unicode="&#x4b0;" horiz-adv-x="659" 
d="M659 700l-240 -426h119v-117h-131v-157h-155v157h-132v117h119l-239 426h186l142 -293h2l143 293h186z" />
    <glyph glyph-name="uni04B1" unicode="&#x4b1;" horiz-adv-x="545" 
d="M540 462l-190 -457h112v-103h-114v-102h-151v102h-114v103h112l-190 457h166l101 -292l101 292h167z" />
    <glyph glyph-name="uni04B2" unicode="&#x4b2;" horiz-adv-x="752" 
d="M643 111h116v-251h-145v140h-91l-162 244l-162 -244h-198l260 369l-236 331h197l139 -207l139 207h197l-236 -331z" />
    <glyph glyph-name="uni04B3" unicode="&#x4b3;" horiz-adv-x="591" 
d="M502 74h81v-204h-126v130h-73l-102 144l-103 -144h-174l185 242l-168 220h175l85 -122l84 122h175l-168 -220z" />
    <glyph glyph-name="uni04B4" unicode="&#x4b4;" horiz-adv-x="889" 
d="M789 145h93v-285h-145v140h-532v555h-200v145h355h170v-145h-170v-410h274v555h155v-555z" />
    <glyph glyph-name="uni04B5" unicode="&#x4b5;" horiz-adv-x="710" 
d="M634 136h65v-266h-144v130h-240h-151v326h-159v136h310h103v-136h-103v-190h168v326h151v-326z" />
    <glyph glyph-name="uni04B6" unicode="&#x4b6;" horiz-adv-x="652" 
d="M568 111h92v-251h-145v140h-102v260h-186c-143 0 -212 65 -212 209v231h155v-217c0 -51 29 -77 74 -77h169v294h155v-589z" />
    <glyph glyph-name="uni04B7" unicode="&#x4b7;" horiz-adv-x="546" 
d="M463 74h73v-204h-126v130h-98v149h-132c-106 0 -170 48 -170 171v142h151v-130c0 -41 19 -52 57 -52h94v182h151v-388z" />
    <glyph glyph-name="uni04B8" unicode="&#x4b8;" horiz-adv-x="629" 
d="M413 700h155v-700h-155v260h-82v-119h-59v119h-45c-143 0 -212 65 -212 209v231h155v-217c0 -51 29 -77 74 -77h28v128h59v-128h82v294z" />
    <glyph glyph-name="uni04B9" unicode="&#x4b9;" horiz-adv-x="504" 
d="M312 462h151v-462h-151v149h-38v-78h-30v78h-64c-106 0 -170 48 -170 171v142h151v-130c0 -41 19 -52 57 -52h26v87h30v-87h38v182z" />
    <glyph glyph-name="uni04BA" unicode="&#x4ba;" horiz-adv-x="629" 
d="M402 440c143 0 212 -65 212 -209v-231h-155v217c0 51 -29 77 -74 77h-169v-294h-155v700h155v-260h186z" />
    <glyph glyph-name="uni04BB" unicode="&#x4bb;" horiz-adv-x="563" 
d="M198 700v-299h2c32 49 82 76 148 76c102 0 174 -59 174 -191v-286h-151v244c0 69 -29 100 -84 100c-51 0 -89 -30 -89 -112v-232h-151v700h151z" />
    <glyph glyph-name="uni04BC" unicode="&#x4bc;" horiz-adv-x="965" 
d="M944 350v-65h-2h-546c22 -90 90 -145 212 -145c84 0 150 26 223 69l73 -142c-69 -46 -164 -82 -290 -82c-226 0 -364 120 -391 299h-19c-107 0 -189 50 -189 182c0 21 2 43 9 70h133c-7 -27 -9 -50 -9 -63c0 -40 20 -56 56 -56h19c26 180 163 298 367 298
c229 0 354 -150 354 -365zM591 567c-113 0 -179 -55 -198 -150h376c-15 97 -67 150 -178 150z" />
    <glyph glyph-name="uni04BD" unicode="&#x4bd;" horiz-adv-x="632" 
d="M616 229v-34h-332c11 -58 57 -84 118 -84c56 0 106 23 134 42l56 -114c-50 -30 -113 -54 -191 -54c-143 0 -242 82 -257 210h-12c-82 0 -127 48 -127 126c0 20 2 31 6 51h94c-5 -20 -7 -34 -7 -47c0 -27 17 -41 44 -41h5c21 122 116 192 240 192c139 0 229 -80 229 -247z
M286 284h184c-2 54 -39 85 -88 85c-52 0 -90 -25 -96 -85z" />
    <glyph glyph-name="uni04BE" unicode="&#x4be;" horiz-adv-x="965" 
d="M944 350v-65h-2h-546c22 -90 90 -145 212 -145c84 0 150 26 223 69l73 -142c-39 -26 -87 -49 -145 -64c-47 -44 -74 -77 -74 -97c0 -14 12 -22 26 -22c9 0 25 3 39 6l12 -94c-29 -5 -54 -8 -70 -8c-67 0 -111 25 -111 85c0 38 25 73 67 113c-11 -1 -22 -1 -34 -1
c-226 0 -364 120 -391 299h-19c-107 0 -189 50 -189 182c0 21 2 43 9 70h133c-7 -27 -9 -50 -9 -63c0 -40 20 -56 56 -56h19c26 180 163 298 367 298c229 0 354 -150 354 -365zM591 567c-113 0 -179 -55 -198 -150h376c-15 97 -67 150 -178 150z" />
    <glyph glyph-name="uni04BF" unicode="&#x4bf;" horiz-adv-x="632" 
d="M616 229v-34h-332c11 -58 57 -84 118 -84c56 0 106 23 134 42l56 -114c-18 -11 -37 -20 -57 -29h2c-52 -48 -82 -83 -82 -104c0 -14 12 -22 26 -22c9 0 24 3 39 6l12 -94c-29 -5 -55 -8 -71 -8c-66 0 -110 25 -110 85c0 37 25 72 66 112h-16c-143 0 -242 82 -257 210h-12
c-82 0 -127 48 -127 126c0 20 2 31 6 51h94c-5 -20 -7 -34 -7 -47c0 -27 17 -41 44 -41h5c21 122 116 192 240 192c139 0 229 -80 229 -247zM286 284h184c-2 54 -39 85 -88 85c-52 0 -90 -25 -96 -85z" />
    <glyph glyph-name="uni04C0" unicode="&#x4c0;" horiz-adv-x="277" 
d="M216 700v-700h-155v700h155z" />
    <glyph glyph-name="uni04C1" unicode="&#x4c1;" horiz-adv-x="1127" 
d="M563 724c-103 0 -158 54 -164 140h103c1 -34 21 -60 61 -60c41 0 60 26 61 60h103c-5 -86 -61 -140 -164 -140zM1127 0h-219l-271 345v-345h-147v345l-272 -345h-218l311 366l-266 334h204l241 -319v319h147v-319l238 319h207l-266 -334z" />
    <glyph glyph-name="uni04C2" unicode="&#x4c2;" horiz-adv-x="856" 
d="M428 492c-93 0 -164 65 -164 162h95c2 -35 19 -70 69 -70s67 35 69 70h95c0 -97 -70 -162 -164 -162zM851 0h-194l-158 212v-212h-142v212l-157 -212h-195l206 252l-176 210h186l136 -183v183h142v-183l136 183h186l-176 -210z" />
    <glyph glyph-name="uni04C3" unicode="&#x4c3;" horiz-adv-x="693" 
d="M421 391c140 0 206 -50 206 -190v-197c0 -151 -83 -204 -216 -204h-73v145h56c54 0 78 21 78 84v148c0 60 -28 82 -94 82c-57 0 -106 -4 -162 -10v-249h-155v700h155v-293l251 293h211l-301 -309h44z" />
    <glyph glyph-name="uni04C4" unicode="&#x4c4;" horiz-adv-x="535" 
d="M351 256c110 0 167 -56 167 -171v-74c0 -145 -79 -211 -191 -211h-57v136h42c39 0 55 25 55 75v77c0 42 -21 58 -59 58c-32 0 -75 -2 -111 -6v-140h-151v462h151v-164l136 164h186l-201 -207c11 1 23 1 33 1z" />
    <glyph glyph-name="uni04C5" unicode="&#x4c5;" horiz-adv-x="769" 
d="M656 94h108l-97 -224h-108l51 130h-109v555h-251v-378c0 -124 -58 -180 -180 -180h-60v145h44c25 0 41 16 41 49v509h561v-606z" />
    <glyph glyph-name="uni04C6" unicode="&#x4c6;" horiz-adv-x="610" 
d="M519 94h101l-96 -224h-109l51 130h-98v326h-135v-159c0 -115 -67 -168 -168 -168h-55v140h31c24 0 41 12 41 56v267h151h286v-368z" />
    <glyph glyph-name="uni04C7" unicode="&#x4c7;" horiz-adv-x="723" 
d="M662 -21c0 -131 -71 -179 -187 -179h-81v145h53c41 0 59 15 60 55v294h-291v-294h-155v700h155v-260h291v260h155v-721z" />
    <glyph glyph-name="uni04C8" unicode="&#x4c8;" horiz-adv-x="561" 
d="M515 462v-462h-1v-23c0 -129 -65 -177 -170 -177h-68v135h40c27 0 47 5 47 50v16h1v171h-167v-172h-151v462h151v-154h167v154h151z" />
    <glyph glyph-name="uni04C9" unicode="&#x4c9;" horiz-adv-x="767" 
d="M662 94h100l-97 -224h-108l50 130h-100v294h-291v-294h-155v700h155v-260h291v260h155v-606z" />
    <glyph glyph-name="uni04CA" unicode="&#x4ca;" horiz-adv-x="606" 
d="M515 94h101l-97 -224h-109l51 130h-97v172h-167v-172h-151v462h151v-154h167v154h151v-368z" />
    <glyph glyph-name="uni04CB" unicode="&#x4cb;" horiz-adv-x="629" 
d="M568 700v-700h-132v-140h-145v251h122v149h-186c-143 0 -212 65 -212 209v231h155v-217c0 -51 29 -77 74 -77h169v294h155z" />
    <glyph glyph-name="uni04CC" unicode="&#x4cc;" horiz-adv-x="504" 
d="M463 462v-462h-93v-130h-126v204h68v75h-132c-106 0 -170 48 -170 171v142h151v-130c0 -41 19 -52 57 -52h94v182h151z" />
    <glyph glyph-name="uni04CD" unicode="&#x4cd;" horiz-adv-x="964" 
d="M863 94h96l-97 -224h-109l51 130h-78l-95 399h-2l-130 -299h-111l-129 299h-2l-95 -399h-162l179 700h117l147 -357h2l147 357h117z" />
    <glyph glyph-name="uni04CE" unicode="&#x4ce;" horiz-adv-x="758" 
d="M657 94h111l-97 -224h-109l51 130h-73l-69 245h-2l-74 -186h-93l-74 186h-2l-69 -245h-147l144 462h109l84 -202h2l85 202h109z" />
    <glyph glyph-name="uni04CF" unicode="&#x4cf;" horiz-adv-x="244" 
d="M47 0v462h151v-462h-151z" />
    <glyph glyph-name="uni04D0" unicode="&#x4d0;" horiz-adv-x="716" 
d="M358 724c-103 0 -158 54 -164 140h103c1 -34 21 -60 61 -60c41 0 60 26 61 60h103c-5 -86 -61 -140 -164 -140zM543 0l-50 142h-270l-49 -142h-174l276 700h164l276 -700h-173zM272 280h173l-87 247z" />
    <glyph glyph-name="uni04D1" unicode="&#x4d1;" horiz-adv-x="586" 
d="M443 654c0 -97 -70 -162 -164 -162c-93 0 -164 65 -164 162h95c2 -35 19 -70 69 -70s67 35 69 70h95zM240 -15c-120 0 -219 84 -219 246s99 246 219 246c75 0 122 -31 151 -78h2v63h151v-462h-151v63h-2c-29 -47 -76 -78 -151 -78zM282 123c61 0 107 42 107 108
s-46 108 -107 108c-60 0 -106 -42 -106 -108s46 -108 106 -108z" />
    <glyph glyph-name="uni04D2" unicode="&#x4d2;" horiz-adv-x="716" 
d="M316 857v-114h-133v114h133zM534 857v-114h-134v114h134zM543 0l-50 142h-270l-49 -142h-174l276 700h164l276 -700h-173zM272 280h173l-87 247z" />
    <glyph glyph-name="uni04D3" unicode="&#x4d3;" horiz-adv-x="586" 
d="M248 649v-135h-114v135h114zM425 649v-135h-114v135h114zM240 -15c-120 0 -219 84 -219 246s99 246 219 246c75 0 122 -31 151 -78h2v63h151v-462h-151v63h-2c-29 -47 -76 -78 -151 -78zM282 123c61 0 107 42 107 108s-46 108 -107 108c-60 0 -106 -42 -106 -108
s46 -108 106 -108z" />
    <glyph glyph-name="uni04D4" unicode="&#x4d4;" horiz-adv-x="999" 
d="M705 141h262v-141h-326h-86v142h-267l-86 -142h-202l463 700h242h258v-141h-258v-114h231v-141h-231v-163zM372 280h183v302z" />
    <glyph glyph-name="uni04D5" unicode="&#x4d5;" horiz-adv-x="828" 
d="M211 -15c-116 0 -187 64 -187 165c0 99 69 162 183 162c58 0 107 -17 136 -42h2v20c0 33 -25 72 -103 72c-28 0 -73 -6 -132 -20l-30 115c57 12 108 20 163 20c78 0 136 -17 169 -85h2c34 50 93 84 175 84c131 0 222 -79 222 -247v-34h-328c14 -59 58 -84 116 -84
c56 0 104 22 133 42l55 -114c-49 -30 -114 -54 -188 -54c-91 0 -155 35 -192 93h-2c-51 -68 -122 -93 -194 -93zM484 284h181c-2 54 -39 85 -87 85c-44 0 -87 -25 -94 -85zM266 98c46 0 82 21 82 58s-36 59 -81 59c-47 0 -77 -23 -77 -59s29 -58 76 -58z" />
    <glyph glyph-name="uni04D6" unicode="&#x4d6;" horiz-adv-x="530" 
d="M292 724c-103 0 -158 54 -164 140h103c1 -34 21 -60 61 -60c41 0 60 26 61 60h103c-5 -86 -61 -140 -164 -140zM216 141h283v-141h-438v700h433v-141h-278v-114h250v-141h-250v-163z" />
    <glyph glyph-name="uni04D7" unicode="&#x4d7;" horiz-adv-x="511" 
d="M428 654c0 -97 -70 -162 -164 -162c-93 0 -164 65 -164 162h95c2 -35 19 -70 69 -70s67 35 69 70h95zM265 476c139 0 229 -80 229 -247v-34h-331c10 -58 56 -84 118 -84c56 0 105 23 134 42l55 -114c-49 -30 -112 -54 -191 -54c-155 0 -258 97 -258 244
c0 156 102 247 244 247zM260 369c-51 0 -89 -25 -96 -85h184c-2 54 -39 85 -88 85z" />
    <glyph glyph-name="uni04D8" unicode="&#x4d8;" horiz-adv-x="769" 
d="M359 715c246 0 388 -140 388 -364c0 -222 -141 -366 -368 -366c-232 0 -358 150 -358 359v71h2h547c-22 95 -91 145 -209 145c-80 0 -152 -24 -228 -63l-71 149c72 35 179 69 297 69zM380 133c110 0 174 54 192 150h-376c16 -97 75 -150 184 -150z" />
    <glyph glyph-name="uni04D9" unicode="&#x4d9;" horiz-adv-x="511" 
d="M246 -14c-139 0 -229 80 -229 247v34h331c-10 58 -56 84 -118 84c-56 0 -105 -23 -134 -42l-55 114c50 30 112 54 191 54c155 0 258 -97 258 -244c0 -156 -102 -247 -244 -247zM251 93c51 0 89 25 96 85h-184c2 -54 39 -85 88 -85z" />
    <glyph glyph-name="uni04DA" unicode="&#x4da;" horiz-adv-x="769" 
d="M333 857v-114h-133v114h133zM551 857v-114h-134v114h134zM359 715c246 0 388 -140 388 -364c0 -222 -141 -366 -368 -366c-232 0 -358 150 -358 359v71h2h547c-22 95 -91 145 -209 145c-80 0 -152 -24 -228 -63l-71 149c72 35 179 69 297 69zM380 133
c110 0 174 54 192 150h-376c16 -97 75 -150 184 -150z" />
    <glyph glyph-name="uni04DB" unicode="&#x4db;" horiz-adv-x="511" 
d="M223 649v-135h-114v135h114zM400 649v-135h-114v135h114zM246 -14c-139 0 -229 80 -229 247v34h331c-10 58 -56 84 -118 84c-56 0 -105 -23 -134 -42l-55 114c50 30 112 54 191 54c155 0 258 -97 258 -244c0 -156 -102 -247 -244 -247zM251 93c51 0 89 25 96 85h-184
c2 -54 39 -85 88 -85z" />
    <glyph glyph-name="uni04DC" unicode="&#x4dc;" horiz-adv-x="1127" 
d="M521 857v-114h-133v114h133zM739 857v-114h-134v114h134zM1127 0h-219l-271 345v-345h-147v345l-272 -345h-218l311 366l-266 334h204l241 -319v319h147v-319l238 319h207l-266 -334z" />
    <glyph glyph-name="uni04DD" unicode="&#x4dd;" horiz-adv-x="856" 
d="M397 649v-135h-114v135h114zM574 649v-135h-114v135h114zM851 0h-194l-158 212v-212h-142v212l-157 -212h-195l206 252l-176 210h186l136 -183v183h142v-183l136 183h186l-176 -210z" />
    <glyph glyph-name="uni04DE" unicode="&#x4de;" horiz-adv-x="599" 
d="M255 857v-114h-133v114h133zM473 857v-114h-134v114h134zM277 715c167 0 268 -58 268 -178c0 -93 -60 -145 -155 -165v-2c110 -15 183 -63 183 -179c0 -114 -76 -206 -289 -206c-102 0 -197 23 -273 64l69 135c61 -32 127 -54 199 -54c96 0 138 32 138 80
c0 61 -72 82 -184 82h-64v137h65c108 0 154 32 154 77c0 37 -30 64 -114 64c-63 0 -138 -21 -192 -44l-56 141c61 22 144 48 251 48z" />
    <glyph glyph-name="uni04DF" unicode="&#x4df;" horiz-adv-x="449" 
d="M182 649v-135h-114v135h114zM359 649v-135h-114v135h114zM211 -15c-70 0 -149 12 -205 36l43 110c43 -14 103 -30 157 -30c52 0 74 13 74 39c0 30 -24 45 -70 45h-92v100h94c35 0 52 16 52 41c0 26 -26 37 -67 37c-45 0 -94 -11 -141 -23l-33 109c48 12 111 28 191 28
c127 0 203 -31 203 -127c0 -55 -32 -92 -98 -104v-2c68 -9 110 -53 110 -117c0 -92 -66 -142 -218 -142z" />
    <glyph glyph-name="uni04E0" unicode="&#x4e0;" horiz-adv-x="564" 
d="M267 -15c-91 0 -189 20 -262 67l70 132c59 -30 120 -53 190 -53c81 0 115 31 115 81c0 56 -51 86 -157 86h-77v122l155 142h-237v138h451v-126l-220 -177c25 7 39 9 59 9c105 0 189 -72 189 -202c0 -117 -71 -219 -276 -219z" />
    <glyph glyph-name="uni04E1" unicode="&#x4e1;" horiz-adv-x="506" 
d="M220 -215c-77 0 -166 17 -235 51l53 127c58 -28 123 -44 178 -44c79 0 119 33 119 86c0 56 -47 86 -142 86h-92v100l162 135h-239v136h425v-126l-204 -156c19 4 35 5 49 5c105 0 187 -64 187 -182c0 -127 -75 -218 -261 -218z" />
    <glyph glyph-name="uni04E2" unicode="&#x4e2;" horiz-adv-x="744" 
d="M542 844v-95h-324v95h324zM61 700h155v-442h1l335 442h131v-700h-155v441h-1l-334 -441h-132v700z" />
    <glyph glyph-name="uni04E3" unicode="&#x4e3;" horiz-adv-x="575" 
d="M459 622v-99h-325v99h325zM46 0v462h151v-250h2l196 250h133v-462h-151v250h-2l-196 -250h-133z" />
    <glyph glyph-name="uni04E4" unicode="&#x4e4;" horiz-adv-x="744" 
d="M339 857v-114h-133v114h133zM557 857v-114h-134v114h134zM61 700h155v-442h1l335 442h131v-700h-155v441h-1l-334 -441h-132v700z" />
    <glyph glyph-name="uni04E5" unicode="&#x4e5;" horiz-adv-x="575" 
d="M265 649v-135h-114v135h114zM442 649v-135h-114v135h114zM46 0v462h151v-250h2l196 250h133v-462h-151v250h-2l-196 -250h-133z" />
    <glyph glyph-name="uni04E6" unicode="&#x4e6;" horiz-adv-x="780" 
d="M348 857v-114h-133v114h133zM566 857v-114h-134v114h134zM390 715c208 0 369 -146 369 -365s-161 -365 -369 -365s-369 146 -369 365s161 365 369 365zM390 555c-112 0 -198 -79 -198 -205s86 -205 198 -205s198 79 198 205s-86 205 -198 205z" />
    <glyph glyph-name="uni04E7" unicode="&#x4e7;" horiz-adv-x="561" 
d="M249 649v-135h-114v135h114zM426 649v-135h-114v135h114zM280 477c150 0 260 -98 260 -246s-110 -246 -260 -246c-149 0 -259 98 -259 246s110 246 259 246zM280 339c-60 0 -108 -42 -108 -108s48 -108 108 -108c61 0 108 42 108 108s-47 108 -108 108z" />
    <glyph glyph-name="uni04E8" unicode="&#x4e8;" horiz-adv-x="780" 
d="M390 715c208 0 369 -146 369 -365s-161 -365 -369 -365s-369 146 -369 365s161 365 369 365zM390 560c-106 0 -188 -65 -205 -171h410c-17 106 -99 171 -205 171zM390 140c106 0 188 65 205 171h-410c17 -106 99 -171 205 -171z" />
    <glyph glyph-name="uni04E9" unicode="&#x4e9;" horiz-adv-x="561" 
d="M280 477c150 0 260 -98 260 -246s-110 -246 -260 -246c-149 0 -259 98 -259 246s110 246 259 246zM280 349c-56 0 -102 -33 -114 -88h229c-13 55 -58 88 -115 88zM280 113c57 0 102 33 115 88h-229c12 -55 58 -88 114 -88z" />
    <glyph glyph-name="uni04EA" unicode="&#x4ea;" horiz-adv-x="780" 
d="M348 857v-114h-133v114h133zM566 857v-114h-134v114h134zM390 715c208 0 369 -146 369 -365s-161 -365 -369 -365s-369 146 -369 365s161 365 369 365zM390 560c-106 0 -188 -65 -205 -171h410c-17 106 -99 171 -205 171zM390 140c106 0 188 65 205 171h-410
c17 -106 99 -171 205 -171z" />
    <glyph glyph-name="uni04EB" unicode="&#x4eb;" horiz-adv-x="561" 
d="M242 649v-135h-114v135h114zM419 649v-135h-114v135h114zM280 477c150 0 260 -98 260 -246s-110 -246 -260 -246c-149 0 -259 98 -259 246s110 246 259 246zM280 349c-56 0 -102 -33 -114 -88h229c-13 55 -58 88 -115 88zM280 113c57 0 102 33 115 88h-229
c12 -55 58 -88 114 -88z" />
    <glyph glyph-name="uni04EC" unicode="&#x4ec;" horiz-adv-x="658" 
d="M236 857v-114h-133v114h133zM454 857v-114h-134v114h134zM274 715c210 0 363 -130 363 -365s-153 -365 -363 -365c-110 0 -198 35 -263 76l84 138c49 -32 112 -54 175 -54c97 0 169 48 190 144h-259v142h254c-26 83 -95 124 -185 124c-63 0 -126 -22 -175 -54l-84 138
c65 41 153 76 263 76z" />
    <glyph glyph-name="uni04ED" unicode="&#x4ed;" horiz-adv-x="453" 
d="M167 649v-135h-114v135h114zM344 649v-135h-114v135h114zM182 477c147 0 246 -87 246 -246s-99 -246 -246 -246c-66 0 -125 13 -176 41l62 126c29 -16 63 -28 104 -28c48 0 85 16 99 62h-137v90h137c-14 46 -51 62 -99 62c-41 0 -75 -12 -104 -28l-62 126
c51 27 110 41 176 41z" />
    <glyph glyph-name="uni04EE" unicode="&#x4ee;" horiz-adv-x="713" 
d="M531 844v-95h-324v95h324zM534 700h179l-340 -700h-179l83 172l-277 528h205l159 -348z" />
    <glyph glyph-name="uni04EF" unicode="&#x4ef;" horiz-adv-x="560" 
d="M451 622v-99h-325v99h325zM402 462h153l-307 -662h-152l116 244l-207 418h174l108 -255z" />
    <glyph glyph-name="uni04F0" unicode="&#x4f0;" horiz-adv-x="713" 
d="M327 857v-114h-133v114h133zM545 857v-114h-134v114h134zM534 700h179l-340 -700h-179l83 172l-277 528h205l159 -348z" />
    <glyph glyph-name="uni04F1" unicode="&#x4f1;" horiz-adv-x="560" 
d="M257 649v-135h-114v135h114zM434 649v-135h-114v135h114zM402 462h153l-307 -662h-152l116 244l-207 418h174l108 -255z" />
    <glyph glyph-name="uni04F2" unicode="&#x4f2;" horiz-adv-x="713" 
d="M473 863l-113 -120h-102l98 120h117zM518 743h-102l98 120h117zM534 700h179l-340 -700h-179l83 172l-277 528h205l159 -348z" />
    <glyph glyph-name="uni04F3" unicode="&#x4f3;" horiz-adv-x="560" 
d="M401 657l-142 -154h-102l122 154h122zM418 503h-102l122 154h122zM287 207l115 255h153l-307 -662h-152l116 244l-207 418h174z" />
    <glyph glyph-name="uni04F4" unicode="&#x4f4;" horiz-adv-x="629" 
d="M249 857v-114h-133v114h133zM467 857v-114h-134v114h134zM413 700h155v-700h-155v260h-186c-143 0 -212 65 -212 209v231h155v-217c0 -51 29 -77 74 -77h169v294z" />
    <glyph glyph-name="uni04F5" unicode="&#x4f5;" horiz-adv-x="509" 
d="M205 649v-135h-114v135h114zM382 649v-135h-114v135h114zM312 462h151v-462h-151v149h-132c-106 0 -170 48 -170 171v142h151v-130c0 -41 19 -52 57 -52h94v182z" />
    <glyph glyph-name="uni04F8" unicode="&#x4f8;" horiz-adv-x="874" 
d="M397 857v-114h-133v114h133zM481 743v114h134v-114h-134zM350 451c126 0 238 -62 238 -226c0 -163 -112 -225 -238 -225h-289v700h155v-249h134zM658 700h155v-700h-155v700zM328 140c59 0 99 27 99 85c0 59 -40 86 -99 86h-112v-171h112z" />
    <glyph glyph-name="uni04F9" unicode="&#x4f9;" horiz-adv-x="717" 
d="M332 649v-135h-114v135h114zM395 514v135h114v-135h-114zM300 336c106 0 179 -52 179 -168c0 -115 -73 -168 -179 -168h-254v462h151v-126h103zM520 462h151v-462h-151v462zM268 116c38 0 59 18 59 52c0 35 -21 52 -59 52h-71v-104h71z" />
    <glyph glyph-name="uni04FC" unicode="&#x4fc;" horiz-adv-x="696" 
d="M459 372l147 -204c55 -79 82 -137 82 -199c0 -108 -49 -169 -215 -169h-42l1 145h32c41 0 59 15 59 36c0 26 -19 58 -50 104l-112 165l-166 -250h-194l262 371l-235 329h194l139 -207l139 207h194z" />
    <glyph glyph-name="uni04FD" unicode="&#x4fd;" horiz-adv-x="539" 
d="M306 -200v135h40c27 0 47 5 47 37c0 18 -6 31 -29 63l-83 109l-103 -144h-173l187 242l-170 220h174l85 -122l85 122h174l-170 -220l110 -142c40 -52 64 -94 64 -155c0 -97 -66 -145 -170 -145h-68z" />
    <glyph glyph-name="uni0510" unicode="&#x510;" horiz-adv-x="599" 
d="M322 715c107 0 190 -26 251 -48l-56 -141c-54 23 -129 44 -192 44c-84 0 -114 -27 -114 -64c0 -45 46 -77 154 -77h65v-138h-64c-112 0 -184 -20 -184 -81c0 -48 42 -80 138 -80c72 0 138 22 199 54l69 -135c-76 -41 -171 -64 -273 -64c-213 0 -289 92 -289 206
c0 116 73 164 183 179v2c-95 20 -155 72 -155 165c0 120 101 178 268 178z" />
    <glyph glyph-name="uni0511" unicode="&#x511;" horiz-adv-x="436" 
d="M228 -15c-145 0 -207 50 -207 141c0 65 45 109 118 118v2c-72 13 -107 51 -107 109c0 91 72 122 193 122c76 0 141 -16 188 -28l-33 -109c-44 15 -87 23 -128 23s-67 -11 -67 -37c0 -25 19 -41 82 -41h73v-100h-71c-73 0 -99 -15 -99 -45c0 -26 21 -39 73 -39
c50 0 105 16 144 30l42 -110c-54 -23 -131 -36 -201 -36z" />
    <glyph glyph-name="uni0512" unicode="&#x512;" horiz-adv-x="717" 
d="M656 700v-700v-21c0 -131 -71 -179 -187 -179h-81v145h53c42 0 60 16 60 58v39v513h-251v-378c0 -124 -58 -180 -180 -180h-60v145h44c25 0 41 16 41 49v509h561z" />
    <glyph glyph-name="uni0513" unicode="&#x513;" horiz-adv-x="565" 
d="M519 462v-462v-23c0 -129 -65 -177 -170 -177h-68v135h40c27 0 47 5 47 50v16v325h-135v-159c0 -115 -67 -168 -168 -168h-55v140h31c24 0 41 12 41 56v267h151h286z" />
    <glyph glyph-name="uni051C" unicode="&#x51c;" horiz-adv-x="1066" 
d="M1060 700l-235 -700h-137l-154 454h-2l-154 -454h-137l-235 700h181l125 -450h2l151 450h136l151 -450h2l125 450h181z" />
    <glyph glyph-name="uni051D" unicode="&#x51d;" horiz-adv-x="808" 
d="M654 462h149l-168 -462h-129l-102 270l-101 -270h-129l-169 462h150l86 -271l94 271h139l94 -271z" />
    <glyph glyph-name="uni0524" unicode="&#x524;" horiz-adv-x="746" 
d="M661 111h92v-251h-145v140h-102v555h-290v-555h-155v700h600v-589z" />
    <glyph glyph-name="uni0525" unicode="&#x525;" horiz-adv-x="592" 
d="M517 74h65v-204h-127v130h-88v326h-170v-326h-151v462h151h259h61v-388z" />
    <glyph glyph-name="uni0526" unicode="&#x526;" horiz-adv-x="698" 
d="M614 111h92v-251h-146v140h-101v217c0 51 -29 77 -74 77h-169v-294h-155v700h155v-260h186c143 0 212 -65 212 -209v-120z" />
    <glyph glyph-name="uni0527" unicode="&#x527;" horiz-adv-x="596" 
d="M522 74h64v-204h-126v130h-89v244c0 69 -29 100 -84 100c-51 0 -89 -30 -89 -112v-232h-151v700h151v-299h2c32 49 82 76 148 76c102 0 174 -59 174 -191v-212z" />
    <glyph glyph-name="uni0E3F" unicode="&#xe3f;" horiz-adv-x="538" 
d="M385 336c73 -16 120 -67 120 -153c0 -128 -94 -183 -225 -183h-12v-87h-28v87h-209v675h209v87h28v-87h21c126 0 216 -62 216 -174c0 -89 -47 -145 -120 -162v-3zM240 544h-64v-147h64v147zM351 475c0 45 -33 68 -83 69v-147c51 2 83 29 83 78zM176 131h64v147h-64v-147z
M268 131c50 1 83 28 83 73c0 49 -32 73 -83 74v-147z" />
    <glyph glyph-name="Wgrave" unicode="&#x1e80;" horiz-adv-x="1066" 
d="M476 863l115 -120h-108l-172 120h165zM1060 700l-235 -700h-137l-154 454h-2l-154 -454h-137l-235 700h181l125 -450h2l151 450h136l151 -450h2l125 450h181z" />
    <glyph glyph-name="wgrave" unicode="&#x1e81;" horiz-adv-x="808" 
d="M462 553h-118l-162 154h165zM654 462h149l-168 -462h-129l-102 270l-101 -270h-129l-169 462h150l86 -271l94 271h139l94 -271z" />
    <glyph glyph-name="Wacute" unicode="&#x1e82;" horiz-adv-x="1066" 
d="M755 863l-171 -120h-109l115 120h165zM1060 700l-235 -700h-137l-154 454h-2l-154 -454h-137l-235 700h181l125 -450h2l151 450h136l151 -450h2l125 450h181z" />
    <glyph glyph-name="wacute" unicode="&#x1e83;" horiz-adv-x="808" 
d="M620 707l-162 -154h-118l115 154h165zM654 462h149l-168 -462h-129l-102 270l-101 -270h-129l-169 462h150l86 -271l94 271h139l94 -271z" />
    <glyph glyph-name="Wdieresis" unicode="&#x1e84;" horiz-adv-x="1066" 
d="M491 857v-114h-133v114h133zM709 857v-114h-134v114h134zM1060 700l-235 -700h-137l-154 454h-2l-154 -454h-137l-235 700h181l125 -450h2l151 450h136l151 -450h2l125 450h181z" />
    <glyph glyph-name="wdieresis" unicode="&#x1e85;" horiz-adv-x="808" 
d="M373 690v-135h-124v135h124zM561 690v-135h-124v135h124zM654 462h149l-168 -462h-129l-102 270l-101 -270h-129l-169 462h150l86 -271l94 271h139l94 -271z" />
    <glyph glyph-name="Ygrave" unicode="&#x1ef2;" horiz-adv-x="659" 
d="M387 743h-108l-172 120h165zM659 700l-252 -448v-252h-155v252l-252 448h186l142 -293h2l143 293h186z" />
    <glyph glyph-name="ygrave" unicode="&#x1ef3;" horiz-adv-x="560" 
d="M345 553h-118l-162 154h165zM402 462h153l-307 -662h-152l116 244l-207 418h174l108 -255z" />
    <glyph glyph-name="endash" unicode="&#x2013;" horiz-adv-x="734" 
d="M693 328v-117h-652v117h652z" />
    <glyph glyph-name="emdash" unicode="&#x2014;" horiz-adv-x="1154" 
d="M1104 328v-113h-1054v113h1054z" />
    <glyph glyph-name="quoteleft" unicode="&#x2018;" horiz-adv-x="187" 
d="M109 611h56v-139h-140v139l83 156h54z" />
    <glyph glyph-name="quoteright" unicode="&#x2019;" horiz-adv-x="187" 
d="M22 715h140v-140l-83 -156h-54l53 156h-56v140z" />
    <glyph glyph-name="quotesinglbase" unicode="&#x201a;" horiz-adv-x="187" 
d="M22 140h140v-140l-83 -156h-54l53 156h-56v140z" />
    <glyph glyph-name="quotedblleft" unicode="&#x201c;" horiz-adv-x="369" 
d="M162 767l-53 -156h56v-139h-140v139l83 156h54zM291 611h55v-139h-139v139l82 156h55z" />
    <glyph glyph-name="quotedblright" unicode="&#x201d;" horiz-adv-x="369" 
d="M22 575v140h140v-140l-83 -156h-54l53 156h-56zM203 715h140v-140l-82 -156h-55l53 156h-56v140z" />
    <glyph glyph-name="quotedblbase" unicode="&#x201e;" horiz-adv-x="369" 
d="M22 0v140h140v-140l-83 -156h-54l53 156h-56zM203 140h140v-140l-82 -156h-55l53 156h-56v140z" />
    <glyph glyph-name="dagger" unicode="&#x2020;" horiz-adv-x="544" 
d="M494 484v-116h-160v-461h-124v461h-160v116h160v216h124v-216h160z" />
    <glyph glyph-name="daggerdbl" unicode="&#x2021;" horiz-adv-x="544" 
d="M494 401h-160v-175h160v-116h-160v-203h-124v203h-160v116h160v175h-160v116h160v183h124v-183h160v-116z" />
    <glyph glyph-name="bullet" unicode="&#x2022;" horiz-adv-x="390" 
d="M195 495c75 0 130 -55 130 -130s-55 -130 -130 -130s-130 55 -130 130s55 130 130 130z" />
    <glyph glyph-name="ellipsis" unicode="&#x2026;" horiz-adv-x="757" 
d="M201 161v-161h-160v161h160zM458 161v-161h-160v161h160zM715 161v-161h-160v161h160z" />
    <glyph glyph-name="perthousand" unicode="&#x2030;" horiz-adv-x="1160" 
d="M215 690c94 0 164 -64 164 -165c0 -100 -70 -164 -164 -164c-95 0 -165 64 -165 164c0 101 70 165 165 165zM157 0l396 675h78l-396 -675h-78zM215 619c-52 0 -90 -36 -90 -94c0 -57 38 -94 90 -94c51 0 89 37 89 94c0 58 -38 94 -89 94zM579 324c94 0 164 -64 164 -164
c0 -101 -70 -165 -164 -165s-165 64 -165 165c0 100 71 164 165 164zM946 324c94 0 164 -64 164 -164c0 -101 -70 -165 -164 -165s-165 64 -165 165c0 100 71 164 165 164zM579 254c-51 0 -89 -37 -89 -94c0 -58 38 -94 89 -94s89 36 89 94c0 57 -38 94 -89 94zM946 254
c-51 0 -89 -37 -89 -94c0 -58 38 -94 89 -94s89 36 89 94c0 57 -38 94 -89 94z" />
    <glyph glyph-name="guilsinglleft" unicode="&#x2039;" horiz-adv-x="351" 
d="M341 413l-164 -175l164 -176h-162l-164 176l164 175h162z" />
    <glyph glyph-name="guilsinglright" unicode="&#x203a;" horiz-adv-x="351" 
d="M10 413h162l163 -175l-163 -176h-162l163 176z" />
    <glyph glyph-name="fraction" unicode="&#x2044;" horiz-adv-x="134" 
d="M-170 0l396 675h78l-396 -675h-78z" />
    <glyph glyph-name="uni2070" unicode="&#x2070;" horiz-adv-x="457" 
d="M229 338c-119 0 -194 86 -194 233s75 232 194 232c118 0 193 -85 193 -232s-75 -233 -193 -233zM229 456c41 0 63 42 63 115c0 70 -22 114 -63 114c-40 0 -63 -44 -63 -114s23 -115 63 -115z" />
    <glyph glyph-name="uni2074" unicode="&#x2074;" horiz-adv-x="420" 
d="M399 525v-103h-47v-74h-119v74h-218v90l215 281h122v-268h47zM132 525h101v126h-3z" />
    <glyph glyph-name="uni2075" unicode="&#x2075;" horiz-adv-x="400" 
d="M183 338c-56 0 -112 15 -157 50l66 101c26 -21 57 -33 90 -33c35 0 64 15 64 49c0 25 -14 45 -45 45c-19 0 -36 -9 -45 -22h-101l22 265h253v-107l-162 -1l-5 -57h1c16 9 41 15 66 15c78 0 139 -52 139 -145c0 -98 -70 -160 -186 -160z" />
    <glyph glyph-name="uni2076" unicode="&#x2076;" horiz-adv-x="413" 
d="M215 338c-111 0 -185 64 -185 179c0 84 40 140 85 195l73 87h152l-167 -176l2 -1c22 21 50 32 80 32c68 0 137 -47 137 -150c0 -86 -55 -166 -177 -166zM210 450c32 0 54 23 54 52s-22 51 -54 51s-53 -22 -53 -51s21 -52 53 -52z" />
    <glyph glyph-name="uni2077" unicode="&#x2077;" horiz-adv-x="344" 
d="M20 348l173 322h-183v123h323v-114l-175 -331h-138z" />
    <glyph glyph-name="uni2078" unicode="&#x2078;" horiz-adv-x="419" 
d="M209 338c-118 0 -183 52 -183 133c0 67 43 105 96 112v2c-55 7 -82 52 -82 97c0 71 64 121 169 121c106 0 169 -50 169 -121c0 -45 -27 -90 -83 -97v-2c54 -7 97 -45 97 -112c0 -81 -64 -133 -183 -133zM209 633c24 0 41 13 41 35c0 21 -17 35 -41 35
c-23 0 -40 -14 -40 -35c0 -22 17 -35 40 -35zM209 448c30 0 50 18 50 43s-20 43 -50 43s-50 -18 -50 -43s21 -43 50 -43z" />
    <glyph glyph-name="uni2079" unicode="&#x2079;" horiz-adv-x="401" 
d="M65 348l170 165l-2 2c-16 -15 -43 -29 -69 -29c-77 0 -143 66 -143 155c0 96 69 162 174 162c111 0 185 -60 185 -174c0 -78 -24 -143 -103 -224l-57 -57h-155zM201 589c32 0 54 23 54 52s-22 52 -54 52s-54 -23 -54 -52s22 -52 54 -52z" />
    <glyph glyph-name="uni2080" unicode="&#x2080;" horiz-adv-x="457" 
d="M229 -120c-119 0 -194 86 -194 233s75 232 194 232c118 0 193 -85 193 -232s-75 -233 -193 -233zM229 -2c41 0 63 42 63 115c0 70 -22 114 -63 114c-40 0 -63 -44 -63 -114s23 -115 63 -115z" />
    <glyph glyph-name="uni2081" unicode="&#x2081;" horiz-adv-x="257" 
d="M68 -110v322h-18v123h146v-445h-128z" />
    <glyph glyph-name="uni2082" unicode="&#x2082;" horiz-adv-x="413" 
d="M38 -110v104l149 130c32 28 57 49 57 76c0 19 -14 32 -40 32c-29 0 -45 -16 -47 -46h-127c2 90 53 159 179 159c106 0 167 -46 167 -136c0 -60 -30 -102 -85 -144l-70 -55h157v-120h-340z" />
    <glyph glyph-name="uni2083" unicode="&#x2083;" horiz-adv-x="412" 
d="M211 -120c-115 0 -182 48 -185 157h123c2 -25 15 -42 54 -42c37 0 56 15 56 39c0 33 -29 40 -84 40v80c46 0 69 14 69 44c0 26 -18 38 -45 38c-30 0 -45 -18 -47 -40h-120c1 85 53 149 174 149c104 0 167 -48 167 -121c0 -53 -33 -89 -83 -99v-2c63 -8 97 -46 97 -106
c0 -77 -55 -137 -176 -137z" />
    <glyph glyph-name="uni2084" unicode="&#x2084;" horiz-adv-x="420" 
d="M399 67v-103h-47v-74h-119v74h-218v90l215 281h122v-268h47zM132 67h101v126h-3z" />
    <glyph glyph-name="uni2085" unicode="&#x2085;" horiz-adv-x="400" 
d="M183 -120c-56 0 -112 15 -157 50l66 101c26 -21 57 -33 90 -33c35 0 64 15 64 49c0 25 -14 45 -45 45c-19 0 -36 -9 -45 -22h-101l22 265h253v-107l-162 -1l-5 -57h1c16 9 41 15 66 15c78 0 139 -52 139 -145c0 -98 -70 -160 -186 -160z" />
    <glyph glyph-name="uni2086" unicode="&#x2086;" horiz-adv-x="413" 
d="M215 -120c-111 0 -185 64 -185 179c0 84 40 140 85 195l73 87h152l-167 -176l2 -1c22 21 50 32 80 32c68 0 137 -47 137 -150c0 -86 -55 -166 -177 -166zM210 -8c32 0 54 23 54 52s-22 51 -54 51s-53 -22 -53 -51s21 -52 53 -52z" />
    <glyph glyph-name="uni2087" unicode="&#x2087;" horiz-adv-x="344" 
d="M20 -110l173 322h-183v123h323v-114l-175 -331h-138z" />
    <glyph glyph-name="uni2088" unicode="&#x2088;" horiz-adv-x="419" 
d="M209 -120c-118 0 -183 52 -183 133c0 67 43 105 96 112v2c-55 7 -82 52 -82 97c0 71 64 121 169 121c106 0 169 -50 169 -121c0 -45 -27 -90 -83 -97v-2c54 -7 97 -45 97 -112c0 -81 -64 -133 -183 -133zM209 175c24 0 41 13 41 35c0 21 -17 35 -41 35
c-23 0 -40 -14 -40 -35c0 -22 17 -35 40 -35zM209 -10c30 0 50 18 50 43s-20 43 -50 43s-50 -18 -50 -43s21 -43 50 -43z" />
    <glyph glyph-name="uni2089" unicode="&#x2089;" horiz-adv-x="401" 
d="M65 -110l170 165l-2 2c-16 -15 -43 -29 -69 -29c-77 0 -143 66 -143 155c0 96 69 162 174 162c111 0 185 -60 185 -174c0 -78 -24 -143 -103 -224l-57 -57h-155zM201 131c32 0 54 23 54 52s-22 52 -54 52s-54 -23 -54 -52s22 -52 54 -52z" />
    <glyph glyph-name="TRY" unicode="&#x20a4;" horiz-adv-x="580" 
d="M401 327h148c0 -198 -135 -327 -325 -327h-103v292l-108 -49v31l108 49v56l-108 -49v31l108 49v265h145v-199l163 74v-31l-163 -74v-56l163 74v-31l-163 -74v-197c77 0 135 63 135 166z" />
    <glyph glyph-name="uni20A9" unicode="&#x20a9;" horiz-adv-x="1004" 
d="M984 386h-81l-18 -68h99v-30h-107l-74 -288h-160l-85 288h-112l-85 -288h-160l-74 288h-107v30h99l-17 68h-82v30h74l-67 259h168l49 -259h106l74 259h156l75 -259h105l50 259h167l-67 -259h74v-30zM501 473l-17 -57h36l-16 57h-3zM250 386l13 -68h59l19 68h-91zM455 318
h94l-20 68h-54zM741 318l13 68h-91l20 -68h58zM288 201l25 87h-44l17 -87h2zM718 201l17 87h-44l25 -87h2z" />
    <glyph glyph-name="Euro" unicode="&#x20ac;" horiz-adv-x="676" 
d="M254 283c17 -95 81 -155 186 -155c64 0 120 21 164 45v-151c-45 -24 -97 -37 -166 -37c-215 0 -323 128 -342 298h-91l15 30h74c-1 9 -1 17 -1 26c0 11 0 22 1 33h-84l15 30h72c21 165 129 288 345 288c83 0 150 -19 204 -46l-65 -130c-38 16 -86 33 -141 33
c-102 0 -165 -56 -184 -145h280l-15 -30h-270c-1 -11 -1 -22 -1 -34c0 -9 0 -17 1 -25h244l-15 -30h-226z" />
    <glyph glyph-name="uni20AE" unicode="&#x20ae;" horiz-adv-x="563" 
d="M534 544h-184v-106l112 55v-31l-112 -55v-56l112 55v-31l-112 -55v-320h-146v249l-112 -54v31l112 54v56l-112 -54v31l112 54v177h-184v131h514v-131z" />
    <glyph glyph-name="uni20B4" unicode="&#x20b4;" horiz-adv-x="556" 
d="M446 395c-17 -16 -37 -32 -61 -49l-26 -19h168v-30h-209l-30 -21c-54 -40 -79 -62 -79 -91c0 -32 23 -56 89 -56c71 0 141 25 203 54v-154c-67 -27 -143 -44 -220 -44c-154 0 -230 69 -230 184c0 55 18 95 45 128h-67v30h97c19 17 40 32 62 47l29 21h-188v30h231l46 33
c24 17 42 37 42 56c0 23 -16 37 -64 37c-51 0 -120 -13 -192 -37v141c77 22 153 35 217 35c136 0 196 -59 196 -162c0 -42 -10 -73 -32 -103h54v-30h-81z" />
    <glyph glyph-name="uni20B8" unicode="&#x20b8;" horiz-adv-x="554" 
d="M20 675h514v-131h-514v131zM20 358v131h514v-131h-184v-358h-146v358h-184z" />
    <glyph glyph-name="uni20B9" unicode="&#x20b9;" horiz-adv-x="528" 
d="M308 645c56 -32 94 -88 99 -158h81l-22 -30h-59c-7 -104 -86 -181 -191 -189l230 -268h-186l-220 267v131h123c52 0 81 24 87 59h-210v30h209c-7 33 -36 57 -86 57h-123v131h152h296l-22 -30h-158z" />
    <glyph glyph-name="uni20BD" unicode="&#x20bd;" horiz-adv-x="613" 
d="M350 262h-81v-52h183v-30h-183v-180h-145v180h-93v30h93v52h-93v131h93v282h226c151 0 232 -83 232 -206c0 -124 -81 -207 -232 -207zM269 544v-151h64c57 0 93 18 93 77c0 56 -36 74 -93 74h-64z" />
    <glyph glyph-name="uni2113" unicode="&#x2113;" horiz-adv-x="524" 
d="M239 256c7 -96 32 -135 88 -135c30 0 60 10 112 31v-137c-49 -17 -81 -27 -132 -27c-124 0 -188 63 -206 223l-61 -15v136c19 4 38 8 56 13c6 265 95 345 222 345c108 0 166 -60 166 -161c0 -134 -100 -216 -245 -273zM320 574c-34 0 -73 -33 -82 -183
c70 31 119 74 119 134c0 33 -15 49 -37 49z" />
    <glyph glyph-name="uni2116" unicode="&#x2116;" horiz-adv-x="1213" 
d="M683 700v-700h-132l-334 431h-1v-431h-155v700h131l335 -433h1v433h155zM956 585c123 0 212 -82 212 -208s-89 -208 -212 -208s-213 82 -213 208s90 208 213 208zM956 462c-50 0 -87 -34 -87 -85s37 -85 87 -85s86 34 86 85s-36 85 -86 85zM1155 120v-120h-398v120h398z
" />
    <glyph glyph-name="trademark" unicode="&#x2122;" horiz-adv-x="927" 
d="M364 588h-110v-309h-114v309h-110v112h334v-112zM791 700l106 -421h-116l-53 222l-69 -167h-87l-69 167l-52 -222h-116l105 421h94l82 -224l82 224h93z" />
    <glyph glyph-name="estimated" unicode="&#x212e;" horiz-adv-x="746" 
d="M21 304c0 175 157 316 351 316c195 0 352 -141 352 -316v-9h-574v-140c0 -44 19 -83 52 -104c45 -30 103 -45 172 -45c98 0 190 39 248 105h29c-66 -77 -170 -123 -279 -123c-194 0 -351 141 -351 316zM551 552c-43 33 -103 50 -177 50c-70 0 -129 -16 -172 -46
c-34 -23 -52 -52 -52 -85v-158h445v152c0 36 -14 64 -44 87z" />
    <glyph glyph-name="uni2153" unicode="&#x2153;" horiz-adv-x="709" 
d="M152 675v-386h-80v305h-27v81h107zM63 0l396 675h78l-396 -675h-78zM533 395c84 0 131 -43 131 -100c0 -47 -27 -79 -74 -90v-1c49 -8 88 -32 88 -97s-45 -116 -142 -116c-92 0 -144 45 -148 126h81c2 -31 24 -53 66 -53c37 0 59 17 59 49c0 37 -29 49 -91 49v71
c48 -1 78 12 78 47c0 31 -21 44 -53 44c-30 0 -55 -16 -56 -48h-77c2 70 47 119 138 119z" />
    <glyph glyph-name="uni2154" unicode="&#x2154;" horiz-adv-x="855" 
d="M170 684c83 0 132 -45 132 -113c0 -49 -25 -86 -66 -125l-82 -79h154v-78h-277l-1 64l138 132c29 29 49 52 49 78c0 28 -19 46 -51 46s-57 -17 -59 -56h-80c1 71 44 131 143 131zM209 0l396 675h78l-396 -675h-78zM679 395c84 0 131 -43 131 -100c0 -47 -27 -79 -74 -90
v-1c49 -8 88 -32 88 -97s-45 -116 -142 -116c-92 0 -144 45 -148 126h81c2 -31 24 -53 66 -53c37 0 59 17 59 49c0 37 -29 49 -91 49v71c48 -1 78 12 78 47c0 31 -21 44 -53 44c-30 0 -55 -16 -56 -48h-77c2 70 47 119 138 119z" />
    <glyph glyph-name="oneeighth" unicode="&#x215b;" horiz-adv-x="721" 
d="M152 675v-386h-80v305h-27v81h107zM63 0l396 675h78l-396 -675h-78zM539 -9c-98 0 -146 50 -146 114c0 57 31 90 77 101v2c-38 11 -65 40 -65 84c0 59 48 103 134 103s134 -44 134 -103c0 -44 -24 -73 -65 -84v-2c45 -11 77 -44 77 -101c0 -64 -49 -114 -146 -114z
M539 240c30 0 49 16 49 42c0 23 -19 40 -49 40s-51 -17 -51 -40c0 -26 20 -42 51 -42zM539 67c40 0 61 23 61 53s-23 52 -61 52s-62 -22 -62 -52s20 -53 62 -53z" />
    <glyph glyph-name="threeeighths" unicode="&#x215c;" horiz-adv-x="840" 
d="M175 684c84 0 131 -43 131 -100c0 -47 -27 -79 -74 -90v-1c49 -8 88 -32 88 -97s-45 -116 -142 -116c-92 0 -144 45 -148 126h81c2 -31 24 -53 66 -53c37 0 59 17 59 49c0 37 -29 49 -91 49v71c48 -1 78 12 78 47c0 31 -20 44 -53 44c-30 0 -55 -16 -56 -48h-77
c2 70 47 119 138 119zM182 0l396 675h78l-396 -675h-78zM658 -9c-98 0 -146 50 -146 114c0 57 31 90 77 101v2c-38 11 -65 40 -65 84c0 59 48 103 134 103s134 -44 134 -103c0 -44 -24 -73 -65 -84v-2c45 -11 77 -44 77 -101c0 -64 -49 -114 -146 -114zM658 240
c30 0 49 16 49 42c0 23 -19 40 -49 40s-51 -17 -51 -40c0 -26 20 -42 51 -42zM658 67c40 0 61 23 61 53s-23 52 -61 52s-62 -22 -62 -52s20 -53 62 -53z" />
    <glyph glyph-name="fiveeighths" unicode="&#x215d;" horiz-adv-x="823" 
d="M192 543c65 0 117 -40 117 -124c0 -87 -57 -139 -147 -139c-58 0 -108 21 -141 56l50 62c19 -21 52 -39 88 -39c43 0 68 25 68 61c0 37 -26 58 -60 58c-27 0 -45 -11 -53 -22h-69l22 219h212v-78h-151l-9 -81h2c15 17 39 27 71 27zM165 0l396 675h78l-396 -675h-78z
M641 -9c-98 0 -146 50 -146 114c0 57 31 90 77 101v2c-38 11 -65 40 -65 84c0 59 48 103 134 103s134 -44 134 -103c0 -44 -24 -73 -65 -84v-2c45 -11 77 -44 77 -101c0 -64 -49 -114 -146 -114zM641 240c30 0 49 16 49 42c0 23 -19 40 -49 40s-51 -17 -51 -40
c0 -26 20 -42 51 -42zM641 67c40 0 61 23 61 53s-23 52 -61 52s-62 -22 -62 -52s20 -53 62 -53z" />
    <glyph glyph-name="seveneighths" unicode="&#x215e;" horiz-adv-x="757" 
d="M284 675v-74l-161 -312h-88l162 307h-182v79h269zM99 0l396 675h78l-396 -675h-78zM575 -9c-98 0 -146 50 -146 114c0 57 31 90 77 101v2c-38 11 -65 40 -65 84c0 59 48 103 134 103s134 -44 134 -103c0 -44 -24 -73 -65 -84v-2c45 -11 77 -44 77 -101
c0 -64 -49 -114 -146 -114zM575 240c30 0 49 16 49 42c0 23 -19 40 -49 40s-51 -17 -51 -40c0 -26 20 -42 51 -42zM575 67c40 0 61 23 61 53s-23 52 -61 52s-62 -22 -62 -52s20 -53 62 -53z" />
    <glyph glyph-name="arrowleft" unicode="&#x2190;" horiz-adv-x="813" 
d="M763 352v-124h-478l169 -166l-95 -96l-309 324l309 324l95 -96l-169 -166h478z" />
    <glyph glyph-name="arrowup" unicode="&#x2191;" horiz-adv-x="748" 
d="M698 324l-96 -95l-166 170v-478h-124v478l-166 -170l-96 95l324 310z" />
    <glyph glyph-name="arrowright" unicode="&#x2192;" horiz-adv-x="813" 
d="M453 615l310 -324l-310 -324l-95 96l169 166h-477v124h477l-169 166z" />
    <glyph glyph-name="arrowdown" unicode="&#x2193;" horiz-adv-x="748" 
d="M602 352l96 -95l-324 -310l-324 310l96 95l166 -170v478h124v-478z" />
    <glyph glyph-name="arrowboth" unicode="&#x2194;" horiz-adv-x="1252" 
d="M892 614l310 -324l-310 -324l-95 96l170 166h-478h-204l169 -166l-95 -96l-309 324l309 324l95 -96l-169 -166h478h204l-170 166z" />
    <glyph glyph-name="arrowupdn" unicode="&#x2195;" horiz-adv-x="749" 
d="M603 179l96 -95l-324 -310l-324 310l96 95l166 -170v102h-1v478l-166 -169l-96 95l324 309l324 -309l-96 -95l-166 169v-102h1v-478z" />
    <glyph glyph-name="uni2196" unicode="&#x2196;" horiz-adv-x="658" 
d="M608 74l-87 -89l-338 338l2 -236l-135 -1l11 447l447 11v-136l-237 3z" />
    <glyph glyph-name="uni2197" unicode="&#x2197;" horiz-adv-x="659" 
d="M609 86h-136l3 237l-338 -338l-88 88l338 337l-237 -2l-1 135l448 -11z" />
    <glyph glyph-name="uni2198" unicode="&#x2198;" horiz-adv-x="658" 
d="M473 493l135 1l-11 -447l-447 -11v136l237 -3l-337 337l88 89l337 -338z" />
    <glyph glyph-name="uni2199" unicode="&#x2199;" horiz-adv-x="659" 
d="M271 170l237 2l1 -135l-448 11l-11 446h136l-3 -237l338 338l88 -88z" />
    <glyph glyph-name="partialdiff" unicode="&#x2202;" horiz-adv-x="581" 
d="M236 715c175 0 314 -108 314 -359c0 -202 -86 -371 -276 -371c-148 0 -243 100 -243 231c0 141 105 235 225 235c67 0 118 -22 158 -58c-14 119 -87 182 -184 182c-52 0 -99 -14 -132 -29l-44 132c41 19 106 37 182 37zM281 125c76 0 110 62 125 127
c-31 32 -71 62 -132 62c-63 0 -98 -42 -98 -94c0 -57 43 -95 105 -95z" />
    <glyph glyph-name="emptyset" unicode="&#x2205;" 
d="M478 481c38 -41 60 -96 60 -158c0 -133 -102 -232 -238 -232c-62 0 -116 20 -158 55l-56 -56l-19 20l55 55c-38 41 -60 96 -60 158c0 133 102 232 238 232c61 0 116 -20 157 -55l56 56l20 -20zM198 323c0 -24 7 -45 20 -62l144 144c-16 13 -38 20 -62 20
c-60 0 -102 -44 -102 -102zM300 221c60 0 102 44 102 102c0 24 -7 46 -20 63l-145 -145c17 -12 38 -20 63 -20z" />
    <glyph glyph-name="product" unicode="&#x220f;" horiz-adv-x="728" 
d="M708 700v-131h-111v-647h-135v647h-195v-647h-136v647h-111v131h688z" />
    <glyph glyph-name="summation" unicode="&#x2211;" horiz-adv-x="556" 
d="M525 700v-140h-316l228 -265l-228 -265h316v-140h-494v140l232 265l-232 265v140h494z" />
    <glyph glyph-name="minus" unicode="&#x2212;" 
d="M539 332v-68h-478v68h478z" />
    <glyph glyph-name="radical" unicode="&#x221a;" horiz-adv-x="670" 
d="M508 715h142l-244 -715h-136l-140 331h-110v131h203l109 -275z" />
    <glyph glyph-name="infinity" unicode="&#x221e;" horiz-adv-x="760" 
d="M578 450c98 0 162 -63 162 -153s-64 -153 -162 -153c-88 0 -146 53 -198 111c-52 -58 -110 -111 -198 -111c-98 0 -162 63 -162 153s64 153 162 153c88 0 146 -53 198 -111c52 58 110 111 198 111zM182 393c-64 0 -103 -42 -103 -96s39 -96 103 -96c66 0 113 44 160 96
c-47 52 -94 96 -160 96zM578 393c-65 0 -113 -44 -160 -96c47 -52 95 -96 160 -96c64 0 103 42 103 96s-39 96 -103 96z" />
    <glyph glyph-name="integral" unicode="&#x222b;" horiz-adv-x="437" 
d="M397 715v-126c-79 0 -112 -29 -112 -107v-494c0 -131 -81 -203 -245 -203v126c77 1 109 29 109 107v494c0 131 76 203 248 203z" />
    <glyph glyph-name="approxequal" unicode="&#x2248;" 
d="M173 478c88 0 184 -90 253 -90c42 0 67 23 85 74h62c-27 -107 -87 -142 -146 -142c-88 0 -184 90 -253 90c-42 0 -67 -23 -85 -75h-62c27 108 87 143 146 143zM173 296c88 0 184 -90 253 -90c42 0 67 23 85 75h62c-27 -108 -87 -143 -146 -143c-88 0 -184 90 -253 90
c-42 0 -67 -23 -85 -75h-62c27 108 87 143 146 143z" />
    <glyph glyph-name="notequal" unicode="&#x2260;" 
d="M553 374h-174l-90 -147h264v-66h-304l-54 -87h-66l53 87h-135v66h176l90 147h-266v66h307l51 83h66l-51 -83h133v-66z" />
    <glyph glyph-name="lessequal" unicode="&#x2264;" 
d="M534 489v-70l-376 -83l376 -81v-70l-468 116v71zM538 153v-63h-476v63h476z" />
    <glyph glyph-name="greaterequal" unicode="&#x2265;" 
d="M66 489l468 -117v-71l-468 -116v70l376 81l-376 83v70zM62 153h476v-63h-476v63z" />
    <glyph glyph-name="uni2460" unicode="&#x2460;" horiz-adv-x="830" 
d="M415 -15c-215 0 -365 154 -365 365s150 365 365 365s365 -154 365 -365s-150 -365 -365 -365zM415 59c166 0 286 124 286 291s-120 291 -286 291s-286 -124 -286 -291s120 -291 286 -291zM385 161v305h-27v81h108v-386h-81z" />
    <glyph glyph-name="uni2461" unicode="&#x2461;" horiz-adv-x="830" 
d="M415 -15c-215 0 -365 154 -365 365s150 365 365 365s365 -154 365 -365s-150 -365 -365 -365zM415 59c166 0 286 124 286 291s-120 291 -286 291s-286 -124 -286 -291s120 -291 286 -291zM282 176v64l138 132c29 29 51 52 51 78c0 28 -21 46 -53 46
c-33 0 -57 -18 -59 -56h-80c1 70 44 131 141 131c85 0 136 -45 136 -113c0 -49 -27 -87 -68 -125l-87 -79h159v-78h-278z" />
    <glyph glyph-name="uni2462" unicode="&#x2462;" horiz-adv-x="830" 
d="M415 -15c-215 0 -365 154 -365 365s150 365 365 365s365 -154 365 -365s-150 -365 -365 -365zM415 59c166 0 286 124 286 291s-120 291 -286 291s-286 -124 -286 -291s120 -291 286 -291zM422 151c-86 0 -143 45 -147 126h81c1 -31 24 -53 65 -53c37 0 59 17 59 49
c0 35 -29 49 -91 49v71c43 -1 78 12 78 47c0 30 -23 44 -53 44c-32 0 -54 -16 -55 -47h-77c2 69 47 118 137 118c83 0 131 -43 131 -101c0 -44 -27 -78 -73 -89v-1c49 -8 87 -42 87 -97c0 -60 -45 -116 -142 -116z" />
    <glyph glyph-name="uni2463" unicode="&#x2463;" horiz-adv-x="830" 
d="M415 715c215 0 365 -154 365 -365s-150 -365 -365 -365s-365 154 -365 365s150 365 365 365zM415 59c166 0 286 124 286 291s-120 291 -286 291s-286 -124 -286 -291s120 -291 286 -291zM510 549v-251h36v-70h-36v-65h-77v65h-201v65l200 256h78zM317 298h116v144h-2z
" />
    <glyph glyph-name="uni2464" unicode="&#x2464;" horiz-adv-x="830" 
d="M415 -15c-215 0 -365 154 -365 365s150 365 365 365s365 -154 365 -365s-150 -365 -365 -365zM415 59c166 0 286 124 286 291s-120 291 -286 291s-286 -124 -286 -291s120 -291 286 -291zM415 152c-61 0 -110 21 -143 58l50 60c19 -21 52 -39 88 -39c43 0 68 25 68 61
c0 37 -28 58 -60 58c-23 0 -45 -10 -54 -22h-68l21 219h213v-78h-151l-10 -81h3c15 17 38 27 67 27c60 0 121 -44 121 -126s-57 -137 -145 -137z" />
    <glyph glyph-name="uni2465" unicode="&#x2465;" horiz-adv-x="830" 
d="M415 -15c-215 0 -365 154 -365 365s150 365 365 365s365 -154 365 -365s-150 -365 -365 -365zM415 59c166 0 286 124 286 291s-120 291 -286 291s-286 -124 -286 -291s120 -291 286 -291zM413 151c-86 0 -153 53 -153 149c0 70 36 123 81 174l71 80h98l-150 -164l2 -1
c20 22 44 32 73 32c66 0 125 -50 125 -131c0 -76 -53 -139 -147 -139zM410 228c38 0 67 23 67 61s-29 61 -67 61c-37 0 -67 -23 -67 -61s30 -61 67 -61z" />
    <glyph glyph-name="uni2466" unicode="&#x2466;" horiz-adv-x="830" 
d="M415 -15c-215 0 -365 154 -365 365s150 365 365 365s365 -154 365 -365s-150 -365 -365 -365zM415 59c166 0 286 124 286 291s-120 291 -286 291s-286 -124 -286 -291s120 -291 286 -291zM311 153l161 307h-181v79h268v-74l-161 -312h-87z" />
    <glyph glyph-name="uni2467" unicode="&#x2467;" horiz-adv-x="830" 
d="M415 -15c-215 0 -365 154 -365 365s150 365 365 365s365 -154 365 -365s-150 -365 -365 -365zM415 59c166 0 286 124 286 291s-120 291 -286 291s-286 -124 -286 -291s120 -291 286 -291zM415 154c-97 0 -146 50 -146 114c0 56 31 86 77 101v2c-38 13 -64 40 -64 84
c0 59 48 103 133 103c87 0 135 -44 135 -103c0 -44 -25 -71 -65 -84v-2c45 -15 77 -45 77 -101c0 -64 -49 -114 -147 -114zM415 403c31 0 50 16 50 42c0 23 -19 40 -50 40c-30 0 -51 -17 -51 -40c0 -26 20 -42 51 -42zM415 230c40 0 62 23 62 53s-23 52 -62 52
c-37 0 -62 -22 -62 -52s21 -53 62 -53z" />
    <glyph glyph-name="uni2468" unicode="&#x2468;" horiz-adv-x="830" 
d="M415 -15c-215 0 -365 154 -365 365s150 365 365 365s365 -154 365 -365s-150 -365 -365 -365zM415 59c166 0 286 124 286 291s-120 291 -286 291s-286 -124 -286 -291s120 -291 286 -291zM323 153l143 152h-2c-18 -16 -42 -23 -67 -23c-71 0 -126 53 -126 127
c0 84 59 139 149 139c78 0 145 -50 145 -146c0 -62 -20 -115 -81 -183l-61 -66h-100zM419 352c38 0 66 23 66 61s-28 61 -66 61c-37 0 -66 -23 -66 -61s28 -61 66 -61z" />
    <glyph glyph-name="uni24EA" unicode="&#x24ea;" horiz-adv-x="830" 
d="M415 -15c-215 0 -365 154 -365 365s150 365 365 365s365 -154 365 -365s-150 -365 -365 -365zM415 59c166 0 286 124 286 291s-120 291 -286 291s-286 -124 -286 -291s120 -291 286 -291zM416 150c-106 0 -168 74 -168 203c0 128 62 201 168 201c104 0 166 -73 166 -201
c0 -129 -62 -203 -166 -203zM416 227c52 0 81 46 81 126c0 75 -29 124 -81 124c-53 0 -82 -49 -82 -124c0 -77 29 -126 82 -126z" />
    <glyph glyph-name="uni24FF" unicode="&#x24ff;" horiz-adv-x="830" 
d="M415 -15c-210 0 -365 157 -365 365s155 365 365 365s365 -157 365 -365s-155 -365 -365 -365zM416 150c104 0 166 74 166 203c0 128 -62 201 -166 201c-106 0 -168 -73 -168 -201c0 -129 62 -203 168 -203zM416 227c-53 0 -82 49 -82 126c0 75 29 124 82 124
c52 0 81 -49 81 -124c0 -80 -29 -126 -81 -126z" />
    <glyph glyph-name="lozenge" unicode="&#x25ca;" horiz-adv-x="620" 
d="M365 715l235 -365l-235 -365h-110l-235 365l235 365h110zM310 559l-131 -209l131 -209l131 209z" />
    <glyph glyph-name="uni2776" unicode="&#x2776;" horiz-adv-x="830" 
d="M415 -15c-210 0 -365 157 -365 365s155 365 365 365s365 -157 365 -365s-155 -365 -365 -365zM386 163h81v386h-108v-81h27v-305z" />
    <glyph glyph-name="uni2777" unicode="&#x2777;" horiz-adv-x="830" 
d="M415 -15c-210 0 -365 157 -365 365s155 365 365 365s365 -157 365 -365s-155 -365 -365 -365zM276 172h277v78h-158l87 79c41 38 68 76 68 125c0 68 -51 113 -136 113c-98 0 -140 -61 -142 -131h80c2 38 27 56 60 56c32 0 52 -18 52 -46c0 -26 -21 -49 -50 -78l-138 -132
v-64z" />
    <glyph glyph-name="uni2778" unicode="&#x2778;" horiz-adv-x="830" 
d="M415 -15c-210 0 -365 157 -365 365s155 365 365 365s365 -157 365 -365s-155 -365 -365 -365zM415 156c96 0 142 55 142 116c0 55 -39 89 -88 97v1c47 11 74 45 74 89c0 58 -48 101 -132 101c-89 0 -135 -49 -137 -118h77c2 31 24 47 56 47c29 0 53 -14 53 -44
c0 -35 -36 -48 -79 -47v-71c62 0 91 -14 91 -49c0 -32 -21 -49 -58 -49c-42 0 -64 21 -66 53h-81c4 -81 61 -126 148 -126z" />
    <glyph glyph-name="uni2779" unicode="&#x2779;" horiz-adv-x="830" 
d="M415 -15c-210 0 -365 157 -365 365s155 365 365 365s365 -157 365 -365s-155 -365 -365 -365zM428 170h77v65h36v70h-36v251h-78l-200 -256v-65h201v-65zM311 305l115 144h2v-144h-117z" />
    <glyph glyph-name="uni277A" unicode="&#x277a;" horiz-adv-x="830" 
d="M415 -15c-210 0 -365 157 -365 365s155 365 365 365s365 -157 365 -365s-155 -365 -365 -365zM405 152c87 0 144 55 144 137s-60 126 -120 126c-29 0 -53 -10 -68 -27h-2l9 81h152v78h-214l-20 -219h68c9 12 31 22 53 22c33 0 61 -21 61 -58c0 -36 -26 -61 -69 -61
c-35 0 -69 18 -87 39l-51 -60c33 -37 82 -58 144 -58z" />
    <glyph glyph-name="uni277B" unicode="&#x277b;" horiz-adv-x="830" 
d="M415 -15c-210 0 -365 157 -365 365s155 365 365 365s365 -157 365 -365s-155 -365 -365 -365zM414 157c94 0 147 63 147 139c0 81 -59 131 -126 131c-28 0 -52 -10 -73 -32l-1 1l149 164h-97l-71 -80c-45 -51 -81 -104 -81 -174c0 -97 67 -149 153 -149zM411 234
c-38 0 -67 23 -67 61s29 61 67 61s67 -23 67 -61s-29 -61 -67 -61z" />
    <glyph glyph-name="uni277C" unicode="&#x277c;" horiz-adv-x="830" 
d="M415 -15c-210 0 -365 157 -365 365s155 365 365 365s365 -157 365 -365s-155 -365 -365 -365zM311 153h87l162 312v74h-269v-79h182z" />
    <glyph glyph-name="uni277D" unicode="&#x277d;" horiz-adv-x="830" 
d="M415 -15c-210 0 -365 157 -365 365s155 365 365 365s365 -157 365 -365s-155 -365 -365 -365zM415 154c98 0 147 50 147 114c0 56 -32 86 -77 101v2c40 13 65 40 65 84c0 59 -48 103 -135 103c-85 0 -133 -44 -133 -103c0 -44 26 -71 64 -84v-2c-46 -15 -77 -45 -77 -101
c0 -64 49 -114 146 -114zM415 403c-31 0 -51 16 -51 42c0 23 21 40 51 40c31 0 50 -17 50 -40c0 -26 -19 -42 -50 -42zM415 230c-41 0 -62 23 -62 53s25 52 62 52c39 0 62 -22 62 -52s-22 -53 -62 -53z" />
    <glyph glyph-name="uni277E" unicode="&#x277e;" horiz-adv-x="830" 
d="M415 -15c-210 0 -365 157 -365 365s155 365 365 365s365 -157 365 -365s-155 -365 -365 -365zM320 154h100l61 66c62 68 82 121 82 183c0 96 -67 146 -146 146c-90 0 -148 -56 -148 -139c0 -74 54 -127 125 -127c25 0 49 7 67 23h3zM416 353c-37 0 -66 23 -66 61
s29 61 66 61c38 0 67 -23 67 -61s-29 -61 -67 -61z" />
    <glyph glyph-name="uniF8FF" unicode="&#xf8ff;" horiz-adv-x="865" 
d="M50 676c0 21 16 36 37 36c20 0 37 -15 37 -36c0 -13 -6 -27 -18 -34v-24c49 20 105 42 173 42c55 0 107 -26 107 -83v-25c23 5 63 12 104 12c63 0 136 -17 136 -83v-48c24 6 49 12 81 12c77 0 108 -34 108 -79v-240c-41 25 -79 32 -107 32c-48 0 -82 -20 -120 -20
c-35 0 -51 17 -51 46v86c-14 3 -32 5 -47 5c-47 0 -101 -18 -140 -18s-54 18 -54 46v68h-14c-55 0 -132 -27 -176 -44v-327h-39v643c-11 7 -17 20 -17 33zM357 577c0 40 -39 55 -77 55c-66 0 -127 -26 -174 -45v-230c60 23 122 42 175 42c24 0 54 -4 76 -14v192zM312 580
l-65 -95v-68h-30v68l-65 95h38l42 -64l42 64h38zM598 474c0 19 -2 62 -106 62c-32 0 -65 -4 -106 -12v-171c0 -34 -64 -25 -64 -54c0 -10 8 -14 27 -14c38 0 89 17 141 17c37 0 79 -9 108 -25v197zM400 414c0 47 33 81 80 81s80 -34 80 -81s-33 -81 -80 -81s-80 34 -80 81z
M530 414c0 30 -21 52 -50 52s-50 -22 -50 -52s21 -52 50 -52s50 22 50 52zM788 365c0 40 -34 51 -80 51c-28 0 -50 -4 -82 -12v-167c0 -36 -62 -29 -62 -56c0 -9 6 -16 25 -16c32 0 72 21 118 21c25 0 56 -6 81 -15v194zM709 373l-10 -100h-16l-10 100h36zM356 352
c0 7 -14 13 -32 16v-32c12 7 32 8 32 16zM598 240c0 11 -15 18 -34 24v-47c17 11 34 11 34 23zM671 231c0 11 8 19 20 19s20 -8 20 -19c0 -12 -8 -20 -20 -20s-20 8 -20 20z" />
    <glyph glyph-name="Adieresis.ss01" horiz-adv-x="716" 
d="M245 730c-46 0 -81 34 -81 80s35 81 81 81c45 0 80 -35 80 -81s-35 -80 -80 -80zM473 730c-46 0 -81 34 -81 80s35 81 81 81c45 0 80 -35 80 -81s-35 -80 -80 -80zM543 0l-50 142h-270l-49 -142h-174l276 700h164l276 -700h-173zM272 280h173l-87 247z" />
    <glyph glyph-name="Adieresis.ss01.ss02" horiz-adv-x="716" 
d="M169 649c-46 0 -80 34 -80 80s34 81 80 81s80 -35 80 -81s-34 -80 -80 -80zM547 649c-46 0 -80 34 -80 80s34 81 80 81s81 -35 81 -81s-35 -80 -81 -80zM543 0l-50 142h-270l-49 -142h-174l276 700h164l276 -700h-173zM272 280h173l-87 247z" />
    <glyph glyph-name="Adieresis.ss02" horiz-adv-x="716" 
d="M229 804v-114h-124v114h124zM611 804v-114h-125v114h125zM543 0l-50 142h-270l-49 -142h-174l276 700h164l276 -700h-173zM272 280h173l-87 247z" />
    <glyph glyph-name="Cdotaccent.ss01" horiz-adv-x="667" 
d="M402 900c45 0 80 -35 80 -81s-35 -80 -80 -80c-46 0 -81 34 -81 80s35 81 81 81zM405 -15c-221 0 -384 142 -384 365s163 365 384 365c109 0 190 -35 251 -78l-84 -136c-45 30 -99 54 -167 54c-122 0 -213 -78 -213 -205s91 -205 213 -205c68 0 122 24 167 54l84 -136
c-61 -43 -142 -78 -251 -78z" />
    <glyph glyph-name="Edieresis.ss01" horiz-adv-x="530" 
d="M179 730c-46 0 -81 34 -81 80s35 81 81 81c45 0 80 -35 80 -81s-35 -80 -80 -80zM407 730c-46 0 -81 34 -81 80s35 81 81 81c45 0 80 -35 80 -81s-35 -80 -80 -80zM216 141h283v-141h-438v700h433v-141h-278v-114h250v-141h-250v-163z" />
    <glyph glyph-name="Edotaccent.ss01" horiz-adv-x="530" 
d="M293 739c-46 0 -81 34 -81 80s35 81 81 81c45 0 80 -35 80 -81s-35 -80 -80 -80zM216 141h283v-141h-438v700h433v-141h-278v-114h250v-141h-250v-163z" />
    <glyph glyph-name="Euro.tf" 
d="M218 283c16 -104 76 -167 174 -167c64 0 116 23 157 49v-143c-42 -24 -91 -37 -156 -37c-199 0 -300 140 -319 298h-66l15 30h48v26c0 11 0 22 1 33h-59l15 30h47c21 153 121 288 323 288c77 0 142 -20 193 -50l-56 -117c-38 18 -86 36 -139 36c-99 0 -159 -59 -176 -157
h250l-15 -30h-239c-1 -11 -2 -22 -2 -33c0 -9 1 -18 1 -26h217l-15 -30h-199z" />
    <glyph glyph-name="Gcommaaccent.ss01" horiz-adv-x="751" 
d="M734 405c1 -12 1 -24 1 -36c0 -220 -108 -384 -343 -384c-216 0 -371 139 -371 367c0 217 144 363 382 363c113 0 201 -34 276 -92l-101 -133c-54 41 -110 65 -179 65c-133 0 -207 -88 -207 -204c0 -119 76 -206 211 -206c113 0 160 64 168 121h-180v139h343zM407 -33
c39 0 68 -28 68 -68c0 -23 -10 -42 -26 -57l-57 -52h-45l28 48c-23 12 -36 36 -36 61c0 40 29 68 68 68z" />
    <glyph glyph-name="Gdotaccent.ss01" horiz-adv-x="751" 
d="M389 739c-46 0 -81 34 -81 80s35 81 81 81c45 0 80 -35 80 -81s-35 -80 -80 -80zM734 405c1 -12 1 -24 1 -36c0 -220 -108 -384 -343 -384c-216 0 -371 139 -371 367c0 217 144 363 382 363c113 0 201 -34 276 -92l-101 -133c-54 41 -110 65 -179 65
c-133 0 -207 -88 -207 -204c0 -119 76 -206 211 -206c113 0 160 64 168 121h-180v139h343z" />
    <glyph glyph-name="Ghedescendercy" horiz-adv-x="245" 
d="M195 111v-251h-145v251h145z" />
    <glyph glyph-name="Idieresis.ss01" horiz-adv-x="277" 
d="M25 891c45 0 80 -35 80 -81s-35 -80 -80 -80c-46 0 -81 34 -81 80s35 81 81 81zM253 891c45 0 80 -35 80 -81s-35 -80 -80 -80c-46 0 -81 34 -81 80s35 81 81 81zM216 700v-700h-155v700h155z" />
    <glyph glyph-name="Idieresis.ss01.ss02" horiz-adv-x="277" 
d="M-32 810c46 0 80 -35 80 -81s-34 -80 -80 -80s-80 34 -80 80s34 81 80 81zM308 810c46 0 81 -35 81 -81s-35 -80 -81 -80s-80 34 -80 80s34 81 80 81zM216 700v-700h-155v700h155z" />
    <glyph glyph-name="Idieresis.ss02" horiz-adv-x="277" 
d="M30 804v-114h-124v114h124zM371 804v-114h-124v114h124zM216 700v-700h-155v700h155z" />
    <glyph glyph-name="Idotaccent.ss01" horiz-adv-x="277" 
d="M139 900c45 0 80 -35 80 -81s-35 -80 -80 -80c-46 0 -81 34 -81 80s35 81 81 81zM216 700v-700h-155v700h155z" />
    <glyph glyph-name="Indianrupeesign.tf" 
d="M344 645c55 -32 93 -88 98 -158h81l-22 -30h-58c-7 -104 -87 -181 -192 -189l231 -268h-186l-220 267v131h123c52 0 80 24 86 59h-209v30h208c-7 33 -35 57 -85 57h-123v131h447l-22 -30h-157z" />
    <glyph glyph-name="Kcommaaccent.ss01" horiz-adv-x="726" 
d="M387 372l339 -372h-221l-289 336v-336h-155v700h155v-310l249 310h211zM354 -33c39 0 68 -28 68 -68c0 -23 -10 -42 -26 -57l-57 -52h-45l28 48c-23 12 -36 36 -36 61c0 40 29 68 68 68z" />
    <glyph glyph-name="Lcaron.ss01" horiz-adv-x="496" 
d="M419 720c50 0 84 -35 84 -84c0 -19 -4 -36 -15 -51l-94 -167h-58l49 140c-32 11 -51 41 -51 78c0 49 34 84 85 84zM216 700v-554h279v-146h-434v700h155z" />
    <glyph glyph-name="Lcommaaccent.ss01" horiz-adv-x="496" 
d="M216 700v-554h279v-146h-434v700h155zM352 -101c0 -23 -10 -42 -26 -57l-57 -52h-45l28 48c-23 12 -36 36 -36 61c0 40 29 68 68 68s68 -28 68 -68z" />
    <glyph glyph-name="Ldot.ss01" horiz-adv-x="496" 
d="M216 700v-554h279v-146h-434v700h155zM378 477c53 0 94 -41 94 -94s-41 -94 -94 -94s-94 41 -94 94s41 94 94 94z" />
    <glyph glyph-name="Ncommaaccent.ss01" horiz-adv-x="744" 
d="M683 700v-700h-132l-334 431h-1v-431h-155v700h131l335 -433h1v433h155zM445 -101c0 -23 -10 -42 -26 -57l-57 -52h-45l28 48c-23 12 -36 36 -36 61c0 40 29 68 68 68s68 -28 68 -68z" />
    <glyph glyph-name="Odieresis.ss01" horiz-adv-x="780" 
d="M277 891c45 0 80 -35 80 -81s-35 -80 -80 -80c-46 0 -81 34 -81 80s35 81 81 81zM505 891c45 0 80 -35 80 -81s-35 -80 -80 -80c-46 0 -81 34 -81 80s35 81 81 81zM390 715c208 0 369 -146 369 -365s-161 -365 -369 -365s-369 146 -369 365s161 365 369 365zM390 555
c-112 0 -198 -79 -198 -205s86 -205 198 -205s198 79 198 205s-86 205 -198 205z" />
    <glyph glyph-name="Odieresis.ss01.ss02" horiz-adv-x="780" 
d="M97 810c46 0 80 -35 80 -81s-34 -80 -80 -80s-80 34 -80 80s34 81 80 81zM684 810c46 0 80 -35 80 -81s-34 -80 -80 -80s-80 34 -80 80s34 81 80 81zM390 715c208 0 369 -146 369 -365s-161 -365 -369 -365s-369 146 -369 365s161 365 369 365zM390 555
c-112 0 -198 -79 -198 -205s86 -205 198 -205s198 79 198 205s-86 205 -198 205z" />
    <glyph glyph-name="Odieresis.ss02" horiz-adv-x="780" 
d="M171 804v-114h-124v114h124zM734 804v-114h-124v114h124zM390 715c208 0 369 -146 369 -365s-161 -365 -369 -365s-369 146 -369 365s161 365 369 365zM390 555c-112 0 -198 -79 -198 -205s86 -205 198 -205s198 79 198 205s-86 205 -198 205z" />
    <glyph glyph-name="RUB.tf" 
d="M343 262h-81v-52h183v-30h-183v-180h-145v180h-93v30h93v52h-93v131h93v282h226c151 0 232 -83 232 -206c0 -124 -81 -207 -232 -207zM262 544v-151h64c57 0 93 18 93 77c0 56 -36 74 -93 74h-64z" />
    <glyph glyph-name="Rcommaaccent.ss01" horiz-adv-x="617" 
d="M416 273l200 -273h-194l-175 265h-31v-265h-155v700h280c157 0 238 -97 238 -219c0 -102 -55 -183 -163 -208zM216 559v-164h102c62 0 97 24 97 82c0 52 -35 82 -97 82h-102zM330 -33c39 0 68 -28 68 -68c0 -23 -10 -42 -26 -57l-57 -52h-45l28 48c-23 12 -36 36 -36 61
c0 40 29 68 68 68z" />
    <glyph glyph-name="Scommaaccent.ss01" horiz-adv-x="544" 
d="M280 715c67 0 144 -15 227 -51l-65 -137c-64 30 -112 44 -158 44c-49 0 -64 -17 -64 -41c0 -21 13 -35 53 -59l116 -73c84 -51 133 -107 133 -205c0 -135 -92 -208 -255 -208c-94 0 -182 24 -261 70l70 139c67 -41 133 -64 197 -64c56 0 86 19 86 56c0 32 -27 51 -66 75
l-107 67c-91 54 -129 121 -129 200c0 114 75 187 223 187zM359 -101c0 -23 -10 -42 -26 -57l-57 -52h-45l28 48c-23 12 -36 36 -36 61c0 40 29 68 68 68s68 -28 68 -68z" />
    <glyph glyph-name="THB.tf" 
d="M417 336c73 -16 120 -67 120 -153c0 -128 -94 -183 -225 -183h-12v-87h-28v87h-209v675h209v87h28v-87h21c126 0 216 -62 216 -174c0 -89 -47 -145 -120 -162v-3zM272 544h-64v-147h64v147zM300 397c52 1 83 29 83 78c0 44 -34 68 -83 69v-147zM208 131h64v147h-64v-147z
M300 131c49 1 83 28 83 73c0 49 -31 73 -83 74v-147z" />
    <glyph glyph-name="TRY.tf" 
d="M420 327h148c0 -198 -135 -327 -326 -327h-102v292l-108 -49v31l108 49v56l-108 -49v31l108 49v265h145v-199l163 74v-31l-163 -74v-56l163 74v-31l-163 -74v-197c77 0 135 63 135 166z" />
    <glyph glyph-name="Udieresis.ss01" horiz-adv-x="706" 
d="M240 891c45 0 80 -35 80 -81s-35 -80 -80 -80c-46 0 -81 34 -81 80s35 81 81 81zM468 891c45 0 80 -35 80 -81s-35 -80 -80 -80c-46 0 -81 34 -81 80s35 81 81 81zM650 700v-417c0 -181 -100 -296 -297 -296c-198 0 -298 115 -298 296v417h165v-403
c0 -88 45 -150 133 -150s133 62 133 150v403h164z" />
    <glyph glyph-name="Udieresis.ss01.ss02" horiz-adv-x="706" 
d="M353 807c46 0 80 -34 80 -80s-34 -80 -80 -80s-80 34 -80 80s34 80 80 80zM650 700v-417c0 -181 -100 -296 -297 -296c-198 0 -298 115 -298 296v417h165v-403c0 -88 45 -150 133 -150s133 62 133 150v403h164zM353 602c46 0 80 -34 80 -80s-34 -81 -80 -81
s-80 35 -80 81s34 80 80 80z" />
    <glyph glyph-name="Udieresis.ss02" horiz-adv-x="706" 
d="M336 804v-114h-92v114h92zM462 804v-114h-92v114h92zM650 700v-417c0 -181 -100 -296 -297 -296c-198 0 -298 115 -298 296v417h165v-403c0 -88 45 -150 133 -150s133 62 133 150v403h164z" />
    <glyph glyph-name="Wdieresis.ss01" horiz-adv-x="1066" 
d="M420 891c45 0 80 -35 80 -81s-35 -80 -80 -80c-46 0 -81 34 -81 80s35 81 81 81zM648 891c45 0 80 -35 80 -81s-35 -80 -80 -80c-46 0 -81 34 -81 80s35 81 81 81zM1060 700l-235 -700h-137l-154 454h-2l-154 -454h-137l-235 700h181l125 -450h2l151 450h136l151 -450h2
l125 450h181z" />
    <glyph glyph-name="Wdieresis.ss01.ss02" horiz-adv-x="1066" 
d="M361 810c46 0 80 -35 80 -81s-34 -80 -80 -80s-80 34 -80 80s34 81 80 81zM705 810c46 0 80 -35 80 -81s-34 -80 -80 -80s-81 34 -81 80s35 81 81 81zM1060 700l-235 -700h-137l-154 454h-2l-154 -454h-137l-235 700h181l125 -450h2l151 450h136l151 -450h2l125 450h181z
" />
    <glyph glyph-name="Wdieresis.ss02" horiz-adv-x="1066" 
d="M414 804v-114h-124v114h124zM777 804v-114h-124v114h124zM1060 700l-235 -700h-137l-154 454h-2l-154 -454h-137l-235 700h181l125 -450h2l151 450h136l151 -450h2l125 450h181z" />
    <glyph glyph-name="XBT" horiz-adv-x="536" 
d="M385 336c73 -16 120 -67 120 -153c0 -125 -90 -180 -215 -183v-87h-28v87h-49v-87h-28v87h-154v675h154v87h28v-87h49v87h28v-87c125 0 215 -62 215 -173c0 -89 -47 -146 -120 -163v-3zM264 544h-88v-147h88c54 0 87 28 87 78c0 45 -34 69 -87 69zM264 131
c53 0 87 27 87 73c0 50 -33 74 -87 74h-88v-147h88z" />
    <glyph glyph-name="XBT.tf" 
d="M417 336c73 -16 120 -67 120 -153c0 -125 -90 -180 -215 -183v-87h-28v87h-49v-87h-28v87h-154v675h154v87h28v-87h49v87h28v-87c125 0 215 -62 215 -173c0 -89 -47 -146 -120 -163v-3zM296 397c54 0 87 28 87 78c0 45 -34 69 -87 69h-88v-147h88zM296 131
c53 0 87 27 87 73c0 50 -33 74 -87 74h-88v-147h88z" />
    <glyph glyph-name="Ydieresis.ss01" horiz-adv-x="659" 
d="M216 730c-46 0 -81 34 -81 80s35 81 81 81c45 0 80 -35 80 -81s-35 -80 -80 -80zM444 730c-46 0 -81 34 -81 80s35 81 81 81c45 0 80 -35 80 -81s-35 -80 -80 -80zM659 700l-252 -448v-252h-155v252l-252 448h186l142 -293h2l143 293h186z" />
    <glyph glyph-name="Ydieresis.ss01.ss02" horiz-adv-x="659" 
d="M240 692c-46 0 -80 34 -80 80s34 80 80 80s80 -34 80 -80s-34 -80 -80 -80zM418 692c-46 0 -80 34 -80 80s34 80 80 80s80 -34 80 -80s-34 -80 -80 -80zM659 700l-252 -448v-252h-155v252l-252 448h186l142 -293h2l143 293h186z" />
    <glyph glyph-name="Ydieresis.ss02" horiz-adv-x="659" 
d="M318 804v-114h-105v114h105zM446 804v-114h-104v114h104zM659 700l-252 -448v-252h-155v252l-252 448h186l142 -293h2l143 293h186z" />
    <glyph glyph-name="Zdotaccent.ss01" horiz-adv-x="568" 
d="M288 739c-46 0 -81 34 -81 80s35 81 81 81c45 0 80 -35 80 -81s-35 -80 -80 -80zM212 145h336v-145h-528v145l329 410h-303v145h492v-145z" />
    <glyph glyph-name="a.subs" horiz-adv-x="414" 
d="M166 -120c-77 0 -145 57 -145 163s68 163 145 163c47 0 79 -21 96 -54h2v44h110v-306h-110v44h-2c-17 -33 -49 -54 -96 -54zM200 -19c37 0 64 24 64 62s-27 62 -64 62c-38 0 -65 -24 -65 -62s27 -62 65 -62z" />
    <glyph glyph-name="a.sups" horiz-adv-x="414" 
d="M166 338c-77 0 -145 57 -145 163s68 163 145 163c46 0 79 -21 96 -54h2v44h110v-306h-110v44h-2c-17 -33 -50 -54 -96 -54zM200 439c37 0 64 24 64 62s-27 62 -64 62c-38 0 -65 -24 -65 -62s27 -62 65 -62z" />
    <glyph glyph-name="acutecomb.case" horiz-adv-x="0" 
d="M-50 863l-171 -120h-109l115 120h165z" />
    <glyph glyph-name="acutecombcy" horiz-adv-x="380" 
d="M330 657l-162 -154h-118l115 154h165z" />
    <glyph glyph-name="adieresis.ss01" horiz-adv-x="586" 
d="M175 705c46 0 81 -35 81 -81s-35 -81 -81 -81s-81 35 -81 81s35 81 81 81zM384 705c46 0 81 -35 81 -81s-35 -81 -81 -81s-81 35 -81 81s35 81 81 81zM240 -15c-120 0 -219 84 -219 246s99 246 219 246c75 0 122 -31 151 -78h2v63h151v-462h-151v63h-2
c-29 -47 -76 -78 -151 -78zM282 123c61 0 107 42 107 108s-46 108 -107 108c-60 0 -106 -42 -106 -108s46 -108 106 -108z" />
    <glyph glyph-name="approxequal.case" 
d="M173 518c88 0 184 -90 253 -90c42 0 67 23 85 74h62c-27 -107 -87 -142 -146 -142c-88 0 -184 90 -253 90c-42 0 -67 -23 -85 -75h-62c27 108 87 143 146 143zM173 336c88 0 184 -90 253 -90c42 0 67 23 85 75h62c-27 -108 -87 -143 -146 -143c-88 0 -184 90 -253 90
c-42 0 -67 -23 -85 -75h-62c27 108 87 143 146 143z" />
    <glyph glyph-name="arrowboth.case" horiz-adv-x="1252" 
d="M892 694l310 -324l-310 -324l-95 96l170 166h-478h-204l169 -166l-95 -96l-309 324l309 324l95 -96l-169 -166h478h204l-170 166z" />
    <glyph glyph-name="arrowdown.case" horiz-adv-x="748" 
d="M602 432l96 -95l-324 -310l-324 310l96 95l166 -170v478h124v-478z" />
    <glyph glyph-name="arrowleft.case" horiz-adv-x="813" 
d="M763 432v-124h-478l169 -166l-95 -96l-309 324l309 324l95 -96l-169 -166h478z" />
    <glyph glyph-name="arrowright.case" horiz-adv-x="813" 
d="M453 695l310 -324l-310 -324l-95 96l170 166h-478v124h478l-170 166z" />
    <glyph glyph-name="arrowup.case" horiz-adv-x="748" 
d="M698 404l-96 -95l-166 170v-478h-124v478l-166 -170l-96 95l324 310z" />
    <glyph glyph-name="at.case" horiz-adv-x="934" 
d="M478 760c249 0 415 -149 415 -380c0 -132 -56 -264 -192 -264c-65 0 -107 35 -126 82h-2c-27 -45 -69 -77 -138 -77c-104 0 -192 75 -192 217c0 144 90 219 193 219c63 0 102 -29 127 -70h2v55h115v-278c0 -38 19 -50 37 -50c33 0 74 42 74 149c0 213 -142 302 -310 302
c-191 0 -339 -110 -339 -332c0 -219 164 -318 339 -318c62 0 121 14 170 32l33 -90c-61 -22 -133 -37 -205 -37c-211 0 -438 126 -438 412c0 271 178 428 437 428zM469 435c-52 0 -93 -37 -93 -96c0 -58 41 -96 93 -96s93 38 93 96c0 59 -41 96 -93 96z" />
    <glyph glyph-name="b.subs" horiz-adv-x="414" 
d="M249 -120c-47 0 -80 21 -97 54h-2v-44h-110v462h110v-200h2c17 33 50 54 97 54c77 0 144 -57 144 -163s-67 -163 -144 -163zM215 -19c38 0 65 24 65 62s-27 62 -65 62s-65 -24 -65 -62s27 -62 65 -62z" />
    <glyph glyph-name="b.sups" horiz-adv-x="414" 
d="M249 338c-47 0 -80 21 -97 54h-2v-44h-110v462h110v-200h2c17 33 50 54 97 54c77 0 144 -57 144 -163s-67 -163 -144 -163zM215 439c38 0 65 24 65 62s-27 62 -65 62s-65 -24 -65 -62s27 -62 65 -62z" />
    <glyph glyph-name="bar.case" horiz-adv-x="328" 
d="M218 807v-942h-108v942h108z" />
    <glyph glyph-name="braceleft.case" horiz-adv-x="416" 
d="M406 833v-124h-30c-52 0 -90 -15 -90 -87v-114c0 -88 -37 -142 -123 -162v-2c86 -20 123 -74 123 -162v-116c0 -71 37 -87 90 -87h30v-124h-39c-104 0 -204 54 -204 205v118c0 67 -50 98 -128 102v130c78 4 128 35 128 102v116c0 151 100 205 204 205h39z" />
    <glyph glyph-name="braceright.case" horiz-adv-x="416" 
d="M10 -145v124h31c52 0 90 16 90 87v116c0 88 36 142 122 162v2c-86 20 -122 74 -122 162v114c0 72 -39 87 -91 87h-30v124h40c104 0 203 -54 203 -205v-116c0 -67 50 -98 128 -102v-130c-78 -4 -128 -35 -128 -102v-118c0 -151 -99 -205 -203 -205h-40z" />
    <glyph glyph-name="bracketleft.case" horiz-adv-x="341" 
d="M331 834v-108h-130v-763h130v-108h-257v979h257z" />
    <glyph glyph-name="bracketright.case" horiz-adv-x="341" 
d="M10 -145v108h130v763h-130v108h257v-979h-257z" />
    <glyph glyph-name="brevecombcy" horiz-adv-x="0" 
d="M-50 654c0 -98 -70 -162 -164 -162c-93 0 -164 64 -164 162h95c2 -35 19 -71 69 -71s67 36 69 71h95z" />
    <glyph glyph-name="brevecombcy.case" horiz-adv-x="0" 
d="M-50 863c-5 -86 -61 -140 -164 -140s-158 54 -164 140h103c1 -34 21 -60 61 -60c41 0 60 26 61 60h103z" />
    <glyph glyph-name="brokenbar.case" horiz-adv-x="328" 
d="M218 807v-388h-108v388h108zM218 261v-396h-108v396h108z" />
    <glyph glyph-name="c.subs" horiz-adv-x="317" 
d="M194 206c43 0 83 -12 112 -28l-40 -89c-19 9 -39 16 -62 16c-40 0 -70 -21 -70 -62s30 -62 70 -62c23 0 43 7 62 16l40 -89c-29 -16 -69 -28 -112 -28c-101 0 -173 62 -173 163s72 163 173 163z" />
    <glyph glyph-name="c.sups" horiz-adv-x="317" 
d="M194 664c43 0 83 -12 112 -28l-40 -89c-19 9 -39 16 -62 16c-40 0 -70 -21 -70 -62s30 -62 70 -62c23 0 43 7 62 16l40 -89c-29 -16 -69 -28 -112 -28c-101 0 -173 62 -173 163s72 163 173 163z" />
    <glyph glyph-name="cdotaccent.ss01" horiz-adv-x="451" 
d="M270 709c55 0 94 -38 94 -93c0 -56 -39 -94 -94 -94c-56 0 -94 38 -94 94c0 55 38 93 94 93zM278 -15c-148 0 -257 97 -257 246s109 246 257 246c65 0 117 -16 167 -45l-62 -121c-28 18 -57 28 -98 28c-60 0 -113 -39 -113 -108s53 -108 113 -108c41 0 70 10 98 28
l62 -121c-50 -29 -102 -45 -167 -45z" />
    <glyph glyph-name="cent.tf" 
d="M496 158v-143c-29 -14 -72 -28 -124 -30v-49h-28v49c-140 6 -241 103 -241 246c0 144 102 240 241 246v55h28v-55c52 -3 94 -16 123 -29v-144c-55 23 -85 31 -123 31v-208c38 1 69 9 124 31zM260 231c0 -55 35 -93 84 -102v204c-50 -9 -84 -47 -84 -102z" />
    <glyph glyph-name="circlecomb" horiz-adv-x="830" 
d="M415 -15c-215 0 -365 154 -365 365s150 365 365 365s365 -154 365 -365s-150 -365 -365 -365zM415 59c166 0 286 124 286 291s-120 291 -286 291s-286 -124 -286 -291s120 -291 286 -291z" />
    <glyph glyph-name="circleinvertcomb" horiz-adv-x="830" 
d="M415 -15c-210 0 -365 157 -365 365s155 365 365 365s365 -157 365 -365s-155 -365 -365 -365z" />
    <glyph glyph-name="colon.case" horiz-adv-x="243" 
d="M201 523v-161h-160v161h160zM201 161v-161h-160v161h160z" />
    <glyph glyph-name="colon.case.ss01" horiz-adv-x="243" 
d="M121 542c53 0 94 -41 94 -94s-41 -94 -94 -94s-94 41 -94 94s41 94 94 94zM121 175c53 0 94 -41 94 -94s-41 -94 -94 -94s-94 41 -94 94s41 94 94 94z" />
    <glyph glyph-name="colon.ss01" horiz-adv-x="243" 
d="M121 477c53 0 94 -41 94 -94s-41 -94 -94 -94s-94 41 -94 94s41 94 94 94zM121 175c53 0 94 -41 94 -94s-41 -94 -94 -94s-94 41 -94 94s41 94 94 94z" />
    <glyph glyph-name="comma.ss01" horiz-adv-x="243" 
d="M215 75c0 -21 -5 -39 -15 -55l-103 -182h-59l50 154c-34 12 -53 42 -53 83c0 55 34 90 90 90s90 -35 90 -90z" />
    <glyph glyph-name="commaturncomb" horiz-adv-x="237" 
d="M133 641h53v-101h-136v101l65 62h51z" />
    <glyph glyph-name="commaturncomb.ss01" horiz-adv-x="236" 
d="M50 602c0 23 11 42 27 57l56 52h45l-28 -48c23 -12 36 -35 36 -61c0 -39 -28 -68 -68 -68c-39 0 -68 28 -68 68z" />
    <glyph glyph-name="d.subs" horiz-adv-x="414" 
d="M166 -120c-77 0 -145 57 -145 163s68 163 145 163c46 0 79 -21 96 -54h2v200h110v-462h-110v44h-2c-17 -33 -50 -54 -96 -54zM200 -19c37 0 64 24 64 62s-27 62 -64 62c-38 0 -65 -24 -65 -62s27 -62 65 -62z" />
    <glyph glyph-name="d.sups" horiz-adv-x="414" 
d="M166 338c-77 0 -145 57 -145 163s68 163 145 163c46 0 79 -21 96 -54h2v200h110v-462h-110v44h-2c-17 -33 -50 -54 -96 -54zM200 439c37 0 64 24 64 62s-27 62 -64 62c-38 0 -65 -24 -65 -62s27 -62 65 -62z" />
    <glyph glyph-name="dcaron.ss01" horiz-adv-x="727" 
d="M575 489l49 69c-31 11 -51 41 -51 78c0 50 34 84 85 84s85 -35 85 -83c0 -27 -10 -49 -34 -73l-75 -75h-59zM240 -15c-120 0 -219 84 -219 246s99 246 219 246c75 0 122 -31 151 -78h2v301h151v-700h-151v63h-2c-29 -47 -76 -78 -151 -78zM282 123c61 0 107 42 107 108
s-46 108 -107 108c-60 0 -106 -42 -106 -108s46 -108 106 -108z" />
    <glyph glyph-name="dieresiscasecomb.ss01" horiz-adv-x="233" 
d="M117 891c45 0 80 -35 80 -81s-35 -80 -80 -80c-46 0 -81 34 -81 80s35 81 81 81z" />
    <glyph glyph-name="dieresiscombcy" horiz-adv-x="391" 
d="M164 649v-135h-114v135h114zM341 649v-135h-114v135h114z" />
    <glyph glyph-name="dieresiscombcy.ss01" horiz-adv-x="471" 
d="M131 654c46 0 81 -35 81 -81s-35 -81 -81 -81s-81 35 -81 81s35 81 81 81zM340 654c46 0 81 -35 81 -81s-35 -81 -81 -81s-81 35 -81 81s35 81 81 81z" />
    <glyph glyph-name="dieresisdotcomb.ss01" horiz-adv-x="262" 
d="M131 700c46 0 81 -35 81 -81s-35 -81 -81 -81s-81 35 -81 81s35 81 81 81z" />
    <glyph glyph-name="divide.case" 
d="M348 553v-98h-96v98h96zM559 370v-63h-518v63h518zM348 222v-98h-96v98h96z" />
    <glyph glyph-name="divide.ss01" 
d="M300 403c-31 0 -53 23 -53 53c0 31 22 53 53 53s53 -22 53 -53c0 -30 -22 -53 -53 -53zM41 267v63h518v-63h-518zM300 88c-31 0 -53 22 -53 53c0 30 22 53 53 53s53 -23 53 -53c0 -31 -22 -53 -53 -53z" />
    <glyph glyph-name="divide.ss01.case" 
d="M300 443c-31 0 -53 23 -53 53c0 31 22 53 53 53s53 -22 53 -53c0 -30 -22 -53 -53 -53zM41 307v63h518v-63h-518zM300 128c-31 0 -53 22 -53 53c0 30 22 53 53 53s53 -23 53 -53c0 -31 -22 -53 -53 -53z" />
    <glyph glyph-name="dollar.tf" 
d="M550 195c0 -126 -89 -203 -228 -210v-62h-28v62c-155 4 -244 97 -244 229h154c5 -61 36 -89 90 -93v158c-93 37 -213 77 -213 225c0 118 88 182 213 186v72h28v-72c128 -6 219 -75 219 -219h-155c-1 53 -24 76 -64 81v-127c94 -37 228 -75 228 -230zM231 501
c0 -30 26 -48 63 -65v117c-42 -2 -63 -20 -63 -52zM322 120c55 4 79 30 79 64c0 40 -34 63 -79 83v-147z" />
    <glyph glyph-name="dot" horiz-adv-x="236" 
d="M198 161v-161h-160v161h160z" />
    <glyph glyph-name="dot.ss01" horiz-adv-x="288" 
d="M144 175c53 0 94 -41 94 -94s-41 -94 -94 -94s-94 41 -94 94s41 94 94 94z" />
    <glyph glyph-name="e.subs" horiz-adv-x="361" 
d="M187 206c92 0 153 -53 153 -150v-36h-215c4 -32 35 -49 80 -49c39 0 66 13 87 22l35 -86c-33 -15 -76 -27 -126 -27c-112 0 -180 63 -180 163c0 97 65 163 166 163zM184 131c-27 0 -54 -15 -56 -51h107c-1 36 -25 51 -51 51z" />
    <glyph glyph-name="e.sups" horiz-adv-x="361" 
d="M187 664c92 0 153 -53 153 -150v-36h-215c4 -32 35 -49 80 -49c39 0 66 13 87 22l35 -86c-33 -15 -76 -27 -126 -27c-112 0 -180 63 -180 163c0 97 65 163 166 163zM184 589c-27 0 -54 -15 -56 -51h107c-1 36 -26 51 -51 51z" />
    <glyph glyph-name="edieresis.ss01" horiz-adv-x="511" 
d="M160 705c46 0 81 -35 81 -81s-35 -81 -81 -81s-81 35 -81 81s35 81 81 81zM369 705c46 0 81 -35 81 -81s-35 -81 -81 -81s-81 35 -81 81s35 81 81 81zM265 476c139 0 229 -80 229 -247v-34h-331c10 -58 56 -84 118 -84c56 0 105 23 134 42l55 -114
c-49 -30 -112 -54 -191 -54c-155 0 -258 97 -258 244c0 156 102 247 244 247zM260 369c-51 0 -89 -25 -96 -85h184c-2 54 -39 85 -88 85z" />
    <glyph glyph-name="edotaccent.ss01" horiz-adv-x="511" 
d="M265 709c55 0 94 -38 94 -93c0 -56 -39 -94 -94 -94c-56 0 -94 38 -94 94c0 55 38 93 94 93zM265 476c139 0 229 -80 229 -247v-34h-331c10 -58 56 -84 118 -84c56 0 105 23 134 42l55 -114c-49 -30 -112 -54 -191 -54c-155 0 -258 97 -258 244c0 156 102 247 244 247z
M260 369c-51 0 -89 -25 -96 -85h184c-2 54 -39 85 -88 85z" />
    <glyph glyph-name="eight.dnom" horiz-adv-x="364" 
d="M182 -9c-98 0 -146 50 -146 114c0 57 31 90 77 101v2c-38 11 -65 40 -65 84c0 59 48 103 134 103s134 -44 134 -103c0 -44 -24 -73 -65 -84v-2c45 -11 77 -44 77 -101c0 -64 -49 -114 -146 -114zM182 240c30 0 49 16 49 42c0 23 -19 40 -49 40s-51 -17 -51 -40
c0 -26 20 -42 51 -42zM182 67c40 0 61 23 61 53s-23 52 -61 52s-62 -22 -62 -52s20 -53 62 -53z" />
    <glyph glyph-name="eight.numr" horiz-adv-x="364" 
d="M182 280c-98 0 -146 50 -146 114c0 57 31 90 77 101v2c-38 11 -65 40 -65 84c0 59 48 103 134 103s134 -44 134 -103c0 -44 -24 -73 -65 -84v-2c45 -11 77 -44 77 -101c0 -64 -49 -114 -146 -114zM182 529c30 0 49 16 49 42c0 23 -19 40 -49 40s-51 -17 -51 -40
c0 -26 20 -42 51 -42zM182 356c40 0 62 23 62 53s-24 52 -62 52s-62 -22 -62 -52s20 -53 62 -53z" />
    <glyph glyph-name="eight.tf" 
d="M300 -15c-162 0 -258 74 -258 199c0 88 49 154 129 172v3c-68 19 -109 76 -109 149c0 113 91 182 238 182s238 -69 238 -182c0 -73 -41 -130 -109 -149v-3c79 -18 129 -84 129 -172c0 -125 -96 -199 -258 -199zM300 418c46 0 78 29 78 71c0 43 -31 72 -78 72
s-78 -29 -78 -72c0 -42 32 -71 78 -71zM300 120c57 0 96 38 96 92c0 55 -40 93 -96 93s-96 -38 -96 -93c0 -54 39 -92 96 -92z" />
    <glyph glyph-name="ellipsis.ss01" horiz-adv-x="757" 
d="M124 175c53 0 94 -41 94 -94s-41 -94 -94 -94s-94 41 -94 94s41 94 94 94zM378 175c53 0 94 -41 94 -94s-41 -94 -94 -94s-94 41 -94 94s41 94 94 94zM632 175c53 0 94 -41 94 -94s-41 -94 -94 -94c-52 0 -93 41 -93 94s41 94 93 94z" />
    <glyph glyph-name="emdash.case" horiz-adv-x="1154" 
d="M1104 408v-113h-1054v113h1054z" />
    <glyph glyph-name="endash.case" horiz-adv-x="734" 
d="M693 408v-117h-652v117h652z" />
    <glyph glyph-name="equal.case" 
d="M553 480v-66h-506v66h506zM553 267v-66h-506v66h506z" />
    <glyph glyph-name="exclam.ss01" horiz-adv-x="327" 
d="M250 700l-32 -475h-108l-33 475h173zM164 175c52 0 93 -41 93 -94s-41 -94 -93 -94c-53 0 -94 41 -94 94s41 94 94 94z" />
    <glyph glyph-name="exclamdown.case" horiz-adv-x="327" 
d="M84 540v161h160v-161h-160zM77 1l33 471h108l32 -471h-173z" />
    <glyph glyph-name="exclamdown.case.ss01" horiz-adv-x="327" 
d="M163 525c-52 0 -93 41 -93 94s41 94 93 94c53 0 94 -41 94 -94s-41 -94 -94 -94zM77 0l33 475h108l32 -475h-173z" />
    <glyph glyph-name="exclamdown.ss01" horiz-adv-x="327" 
d="M163 324c-52 0 -93 41 -93 94s41 94 93 94c53 0 94 -41 94 -94s-41 -94 -94 -94zM77 -201l33 475h108l32 -475h-173z" />
    <glyph glyph-name="f.subs" horiz-adv-x="251" 
d="M240 196v-90h-63v-216h-109v216h-58v90h58v12c0 99 50 151 153 151h18v-102h-10c-31 0 -52 -10 -52 -46v-15h63z" />
    <glyph glyph-name="f.sups" horiz-adv-x="251" 
d="M240 654v-90h-63v-216h-109v216h-58v90h58v12c0 99 50 151 153 151h18v-102h-10c-31 0 -52 -10 -52 -46v-15h63z" />
    <glyph glyph-name="f_f_i.ss01" horiz-adv-x="953" 
d="M92 489c0 153 73 221 222 221h31v-140h-13c-66 0 -89 -18 -89 -86v-22h98v-126h-98v-336h-151v336h-81v126h81v27zM447 489c0 153 73 221 222 221h31v-140h-13c-66 0 -89 -18 -89 -86v-22h98v-126h-98v-336h-151v336h-81v126h81v27zM831 522c-56 0 -94 38 -94 94
c0 55 38 93 94 93c55 0 94 -38 94 -93c0 -56 -39 -94 -94 -94zM756 0v462h151v-462h-151z" />
    <glyph glyph-name="fi.ss01" horiz-adv-x="599" 
d="M92 489c0 153 73 221 222 221h31v-140h-13c-66 0 -89 -18 -89 -86v-22h98v-126h-98v-336h-151v336h-81v126h81v27zM477 522c-56 0 -94 38 -94 94c0 55 38 93 94 93c55 0 94 -38 94 -93c0 -56 -39 -94 -94 -94zM402 0v462h151v-462h-151z" />
    <glyph glyph-name="five.dnom" horiz-adv-x="335" 
d="M192 254c65 0 117 -40 117 -124c0 -87 -57 -139 -147 -139c-58 0 -108 21 -141 56l50 62c19 -21 52 -39 88 -39c43 0 68 25 68 61c0 37 -26 58 -60 58c-27 0 -45 -11 -53 -22h-69l22 219h212v-78h-151l-9 -81h2c15 17 39 27 71 27z" />
    <glyph glyph-name="five.numr" horiz-adv-x="335" 
d="M192 543c65 0 117 -40 117 -124c0 -87 -57 -139 -147 -139c-58 0 -108 21 -141 56l50 62c19 -21 52 -39 88 -39c43 0 68 25 68 61c0 37 -26 58 -60 58c-27 0 -45 -11 -53 -22h-69l22 219h212v-78h-151l-9 -81h2c15 17 39 27 71 27z" />
    <glyph glyph-name="five.tf" 
d="M314 447c133 0 219 -87 219 -221c0 -150 -101 -241 -267 -241c-93 0 -173 29 -238 85l88 121c44 -44 96 -67 149 -67c69 0 111 41 111 107c0 61 -37 99 -97 99c-39 0 -70 -17 -91 -51h-119l35 396h363v-134h-255l-13 -127h3c26 21 65 33 112 33z" />
    <glyph glyph-name="florin.tf" 
d="M443 543c-54 0 -79 -21 -79 -72v-9h116v-30h-116v-415c0 -135 -67 -217 -190 -217h-58v133h41c34 0 61 20 61 74v425h-94v30h94v8c0 126 68 205 215 205h47v-132h-37z" />
    <glyph glyph-name="four.dnom" horiz-adv-x="355" 
d="M330 135v-70h-37v-65h-77v65h-200v65l199 256h78v-251h37zM100 135h116v144h-2z" />
    <glyph glyph-name="four.numr" horiz-adv-x="355" 
d="M330 424v-70h-37v-65h-77v65h-200v65l199 256h78v-251h37zM100 424h116v144h-2z" />
    <glyph glyph-name="four.tf" 
d="M568 244v-131h-62v-113h-141v113h-333v115l317 447h157v-431h62zM185 244h180v247h-4z" />
    <glyph glyph-name="g.subs" horiz-adv-x="413" 
d="M216 -252c-46 0 -95 6 -141 14l17 93c50 -10 85 -14 112 -14c54 0 60 17 60 70v23h-2c-17 -33 -50 -54 -96 -54c-77 0 -145 57 -145 163s68 163 145 163c46 0 79 -21 96 -54h2v44h110v-306c0 -96 -56 -142 -158 -142zM200 -19c37 0 64 24 64 62s-27 62 -64 62
c-38 0 -65 -24 -65 -62s27 -62 65 -62z" />
    <glyph glyph-name="g.sups" horiz-adv-x="413" 
d="M216 206c-46 0 -95 6 -141 14l17 93c50 -10 85 -14 112 -14c54 0 60 17 60 70v23h-2c-17 -33 -50 -54 -96 -54c-77 0 -145 57 -145 163s68 163 145 163c46 0 79 -21 96 -54h2v44h110v-306c0 -96 -56 -142 -158 -142zM200 439c37 0 64 24 64 62s-27 62 -64 62
c-38 0 -65 -24 -65 -62s27 -62 65 -62z" />
    <glyph glyph-name="gcommaaccent.ss01" horiz-adv-x="586" 
d="M218 602c0 23 10 42 26 57l57 52h45l-28 -48c23 -12 36 -36 36 -61c0 -40 -29 -68 -68 -68s-68 28 -68 68zM295 -215c-48 0 -120 7 -198 23l25 141c76 -18 127 -23 162 -23c76 0 109 25 109 106v30h-2c-27 -36 -74 -70 -152 -70c-121 0 -218 80 -218 240
c0 161 99 245 219 245c75 0 122 -31 151 -78h2v63h151v-462c-1 -145 -89 -215 -249 -215zM282 123c61 0 107 42 107 108s-46 108 -107 108c-60 0 -106 -42 -106 -108s46 -108 106 -108z" />
    <glyph glyph-name="gdotaccent.ss01" horiz-adv-x="586" 
d="M288 709c55 0 94 -38 94 -93c0 -56 -39 -94 -94 -94c-56 0 -94 38 -94 94c0 55 38 93 94 93zM295 -215c-48 0 -120 7 -198 23l25 141c76 -18 127 -23 162 -23c76 0 109 25 109 106v30h-2c-27 -36 -74 -70 -152 -70c-121 0 -218 80 -218 240c0 161 99 245 219 245
c75 0 122 -31 151 -78h2v63h151v-462c-1 -145 -89 -215 -249 -215zM282 123c61 0 107 42 107 108s-46 108 -107 108c-60 0 -106 -42 -106 -108s46 -108 106 -108z" />
    <glyph glyph-name="germandbls.ss03" horiz-adv-x="574" 
d="M442 271c45 -22 105 -64 105 -160c0 -160 -156 -270 -226 -326l-88 110c85 67 166 136 166 200c0 44 -43 78 -110 102l-20 8l80 131h-151v-336h-151v489c0 153 73 221 222 221h30v-140h-12c-66 0 -89 -18 -89 -86v-104l55 82h306z" />
    <glyph glyph-name="ghedescendercy" horiz-adv-x="226" 
d="M50 -130v204h126v-204h-126z" />
    <glyph glyph-name="gravecomb.case" horiz-adv-x="0" 
d="M-165 863l115 -120h-108l-172 120h165z" />
    <glyph glyph-name="greater.case" 
d="M66 583l468 -208v-71l-468 -208v76l391 167l-391 168v76z" />
    <glyph glyph-name="guillemotleft.case" horiz-adv-x="578" 
d="M341 493l-164 -175l164 -176h-162l-164 176l164 175h162zM568 493l-163 -175l163 -176h-162l-163 176l163 175h162z" />
    <glyph glyph-name="guillemotright.case" horiz-adv-x="578" 
d="M10 493h162l163 -175l-163 -176h-162l163 176zM237 493h162l164 -175l-164 -176h-162l164 176z" />
    <glyph glyph-name="guilsinglleft.case" horiz-adv-x="351" 
d="M341 493l-164 -175l164 -176h-162l-164 176l164 175h162z" />
    <glyph glyph-name="guilsinglright.case" horiz-adv-x="351" 
d="M10 493h162l163 -175l-163 -176h-162l163 176z" />
    <glyph glyph-name="h.subs" horiz-adv-x="401" 
d="M150 352v-202h2c20 35 54 56 100 56c62 0 109 -37 109 -119v-197h-110v160c0 41 -16 59 -48 59c-34 0 -53 -21 -53 -70v-149h-110v462h110z" />
    <glyph glyph-name="h.sups" horiz-adv-x="401" 
d="M150 810v-202h2c20 35 54 56 100 56c62 0 109 -37 109 -119v-197h-110v160c0 41 -16 59 -48 59c-34 0 -53 -21 -53 -70v-149h-110v462h110z" />
    <glyph glyph-name="hungarumlautcombcy" horiz-adv-x="503" 
d="M294 657l-142 -154h-102l122 154h122zM453 657l-142 -154h-102l122 154h122z" />
    <glyph glyph-name="hyphen.case" horiz-adv-x="421" 
d="M372 413v-135h-322v135h322z" />
    <glyph glyph-name="i.loclTRK" horiz-adv-x="244" 
d="M203 699v-152h-162v152h162zM47 0v462h151v-462h-151z" />
    </font>
</defs>
</svg>
