<?xml version="1.0" standalone="no"?>
<!DOCTYPE svg PUBLIC "-//W3C//DTD SVG 1.1//EN" "http://www.w3.org/Graphics/SVG/1.1/DTD/svg11.dtd" >
<svg xmlns="http://www.w3.org/2000/svg" xmlns:xlink="http://www.w3.org/1999/xlink" version="1.1">
<metadata>
Created by FontForge 20200511 at Fri Sep 23 15:49:29 2011
 By convertio
Copyright (c) 2011, Sorkin Type Co (www.sorkintype.com)
with Reserved Font Names "Poller" and "Poller One".
</metadata>
<defs>
<font id="PollerOne-Regular" horiz-adv-x="1780" >
  <font-face 
    font-family="Poller One"
    font-weight="400"
    font-stretch="normal"
    units-per-em="2048"
    panose-1="2 1 8 5 7 7 0 6 0 3"
    ascent="1638"
    descent="-410"
    x-height="991"
    cap-height="1486"
    bbox="-176 -514 2816 1920"
    underline-thickness="50"
    underline-position="-100"
    unicode-range="U+0020-20AC"
  />
<missing-glyph horiz-adv-x="741" 
 />
    <glyph glyph-name=".notdef" horiz-adv-x="741" 
 />
    <glyph glyph-name=".null" horiz-adv-x="0" 
 />
    <glyph glyph-name="nonmarkingreturn" horiz-adv-x="621" 
 />
    <glyph glyph-name="space" unicode=" " horiz-adv-x="621" 
 />
    <glyph glyph-name="space" unicode="&#xa0;" horiz-adv-x="621" 
 />
    <glyph glyph-name="exclam" unicode="!" horiz-adv-x="975" 
d="M218 1485h541v-824h-541v824zM180 210q0 47 17.5 88.5t55 72t95.5 48.5t140 18q81 0 139.5 -18t95.5 -48.5t54.5 -72t17.5 -88.5q0 -48 -17.5 -89.5t-54.5 -72t-95.5 -48.5t-139.5 -18q-82 0 -140 18t-95.5 48.5t-55 72t-17.5 89.5z" />
    <glyph glyph-name="quotedbl" unicode="&#x22;" horiz-adv-x="941" 
d="M580 1486h201v-660h-201v660zM160 1486h201v-660h-201v660z" />
    <glyph glyph-name="numbersign" unicode="#" horiz-adv-x="1584" 
d="M427 329h-227l1 183h256l44 274h-301l1 182h330l57 353h183l-57 -353h265l57 353h183l-57 -353h222v-182h-252l-44 -274h296v-183h-326l-53 -331l-183 1l53 330h-265l-53 -331l-183 1zM905 512l44 274h-265l-44 -274h265z" />
    <glyph glyph-name="dollar" unicode="$" horiz-adv-x="1577" 
d="M243 357q56 -34 113 -59.5t111 -42t104.5 -25t93.5 -8.5q91 0 133 33t42 86q0 20 -7 39.5t-24 39t-47 38t-76 35.5l-167 61q-179 65 -267.5 177t-88.5 267q0 94 33 180.5t101.5 155t172.5 114t246 56.5v225h162v-224q66 -4 127 -14.5t115.5 -25t100.5 -31.5t82 -35
l-112 -222q-60 41 -126.5 63t-127.5 22q-40 0 -70.5 -10t-51.5 -26.5t-31.5 -38.5t-10.5 -47q0 -23 10 -44t33 -41t61.5 -39.5t94.5 -39.5l134 -48q175 -63 263 -175.5t88 -267.5q0 -99 -37 -184.5t-109.5 -151t-181 -108t-251.5 -57.5v-311h-162v304q-163 1 -307.5 37
t-288.5 113z" />
    <glyph glyph-name="percent" unicode="%" horiz-adv-x="2437" 
d="M1804 1533l144 -136l-1283 -1417l-144 135zM633 830q-114 0 -203.5 25.5t-152 71t-95 107.5t-32.5 136q0 73 32.5 135.5t95 108t152 71t203.5 25.5t203.5 -25.5t151.5 -71t94.5 -108t32.5 -135.5q0 -74 -32.5 -136t-94.5 -107.5t-151.5 -71t-203.5 -25.5zM633 981
q21 0 39.5 10t31.5 32t20.5 58t7.5 89q0 52 -7.5 88.5t-20.5 58.5t-31.5 32t-39.5 10t-39.5 -9.5t-32 -31t-21 -58t-7.5 -90.5t7.5 -90.5t21 -58t32 -31t39.5 -9.5zM1322 316q0 73 32.5 135.5t95 108t152 71t203.5 25.5t203.5 -25.5t151.5 -71t94.5 -108t32.5 -135.5
q0 -74 -32.5 -136t-94.5 -107t-151.5 -70.5t-203.5 -25.5t-203.5 25.5t-152 70.5t-95 107t-32.5 136zM1705 316q0 -54 7.5 -90t21 -58t32 -31.5t39.5 -9.5t39 10t31 32t20.5 58t7.5 89q0 52 -7.5 88.5t-20.5 59t-31 32.5t-39 10t-39.5 -9.5t-32 -31.5t-21 -58.5t-7.5 -90.5z
" />
    <glyph glyph-name="ampersand" unicode="&#x26;" horiz-adv-x="1860" 
d="M180 472q0 71 22.5 137.5t68 125t114.5 106.5t163 82q-55 25 -93.5 55t-62.5 63t-34.5 68t-10.5 71q0 76 43.5 137t122 104t188 66.5t240.5 23.5q112 0 217.5 -16.5t196.5 -46.5l-55 -160q-49 17 -98 25t-92 8q-99 0 -151.5 -36t-52.5 -96q0 -32 16.5 -64t52 -59.5
t90.5 -48t133 -27.5l-51 -160h-1q-102 0 -178.5 -25.5t-127.5 -69t-76 -102t-25 -124.5q0 -69 25.5 -125.5t70 -96.5t104.5 -62t128 -22q71 0 136 24t115 70t80.5 113.5t32.5 155t-29.5 194t-105.5 231.5h536l-71 -207h-173q29 -93 34.5 -189.5t-16.5 -186.5t-73.5 -169
t-137 -137.5t-206.5 -92.5t-281 -34q-120 0 -220.5 19.5t-181.5 54t-142 81.5t-102 102t-61.5 116t-20.5 124z" />
    <glyph glyph-name="quotesingle" unicode="'" horiz-adv-x="521" 
d="M160 1486h201v-660h-201v660z" />
    <glyph glyph-name="parenleft" unicode="(" horiz-adv-x="1126" 
d="M180 600q0 174 59.5 333t168.5 298t263.5 255t343.5 204l51 -123q-88 -69 -167.5 -171t-140 -227.5t-96 -270t-35.5 -298.5t35.5 -298.5t96 -270t140 -227.5t167.5 -171l-51 -123q-189 88 -343.5 204t-263.5 254.5t-168.5 298t-59.5 333.5z" />
    <glyph glyph-name="parenright" unicode=")" horiz-adv-x="1126" 
d="M60 -367q88 69 167.5 171t140 227.5t96 270t35.5 298.5t-35.5 298.5t-96 270t-140 227.5t-167.5 171l51 123q189 -88 343.5 -204t263.5 -255t168.5 -298t59.5 -333t-59.5 -333.5t-168.5 -298t-263.5 -254.5t-343.5 -204l-51 123v0z" />
    <glyph glyph-name="asterisk" unicode="*" horiz-adv-x="1228" 
d="M254 912l244 216l-378 51l92 281l332 -172l-68 364h296l-67 -355l311 169l92 -281l-327 -47l225 -209l-239 -173l-136 280l-138 -297z" />
    <glyph glyph-name="plus" unicode="+" horiz-adv-x="1279" 
d="M549 648h-349v178h349v330h180v-330h350v-178h-350v-342h-180v342z" />
    <glyph glyph-name="comma" unicode="," horiz-adv-x="983" 
d="M180 136q0 67 25 122.5t67 95t98.5 61.5t119.5 22q70 0 127.5 -21.5t99 -61t64 -95t22.5 -123.5q0 -69 -25.5 -145.5t-73 -154t-116.5 -154t-156 -146.5l-142 111q40 42 73.5 80.5t60.5 77t49.5 79t41.5 86.5l-335 166v0z" />
    <glyph glyph-name="hyphen" unicode="-" horiz-adv-x="1007" 
d="M160 682h687v-188h-687v188z" />
    <glyph glyph-name="period" unicode="." horiz-adv-x="975" 
d="M180 210q0 47 17.5 88.5t55 72t95.5 48.5t140 18q81 0 139.5 -18t95.5 -48.5t54.5 -72t17.5 -88.5q0 -48 -17.5 -89.5t-54.5 -72t-95.5 -48.5t-139.5 -18q-82 0 -140 18t-95.5 48.5t-55 72t-17.5 89.5z" />
    <glyph glyph-name="slash" unicode="/" horiz-adv-x="1227" 
d="M861 1510l273 -148l-730 -1385l-273 147z" />
    <glyph glyph-name="zero" unicode="0" horiz-adv-x="1782" 
d="M142 746q0 181 48.5 323t143 240t234.5 149.5t323 51.5t323 -51.5t234.5 -149.5t143 -240t48.5 -323t-48.5 -323t-143 -240t-234.5 -149.5t-323 -51.5t-323 51.5t-234.5 149.5t-143 240t-48.5 323zM891 167q25 0 49 8.5t45 31.5t38.5 63.5t30 105t19.5 155.5t7 215
t-7 215t-19.5 155.5t-30 105t-38.5 63.5t-45 31.5t-49 8.5t-49 -8.5t-45 -31.5t-38.5 -63.5t-30 -105t-19.5 -155.5t-7 -215t7 -215t19.5 -155.5t30 -105t38.5 -63.5t45 -31.5t49 -8.5z" />
    <glyph glyph-name="one" unicode="1" horiz-adv-x="1203" 
d="M422 1025h-315v174q64 15 124.5 41.5t113.5 63t97.5 82.5t75.5 99h445v-1485h-541v1025z" />
    <glyph glyph-name="two" unicode="2" horiz-adv-x="1511" 
d="M130 167l338 304q100 90 164.5 163t102 135t52 115.5t14.5 103.5q0 61 -18 111t-52.5 85.5t-84 54.5t-113.5 19q-89 0 -176 -36t-162 -99l-112 175q48 42 116.5 80.5t153.5 68t182.5 46.5t204.5 17q147 0 261 -33t192.5 -91t119 -137t40.5 -170q0 -90 -41 -181
t-124.5 -181t-210.5 -178t-298 -171l297 24h382v-392h-1224l2 2l-6 -2v167z" />
    <glyph glyph-name="three" unicode="3" horiz-adv-x="1558" 
d="M232 313q20 -7 54 -17.5t77 -21t90.5 -18t94.5 -7.5q73 0 130 19.5t96 52.5t59.5 75.5t20.5 87.5q0 52 -26 97t-74.5 76t-117 45.5t-153.5 5.5v126l377 291l-217 -11h-435v372h1138v-213l-488 -368q134 -4 236.5 -40t171.5 -96t104.5 -139t35.5 -169q0 -109 -50 -198.5
t-139.5 -153t-214.5 -98t-275 -34.5q-86 0 -168.5 11.5t-159.5 32.5t-147.5 51t-130.5 67z" />
    <glyph glyph-name="four" unicode="4" horiz-adv-x="1714" 
d="M112 496l681 990h554v-990h239v-217h-239v-279h-541v279l-570 1h-124v216zM806 496v657l-429 -657h429z" />
    <glyph glyph-name="five" unicode="5" horiz-adv-x="1564" 
d="M258 294q33 -17 70 -29t74.5 -20t74 -12t68.5 -4q74 0 132 19.5t98.5 53t61.5 78.5t21 96q0 48 -19.5 94.5t-61 82.5t-105.5 58.5t-153 22.5q-35 0 -73 -3.5t-76.5 -10.5t-75 -16t-69.5 -21l62 803h1030v-372h-812l-23 -245q40 12 85 21.5t91.5 16t93 9.5t89.5 3
q146 0 253.5 -34.5t177.5 -94t104 -140.5t34 -174q0 -117 -50.5 -209.5t-140.5 -157t-214.5 -98.5t-273.5 -34q-89 0 -173 12t-160 34.5t-142 54.5t-119 72z" />
    <glyph glyph-name="six" unicode="6" horiz-adv-x="1720" 
d="M142 603q0 108 31.5 212.5t91.5 199t147 177t198 147t243.5 107.5t284.5 60l91 -135q-98 -36 -177.5 -81t-141 -103.5t-105 -132t-69.5 -166.5q65 32 141 49t170 17q139 0 247 -35.5t181.5 -97t112 -144t38.5 -175.5q0 -110 -52.5 -205.5t-150 -166.5t-235.5 -112
t-310 -41q-134 0 -240.5 25t-188.5 68.5t-140 103t-95 129t-54.5 146t-17.5 154.5zM880 162q88 0 141 78.5t53 230.5q0 79 -15 134t-42 89.5t-65 50.5t-84 16q-51 0 -92 -18.5t-75 -55.5q-2 -29 -3 -60.5t-1 -64.5q0 -121 14.5 -198.5t39.5 -122.5t58.5 -62t70.5 -17z" />
    <glyph glyph-name="seven" unicode="7" horiz-adv-x="1415" 
d="M875 1025l-360 -12h-391v473l1016 -2l197 2v-227l-729 -1258h-323z" />
    <glyph glyph-name="eight" unicode="8" horiz-adv-x="1712" 
d="M176 413q0 112 58.5 207t170.5 164q-37 27 -67.5 58.5t-53 68t-35 79t-12.5 91.5q0 81 37.5 158t117 137t203 97t296.5 37q154 0 262.5 -29.5t177 -79t99.5 -113t31 -130.5q0 -84 -43 -160t-118 -145q55 -33 105 -72t87 -87t59 -107t22 -132q0 -116 -57 -205t-156 -150
t-231.5 -92t-283.5 -31q-167 0 -292 35.5t-209 95.5t-126 139t-42 166zM817 1187q0 -41 26.5 -73.5t71 -62t102.5 -57t121 -57.5q62 50 90 100t28 98q0 37 -17 72t-48 61t-75 42t-98 16q-44 0 -81 -10.5t-63.5 -29.5t-41.5 -44t-15 -55zM381 437q0 -58 25 -108.5t72 -87.5
t114.5 -58t152.5 -21q70 0 121 14.5t84 38.5t48.5 56t15.5 68q0 62 -41 109.5t-106.5 87.5t-146.5 77t-161 78q-90 -45 -134 -112t-44 -142z" />
    <glyph glyph-name="nine" unicode="9" horiz-adv-x="1720" 
d="M491 116q98 36 177.5 81t141 103.5t105 132t69.5 166.5q-65 -32 -141 -49t-170 -17q-139 0 -247 35.5t-181.5 97t-112 144t-38.5 175.5q0 110 52.5 205.5t150 166.5t235.5 112t310 41q134 0 240.5 -25t188.5 -68.5t140 -103t95 -129t54.5 -146.5t17.5 -154
q0 -108 -31.5 -212.5t-91.5 -199t-147 -177t-198 -147t-243.5 -107.5t-284.5 -60zM852 726q100 0 166 73q2 30 3.5 61.5t1.5 64.5q0 121 -14.5 198.5t-39.5 122.5t-58.5 62t-70.5 17q-88 0 -141 -78.5t-53 -230.5q0 -79 15 -134t42 -89.5t65 -50.5t84 -16z" />
    <glyph glyph-name="colon" unicode=":" horiz-adv-x="975" 
d="M488 555q-82 0 -140 18t-95.5 48.5t-55 72t-17.5 89.5q0 47 17.5 88.5t55 72t95.5 48.5t140 18q81 0 139.5 -18t95.5 -48.5t54.5 -72t17.5 -88.5q0 -48 -17.5 -89.5t-54.5 -72t-95.5 -48.5t-139.5 -18zM180 210q0 47 17.5 88.5t55 72t95.5 48.5t140 18q81 0 139.5 -18
t95.5 -48.5t54.5 -72t17.5 -88.5q0 -48 -17.5 -89.5t-54.5 -72t-95.5 -48.5t-139.5 -18q-82 0 -140 18t-95.5 48.5t-55 72t-17.5 89.5z" />
    <glyph glyph-name="semicolon" unicode=";" horiz-adv-x="983" 
d="M488 557q-82 0 -140 18t-95.5 48.5t-55 72t-17.5 89.5q0 47 17.5 88.5t55 72t95.5 48.5t140 18q81 0 139.5 -18t95.5 -48.5t54.5 -72t17.5 -88.5q0 -48 -17.5 -89.5t-54.5 -72t-95.5 -48.5t-139.5 -18zM180 136q0 67 25 122.5t67 95t98.5 61.5t119.5 22q70 0 127.5 -21.5
t99 -61t64 -95t22.5 -123.5q0 -69 -25.5 -145.5t-73 -154t-116.5 -154t-156 -146.5l-142 111q40 42 73.5 80.5t60.5 77t49.5 79t41.5 86.5z" />
    <glyph glyph-name="less" unicode="&#x3c;" horiz-adv-x="1034" 
d="M736 1167l123 -154l-440 -352l440 -352l-123 -154l-613 506z" />
    <glyph glyph-name="equal" unicode="=" horiz-adv-x="1278" 
d="M200 990h878v-180h-878v180zM200 661h878v-180h-878v180z" />
    <glyph glyph-name="greater" unicode="&#x3e;" horiz-adv-x="1034" 
d="M175 309l439 352l-439 352l122 154l614 -506l-614 -506z" />
    <glyph glyph-name="question" unicode="?" horiz-adv-x="1325" 
d="M322 992q190 21 283 75.5t93 124.5q0 28 -10 51.5t-32.5 40.5t-58 27t-86.5 10q-75 0 -154 -23t-164 -65l-53 160q109 53 245.5 85.5t286.5 32.5q166 0 283 -28.5t190 -75.5t106.5 -108t33.5 -127q0 -155 -154 -261.5t-462 -173.5l52 -154h-263zM322 193q0 44 16.5 82
t51 66.5t88.5 45t130 16.5q75 0 129 -16.5t88.5 -45t51 -66.5t16.5 -82t-16.5 -82.5t-51 -67t-88.5 -45t-129 -16.5q-76 0 -130 16.5t-88.5 45t-51 67t-16.5 82.5z" />
    <glyph glyph-name="at" unicode="@" horiz-adv-x="2463" 
d="M180 469q0 108 33 216.5t97.5 207.5t158.5 184t216.5 147.5t272.5 98.5t325 36q139 0 267 -23t239 -67t202 -108t156 -146t100.5 -181.5t35.5 -213.5q0 -93 -23 -176.5t-63.5 -154t-95.5 -126.5t-119 -95t-134 -60t-141 -21q-51 0 -94.5 10.5t-79 29t-63.5 43t-50 53.5
q-67 -39 -160 -65.5t-199 -26.5q-116 0 -209.5 33.5t-159.5 92t-102 137t-36 169.5q0 93 37.5 173.5t107 140t167 93.5t217.5 34q48 0 95 -5.5t91 -15t84 -21.5t74 -25l6 52h490l-97 -585q-2 -14 -3 -25t-1 -21q0 -53 33 -53q27 0 63.5 32.5t70 89t57 133t23.5 163.5
q0 137 -61 240t-167.5 172t-249.5 103.5t-307 34.5q-142 0 -263 -26t-220 -72.5t-174.5 -111.5t-127 -143.5t-78 -167.5t-26.5 -184q0 -109 33 -201t93 -166t144 -129.5t186 -93t218 -56.5t241 -19q90 0 182.5 10t186.5 30l-22 -159q-97 -29 -200 -43t-209 -14
q-132 0 -262 22.5t-248.5 68t-220.5 115t-177 163t-117.5 211.5t-42.5 262zM1153 488q0 -46 13 -84.5t37 -66.5t57.5 -43.5t73.5 -15.5q18 0 35 3l42 400q-34 8 -66 8q-46 0 -82 -15t-60.5 -41.5t-37 -63.5t-12.5 -81z" />
    <glyph glyph-name="A" unicode="A" 
d="M601 1111l-172 375h609l728 -1487h-653l-110 238h-586l-109 -238h-253zM898 466l-188 408l-187 -408h375z" />
    <glyph glyph-name="B" unicode="B" horiz-adv-x="1844" 
d="M190 1486h786q166 0 290.5 -28t208 -79.5t125.5 -124t42 -161.5t-49.5 -167.5t-144.5 -135.5q156 -45 233 -132t77 -213q0 -86 -41.5 -166t-124 -142t-206.5 -99.5t-290 -37.5h-906v1486zM830 882q82 0 138 15.5t89.5 42.5t48 62t14.5 73t-14.5 73t-48 61.5t-89.5 42.5
t-138 16h-61l-1 -386h62zM830 218q89 0 150 19t99 52t55 77.5t17 95.5q0 45 -18 88t-53.5 76.5t-87.5 54t-120 20.5h-104v-483h62z" />
    <glyph glyph-name="C" unicode="C" horiz-adv-x="1591" 
d="M103 742q0 106 27.5 204.5t80.5 183.5t130 155t175.5 120t217.5 77.5t256 27.5q88 0 168.5 -11t151.5 -30.5t131.5 -45t109.5 -53.5l-86 -168q-56 27 -127.5 45.5t-148.5 18.5q-103 0 -191 -37t-152 -105t-100.5 -164.5t-36.5 -216.5q0 -119 36 -215.5t99.5 -165
t151 -106t189.5 -37.5q72 0 144 17.5t132 46.5l86 -168q-49 -29 -109 -54t-130 -44.5t-150 -30.5t-168 -11q-205 0 -369.5 60.5t-279.5 165t-176.5 244t-61.5 297.5z" />
    <glyph glyph-name="D" unicode="D" horiz-adv-x="1908" 
d="M190 1486h611q258 0 447 -48.5t313 -142.5t184 -231t60 -314q0 -158 -60 -294.5t-184 -238t-313 -159.5t-447 -58h-611v1486zM768 218q100 0 180 31t135.5 96t85 165.5t29.5 240.5q0 139 -30 237t-86 160.5t-135.5 91t-177.5 28.5z" />
    <glyph glyph-name="E" unicode="E" horiz-adv-x="1553" 
d="M190 1486h1256v-229h-677l-1 -401h518v-229h-518v-398h678v-229h-1256v1486z" />
    <glyph glyph-name="F" unicode="F" horiz-adv-x="1465" 
d="M190 1486h1219v-229h-640l-1 -431h470v-229h-470v-597h-578v1486z" />
    <glyph glyph-name="G" unicode="G" horiz-adv-x="1801" 
d="M103 742q0 106 27.5 204.5t80.5 183.5t130 155t175.5 120t217.5 77.5t256 27.5q88 0 168.5 -11t151.5 -30.5t131.5 -45t109.5 -53.5l-86 -168q-56 27 -127.5 45.5t-148.5 18.5q-103 0 -191 -37t-152 -105t-100.5 -164.5t-36.5 -216.5q0 -119 36 -215.5t99.5 -165
t151 -106t189.5 -37.5v503h583l-104 -189v-404l1 -2q-49 -29 -121 -56t-160.5 -48.5t-188.5 -34.5t-205 -13q-205 0 -369.5 60.5t-279.5 165t-176.5 244t-61.5 297.5z" />
    <glyph glyph-name="H" unicode="H" horiz-adv-x="1964" 
d="M190 1486h578v-623h427v623h579l-1 -1486h-578v634h-427v-634h-578v1486z" />
    <glyph glyph-name="I" unicode="I" horiz-adv-x="959" 
d="M190 1486h579l-1 -1486h-578v1486z" />
    <glyph glyph-name="J" unicode="J" horiz-adv-x="1004" 
d="M235 1486h578v-1256q1 -141 -42.5 -263.5t-128.5 -217t-208 -157t-279 -82.5l-72 121q40 30 68.5 64t47 78.5t27.5 102t9 134.5v1476z" />
    <glyph glyph-name="K" unicode="K" horiz-adv-x="1851" 
d="M190 1486h578v-861l643 861h289l-474 -638l621 -849h-651l-332 467l-96 -132v-334h-578v1486z" />
    <glyph glyph-name="L" unicode="L" horiz-adv-x="1383" 
d="M190 1486h579l-1 -1257h568v-229h-1146v1486z" />
    <glyph glyph-name="M" unicode="M" horiz-adv-x="2283" 
d="M190 1486h409l562 -778l534 778h398v-1486h-577v759l-554 -778l-552 778v-759h-220v1486z" />
    <glyph glyph-name="N" unicode="N" horiz-adv-x="1906" 
d="M190 1486h362l943 -792l1 792h220v-1486h-362l-944 789v-789h-220v1486z" />
    <glyph glyph-name="O" unicode="O" horiz-adv-x="1914" 
d="M103 746q0 169 54 309.5t161 241.5t267 157t372 56t372 -56t267 -157t161 -241.5t54 -309.5q0 -171 -54 -313t-161 -243t-267 -157t-372 -56t-372 56t-267 157t-161 243t-54 313zM957 184q60 0 106 21t77 82t47 171t16 288q0 176 -16 285t-47 169t-77 81t-106 21
t-106.5 -21t-77.5 -81t-47 -169t-16 -285q0 -178 16 -288t47 -171t77.5 -82t106.5 -21z" />
    <glyph glyph-name="P" unicode="P" horiz-adv-x="1714" 
d="M190 1486h715q198 1 341.5 -34.5t236.5 -101.5t137.5 -158.5t44.5 -205.5q0 -99 -41.5 -189.5t-128 -159.5t-220 -110t-317.5 -41h-190v-486h-578v1486zM768 704q69 1 123 21.5t91 57t56.5 88t19.5 115.5q0 63 -20 114t-57.5 87.5t-91 57.5t-121.5 23v-564z" />
    <glyph glyph-name="Q" unicode="Q" horiz-adv-x="1915" 
d="M103 746q0 169 54 309.5t161 241.5t267 157t372 56q211 0 371 -56t267 -157t161 -241.5t54 -309.5q0 -131 -31.5 -244.5t-93.5 -205.5t-155.5 -160t-216.5 -108q49 -16 125 -23t190 -6h182l-151 -268q-126 0 -229.5 14.5t-187 44.5t-149 76.5t-116.5 110.5h-20
q-212 0 -372 56t-267 157t-161 243t-54 313zM957 184q60 0 106 21t77 82t47 171t16 288q0 176 -16 285t-47 169t-77 81t-106 21t-106.5 -21t-77.5 -81t-47 -169t-16 -285q0 -178 16 -288t47 -171t77.5 -82t106.5 -21z" />
    <glyph glyph-name="R" unicode="R" horiz-adv-x="1865" 
d="M190 1486h857q166 0 290.5 -35t208 -98t125.5 -151t42 -194q0 -131 -62 -232.5t-184 -161.5l312 -615h-653l-236 540h-122v-539h-578v1486zM803 720q71 0 127 20t95 56.5t60 87t21 110.5t-21 110.5t-60 87t-95 56.5t-127 20h-34l-1 -548h35z" />
    <glyph glyph-name="S" unicode="S" horiz-adv-x="1621" 
d="M210 330q106 -54 222 -81t216 -27q115 0 168.5 33t53.5 90q0 18 -6.5 37t-25 37.5t-51 37t-84.5 36.5l-179 61q-192 66 -289 178.5t-97 267.5q0 100 42 192.5t127 163t214.5 112.5t303.5 42q86 0 165 -10t148.5 -26t127.5 -36.5t102 -40.5l-108 -195q-32 20 -67.5 35
t-71 25t-69.5 15t-62 5q-48 0 -84 -12.5t-60.5 -33t-37 -46t-12.5 -50.5q0 -22 10.5 -42.5t36 -40t67 -39t103.5 -40.5l120 -40q195 -65 298 -179t103 -276q0 -110 -49.5 -203t-147.5 -160.5t-243.5 -105t-337.5 -37.5q-92 0 -177.5 9.5t-167 28.5t-160.5 48t-158 68z" />
    <glyph glyph-name="T" unicode="T" horiz-adv-x="1480" 
d="M451 1258h-424v229h1426v-229h-424v-1258h-578v1258z" />
    <glyph glyph-name="U" unicode="U" horiz-adv-x="1665" 
d="M184 1486h578v-944q0 -80 21.5 -138.5t60 -97t90.5 -57.5t112 -19q66 0 118.5 19t89.5 58t57 98t20 139v942h220v-908q0 -138 -44.5 -249t-126.5 -189.5t-198 -120.5t-259 -42q-195 0 -335 41.5t-230 119t-132 187.5t-42 248v913z" />
    <glyph glyph-name="V" unicode="V" horiz-adv-x="1618" 
d="M41 1486h633l348 -955l322 955l261 1l-521 -1487l-471 1z" />
    <glyph glyph-name="W" unicode="W" horiz-adv-x="2357" 
d="M41 1486h633l254 -955l163 563l-121 392h633l234 -955l246 955l261 1l-445 -1487l-471 1l-220 713l-218 -714l-471 1z" />
    <glyph glyph-name="X" unicode="X" horiz-adv-x="1628" 
d="M512 714l-482 772h653l290 -464l296 464h261l-434 -662l516 -824l-653 -1l-326 520l-337 -520h-262z" />
    <glyph glyph-name="Y" unicode="Y" horiz-adv-x="1607" 
d="M517 419l-504 1067h633l366 -766l295 766h262l-444 -1067v-419h-608v419z" />
    <glyph glyph-name="Z" unicode="Z" horiz-adv-x="1573" 
d="M753 1268h-594v218h1358l-674 -1266h616v-220h-1403z" />
    <glyph glyph-name="bracketleft" unicode="[" horiz-adv-x="957" 
d="M220 1651h645l-82 -165h-127v-1817h159l-82 -165h-513v2147z" />
    <glyph glyph-name="backslash" unicode="\" horiz-adv-x="1227" 
d="M93 1362l273 148l730 -1386l-273 -147z" />
    <glyph glyph-name="bracketright" unicode="]" horiz-adv-x="957" 
d="M301 -331v1817h-127l-82 165h645v-2147h-513l-83 165h160z" />
    <glyph glyph-name="asciicircum" unicode="^" horiz-adv-x="1362" 
d="M121 405q172 121 307.5 266t251.5 314q115 -169 251.5 -314t308.5 -266l-65 -114q-59 16 -123 46.5t-127.5 71.5t-126 92t-118.5 108q-56 -57 -118 -108t-126 -92.5t-127.5 -71.5t-122.5 -46z" />
    <glyph glyph-name="underscore" unicode="_" horiz-adv-x="1228" 
d="M1258 -298v-198h-1288v198h1288z" />
    <glyph glyph-name="grave" unicode="`" horiz-adv-x="953" 
d="M768 1172q-82 10 -172 32t-176.5 52t-164 67t-135.5 76l154 187q115 -86 251 -161.5t308 -138.5l-65 -114v0z" />
    <glyph glyph-name="a" unicode="a" horiz-adv-x="1557" 
d="M75 312q0 72 32 134t92 108t145 72.5t190 26.5t196.5 -24.5t153.5 -62.5v8q0 70 -15.5 119t-47.5 80t-81.5 45t-116.5 14q-61 0 -126 -10.5t-120 -30.5l-73 135q109 45 225.5 64.5t240.5 19.5q159 0 281.5 -30.5t206 -91t126.5 -152t43 -214.5v-522h-507l-34 96
q-30 -23 -71 -44t-90 -37t-104 -25t-115 -9q-98 0 -177.5 25.5t-135.5 69.5t-87 104.5t-31 131.5zM635 333q0 -54 35 -87.5t94 -33.5q32 0 63 10.5t57 31.5v169q-50 30 -110 30q-68 0 -103.5 -33.5t-35.5 -86.5z" />
    <glyph glyph-name="b" unicode="b" horiz-adv-x="1667" 
d="M140 1650h544v-778q28 27 66.5 51.5t85 44t100 31t112.5 11.5q113 0 212 -33t173 -98t116.5 -161t42.5 -223q0 -117 -40.5 -211.5t-116.5 -162t-184.5 -104t-243.5 -36.5q-109 0 -195.5 27.5t-145.5 72.5l-28 -81h-497zM684 199q24 -20 54.5 -31.5t60.5 -11.5
q50 0 92.5 18.5t74 57.5t49 99.5t17.5 145.5q0 86 -16.5 147t-45.5 99.5t-69 56.5t-88 18q-37 0 -70 -13t-59 -33v-553z" />
    <glyph glyph-name="c" unicode="c" horiz-adv-x="1302" 
d="M74 496q0 101 42.5 194t128.5 164t217.5 113.5t309.5 42.5q128 0 219 -24.5t149 -64.5t85 -91t27 -104q0 -41 -19 -78t-51 -65.5t-75 -45.5t-91 -17l-254 347q-28 -25 -51.5 -59t-41 -77.5t-27 -97t-9.5 -117.5q0 -89 22 -156t60 -111.5t90.5 -67t114.5 -22.5
q30 0 60.5 4.5t58 12t50.5 17.5t39 21l80 -140q-37 -19 -80.5 -36t-96 -29.5t-115.5 -20t-138 -7.5q-180 0 -312.5 42.5t-219.5 113.5t-129.5 164t-42.5 195z" />
    <glyph glyph-name="d" unicode="d" horiz-adv-x="1669" 
d="M75 495q0 117 40.5 212t116.5 162.5t184.5 104t243.5 36.5q103 0 185 -24.5t141 -64.5v730h543v-1651h-500l-41 124q-28 -27 -67 -53t-86 -46t-101.5 -32t-114.5 -12q-113 0 -212 33t-173 97.5t-116.5 161t-42.5 222.5zM635 514q0 -86 16.5 -147t45.5 -99.5t69 -56.5
t88 -18q38 0 71.5 13.5t60.5 34.5v548q-25 22 -56.5 34t-61.5 12q-50 0 -92.5 -18.5t-74 -57.5t-49 -99.5t-17.5 -145.5z" />
    <glyph glyph-name="e" unicode="e" horiz-adv-x="1449" 
d="M75 501q0 86 27 157t74.5 127.5t112.5 98.5t141 70t159 42t168 14q112 0 203.5 -22.5t163 -61.5t124 -91t87 -110.5t51 -120.5t16.5 -121l-756 -91q22 -111 88 -172t185 -61q65 0 121.5 16t88.5 39l80 -140q-37 -19 -80.5 -36t-96 -29.5t-116 -20t-139.5 -7.5
q-182 0 -314 42.5t-218.5 114t-128 165.5t-41.5 198zM917 585q0 130 -32.5 189t-96.5 59q-33 0 -61 -16t-48 -50t-32 -87.5t-13 -129.5z" />
    <glyph glyph-name="f" unicode="f" horiz-adv-x="1097" 
d="M178 826h-110v165h110v104q0 145 43 252.5t121.5 178t189.5 105.5t248 35q99 0 179.5 -20.5t137.5 -56.5t88.5 -84.5t31.5 -104.5q0 -53 -20 -94t-53 -70t-75.5 -44t-87.5 -15l-260 354v-540h290l-103 -165h-187v-826h-543v826z" />
    <glyph glyph-name="g" unicode="g" horiz-adv-x="1485" 
d="M122 89q0 76 38 147t106 128q-94 51 -142.5 122.5t-48.5 161.5q0 85 44.5 152.5t128.5 114t206 71t277 24.5q53 0 103 -3v129q0 69 18.5 127t55.5 100t93.5 65.5t132.5 23.5q70 0 125.5 -19.5t94 -53t58.5 -78.5t20 -95q0 -49 -17.5 -89t-45.5 -69t-61.5 -45t-66.5 -16
l-234 315l-1 -1l-2 -315q185 -36 284 -122.5t99 -215.5q0 -85 -44.5 -154.5t-128.5 -119t-206 -76.5t-277 -27q-109 0 -201.5 13t-167.5 39q-8 -19 -8 -44q0 -26 13.5 -46.5t54 -34.5t114 -21t192.5 -7h260q118 0 202.5 -23.5t139 -64.5t80 -95.5t25.5 -115.5
q0 -80 -42 -147t-127.5 -115.5t-215.5 -75.5t-306 -27q-100 0 -193.5 8.5t-175.5 24t-151 37t-121 46.5l81 151q63 -29 126 -48.5t128 -31.5t133.5 -17t142.5 -5q84 0 135.5 7t79 18t37 25.5t9.5 29.5q0 26 -28.5 42.5t-90.5 17.5l-313 3q-107 1 -186 21.5t-131.5 57
t-78 86.5t-25.5 110zM731 453q23 0 41 9t30.5 31t19 59.5t6.5 94.5q0 53 -6 88t-18 55.5t-30.5 28.5t-42.5 8t-42.5 -8t-30.5 -28.5t-18 -55.5t-6 -89q0 -56 6.5 -93.5t19 -59.5t30.5 -31t41 -9z" />
    <glyph glyph-name="h" unicode="h" horiz-adv-x="1615" 
d="M140 1651h543v-819q112 81 229.5 129.5t246.5 48.5q69 0 128.5 -23t103.5 -71t69 -123.5t25 -180.5v-612h-543v646q0 52 -22.5 76t-73.5 24q-23 0 -45.5 -7t-43.5 -18t-40 -25t-34 -28v-668h-543v1651z" />
    <glyph glyph-name="i" unicode="i" horiz-adv-x="823" 
d="M411 1156q-74 0 -127.5 16t-87.5 44.5t-50 66t-16 81.5q0 43 16 81t50 66.5t87.5 44.5t127.5 16q75 0 128 -16t87.5 -44.5t50.5 -66.5t16 -81q0 -44 -16 -81.5t-50.5 -66t-87.5 -44.5t-128 -16zM140 991h543v-991h-543v991z" />
    <glyph glyph-name="j" unicode="j" horiz-adv-x="824" 
d="M422 1156q-74 0 -127.5 16t-88 44.5t-50.5 66t-16 81.5q0 43 16 81t50.5 66.5t88 44.5t127.5 16q75 0 128 -16t87.5 -44.5t50.5 -66.5t16 -81q0 -44 -16 -81.5t-50.5 -66t-87.5 -44.5t-128 -16zM151 991h543v-826q0 -138 -40 -250.5t-117 -196.5t-191 -138t-261 -75
l-43 94q31 33 52 65.5t33.5 69t18 80.5t5.5 100v1077z" />
    <glyph glyph-name="k" unicode="k" horiz-adv-x="1562" 
d="M140 1651h543v-1077l403 417h300l-318 -323l491 -668l-608 1l-268 384v-385h-543v1651z" />
    <glyph glyph-name="l" unicode="l" horiz-adv-x="823" 
d="M140 1651h543v-1651h-543v1651z" />
    <glyph glyph-name="m" unicode="m" horiz-adv-x="2314" 
d="M140 991h479l48 -144q106 81 215.5 122t230.5 41q91 0 165 -40t116 -127q46 33 99 63t111.5 53.5t121.5 37t131 13.5q69 0 129 -23t104 -71t69 -123.5t25 -180.5v-612h-543v646q0 52 -23.5 76t-67.5 24q-23 0 -52 -10.5t-59 -30.5v-705h-543v646q0 52 -23 76t-67 24
q-29 0 -64 -12t-59 -38v-696h-543v991z" />
    <glyph glyph-name="n" unicode="n" horiz-adv-x="1569" 
d="M140 991h479l48 -144q106 81 215.5 122t230.5 41q69 0 128.5 -23t103.5 -71t69 -123.5t25 -180.5v-612h-543v646q0 52 -23 76t-67 24q-29 0 -64 -12t-59 -38v-696h-543v991z" />
    <glyph glyph-name="o" unicode="o" horiz-adv-x="1574" 
d="M75 495q0 118 48.5 213t140 162t223.5 103.5t300 36.5t300 -36.5t223.5 -103.5t140 -162t48.5 -213q0 -117 -48.5 -212t-140 -162t-223.5 -103.5t-300 -36.5t-300 36.5t-223.5 103.5t-140 162t-48.5 212zM787 164q37 0 66 15t48 52.5t29 101.5t10 162q0 99 -10 163
t-29 101.5t-48 52.5t-66 15q-38 0 -66.5 -15t-47.5 -52.5t-29 -101.5t-10 -163q0 -98 10 -162t29 -101.5t47.5 -52.5t66.5 -15z" />
    <glyph glyph-name="p" unicode="p" horiz-adv-x="1669" 
d="M140 991h500l42 -130q28 27 67 54t86 48t101.5 34t113.5 13q113 0 212 -33t173 -98t116.5 -161t42.5 -223q0 -117 -40.5 -211.5t-116.5 -162t-184.5 -104t-243.5 -36.5q-103 0 -185.5 24.5t-140.5 68.5v-569h-543v1486zM683 205q25 -23 56 -36t62 -13q50 0 92.5 18.5
t74 57.5t49 99.5t17.5 145.5q0 86 -16.5 147t-45.5 99.5t-69 56.5t-88 18q-38 0 -72 -13.5t-60 -36.5v-543z" />
    <glyph glyph-name="q" unicode="q" horiz-adv-x="1670" 
d="M75 495q0 117 40.5 212t116.5 162.5t184.5 104t243.5 36.5q109 0 195.5 -28.5t145.5 -77.5l28 87h500l1 -1485h-543l-1 616q-28 -27 -67 -52.5t-86 -45t-101 -31.5t-113 -12q-113 0 -212 33t-173 97.5t-116.5 161t-42.5 222.5zM635 514q0 -86 16.5 -147t45.5 -99.5
t69 -56.5t88 -18q38 0 72 13.5t60 34.5v545q-25 23 -56.5 36t-61.5 13q-50 0 -92.5 -18.5t-74 -57.5t-49 -99.5t-17.5 -145.5z" />
    <glyph glyph-name="r" unicode="r" horiz-adv-x="1347" 
d="M140 991h479l48 -144q57 42 107.5 72.5t98 51t92 30t88.5 9.5q64 0 115.5 -18t88 -51t56 -78.5t19.5 -100.5t-23.5 -101t-68.5 -79.5t-110.5 -52t-149.5 -18.5l-176 235q-29 0 -63 -12t-58 -38v-696h-543v991z" />
    <glyph glyph-name="s" unicode="s" horiz-adv-x="1240" 
d="M179 256q41 -22 79 -40t76 -30.5t76.5 -19.5t80.5 -7q66 0 95 16t29 42q0 16 -9.5 27t-26.5 19.5t-40 16t-51 15.5l-57 17q-84 25 -145 58.5t-100 75.5t-58 90.5t-19 103.5q0 71 32 137.5t99 118.5t171.5 83t248.5 31q54 0 112.5 -6.5t113.5 -16.5t103 -22.5t81 -25.5
l-88 -161q-22 12 -51.5 21.5t-60.5 17t-59.5 11.5t-48.5 4q-58 0 -83 -16t-25 -39q0 -9 5 -19t20 -21t42 -23t71 -25l56 -17q93 -28 154.5 -63t99 -75.5t53 -85.5t15.5 -92q0 -72 -35 -140t-111.5 -120t-197.5 -83.5t-293 -31.5q-74 0 -136 6t-117 18t-105.5 29.5
t-99.5 39.5z" />
    <glyph glyph-name="t" unicode="t" horiz-adv-x="1021" 
d="M197 826h-112v165h112v330h543v-330h261l-102 -165h-159v-449q0 -102 45.5 -157t130.5 -55l-62 -137q-52 -22 -110.5 -34.5t-135.5 -12.5q-108 0 -186 27.5t-128 78.5t-73.5 125t-23.5 167v447z" />
    <glyph glyph-name="u" unicode="u" horiz-adv-x="1588" 
d="M130 992h543v-606q0 -40 7 -67t21.5 -43.5t35.5 -24t50 -7.5q36 0 63 11.5t55 40.5v696h543v-991h-479l-48 144q-91 -89 -197 -126.5t-216 -37.5q-181 0 -279.5 97.5t-98.5 300.5v613z" />
    <glyph glyph-name="v" unicode="v" horiz-adv-x="1276" 
d="M3 991h568l237 -644l229 644h224l-369 -991h-208v1h-282z" />
    <glyph glyph-name="w" unicode="w" horiz-adv-x="2071" 
d="M3 991h568l222 -646l145 404l-92 242h568l212 -617l210 617h220l-350 -991h-208v1h-273l-177 461l-172 -462h-208v1h-286z" />
    <glyph glyph-name="x" unicode="x" horiz-adv-x="1376" 
d="M416 458l-385 533h615l177 -242l196 242h294l-355 -427l414 -564h-624l-199 275l-227 -274h-292z" />
    <glyph glyph-name="y" unicode="y" horiz-adv-x="1333" 
d="M3 991h568l240 -614l240 614h267l-426 -1011q-41 -96 -88 -170t-108.5 -130.5t-140.5 -98.5t-182 -75l-70 164q80 28 139 63.5t100 74t66.5 77.5t39.5 74l16 42h-242z" />
    <glyph glyph-name="z" unicode="z" horiz-adv-x="1335" 
d="M592 827h-448v164h1121l-484 -827h445v-165h-1156z" />
    <glyph glyph-name="braceleft" unicode="{" horiz-adv-x="1146" 
d="M401 255q0 58 -19.5 112t-56 99.5t-88.5 80t-117 54.5q65 19 117 54t88.5 80.5t56 99.5t19.5 112v217q0 100 40.5 189t119.5 159.5t195.5 117.5t268.5 62l51 -124q-108 -44 -167.5 -140.5t-59.5 -236.5v-120q0 -84 -25.5 -155.5t-71 -130.5t-110 -105t-142.5 -79
q78 -33 142.5 -79t110 -105t71 -130.5t25.5 -155.5v-120q0 -140 59.5 -236.5t167.5 -141.5l-51 -123q-152 15 -268.5 62t-195.5 117t-119.5 159t-40.5 189v218z" />
    <glyph glyph-name="bar" unicode="|" horiz-adv-x="589" 
d="M200 1651h189v-2146h-189v2146z" />
    <glyph glyph-name="braceright" unicode="}" horiz-adv-x="1147" 
d="M297 131q0 84 25.5 155.5t71 130.5t110 105t142.5 79q-78 33 -142.5 79t-110 105t-71 130.5t-25.5 155.5v120q0 140 -59.5 236.5t-167.5 140.5l52 124q152 -15 268.5 -62t195 -117.5t119 -159.5t40.5 -189v-217q0 -58 19.5 -112t56 -99.5t89 -80.5t117.5 -54
q-65 -20 -117.5 -54.5t-89 -80t-56 -99.5t-19.5 -112v-218q0 -100 -40.5 -189t-119 -159t-195 -117t-268.5 -62l-52 123q108 45 167.5 141.5t59.5 236.5v120z" />
    <glyph glyph-name="asciitilde" unicode="~" horiz-adv-x="1366" 
d="M120 517q52 63 98.5 104.5t93 66t95.5 34.5t106 10t105 -20t91.5 -43.5t86.5 -43.5t91 -20q36 0 69 5t66 16t69 30t79 48l76 -95q-52 -63 -98.5 -104.5t-93 -66t-96 -34.5t-106.5 -10t-104.5 20t-91.5 44t-87 44t-91 20q-36 0 -68.5 -5t-66 -16.5t-69.5 -31t-79 -47.5z
" />
    <glyph glyph-name="exclamdown" unicode="&#xa1;" horiz-adv-x="975" 
d="M488 553q-82 0 -140 17.5t-95.5 48.5t-55 72.5t-17.5 88.5q0 48 17.5 89.5t55 72t95.5 48.5t140 18q81 0 139.5 -18t95.5 -48.5t54.5 -72t17.5 -89.5q0 -47 -17.5 -88.5t-54.5 -72.5t-95.5 -48.5t-139.5 -17.5zM759 329v-824h-541v824h541z" />
    <glyph glyph-name="cent" unicode="&#xa2;" horiz-adv-x="1335" 
d="M84 496q0 86 30.5 167t93.5 147.5t158 115t224 69.5v302h189v-287h3l1 -1v1q128 0 219 -24.5t148.5 -64.5t84.5 -91t27 -104q0 -41 -19 -78t-51 -65.5t-75 -45.5t-91 -17l-254 346q-56 -50 -91.5 -135.5t-35.5 -214.5q0 -89 21.5 -156t60 -111.5t90.5 -67t113 -22.5
q30 0 60.5 4.5t58 12t50.5 17.5t39 21l80 -140q-37 -19 -80.5 -36t-96 -29.5t-115.5 -20t-138 -7.5h-9v-311h-189v327q-129 21 -224 69.5t-158 115t-93.5 147t-30.5 167.5z" />
    <glyph glyph-name="sterling" unicode="&#xa3;" horiz-adv-x="1476" 
d="M180 127q68 52 116.5 105t79 112t45 126.5t14.5 150.5h-255v190h255v187q0 113 43.5 210t120 167.5t180.5 110.5t224 40q69 0 142 -14t148 -45l-26 -162q-29 8 -56 12t-52 4q-42 0 -76 -13.5t-58.5 -43t-37.5 -77t-13 -114.5v-263h279l-63 -189h-237q-30 -103 -98 -204
t-159 -188h650v-230l-1003 1h-163v127z" />
    <glyph glyph-name="currency" unicode="&#xa4;" horiz-adv-x="1686" 
d="M492 372q-45 57 -70.5 126.5t-25.5 147.5q0 75 23.5 142t65.5 122l-190 190l135 134l202 -201q45 23 95 35.5t104 12.5q58 0 111 -14.5t101 -40.5l213 208l135 -134l-206 -201q38 -54 60 -118t22 -135q0 -75 -23.5 -142t-65.5 -122l191 -191l-134 -134l-204 202
q-45 -23 -95.5 -35.5t-104.5 -12.5q-51 0 -98 11t-90 31l-201 -196l-134 134zM576 644q0 -53 20 -99.5t54.5 -81t81 -54.5t99.5 -20t99.5 20t81 54.5t54.5 81t20 99.5t-20 99t-54.5 80.5t-81 54.5t-99.5 20t-99.5 -20t-81 -54.5t-54.5 -80.5t-20 -99z" />
    <glyph glyph-name="yen" unicode="&#xa5;" horiz-adv-x="1746" 
d="M305 521h315l-48 103h-268l1 183h180l-320 679h633l366 -766l295 766h262l-283 -679h278l-66 -183h-288l-43 -103h303l-65 -183h-280v-338h-608v338h-365z" />
    <glyph glyph-name="brokenbar" unicode="&#xa6;" horiz-adv-x="589" 
d="M200 1650h189v-911h-189v911zM389 413v-910h-189v910h189z" />
    <glyph glyph-name="section" unicode="&#xa7;" horiz-adv-x="1589" 
d="M164 380q0 96 51.5 189.5t155.5 170.5q-103 54 -155 139t-52 191q0 87 36.5 166.5t113.5 140.5t197 97t287 36q80 0 159 -8t151 -21.5t133.5 -30t107.5 -33.5l-126 -190q-66 33 -141 53.5t-147 20.5q-87 0 -134 -30.5t-47 -80.5q0 -17 7.5 -33t28.5 -32.5t59.5 -34
t100.5 -36.5l147 -44q74 -23 134.5 -59.5t104 -84.5t67.5 -105.5t24 -123.5q0 -96 -51.5 -189.5t-155.5 -170.5q104 -54 155.5 -139t51.5 -191q0 -87 -36.5 -166.5t-114 -140.5t-197.5 -97t-287 -36q-80 0 -158.5 8t-150.5 21.5t-134 30t-107 33.5l126 190
q66 -33 140.5 -53.5t146.5 -20.5q88 0 134.5 30.5t46.5 80.5q0 17 -7.5 33t-28.5 32.5t-59.5 34t-100.5 36.5l-146 44q-77 24 -138 61t-104 85t-65.5 105t-22.5 122zM550 619q0 -33 20.5 -63t66 -59.5t118.5 -59.5t178 -62l94 -29q14 25 14 52q0 33 -20.5 63t-66 59.5
t-118.5 59.5t-179 62l-94 28q-13 -26 -13 -51z" />
    <glyph glyph-name="dieresis" unicode="&#xa8;" horiz-adv-x="1536" 
d="M883 1353q0 41 15 77t47.5 62.5t82.5 42t121 15.5q70 0 121 -15.5t83 -42t47.5 -62.5t15.5 -77t-15.5 -77t-47.5 -62.5t-83 -42t-121 -15.5q-71 0 -121 15.5t-82.5 42t-47.5 62.5t-15 77zM386 1156q-71 0 -121 15.5t-82.5 42t-47.5 62.5t-15 77t15 77t47.5 62.5t82.5 42
t121 15.5q70 0 121 -15.5t83 -42t47.5 -62.5t15.5 -77t-15.5 -77t-47.5 -62.5t-83 -42t-121 -15.5z" />
    <glyph glyph-name="copyright" unicode="&#xa9;" horiz-adv-x="1949" 
d="M180 743q0 106 28.5 204t80 183t123.5 155t160.5 120t190 77.5t211.5 27.5t212 -27.5t190 -77.5t160.5 -120t124 -155t80 -183t28.5 -204t-28.5 -204t-80 -183t-124 -155t-160.5 -119.5t-190 -77t-212 -27.5t-211.5 27.5t-190 77t-160.5 119.5t-123.5 155t-80 183
t-28.5 204zM465 743q0 -106 40 -199t109 -162t162 -108.5t198 -39.5q106 0 199 39.5t162 108.5t109 162t40 199t-40 198.5t-109 161.5t-162 108.5t-199 39.5q-105 0 -198 -39.5t-162 -108.5t-109 -161.5t-40 -198.5zM716 744q0 49 20 96t58 83.5t92.5 58.5t124.5 22
q33 0 63.5 -5t56.5 -12.5t47 -17.5t34 -20l-34 -73q-20 8 -42 13t-43 5q-31 0 -56.5 -11t-44 -30.5t-29 -47t-10.5 -60.5q0 -35 11.5 -63.5t31 -48t46.5 -30t58 -10.5q30 0 55.5 8t36.5 16l33 -78q-32 -20 -84.5 -38t-120.5 -18q-70 0 -126.5 21.5t-96 58t-60.5 83.5t-21 98
z" />
    <glyph glyph-name="ordfeminine" unicode="&#xaa;" horiz-adv-x="1239" 
d="M438 814q-72 0 -130.5 18.5t-100.5 51t-64.5 76.5t-22.5 96t23.5 97.5t67.5 79t106.5 53t140.5 19.5q68 0 136.5 -18.5t122.5 -50.5q-4 94 -50.5 133t-142.5 39q-45 0 -92.5 -7t-88.5 -22l-54 127q80 32 166.5 46.5t178.5 14.5q233 0 359 -88.5t126 -268.5v-383h-374
l-26 71q-45 -34 -118.5 -59t-162.5 -25zM616 1010q24 0 51.5 9t50.5 26v61q-23 13 -47.5 19.5t-47.5 6.5q-43 0 -66.5 -17.5t-23.5 -44.5q0 -26 19.5 -43t63.5 -17z" />
    <glyph glyph-name="guillemotleft" unicode="&#xab;" horiz-adv-x="1589" 
d="M1232 1010l177 -165l-253 -236l253 -236l-177 -165l-429 401zM140 609l429 401l177 -165l-253 -236l253 -236l-177 -165z" />
    <glyph glyph-name="logicalnot" unicode="&#xac;" horiz-adv-x="1240" 
d="M201 775h838l1 -435l-183 1v251h-657z" />
    <glyph glyph-name="registered" unicode="&#xae;" horiz-adv-x="1949" 
d="M180 743q0 106 28.5 204t80 183t123.5 155t160.5 120t190 77.5t211.5 27.5t212 -27.5t190 -77.5t160.5 -120t124 -155t80 -183t28.5 -204t-28.5 -204t-80 -183t-124 -155t-160.5 -119.5t-190 -77t-212 -27.5t-211.5 27.5t-190 77t-160.5 119.5t-123.5 155t-80 183
t-28.5 204zM465 743q0 -106 40 -199t109 -162t162 -108.5t198 -39.5q106 0 199 39.5t162 108.5t109 162t40 199t-40 198.5t-109 161.5t-162 108.5t-199 39.5q-105 0 -198 -39.5t-162 -108.5t-109 -161.5t-40 -198.5zM704 1025h165l174 1q121 1 181.5 -46t60.5 -124
q0 -45 -24.5 -83.5t-71.5 -62.5l124 -222h-260l-94 194h-26v-194h-229v537zM960 790q45 0 65 17.5t20 48.5q0 32 -19.5 47.5t-63.5 15.5h-29v-129h27z" />
    <glyph glyph-name="macron" unicode="&#xaf;" horiz-adv-x="1130" 
d="M120 1416h890v-189h-890v189z" />
    <glyph glyph-name="degree" unicode="&#xb0;" horiz-adv-x="1018" 
d="M509 830q-92 0 -164 25.5t-122 71t-76.5 107.5t-26.5 136q0 73 26.5 135.5t76.5 108t122 71t164 25.5t164 -25.5t122 -71t76.5 -108t26.5 -135.5q0 -74 -26.5 -136t-76.5 -107.5t-122 -71t-164 -25.5zM509 981q21 0 39.5 10t31.5 32t20.5 58t7.5 89q0 52 -7.5 88.5
t-20.5 58.5t-31.5 32t-39.5 10t-39 -9.5t-31.5 -31t-21 -58t-7.5 -90.5t7.5 -90.5t21 -58t31.5 -31t39 -9.5z" />
    <glyph glyph-name="plusminus" unicode="&#xb1;" horiz-adv-x="1280" 
d="M550 648h-349v178h349v330h180v-330h350v-178h-350v-342h-180v342zM200 176h879v-178h-879v178z" />
    <glyph glyph-name="twosuperior" unicode="&#xb2;" horiz-adv-x="1319" 
d="M231 647l260 267q55 57 93 104.5t61 87.5t33.5 73.5t10.5 60.5q0 33 -12.5 57.5t-33.5 41.5t-49 25.5t-59 8.5q-50 0 -104 -20.5t-98 -55.5l-123 165q36 30 84.5 58t108.5 49.5t131.5 35t154.5 13.5q105 0 186.5 -22t138 -61t86 -93.5t29.5 -119.5q0 -69 -28.5 -133
t-89 -129t-156 -132t-228.5 -142l-12 -9l277 55h225v-301h-884l1 1l-3 -1v116z" />
    <glyph glyph-name="threesuperior" unicode="&#xb3;" horiz-adv-x="1360" 
d="M298 774q14 -5 34.5 -12.5t47 -14.5t58 -12.5t66.5 -5.5q52 0 92 12.5t67.5 33.5t42 49t14.5 59q0 36 -19 65.5t-52.5 49t-79 27.5t-98.5 1v101l229 196l-120 -18h-291v289h809v-123l-332 -292q96 -3 169.5 -29.5t123.5 -69.5t75.5 -99t25.5 -119q0 -79 -38.5 -143.5
t-106.5 -110t-160 -70.5t-200 -25q-61 0 -123.5 8t-122 23.5t-113 37t-96.5 48.5z" />
    <glyph glyph-name="acute" unicode="&#xb4;" horiz-adv-x="953" 
d="M120 1286q172 63 307.5 138.5t251.5 161.5l154 -187q-58 -39 -135.5 -76t-164 -67t-176.5 -52t-172 -32z" />
    <glyph glyph-name="mu" unicode="&#xb5;" horiz-adv-x="1716" 
d="M200 992h544v-606q0 -40 7 -67t21.5 -43.5t35.5 -24t49 -7.5q36 0 63 11.5t55 40.5v696h541v-991h-477l-48 144q-63 -61 -132 -96.5t-142 -52.5v-491h-517v1487z" />
    <glyph glyph-name="mu" unicode="&#x3bc;" horiz-adv-x="1716" 
d="M200 992h544v-606q0 -40 7 -67t21.5 -43.5t35.5 -24t49 -7.5q36 0 63 11.5t55 40.5v696h541v-991h-477l-48 144q-63 -61 -132 -96.5t-142 -52.5v-491h-517v1487z" />
    <glyph glyph-name="paragraph" unicode="&#xb6;" horiz-adv-x="1681" 
d="M836 476q-184 0 -316 42t-216.5 112t-124.5 162t-40 192q0 113 45 205.5t138 158.5t234 101.5t333 35.5l689 -1v-166h-174v-1672h-190v1672h-111v-1672h-189v830h-78v0z" />
    <glyph glyph-name="periodcentered" unicode="&#xb7;" horiz-adv-x="971" 
d="M484 558q-82 0 -140 18t-95.5 48.5t-55 72t-17.5 89.5q0 47 17.5 88.5t55 72t95.5 48.5t140 18q81 0 139.5 -18t95.5 -48.5t54.5 -72t17.5 -88.5q0 -48 -17.5 -89.5t-54.5 -72t-95.5 -48.5t-139.5 -18z" />
    <glyph glyph-name="cedilla" unicode="&#xb8;" horiz-adv-x="842" 
d="M469 72l-49 -193h23q84 0 143 -10.5t96 -31t53.5 -50.5t16.5 -69q0 -46 -29.5 -88t-87 -74t-143.5 -51t-200 -19q-25 0 -44.5 0.5t-36 1.5t-32 2.5t-31.5 4.5l26 113q16 -2 28.5 -3.5t23.5 -2.5t21.5 -1h23.5q90 0 134.5 30t44.5 71q0 32 -30.5 52.5t-104.5 20.5h-102
l79 297h177z" />
    <glyph glyph-name="onesuperior" unicode="&#xb9;" horiz-adv-x="1046" 
d="M446 1250h-246v149q54 7 101 25t87 43.5t71.5 58t52.5 68.5h334v-1063h-400v719z" />
    <glyph glyph-name="ordmasculine" unicode="&#xba;" horiz-adv-x="1285" 
d="M642 814q-123 0 -220 26.5t-164 75.5t-102.5 119t-35.5 156t35.5 156t102.5 119t164 75.5t220 26.5t220 -26.5t164.5 -75.5t103 -119t35.5 -156t-35.5 -156t-103 -119t-164.5 -75.5t-220 -26.5zM642 957q27 0 48 10.5t35.5 37.5t21.5 72t7 114t-7 114.5t-21.5 72
t-35.5 37t-48 10.5q-28 0 -49 -10.5t-35 -37t-21 -72t-7 -114.5t7 -114t21 -72t35 -37.5t49 -10.5z" />
    <glyph glyph-name="guillemotright" unicode="&#xbb;" horiz-adv-x="1586" 
d="M998 609l-253 236l177 165l429 -401l-429 -401l-177 165zM82 373l253 236l-253 236l177 165l429 -401l-429 -401z" />
    <glyph glyph-name="onequarter" unicode="&#xbc;" horiz-adv-x="2814" 
d="M1793 1770l168 -100l-1051 -1847l-168 99zM446 1250h-246v149q54 7 101 25t87 43.5t71.5 58t52.5 68.5h334v-1063h-400v719zM1535 357l511 705h417v-655h151v-205h-151v-202h-400v202h-528v155zM2063 407v364l-249 -364h249z" />
    <glyph glyph-name="onehalf" unicode="&#xbd;" horiz-adv-x="2870" 
d="M1793 1770l168 -100l-1051 -1847l-168 99zM446 1250h-246v149q54 7 101 25t87 43.5t71.5 58t52.5 68.5h334v-1063h-400v719zM1772 117l260 267q55 57 93 104.5t61 87.5t33.5 73.5t10.5 60.5q0 33 -12.5 57.5t-33.5 41.5t-49 25.5t-59 8.5q-50 0 -104 -20.5t-98 -55.5
l-123 165q36 30 84.5 58t108.5 49.5t131.5 35t154.5 13.5q105 0 186.5 -22t138 -61t86 -93.5t29.5 -119.5q0 -69 -28.5 -133t-89 -129t-156 -132t-228.5 -142l-12 -9l277 55h225v-301h-884l1 1l-3 -1v116z" />
    <glyph glyph-name="threequarters" unicode="&#xbe;" horiz-adv-x="3016" 
d="M1995 1770l168 -100l-1051 -1847l-168 99zM298 777q14 -5 34.5 -12.5t47 -14.5t58 -12.5t66.5 -5.5q52 0 92 12.5t67.5 33.5t42 49t14.5 59q0 36 -19 65.5t-52.5 49t-79 27.5t-98.5 1v101l229 196l-120 -18h-291v289h809v-123l-332 -292q96 -3 169.5 -29.5t123.5 -69.5
t75.5 -99t25.5 -119q0 -79 -38.5 -143.5t-106.5 -110t-160 -70.5t-200 -25q-61 0 -123.5 8t-122 23.5t-113 37t-96.5 48.5zM1737 357l511 705h417v-655h151v-205h-151v-202h-400v202h-528v155zM2265 407v364l-249 -364h249z" />
    <glyph glyph-name="questiondown" unicode="&#xbf;" horiz-adv-x="1499" 
d="M548 804q0 44 16.5 82.5t51 67t88.5 45t129 16.5q76 0 130 -16.5t88.5 -45t51 -67t16.5 -82.5t-16.5 -82t-51 -66.5t-88.5 -45t-130 -16.5q-75 0 -129 16.5t-88.5 45t-51 66.5t-16.5 82zM156 -175q0 154 154 261t462 174l-52 154h263l136 -409q-190 -21 -283 -75.5
t-93 -124.5q0 -28 10 -51.5t32.5 -41t58 -27t86.5 -9.5q75 0 154 23t164 65l53 -160q-109 -53 -245.5 -85.5t-286.5 -32.5q-167 0 -283.5 28.5t-189.5 75.5t-106.5 108t-33.5 127z" />
    <glyph glyph-name="Agrave" unicode="&#xc0;" 
d="M506 1920q53 -38 122.5 -74t144.5 -67t150.5 -55.5t141.5 -39.5l-65 -113q-178 11 -343.5 51.5t-304.5 109.5zM601 1111l-172 375h609l728 -1487h-653l-110 238h-586l-109 -238h-253zM898 466l-188 408l-187 -408h375z" />
    <glyph glyph-name="Aacute" unicode="&#xc1;" 
d="M352 1684q66 15 141.5 39.5t150.5 55.5t144.5 67t122.5 74l154 -188q-139 -69 -304.5 -109.5t-343.5 -51.5zM601 1111l-172 375h609l728 -1487h-653l-110 238h-586l-109 -238h-253zM898 466l-188 408l-187 -408h375z" />
    <glyph glyph-name="Acircumflex" unicode="&#xc2;" 
d="M242 1685q143 48 256 108t210 127q97 -67 209.5 -127t257.5 -108l-66 -114q-96 10 -201.5 35.5t-199.5 58.5q-94 -33 -199.5 -58.5t-201.5 -35.5zM601 1111l-172 375h609l728 -1487h-653l-110 238h-586l-109 -238h-253zM898 466l-188 408l-187 -408h375z" />
    <glyph glyph-name="Atilde" unicode="&#xc3;" 
d="M239 1716q39 55 78 91.5t78 58t79.5 30t84.5 8.5q57 0 101.5 -11.5t84.5 -25t80 -24.5t88 -11q24 0 46 3.5t44.5 12t46.5 22.5t53 34l75 -96q-39 -55 -78 -91t-78.5 -57.5t-80 -30t-83.5 -8.5q-57 0 -101.5 11t-84.5 24.5t-80 25t-88 11.5q-24 0 -46 -3.5t-44.5 -12
t-46.5 -22.5t-53 -34zM601 1111l-172 375h609l728 -1487h-653l-110 238h-586l-109 -238h-253zM898 466l-188 408l-187 -408h375z" />
    <glyph glyph-name="Adieresis" unicode="&#xc4;" 
d="M1105 1585q-71 0 -120 13t-80.5 36t-45.5 53t-14 65q0 34 14 64.5t45.5 53.5t80.5 36t120 13q70 0 121 -13t83 -36t47.5 -53.5t15.5 -64.5q0 -35 -15.5 -65t-47.5 -53t-83 -36t-121 -13zM306 1585q-71 0 -121 13t-82.5 36t-47.5 53t-15 65q0 34 15 64.5t47.5 53.5
t82.5 36t121 13q70 0 121 -13t83 -36t47.5 -53.5t15.5 -64.5q0 -35 -15.5 -65t-47.5 -53t-83 -36t-121 -13zM601 1111l-172 375h609l728 -1487h-653l-110 238h-586l-109 -238h-253zM898 466l-188 408l-187 -408h375z" />
    <glyph glyph-name="Aring" unicode="&#xc5;" 
d="M601 1111l-153 332q-80 36 -116 89.5t-36 109.5q0 46 24.5 90.5t77 80t135.5 57.5t199 22t199 -22t135.5 -57.5t77 -80t24.5 -90.5q0 -50 -28.5 -97.5t-89.5 -83.5l716 -1462h-653l-110 238h-586l-109 -238h-253zM732 1513q43 0 76 11t55 29t33.5 41t11.5 48t-11.5 48
t-33.5 41t-55 29t-76 11t-76 -11t-55 -29t-33.5 -41t-11.5 -48t11.5 -48t33.5 -41t55 -29t76 -11zM898 466l-188 408l-187 -408h375z" />
    <glyph glyph-name="AE" unicode="&#xc6;" horiz-adv-x="2399" 
d="M905 1242l-101 244h1488v-229h-677l-1 -401h518v-229h-518v-398l678 1v-230h-1256v237h-557l-167 -237l-309 -1zM1036 466v560l-396 -560h396z" />
    <glyph glyph-name="Ccedilla" unicode="&#xc7;" horiz-adv-x="1531" 
d="M103 742q0 106 27.5 204.5t80.5 183.5t130 155t175.5 120t217.5 77.5t256 27.5q88 0 168.5 -11t151.5 -30.5t131.5 -45t109.5 -53.5l-86 -168q-56 27 -127.5 45.5t-148.5 18.5q-103 0 -191 -37t-152 -105t-100.5 -164.5t-36.5 -216.5q0 -119 36 -215.5t99.5 -165
t151 -106t189.5 -37.5q72 0 144 17.5t132 46.5l86 -168q-49 -29 -109 -54t-130 -44.5t-150 -30.5t-168 -11h-19t-18 1l-24 -97h23q84 0 143 -10.5t96 -31t53.5 -50.5t16.5 -69q0 -46 -29.5 -88t-87 -74t-143.5 -51t-200 -19q-25 0 -44.5 0.5t-36 1.5t-32 2.5t-31.5 4.5
l26 113q16 -2 28.5 -3.5t23.5 -2.5t21.5 -1h23.5q90 0 134.5 30t44.5 71q0 32 -30.5 52.5t-104.5 20.5h-102l58 219q-159 28 -284.5 97.5t-212.5 168.5t-133.5 222t-46.5 260z" />
    <glyph glyph-name="Egrave" unicode="&#xc8;" horiz-adv-x="1553" 
d="M616 1920q53 -38 122.5 -74t144.5 -67t150.5 -55.5t141.5 -39.5l-65 -113q-178 11 -343.5 51.5t-304.5 109.5zM190 1486h1256v-229h-677l-1 -401h518v-229h-518v-398h678v-229h-1256v1486z" />
    <glyph glyph-name="Eacute" unicode="&#xc9;" horiz-adv-x="1553" 
d="M462 1684q66 15 141.5 39.5t150.5 55.5t144.5 67t122.5 74l154 -188q-139 -69 -304.5 -109.5t-343.5 -51.5zM190 1486h1256v-229h-677l-1 -401h518v-229h-518v-398h678v-229h-1256v1486z" />
    <glyph glyph-name="Ecircumflex" unicode="&#xca;" horiz-adv-x="1553" 
d="M352 1685q143 48 256 108t210 127q97 -67 209.5 -127t257.5 -108l-66 -114q-96 10 -201.5 35.5t-199.5 58.5q-94 -33 -199.5 -58.5t-201.5 -35.5zM190 1486h1256v-229h-677l-1 -401h518v-229h-518v-398h678v-229h-1256v1486z" />
    <glyph glyph-name="Edieresis" unicode="&#xcb;" horiz-adv-x="1553" 
d="M955 1752q0 34 14 64.5t45.5 53.5t80.5 36t120 13q70 0 121 -13t83 -36t47.5 -53.5t15.5 -64.5q0 -35 -15.5 -65t-47.5 -53t-83 -36t-121 -13q-71 0 -120 13t-80.5 36t-45.5 53t-14 65zM416 1585q-71 0 -121 13t-82.5 36t-47.5 53t-15 65q0 34 15 64.5t47.5 53.5t82.5 36
t121 13q70 0 121 -13t83 -36t47.5 -53.5t15.5 -64.5q0 -35 -15.5 -65t-47.5 -53t-83 -36t-121 -13zM190 1486h1256v-229h-677l-1 -401h518v-229h-518v-398h678v-229h-1256v1486z" />
    <glyph glyph-name="Igrave" unicode="&#xcc;" horiz-adv-x="959" 
d="M290 1920q53 -38 122.5 -74t144.5 -67t150.5 -55.5t141.5 -39.5l-65 -113q-178 11 -343.5 51.5t-304.5 109.5zM190 1486h579l-1 -1486h-578v1486z" />
    <glyph glyph-name="Iacute" unicode="&#xcd;" horiz-adv-x="959" 
d="M136 1684q66 15 141.5 39.5t150.5 55.5t144.5 67t122.5 74l154 -188q-139 -69 -304.5 -109.5t-343.5 -51.5zM190 1486h579l-1 -1486h-578v1486z" />
    <glyph glyph-name="Icircumflex" unicode="&#xce;" horiz-adv-x="959" 
d="M26 1685q143 48 256 108t210 127q97 -67 209.5 -127t257.5 -108l-66 -114q-96 10 -201.5 35.5t-199.5 58.5q-94 -33 -199.5 -58.5t-201.5 -35.5zM190 1486h579l-1 -1486h-578v1486z" />
    <glyph glyph-name="Idieresis" unicode="&#xcf;" horiz-adv-x="959" 
d="M889 1585q-71 0 -120 13t-80.5 36t-45.5 53t-14 65q0 34 14 64.5t45.5 53.5t80.5 36t120 13q70 0 121 -13t83 -36t47.5 -53.5t15.5 -64.5q0 -35 -15.5 -65t-47.5 -53t-83 -36t-121 -13zM90 1585q-71 0 -121 13t-82.5 36t-47.5 53t-15 65q0 34 15 64.5t47.5 53.5t82.5 36
t121 13q70 0 121 -13t83 -36t47.5 -53.5t15.5 -64.5q0 -35 -15.5 -65t-47.5 -53t-83 -36t-121 -13zM190 1486h579l-1 -1486h-578v1486z" />
    <glyph glyph-name="Eth" unicode="&#xd0;" horiz-adv-x="2010" 
d="M292 660h-171v182h171v644h611q258 0 447 -48.5t313 -142.5t184 -231t60 -314q0 -158 -60 -294.5t-184 -238t-313 -159.5t-447 -58h-611v660zM870 218q100 0 180 31t135.5 96t85 165.5t29.5 240.5q0 139 -30 237t-86 160.5t-135.5 91t-177.5 28.5l-1 -426h222v-182h-222
v-442z" />
    <glyph glyph-name="Ntilde" unicode="&#xd1;" horiz-adv-x="1906" 
d="M531 1716q39 55 78 91.5t78 58t79.5 30t84.5 8.5q57 0 101.5 -11.5t84.5 -25t80 -24.5t88 -11q24 0 46 3.5t44.5 12t46.5 22.5t53 34l75 -96q-39 -55 -78 -91t-78.5 -57.5t-80 -30t-83.5 -8.5q-57 0 -101.5 11t-84.5 24.5t-80 25t-88 11.5q-24 0 -46 -3.5t-44.5 -12
t-46.5 -22.5t-53 -34zM190 1486h362l943 -792l1 792h220v-1486h-362l-944 789v-789h-220v1486z" />
    <glyph glyph-name="Ograve" unicode="&#xd2;" horiz-adv-x="1914" 
d="M755 1920q53 -38 122.5 -74t144.5 -67t150.5 -55.5t141.5 -39.5l-65 -113q-178 11 -343.5 51.5t-304.5 109.5zM103 746q0 169 54 309.5t161 241.5t267 157t372 56t372 -56t267 -157t161 -241.5t54 -309.5q0 -171 -54 -313t-161 -243t-267 -157t-372 -56t-372 56t-267 157
t-161 243t-54 313zM957 184q60 0 106 21t77 82t47 171t16 288q0 176 -16 285t-47 169t-77 81t-106 21t-106.5 -21t-77.5 -81t-47 -169t-16 -285q0 -178 16 -288t47 -171t77.5 -82t106.5 -21z" />
    <glyph glyph-name="Oacute" unicode="&#xd3;" horiz-adv-x="1914" 
d="M601 1684q66 15 141.5 39.5t150.5 55.5t144.5 67t122.5 74l154 -188q-139 -69 -304.5 -109.5t-343.5 -51.5zM103 746q0 169 54 309.5t161 241.5t267 157t372 56t372 -56t267 -157t161 -241.5t54 -309.5q0 -171 -54 -313t-161 -243t-267 -157t-372 -56t-372 56t-267 157
t-161 243t-54 313zM957 184q60 0 106 21t77 82t47 171t16 288q0 176 -16 285t-47 169t-77 81t-106 21t-106.5 -21t-77.5 -81t-47 -169t-16 -285q0 -178 16 -288t47 -171t77.5 -82t106.5 -21z" />
    <glyph glyph-name="Ocircumflex" unicode="&#xd4;" horiz-adv-x="1914" 
d="M491 1685q143 48 256 108t210 127q97 -67 209.5 -127t257.5 -108l-66 -114q-96 10 -201.5 35.5t-199.5 58.5q-94 -33 -199.5 -58.5t-201.5 -35.5zM103 746q0 169 54 309.5t161 241.5t267 157t372 56t372 -56t267 -157t161 -241.5t54 -309.5q0 -171 -54 -313t-161 -243
t-267 -157t-372 -56t-372 56t-267 157t-161 243t-54 313zM957 184q60 0 106 21t77 82t47 171t16 288q0 176 -16 285t-47 169t-77 81t-106 21t-106.5 -21t-77.5 -81t-47 -169t-16 -285q0 -178 16 -288t47 -171t77.5 -82t106.5 -21z" />
    <glyph glyph-name="Otilde" unicode="&#xd5;" horiz-adv-x="1914" 
d="M488 1716q39 55 78 91.5t78 58t79.5 30t84.5 8.5q57 0 101.5 -11.5t84.5 -25t80 -24.5t88 -11q24 0 46 3.5t44.5 12t46.5 22.5t53 34l75 -96q-39 -55 -78 -91t-78.5 -57.5t-80 -30t-83.5 -8.5q-57 0 -101.5 11t-84.5 24.5t-80 25t-88 11.5q-24 0 -46 -3.5t-44.5 -12
t-46.5 -22.5t-53 -34zM103 746q0 169 54 309.5t161 241.5t267 157t372 56t372 -56t267 -157t161 -241.5t54 -309.5q0 -171 -54 -313t-161 -243t-267 -157t-372 -56t-372 56t-267 157t-161 243t-54 313zM957 184q60 0 106 21t77 82t47 171t16 288q0 176 -16 285t-47 169
t-77 81t-106 21t-106.5 -21t-77.5 -81t-47 -169t-16 -285q0 -178 16 -288t47 -171t77.5 -82t106.5 -21z" />
    <glyph glyph-name="Odieresis" unicode="&#xd6;" horiz-adv-x="1914" 
d="M1094 1752q0 34 14 64.5t45.5 53.5t80.5 36t120 13q70 0 121 -13t83 -36t47.5 -53.5t15.5 -64.5q0 -35 -15.5 -65t-47.5 -53t-83 -36t-121 -13q-71 0 -120 13t-80.5 36t-45.5 53t-14 65zM555 1585q-71 0 -121 13t-82.5 36t-47.5 53t-15 65q0 34 15 64.5t47.5 53.5
t82.5 36t121 13q70 0 121 -13t83 -36t47.5 -53.5t15.5 -64.5q0 -35 -15.5 -65t-47.5 -53t-83 -36t-121 -13zM103 746q0 169 54 309.5t161 241.5t267 157t372 56t372 -56t267 -157t161 -241.5t54 -309.5q0 -171 -54 -313t-161 -243t-267 -157t-372 -56t-372 56t-267 157
t-161 243t-54 313zM957 184q60 0 106 21t77 82t47 171t16 288q0 176 -16 285t-47 169t-77 81t-106 21t-106.5 -21t-77.5 -81t-47 -169t-16 -285q0 -178 16 -288t47 -171t77.5 -82t106.5 -21z" />
    <glyph glyph-name="multiply" unicode="&#xd7;" horiz-adv-x="1163" 
d="M444 517l-243 244l135 135l243 -244l250 249l134 -134l-250 -250l243 -244l-134 -134l-244 244l-243 -243l-135 134z" />
    <glyph glyph-name="Oslash" unicode="&#xd8;" horiz-adv-x="2003" 
d="M477 102q-166 100 -248.5 265t-82.5 379q0 169 54 309.5t161 241.5t267 157t372 56q107 0 200.5 -14.5t174.5 -42.5l138 207l111 -74l-125 -188q88 -49 154.5 -116t111 -150t67 -180t22.5 -206q0 -171 -54 -313t-161 -243t-267 -157t-372 -56q-230 0 -402 67l-139 -209
l-111 74zM1193 1179q-16 36 -36 60t-44 38t-52.5 19.5t-60.5 5.5q-60 0 -106.5 -21t-77.5 -81t-47 -169t-16 -285q0 -63 1.5 -117t6.5 -100zM795 340q15 -47 35.5 -77t46 -47.5t56.5 -24.5t67 -7q60 0 106 21t77 82t47 171t16 288q0 150 -12 254z" />
    <glyph glyph-name="Ugrave" unicode="&#xd9;" horiz-adv-x="1665" 
d="M759 1920q53 -38 122.5 -74t144.5 -67t150.5 -55.5t141.5 -39.5l-65 -113q-178 11 -343.5 51.5t-304.5 109.5zM184 1486h578v-944q0 -80 21.5 -138.5t60 -97t90.5 -57.5t112 -19q66 0 118.5 19t89.5 58t57 98t20 139v942h220v-908q0 -138 -44.5 -249t-126.5 -189.5
t-198 -120.5t-259 -42q-195 0 -335 41.5t-230 119t-132 187.5t-42 248v913z" />
    <glyph glyph-name="Uacute" unicode="&#xda;" horiz-adv-x="1665" 
d="M605 1684q66 15 141.5 39.5t150.5 55.5t144.5 67t122.5 74l154 -188q-139 -69 -304.5 -109.5t-343.5 -51.5zM184 1486h578v-944q0 -80 21.5 -138.5t60 -97t90.5 -57.5t112 -19q66 0 118.5 19t89.5 58t57 98t20 139v942h220v-908q0 -138 -44.5 -249t-126.5 -189.5
t-198 -120.5t-259 -42q-195 0 -335 41.5t-230 119t-132 187.5t-42 248v913z" />
    <glyph glyph-name="Ucircumflex" unicode="&#xdb;" horiz-adv-x="1665" 
d="M495 1685q143 48 256 108t210 127q97 -67 209.5 -127t257.5 -108l-66 -114q-96 10 -201.5 35.5t-199.5 58.5q-94 -33 -199.5 -58.5t-201.5 -35.5zM184 1486h578v-944q0 -80 21.5 -138.5t60 -97t90.5 -57.5t112 -19q66 0 118.5 19t89.5 58t57 98t20 139v942h220v-908
q0 -138 -44.5 -249t-126.5 -189.5t-198 -120.5t-259 -42q-195 0 -335 41.5t-230 119t-132 187.5t-42 248v913z" />
    <glyph glyph-name="Udieresis" unicode="&#xdc;" horiz-adv-x="1665" 
d="M1098 1752q0 34 14 64.5t45.5 53.5t80.5 36t120 13q70 0 121 -13t83 -36t47.5 -53.5t15.5 -64.5q0 -35 -15.5 -65t-47.5 -53t-83 -36t-121 -13q-71 0 -120 13t-80.5 36t-45.5 53t-14 65zM559 1585q-71 0 -121 13t-82.5 36t-47.5 53t-15 65q0 34 15 64.5t47.5 53.5
t82.5 36t121 13q70 0 121 -13t83 -36t47.5 -53.5t15.5 -64.5q0 -35 -15.5 -65t-47.5 -53t-83 -36t-121 -13zM184 1486h578v-944q0 -80 21.5 -138.5t60 -97t90.5 -57.5t112 -19q66 0 118.5 19t89.5 58t57 98t20 139v942h220v-908q0 -138 -44.5 -249t-126.5 -189.5
t-198 -120.5t-259 -42q-195 0 -335 41.5t-230 119t-132 187.5t-42 248v913z" />
    <glyph glyph-name="Yacute" unicode="&#xdd;" horiz-adv-x="1607" 
d="M549 1684q66 15 141.5 39.5t150.5 55.5t144.5 67t122.5 74l154 -188q-139 -69 -304.5 -109.5t-343.5 -51.5zM517 419l-504 1067h633l366 -766l295 766h262l-444 -1067v-419h-608v419z" />
    <glyph glyph-name="Thorn" unicode="&#xde;" horiz-adv-x="1714" 
d="M190 1486h578v-220h137q198 1 341.5 -34.5t236.5 -101.5t137.5 -158.5t44.5 -205.5q0 -99 -41.5 -189.5t-128 -159.5t-220 -110t-317.5 -41h-190v-266h-578v1486zM768 484q69 1 123 21.5t91 57t56.5 88t19.5 115.5q0 63 -20 114t-57.5 87.5t-91 57.5t-121.5 23v-564z" />
    <glyph glyph-name="germandbls" unicode="&#xdf;" horiz-adv-x="1853" 
d="M178 826h-110v165h110v104q0 145 43.5 252.5t123 178t190.5 105.5t245 35q168 0 300 -28.5t222.5 -78.5t138.5 -117.5t48 -145.5q0 -58 -22.5 -105t-50 -88.5t-50 -80.5t-22.5 -81q0 -56 29 -93.5t88 -74.5l71 -49q76 -53 124.5 -99.5t76.5 -91t39 -88.5t11 -91
q0 -73 -33 -140.5t-101.5 -119t-174.5 -82.5t-252 -31q-63 0 -119 4t-107.5 12.5t-99.5 22t-95 33.5l104 179q72 -36 129.5 -54t110.5 -18q62 0 85.5 20t23.5 51q0 16 -7.5 30.5t-25 31t-45 36.5t-67.5 47l-94 63q-54 37 -94 73t-65.5 74t-38 81t-12.5 95q0 64 19 112.5
t48 88.5t62.5 75t62.5 73t48 81t19 100q0 52 -23 95.5t-67.5 75.5t-108 50t-144.5 18v-1531h-543v826z" />
    <glyph glyph-name="agrave" unicode="&#xe0;" horiz-adv-x="1557" 
d="M574 1586q115 -86 251 -161.5t308 -138.5l-65 -114q-82 10 -172 32t-176.5 52t-164 67t-135.5 76zM75 312q0 72 32 134t92 108t145 72.5t190 26.5t196.5 -24.5t153.5 -62.5v8q0 70 -15.5 119t-47.5 80t-81.5 45t-116.5 14q-61 0 -126 -10.5t-120 -30.5l-73 135
q109 45 225.5 64.5t240.5 19.5q159 0 281.5 -30.5t206 -91t126.5 -152t43 -214.5v-522h-507l-34 96q-30 -23 -71 -44t-90 -37t-104 -25t-115 -9q-98 0 -177.5 25.5t-135.5 69.5t-87 104.5t-31 131.5zM635 333q0 -54 35 -87.5t94 -33.5q32 0 63 10.5t57 31.5v169
q-50 30 -110 30q-68 0 -103.5 -33.5t-35.5 -86.5z" />
    <glyph glyph-name="aacute" unicode="&#xe1;" horiz-adv-x="1557" 
d="M420 1286q172 63 307.5 138.5t251.5 161.5l154 -187q-58 -39 -135.5 -76t-164 -67t-176.5 -52t-172 -32zM75 312q0 72 32 134t92 108t145 72.5t190 26.5t196.5 -24.5t153.5 -62.5v8q0 70 -15.5 119t-47.5 80t-81.5 45t-116.5 14q-61 0 -126 -10.5t-120 -30.5l-73 135
q109 45 225.5 64.5t240.5 19.5q159 0 281.5 -30.5t206 -91t126.5 -152t43 -214.5v-522h-507l-34 96q-30 -23 -71 -44t-90 -37t-104 -25t-115 -9q-98 0 -177.5 25.5t-135.5 69.5t-87 104.5t-31 131.5zM635 333q0 -54 35 -87.5t94 -33.5q32 0 63 10.5t57 31.5v169
q-50 30 -110 30q-68 0 -103.5 -33.5t-35.5 -86.5z" />
    <glyph glyph-name="acircumflex" unicode="&#xe2;" horiz-adv-x="1557" 
d="M310 1286q144 63 256.5 138t209.5 162q97 -87 209.5 -162t257.5 -138l-66 -114q-96 13 -201.5 47.5t-199.5 82.5q-94 -48 -199.5 -82.5t-201.5 -47.5zM75 312q0 72 32 134t92 108t145 72.5t190 26.5t196.5 -24.5t153.5 -62.5v8q0 70 -15.5 119t-47.5 80t-81.5 45
t-116.5 14q-61 0 -126 -10.5t-120 -30.5l-73 135q109 45 225.5 64.5t240.5 19.5q159 0 281.5 -30.5t206 -91t126.5 -152t43 -214.5v-522h-507l-34 96q-30 -23 -71 -44t-90 -37t-104 -25t-115 -9q-98 0 -177.5 25.5t-135.5 69.5t-87 104.5t-31 131.5zM635 333q0 -54 35 -87.5
t94 -33.5q32 0 63 10.5t57 31.5v169q-50 30 -110 30q-68 0 -103.5 -33.5t-35.5 -86.5z" />
    <glyph glyph-name="atilde" unicode="&#xe3;" horiz-adv-x="1557" 
d="M307 1263q39 55 74.5 91t71 57.5t73 30t81.5 8.5q57 0 104.5 -11.5t91.5 -25t87 -24.5t91 -11q24 0 46 3.5t44.5 12t46.5 22.5t53 34l75 -95q-39 -55 -75 -91t-71.5 -57.5t-73 -30t-80.5 -8.5q-57 0 -105 11t-91.5 24.5t-86.5 24.5t-91 11q-24 0 -46 -3.5t-44.5 -12
t-46.5 -22t-53 -33.5zM75 312q0 72 32 134t92 108t145 72.5t190 26.5t196.5 -24.5t153.5 -62.5v8q0 70 -15.5 119t-47.5 80t-81.5 45t-116.5 14q-61 0 -126 -10.5t-120 -30.5l-73 135q109 45 225.5 64.5t240.5 19.5q159 0 281.5 -30.5t206 -91t126.5 -152t43 -214.5v-522
h-507l-34 96q-30 -23 -71 -44t-90 -37t-104 -25t-115 -9q-98 0 -177.5 25.5t-135.5 69.5t-87 104.5t-31 131.5zM635 333q0 -54 35 -87.5t94 -33.5q32 0 63 10.5t57 31.5v169q-50 30 -110 30q-68 0 -103.5 -33.5t-35.5 -86.5z" />
    <glyph glyph-name="adieresis" unicode="&#xe4;" horiz-adv-x="1557" 
d="M891 1353q0 41 15 77t47.5 62.5t82.5 42t121 15.5q70 0 121 -15.5t83 -42t47.5 -62.5t15.5 -77t-15.5 -77t-47.5 -62.5t-83 -42t-121 -15.5q-71 0 -121 15.5t-82.5 42t-47.5 62.5t-15 77zM394 1156q-71 0 -121 15.5t-82.5 42t-47.5 62.5t-15 77t15 77t47.5 62.5t82.5 42
t121 15.5q70 0 121 -15.5t83 -42t47.5 -62.5t15.5 -77t-15.5 -77t-47.5 -62.5t-83 -42t-121 -15.5zM75 312q0 72 32 134t92 108t145 72.5t190 26.5t196.5 -24.5t153.5 -62.5v8q0 70 -15.5 119t-47.5 80t-81.5 45t-116.5 14q-61 0 -126 -10.5t-120 -30.5l-73 135
q109 45 225.5 64.5t240.5 19.5q159 0 281.5 -30.5t206 -91t126.5 -152t43 -214.5v-522h-507l-34 96q-30 -23 -71 -44t-90 -37t-104 -25t-115 -9q-98 0 -177.5 25.5t-135.5 69.5t-87 104.5t-31 131.5zM635 333q0 -54 35 -87.5t94 -33.5q32 0 63 10.5t57 31.5v169
q-50 30 -110 30q-68 0 -103.5 -33.5t-35.5 -86.5z" />
    <glyph glyph-name="aring" unicode="&#xe5;" horiz-adv-x="1557" 
d="M774 1182q-81 0 -140 15t-96.5 40t-55.5 58t-18 70t18 70t55.5 58t96.5 40t140 15t140 -15t96.5 -40t55.5 -58t18 -70t-18 -70t-55.5 -58t-96.5 -40t-140 -15zM774 1282q63 0 95 25.5t32 57.5t-32 57.5t-95 25.5t-95 -25.5t-32 -57.5t32 -57.5t95 -25.5zM75 312
q0 72 32 134t92 108t145 72.5t190 26.5t196.5 -24.5t153.5 -62.5v8q0 70 -15.5 119t-47.5 80t-81.5 45t-116.5 14q-61 0 -126 -10.5t-120 -30.5l-73 135q109 45 225.5 64.5t240.5 19.5q159 0 281.5 -30.5t206 -91t126.5 -152t43 -214.5v-522h-507l-34 96q-30 -23 -71 -44
t-90 -37t-104 -25t-115 -9q-98 0 -177.5 25.5t-135.5 69.5t-87 104.5t-31 131.5zM635 333q0 -54 35 -87.5t94 -33.5q32 0 63 10.5t57 31.5v169q-50 30 -110 30q-68 0 -103.5 -33.5t-35.5 -86.5z" />
    <glyph glyph-name="ae" unicode="&#xe6;" horiz-adv-x="2259" 
d="M75 311q0 72 32 134.5t92 108.5t145 72.5t190 26.5t196.5 -24.5t153.5 -62.5q0 73 -15.5 124t-47.5 82.5t-81.5 45.5t-116.5 14q-61 0 -126 -10.5t-120 -30.5l-73 135q109 45 225.5 64.5t240.5 19.5q120 0 225 -22.5t190 -67.5q92 45 192 67.5t191 22.5
q112 0 203.5 -22.5t163 -61.5t124 -91t86.5 -110.5t50.5 -120.5t16.5 -121l-754 -91q23 -112 86 -172.5t184 -60.5q66 0 122.5 16t88.5 39l80 -140q-37 -19 -80.5 -36t-96 -29.5t-116 -20t-139.5 -7.5q-177 0 -309.5 45t-221.5 120q-42 -29 -100.5 -58.5t-129 -53
t-149 -38.5t-160.5 -15q-104 0 -186 25.5t-139 69.5t-87 104.5t-30 130.5zM1727 585q0 130 -32.5 189t-95.5 59q-33 0 -60.5 -16t-48 -50t-32 -87.5t-12.5 -128.5zM635 333q0 -54 35 -87.5t94 -33.5q32 0 63.5 10.5t57.5 32.5l-1 168q-50 30 -110 30q-68 0 -103.5 -33.5
t-35.5 -86.5z" />
    <glyph glyph-name="ccedilla" unicode="&#xe7;" horiz-adv-x="1302" 
d="M74 496q0 101 42.5 194t128.5 164t217.5 113.5t309.5 42.5q128 0 219 -24.5t149 -64.5t85 -91t27 -104q0 -41 -19 -78t-51 -65.5t-75 -45.5t-91 -17l-254 347q-28 -25 -51.5 -59t-41 -77.5t-27 -97t-9.5 -117.5q0 -89 22 -156t60 -111.5t90.5 -67t114.5 -22.5
q30 0 60.5 4.5t58 12t50.5 17.5t39 21l80 -140q-37 -19 -80.5 -36t-96 -29.5t-115.5 -20t-138 -7.5q-6 0 -12 0.5t-12 0.5l-26 -103h23q84 0 143 -10.5t96 -31t53.5 -50.5t16.5 -69q0 -46 -29.5 -88t-87 -74t-143.5 -51t-200 -19q-25 0 -44.5 0.5t-36 1.5t-32 2.5t-31.5 4.5
l26 113q16 -2 28.5 -3.5t23.5 -2.5t21.5 -1h23.5q90 0 134.5 30t44.5 71q0 32 -30.5 52.5t-104.5 20.5h-102l59 222q-129 21 -224 69.5t-158 115t-93.5 147t-30.5 167.5z" />
    <glyph glyph-name="egrave" unicode="&#xe8;" horiz-adv-x="1449" 
d="M535 1586q115 -86 251 -161.5t308 -138.5l-65 -114q-82 10 -172 32t-176.5 52t-164 67t-135.5 76zM75 501q0 86 27 157t74.5 127.5t112.5 98.5t141 70t159 42t168 14q112 0 203.5 -22.5t163 -61.5t124 -91t87 -110.5t51 -120.5t16.5 -121l-756 -91q22 -111 88 -172
t185 -61q65 0 121.5 16t88.5 39l80 -140q-37 -19 -80.5 -36t-96 -29.5t-116 -20t-139.5 -7.5q-182 0 -314 42.5t-218.5 114t-128 165.5t-41.5 198zM917 585q0 130 -32.5 189t-96.5 59q-33 0 -61 -16t-48 -50t-32 -87.5t-13 -129.5z" />
    <glyph glyph-name="eacute" unicode="&#xe9;" horiz-adv-x="1449" 
d="M381 1286q172 63 307.5 138.5t251.5 161.5l154 -187q-58 -39 -135.5 -76t-164 -67t-176.5 -52t-172 -32zM75 501q0 86 27 157t74.5 127.5t112.5 98.5t141 70t159 42t168 14q112 0 203.5 -22.5t163 -61.5t124 -91t87 -110.5t51 -120.5t16.5 -121l-756 -91q22 -111 88 -172
t185 -61q65 0 121.5 16t88.5 39l80 -140q-37 -19 -80.5 -36t-96 -29.5t-116 -20t-139.5 -7.5q-182 0 -314 42.5t-218.5 114t-128 165.5t-41.5 198zM917 585q0 130 -32.5 189t-96.5 59q-33 0 -61 -16t-48 -50t-32 -87.5t-13 -129.5z" />
    <glyph glyph-name="ecircumflex" unicode="&#xea;" horiz-adv-x="1449" 
d="M271 1286q144 63 256.5 138t209.5 162q97 -87 209.5 -162t257.5 -138l-66 -114q-96 13 -201.5 47.5t-199.5 82.5q-94 -48 -199.5 -82.5t-201.5 -47.5zM75 501q0 86 27 157t74.5 127.5t112.5 98.5t141 70t159 42t168 14q112 0 203.5 -22.5t163 -61.5t124 -91t87 -110.5
t51 -120.5t16.5 -121l-756 -91q22 -111 88 -172t185 -61q65 0 121.5 16t88.5 39l80 -140q-37 -19 -80.5 -36t-96 -29.5t-116 -20t-139.5 -7.5q-182 0 -314 42.5t-218.5 114t-128 165.5t-41.5 198zM917 585q0 130 -32.5 189t-96.5 59q-33 0 -61 -16t-48 -50t-32 -87.5
t-13 -129.5z" />
    <glyph glyph-name="edieresis" unicode="&#xeb;" horiz-adv-x="1449" 
d="M852 1353q0 41 15 77t47.5 62.5t82.5 42t121 15.5q70 0 121 -15.5t83 -42t47.5 -62.5t15.5 -77t-15.5 -77t-47.5 -62.5t-83 -42t-121 -15.5q-71 0 -121 15.5t-82.5 42t-47.5 62.5t-15 77zM355 1156q-71 0 -121 15.5t-82.5 42t-47.5 62.5t-15 77t15 77t47.5 62.5t82.5 42
t121 15.5q70 0 121 -15.5t83 -42t47.5 -62.5t15.5 -77t-15.5 -77t-47.5 -62.5t-83 -42t-121 -15.5zM75 501q0 86 27 157t74.5 127.5t112.5 98.5t141 70t159 42t168 14q112 0 203.5 -22.5t163 -61.5t124 -91t87 -110.5t51 -120.5t16.5 -121l-756 -91q22 -111 88 -172t185 -61
q65 0 121.5 16t88.5 39l80 -140q-37 -19 -80.5 -36t-96 -29.5t-116 -20t-139.5 -7.5q-182 0 -314 42.5t-218.5 114t-128 165.5t-41.5 198zM917 585q0 130 -32.5 189t-96.5 59q-33 0 -61 -16t-48 -50t-32 -87.5t-13 -129.5z" />
    <glyph glyph-name="igrave" unicode="&#xec;" horiz-adv-x="823" 
d="M702 1172q-82 10 -172 32t-176.5 52t-164 67t-135.5 76l154 187q115 -86 251 -161.5t308 -138.5zM140 991h543v-991h-543v991z" />
    <glyph glyph-name="iacute" unicode="&#xed;" horiz-adv-x="823" 
d="M54 1286q172 63 307.5 138.5t251.5 161.5l154 -187q-58 -39 -135.5 -76t-164 -67t-176.5 -52t-172 -32zM140 991h543v-991h-543v991z" />
    <glyph glyph-name="icircumflex" unicode="&#xee;" horiz-adv-x="863" 
d="M-36 1286q144 63 256.5 138t209.5 162q97 -87 209.5 -162t257.5 -138l-66 -114q-96 13 -201.5 47.5t-199.5 82.5q-94 -48 -199.5 -82.5t-201.5 -47.5zM160 991h543v-991h-543v991z" />
    <glyph glyph-name="idieresis" unicode="&#xef;" horiz-adv-x="1116" 
d="M939 1156q-71 0 -121 15.5t-82.5 42t-47.5 62.5t-15 77t15 77t47.5 62.5t82.5 42t121 15.5q70 0 121 -15.5t83 -42t47.5 -62.5t15.5 -77t-15.5 -77t-47.5 -62.5t-83 -42t-121 -15.5zM176 1156q-71 0 -121 15.5t-82.5 42t-47.5 62.5t-15 77t15 77t47.5 62.5t82.5 42
t121 15.5q70 0 121 -15.5t83 -42t47.5 -62.5t15.5 -77t-15.5 -77t-47.5 -62.5t-83 -42t-121 -15.5zM288 991h543v-991h-543v991z" />
    <glyph glyph-name="eth" unicode="&#xf0;" horiz-adv-x="1673" 
d="M139 465q0 83 34.5 161.5t100.5 139t162 97.5t219 37q99 0 181 -17.5t151 -50.5q-48 192 -151 369l-334 -150l-80 181l302 136q-72 94 -159 186l120 97q55 -44 115.5 -91.5t123.5 -100.5l359 162l81 -183l-276 -124q91 -86 174.5 -180.5t147 -195.5t101 -208.5
t37.5 -219.5q0 -119 -44 -216.5t-131.5 -167t-218 -107.5t-304.5 -38q-175 0 -308 38.5t-222.5 104.5t-135 154t-45.5 187zM671 435q0 -66 15.5 -116.5t41 -84.5t57.5 -51.5t65 -17.5q38 0 70.5 17t56.5 56t38 102t14 155t-12 184q-59 44 -139 44q-45 0 -82.5 -15t-65.5 -49
t-43.5 -89t-15.5 -135z" />
    <glyph glyph-name="ntilde" unicode="&#xf1;" horiz-adv-x="1569" 
d="M302 1263q39 55 74.5 91t71 57.5t73 30t81.5 8.5q57 0 104.5 -11.5t91.5 -25t87 -24.5t91 -11q24 0 46 3.5t44.5 12t46.5 22.5t53 34l75 -95q-39 -55 -75 -91t-71.5 -57.5t-73 -30t-80.5 -8.5q-57 0 -105 11t-91.5 24.5t-86.5 24.5t-91 11q-24 0 -46 -3.5t-44.5 -12
t-46.5 -22t-53 -33.5zM140 991h479l48 -144q106 81 215.5 122t230.5 41q69 0 128.5 -23t103.5 -71t69 -123.5t25 -180.5v-612h-543v646q0 52 -23 76t-67 24q-29 0 -64 -12t-59 -38v-696h-543v991z" />
    <glyph glyph-name="ograve" unicode="&#xf2;" horiz-adv-x="1574" 
d="M585 1586q115 -86 251 -161.5t308 -138.5l-65 -114q-82 10 -172 32t-176.5 52t-164 67t-135.5 76zM75 495q0 118 48.5 213t140 162t223.5 103.5t300 36.5t300 -36.5t223.5 -103.5t140 -162t48.5 -213q0 -117 -48.5 -212t-140 -162t-223.5 -103.5t-300 -36.5t-300 36.5
t-223.5 103.5t-140 162t-48.5 212zM787 164q37 0 66 15t48 52.5t29 101.5t10 162q0 99 -10 163t-29 101.5t-48 52.5t-66 15q-38 0 -66.5 -15t-47.5 -52.5t-29 -101.5t-10 -163q0 -98 10 -162t29 -101.5t47.5 -52.5t66.5 -15z" />
    <glyph glyph-name="oacute" unicode="&#xf3;" horiz-adv-x="1574" 
d="M431 1286q172 63 307.5 138.5t251.5 161.5l154 -187q-58 -39 -135.5 -76t-164 -67t-176.5 -52t-172 -32zM75 495q0 118 48.5 213t140 162t223.5 103.5t300 36.5t300 -36.5t223.5 -103.5t140 -162t48.5 -213q0 -117 -48.5 -212t-140 -162t-223.5 -103.5t-300 -36.5
t-300 36.5t-223.5 103.5t-140 162t-48.5 212zM787 164q37 0 66 15t48 52.5t29 101.5t10 162q0 99 -10 163t-29 101.5t-48 52.5t-66 15q-38 0 -66.5 -15t-47.5 -52.5t-29 -101.5t-10 -163q0 -98 10 -162t29 -101.5t47.5 -52.5t66.5 -15z" />
    <glyph glyph-name="ocircumflex" unicode="&#xf4;" horiz-adv-x="1574" 
d="M321 1286q144 63 256.5 138t209.5 162q97 -87 209.5 -162t257.5 -138l-66 -114q-96 13 -201.5 47.5t-199.5 82.5q-94 -48 -199.5 -82.5t-201.5 -47.5zM75 495q0 118 48.5 213t140 162t223.5 103.5t300 36.5t300 -36.5t223.5 -103.5t140 -162t48.5 -213q0 -117 -48.5 -212
t-140 -162t-223.5 -103.5t-300 -36.5t-300 36.5t-223.5 103.5t-140 162t-48.5 212zM787 164q37 0 66 15t48 52.5t29 101.5t10 162q0 99 -10 163t-29 101.5t-48 52.5t-66 15q-38 0 -66.5 -15t-47.5 -52.5t-29 -101.5t-10 -163q0 -98 10 -162t29 -101.5t47.5 -52.5t66.5 -15z
" />
    <glyph glyph-name="otilde" unicode="&#xf5;" horiz-adv-x="1574" 
d="M318 1263q39 55 74.5 91t71 57.5t73 30t81.5 8.5q57 0 104.5 -11.5t91.5 -25t87 -24.5t91 -11q24 0 46 3.5t44.5 12t46.5 22.5t53 34l75 -95q-39 -55 -75 -91t-71.5 -57.5t-73 -30t-80.5 -8.5q-57 0 -105 11t-91.5 24.5t-86.5 24.5t-91 11q-24 0 -46 -3.5t-44.5 -12
t-46.5 -22t-53 -33.5zM75 495q0 118 48.5 213t140 162t223.5 103.5t300 36.5t300 -36.5t223.5 -103.5t140 -162t48.5 -213q0 -117 -48.5 -212t-140 -162t-223.5 -103.5t-300 -36.5t-300 36.5t-223.5 103.5t-140 162t-48.5 212zM787 164q37 0 66 15t48 52.5t29 101.5t10 162
q0 99 -10 163t-29 101.5t-48 52.5t-66 15q-38 0 -66.5 -15t-47.5 -52.5t-29 -101.5t-10 -163q0 -98 10 -162t29 -101.5t47.5 -52.5t66.5 -15z" />
    <glyph glyph-name="odieresis" unicode="&#xf6;" horiz-adv-x="1574" 
d="M902 1353q0 41 15 77t47.5 62.5t82.5 42t121 15.5q70 0 121 -15.5t83 -42t47.5 -62.5t15.5 -77t-15.5 -77t-47.5 -62.5t-83 -42t-121 -15.5q-71 0 -121 15.5t-82.5 42t-47.5 62.5t-15 77zM405 1156q-71 0 -121 15.5t-82.5 42t-47.5 62.5t-15 77t15 77t47.5 62.5t82.5 42
t121 15.5q70 0 121 -15.5t83 -42t47.5 -62.5t15.5 -77t-15.5 -77t-47.5 -62.5t-83 -42t-121 -15.5zM75 495q0 118 48.5 213t140 162t223.5 103.5t300 36.5t300 -36.5t223.5 -103.5t140 -162t48.5 -213q0 -117 -48.5 -212t-140 -162t-223.5 -103.5t-300 -36.5t-300 36.5
t-223.5 103.5t-140 162t-48.5 212zM787 164q37 0 66 15t48 52.5t29 101.5t10 162q0 99 -10 163t-29 101.5t-48 52.5t-66 15q-38 0 -66.5 -15t-47.5 -52.5t-29 -101.5t-10 -163q0 -98 10 -162t29 -101.5t47.5 -52.5t66.5 -15z" />
    <glyph glyph-name="divide" unicode="&#xf7;" horiz-adv-x="1278" 
d="M640 729q-50 0 -86 11t-59 30t-33.5 44.5t-10.5 54.5q0 28 10.5 53.5t33.5 44t59 29.5t86 11q49 0 84.5 -11t58.5 -29.5t33.5 -44t10.5 -53.5q0 -29 -10.5 -54.5t-33.5 -44.5t-58.5 -30t-84.5 -11zM200 595l878 -1v-189l-878 1v189zM451 122q0 29 10.5 54t33.5 44
t59 29.5t86 10.5q49 0 84.5 -10.5t58.5 -29.5t33.5 -44t10.5 -54t-10.5 -54.5t-33.5 -44.5t-58.5 -30t-84.5 -11q-50 0 -86 11t-59 30t-33.5 44.5t-10.5 54.5z" />
    <glyph glyph-name="oslash" unicode="&#xf8;" horiz-adv-x="1591" 
d="M452 31q-177 59 -271.5 178t-94.5 286q0 118 48.5 213t140 162t223.5 103.5t300 36.5q54 0 104.5 -4t97.5 -12l140 245l101 -56l-123 -216q189 -56 290.5 -177.5t101.5 -294.5q0 -117 -48.5 -212t-140 -162t-223.5 -103.5t-300 -36.5q-63 0 -120 5t-110 15l-152 -266
l-101 56zM887 795q-18 17 -40.5 24.5t-48.5 7.5q-38 0 -66.5 -15t-47.5 -52.5t-29 -101.5t-10 -163q0 -33 1 -62t3 -55zM691 218q20 -30 46 -42t61 -12q37 0 66 15t48 52.5t29 101.5t10 162q0 49 -2.5 89t-7.5 72z" />
    <glyph glyph-name="ugrave" unicode="&#xf9;" horiz-adv-x="1588" 
d="M586 1586q115 -86 251 -161.5t308 -138.5l-65 -114q-82 10 -172 32t-176.5 52t-164 67t-135.5 76zM130 992h543v-606q0 -40 7 -67t21.5 -43.5t35.5 -24t50 -7.5q36 0 63 11.5t55 40.5v696h543v-991h-479l-48 144q-91 -89 -197 -126.5t-216 -37.5q-181 0 -279.5 97.5
t-98.5 300.5v613z" />
    <glyph glyph-name="uacute" unicode="&#xfa;" horiz-adv-x="1588" 
d="M432 1286q172 63 307.5 138.5t251.5 161.5l154 -187q-58 -39 -135.5 -76t-164 -67t-176.5 -52t-172 -32zM130 992h543v-606q0 -40 7 -67t21.5 -43.5t35.5 -24t50 -7.5q36 0 63 11.5t55 40.5v696h543v-991h-479l-48 144q-91 -89 -197 -126.5t-216 -37.5
q-181 0 -279.5 97.5t-98.5 300.5v613z" />
    <glyph glyph-name="ucircumflex" unicode="&#xfb;" horiz-adv-x="1588" 
d="M322 1286q144 63 256.5 138t209.5 162q97 -87 209.5 -162t257.5 -138l-66 -114q-96 13 -201.5 47.5t-199.5 82.5q-94 -48 -199.5 -82.5t-201.5 -47.5zM130 992h543v-606q0 -40 7 -67t21.5 -43.5t35.5 -24t50 -7.5q36 0 63 11.5t55 40.5v696h543v-991h-479l-48 144
q-91 -89 -197 -126.5t-216 -37.5q-181 0 -279.5 97.5t-98.5 300.5v613z" />
    <glyph glyph-name="udieresis" unicode="&#xfc;" horiz-adv-x="1588" 
d="M903 1353q0 41 15 77t47.5 62.5t82.5 42t121 15.5q70 0 121 -15.5t83 -42t47.5 -62.5t15.5 -77t-15.5 -77t-47.5 -62.5t-83 -42t-121 -15.5q-71 0 -121 15.5t-82.5 42t-47.5 62.5t-15 77zM406 1156q-71 0 -121 15.5t-82.5 42t-47.5 62.5t-15 77t15 77t47.5 62.5t82.5 42
t121 15.5q70 0 121 -15.5t83 -42t47.5 -62.5t15.5 -77t-15.5 -77t-47.5 -62.5t-83 -42t-121 -15.5zM130 992h543v-606q0 -40 7 -67t21.5 -43.5t35.5 -24t50 -7.5q36 0 63 11.5t55 40.5v696h543v-991h-479l-48 144q-91 -89 -197 -126.5t-216 -37.5q-181 0 -279.5 97.5
t-98.5 300.5v613z" />
    <glyph glyph-name="yacute" unicode="&#xfd;" horiz-adv-x="1333" 
d="M419 1286q172 63 307.5 138.5t251.5 161.5l154 -187q-58 -39 -135.5 -76t-164 -67t-176.5 -52t-172 -32zM3 991h568l240 -614l240 614h267l-426 -1011q-41 -96 -88 -170t-108.5 -130.5t-140.5 -98.5t-182 -75l-70 164q80 28 139 63.5t100 74t66.5 77.5t39.5 74l16 42
h-242z" />
    <glyph glyph-name="thorn" unicode="&#xfe;" horiz-adv-x="1667" 
d="M140 1651h543v-780q28 27 66.5 52t85.5 44.5t100.5 31t112.5 11.5q113 0 212 -33t173 -98t116.5 -161t42.5 -223q0 -117 -40.5 -211.5t-116.5 -162t-184.5 -104t-243.5 -36.5q-102 0 -184 24t-140 63v-563h-543v2146zM683 200q24 -20 55 -32t61 -12q50 0 92.5 18.5
t74 57.5t49 99.5t17.5 145.5q0 86 -16.5 147t-45.5 99.5t-69 56.5t-88 18q-37 0 -70.5 -13t-59.5 -34v-551z" />
    <glyph glyph-name="ydieresis" unicode="&#xff;" horiz-adv-x="1333" 
d="M890 1353q0 41 15 77t47.5 62.5t82.5 42t121 15.5q70 0 121 -15.5t83 -42t47.5 -62.5t15.5 -77t-15.5 -77t-47.5 -62.5t-83 -42t-121 -15.5q-71 0 -121 15.5t-82.5 42t-47.5 62.5t-15 77zM393 1156q-71 0 -121 15.5t-82.5 42t-47.5 62.5t-15 77t15 77t47.5 62.5t82.5 42
t121 15.5q70 0 121 -15.5t83 -42t47.5 -62.5t15.5 -77t-15.5 -77t-47.5 -62.5t-83 -42t-121 -15.5zM3 991h568l240 -614l240 614h267l-426 -1011q-41 -96 -88 -170t-108.5 -130.5t-140.5 -98.5t-182 -75l-70 164q80 28 139 63.5t100 74t66.5 77.5t39.5 74l16 42h-242z" />
    <glyph glyph-name="hbar" unicode="&#x127;" horiz-adv-x="1622" 
d="M147 1227h-104v189h104v235h543v-235h243v-189h-243v-395q112 81 229.5 129.5t246.5 48.5q69 0 128.5 -23t103.5 -71t69 -123.5t25 -180.5v-612h-543v646q0 52 -22.5 76t-73.5 24q-23 0 -45.5 -7t-43.5 -18t-40 -25t-34 -28v-668h-543v1227z" />
    <glyph glyph-name="Itilde" unicode="&#x128;" horiz-adv-x="959" 
d="M23 1716q39 55 78 91.5t78 58t79.5 30t84.5 8.5q57 0 101.5 -11.5t84.5 -25t80 -24.5t88 -11q24 0 46 3.5t44.5 12t46.5 22.5t53 34l75 -96q-39 -55 -78 -91t-78.5 -57.5t-80 -30t-83.5 -8.5q-57 0 -101.5 11t-84.5 24.5t-80 25t-88 11.5q-24 0 -46 -3.5t-44.5 -12
t-46.5 -22.5t-53 -34zM190 1486h579l-1 -1486h-578v1486z" />
    <glyph glyph-name="itilde" unicode="&#x129;" horiz-adv-x="919" 
d="M-10 1263q39 55 74.5 91t71 57.5t73 30t81.5 8.5q57 0 104.5 -11.5t91.5 -25t87 -24.5t91 -11q24 0 46 3.5t44.5 12t46.5 22.5t53 34l75 -95q-39 -55 -75 -91t-71.5 -57.5t-73 -30t-80.5 -8.5q-57 0 -105 11t-91.5 24.5t-86.5 24.5t-91 11q-24 0 -46 -3.5t-44.5 -12
t-46.5 -22t-53 -33.5zM189 991h543v-991h-543v991z" />
    <glyph glyph-name="dotlessi" unicode="&#x131;" horiz-adv-x="823" 
d="M140 991h543v-991h-543v991z" />
    <glyph glyph-name="IJ" unicode="&#x132;" horiz-adv-x="1976" 
d="M1055 -369q40 30 68.5 64t47 78.5t27.5 102t9 134.5v1476h578v-1256q1 -141 -42.5 -263.5t-128.5 -217t-208 -157t-279 -82.5zM190 1486h579l-1 -1486h-578v1486z" />
    <glyph glyph-name="ij" unicode="&#x133;" horiz-adv-x="1657" 
d="M973 1364q0 43 16 81t50.5 66.5t88 44.5t127.5 16q75 0 128 -16t87.5 -44.5t50.5 -66.5t16 -81q0 -44 -16 -81.5t-50.5 -66t-87.5 -44.5t-128 -16q-74 0 -127.5 16t-88 44.5t-50.5 66t-16 81.5zM411 1156q-74 0 -127.5 16t-87.5 44.5t-50 66t-16 81.5q0 43 16 81t50 66.5
t87.5 44.5t127.5 16q75 0 128 -16t87.5 -44.5t50.5 -66.5t16 -81q0 -44 -16 -81.5t-50.5 -66t-87.5 -44.5t-128 -16zM875 -401q31 33 52 65.5t33.5 69t18 80.5t5.5 100v1077h543v-826q0 -138 -40 -250.5t-117 -196.5t-191 -138t-261 -75zM140 991h543v-991h-543v991z" />
    <glyph glyph-name="Jcircumflex" unicode="&#x134;" horiz-adv-x="1004" 
d="M57 1685q143 48 256 108t210 127q97 -67 209.5 -127t257.5 -108l-66 -114q-96 10 -201.5 35.5t-199.5 58.5q-94 -33 -199.5 -58.5t-201.5 -35.5zM235 1486h578v-1256q1 -141 -42.5 -263.5t-128.5 -217t-208 -157t-279 -82.5l-72 121q40 30 68.5 64t47 78.5t27.5 102
t9 134.5v1476z" />
    <glyph glyph-name="jcircumflex" unicode="&#x135;" horiz-adv-x="828" 
d="M-59 1286q144 63 256.5 138t209.5 162q97 -87 209.5 -162t257.5 -138l-66 -114q-96 13 -201.5 47.5t-199.5 82.5q-94 -48 -199.5 -82.5t-201.5 -47.5zM151 991h547v-826q0 -138 -40 -250.5t-117.5 -196.5t-192 -138t-263.5 -75l-43 94q31 33 52 65.5t33.5 69t18 80.5
t5.5 100v1077z" />
    <glyph glyph-name="kcommaaccent" unicode="&#x137;" horiz-adv-x="1562" 
d="M140 1651h543v-1077l403 417h300l-318 -323l491 -668l-608 1l-268 384v-385h-543v1651zM673 -204q0 24 12 47.5t34.5 42t55.5 29.5t75 11q40 0 72.5 -11.5t56 -32t36 -50t12.5 -65.5q0 -63 -39.5 -138t-114.5 -143l-89 69q53 56 66 111q-88 0 -132.5 37.5t-44.5 92.5z
" />
    <glyph glyph-name="kgreenlandic" unicode="&#x138;" horiz-adv-x="1556" 
d="M137 991h543v-417l403 417h300l-318 -323l491 -668l-608 1l-268 384v-385h-543v991z" />
    <glyph glyph-name="ldot" unicode="&#x140;" horiz-adv-x="1406" 
d="M140 1651h543v-1651h-543v1651zM832 803q0 43 16 81t50.5 66.5t87.5 44.5t128 16t128 -16t87.5 -44.5t50.5 -66.5t16 -81t-16 -81t-50.5 -66t-87.5 -44.5t-128 -16.5t-128 16.5t-87.5 44.5t-50.5 66t-16 81z" />
    <glyph glyph-name="Lslash" unicode="&#x141;" horiz-adv-x="1450" 
d="M305 554l-178 -64l-61 172l239 85v739h579l-1 -531l243 87l62 -172l-305 -109v-532h568v-229h-1146v554z" />
    <glyph glyph-name="lslash" unicode="&#x142;" horiz-adv-x="1021" 
d="M232 587l-161 -58l-61 173l222 80v869h543v-674l173 63l63 -171l-236 -86v-783h-543v587z" />
    <glyph glyph-name="Nacute" unicode="&#x143;" horiz-adv-x="1906" 
d="M644 1684q66 15 141.5 39.5t150.5 55.5t144.5 67t122.5 74l154 -188q-139 -69 -304.5 -109.5t-343.5 -51.5zM190 1486h362l943 -792l1 792h220v-1486h-362l-944 789v-789h-220v1486z" />
    <glyph glyph-name="nacute" unicode="&#x144;" horiz-adv-x="1569" 
d="M415 1286q172 63 307.5 138.5t251.5 161.5l154 -187q-58 -39 -135.5 -76t-164 -67t-176.5 -52t-172 -32zM140 991h479l48 -144q106 81 215.5 122t230.5 41q69 0 128.5 -23t103.5 -71t69 -123.5t25 -180.5v-612h-543v646q0 52 -23 76t-67 24q-29 0 -64 -12t-59 -38v-696
h-543v991z" />
    <glyph glyph-name="OE" unicode="&#x152;" horiz-adv-x="2570" 
d="M103 746q0 169 54 309.5t161 241.5t267 157t372 56q69 0 132 -6.5t121 -17.5h1253v-229h-677l-1 -401h518v-229h-518v-398h678v-230h-762v1h-494q-58 -11 -120 -17t-130 -6q-212 0 -372 56t-267 157t-161 243t-54 313zM957 184q60 0 106 21t77 82t47 171t16 288
q0 176 -16 285t-47 169t-77 81t-106 21t-106.5 -21t-77.5 -81t-47 -169t-16 -285q0 -178 16 -288t47 -171t77.5 -82t106.5 -21z" />
    <glyph glyph-name="oe" unicode="&#x153;" horiz-adv-x="2317" 
d="M75 495q0 118 48.5 213t140 162t223.5 103.5t300 36.5q123 0 231 -26t196 -73q94 50 200.5 74.5t210.5 24.5q112 0 203.5 -22.5t163 -61.5t124 -91t87 -110.5t51 -120.5t16.5 -121l-755 -91q22 -112 87 -172.5t184 -60.5q65 0 121.5 16t88.5 39l81 -140
q-37 -19 -80.5 -36t-96 -29.5t-116 -20t-139.5 -7.5q-124 0 -229.5 29.5t-190.5 80.5q-92 -52 -203.5 -81t-234.5 -29q-168 0 -300 36.5t-223.5 103.5t-140 162t-48.5 212zM1785 585q0 130 -32.5 189t-96.5 59q-33 0 -60.5 -16t-48 -50t-32 -87.5t-12.5 -129.5zM787 164
q37 0 66 15t48 52.5t29 101.5t10 162q0 99 -10 163t-29 101.5t-48 52.5t-66 15q-38 0 -66.5 -15t-47.5 -52.5t-29 -101.5t-10 -163q0 -98 10 -162t29 -101.5t47.5 -52.5t66.5 -15z" />
    <glyph glyph-name="Racute" unicode="&#x154;" horiz-adv-x="1865" 
d="M516 1684q66 15 141.5 39.5t150.5 55.5t144.5 67t122.5 74l154 -188q-139 -69 -304.5 -109.5t-343.5 -51.5zM190 1486h857q166 0 290.5 -35t208 -98t125.5 -151t42 -194q0 -131 -62 -232.5t-184 -161.5l312 -615h-653l-236 540h-122v-539h-578v1486zM803 720q71 0 127 20
t95 56.5t60 87t21 110.5t-21 110.5t-60 87t-95 56.5t-127 20h-34l-1 -548h35z" />
    <glyph glyph-name="Rcommaaccent" unicode="&#x156;" horiz-adv-x="1865" 
d="M190 1486h857q166 0 290.5 -35t208 -98t125.5 -151t42 -194q0 -131 -62 -232.5t-184 -161.5l312 -615h-653l-236 540h-122v-539h-578v1486zM803 720q71 0 127 20t95 56.5t60 87t21 110.5t-21 110.5t-60 87t-95 56.5t-127 20h-34l-1 -548h35zM762 -204q0 24 12 47.5
t34.5 42t55.5 29.5t75 11q40 0 72.5 -11.5t56 -32t36 -50t12.5 -65.5q0 -63 -39.5 -138t-114.5 -143l-89 69q53 56 66 111q-88 0 -132.5 37.5t-44.5 92.5z" />
    <glyph glyph-name="rcommaaccent" unicode="&#x157;" horiz-adv-x="1347" 
d="M140 991h479l48 -144q57 42 107.5 72.5t98 51t92 30t88.5 9.5q64 0 115.5 -18t88 -51t56 -78.5t19.5 -100.5t-23.5 -101t-68.5 -79.5t-110.5 -52t-149.5 -18.5l-176 235q-29 0 -63 -12t-58 -38v-696h-543v991zM248 -204q0 24 12 47.5t34.5 42t55.5 29.5t75 11
q40 0 72.5 -11.5t56 -32t36 -50t12.5 -65.5q0 -63 -39.5 -138t-114.5 -143l-89 69q53 56 66 111q-88 0 -132.5 37.5t-44.5 92.5z" />
    <glyph glyph-name="Rcaron" unicode="&#x158;" horiz-adv-x="1865" 
d="M872 1571q-97 67 -210 127t-256 108l65 114q48 -5 99 -16t102.5 -27t102 -34.5t97.5 -38.5q46 20 97 38.5t102.5 34.5t102.5 27t99 16l66 -114q-145 -48 -257.5 -107.5t-209.5 -127.5zM190 1486h857q166 0 290.5 -35t208 -98t125.5 -151t42 -194q0 -131 -62 -232.5
t-184 -161.5l312 -615h-653l-236 540h-122v-539h-578v1486zM803 720q71 0 127 20t95 56.5t60 87t21 110.5t-21 110.5t-60 87t-95 56.5t-127 20h-34l-1 -548h35z" />
    <glyph glyph-name="rcaron" unicode="&#x159;" horiz-adv-x="1347" 
d="M712 1112q-97 87 -209.5 162t-257.5 138l66 114q48 -7 99 -19.5t102.5 -29.5t102 -37.5t97.5 -44.5q94 48 199.5 82.5t201.5 48.5l65 -114q-144 -63 -256.5 -138t-209.5 -162zM140 991h479l48 -144q57 42 107.5 72.5t98 51t92 30t88.5 9.5q64 0 115.5 -18t88 -51
t56 -78.5t19.5 -100.5t-23.5 -101t-68.5 -79.5t-110.5 -52t-149.5 -18.5l-176 235q-29 0 -63 -12t-58 -38v-696h-543v991z" />
    <glyph glyph-name="dotlessj" unicode="&#x237;" horiz-adv-x="828" 
d="M151 991h547v-826q0 -138 -40 -250.5t-117.5 -196.5t-192 -138t-263.5 -75l-43 94q31 33 52 65.5t33.5 69t18 80.5t5.5 100v1077z" />
    <glyph glyph-name="circumflex" unicode="&#x2c6;" horiz-adv-x="1173" 
d="M120 1286q144 63 256.5 138t209.5 162q97 -87 209.5 -162t257.5 -138l-66 -114q-96 13 -201.5 47.5t-199.5 82.5q-94 -48 -199.5 -82.5t-201.5 -47.5z" />
    <glyph glyph-name="caron" unicode="&#x2c7;" horiz-adv-x="1173" 
d="M587 1112q-97 87 -209.5 162t-257.5 138l66 114q48 -7 99 -19.5t102.5 -29.5t102 -37.5t97.5 -44.5q94 48 199.5 82.5t201.5 48.5l65 -114q-144 -63 -256.5 -138t-209.5 -162z" />
    <glyph glyph-name="ring" unicode="&#x2da;" horiz-adv-x="860" 
d="M430 1182q-81 0 -140 15t-96.5 40t-55.5 58t-18 70t18 70t55.5 58t96.5 40t140 15t140 -15t96.5 -40t55.5 -58t18 -70t-18 -70t-55.5 -58t-96.5 -40t-140 -15zM430 1282q63 0 95 25.5t32 57.5t-32 57.5t-95 25.5t-95 -25.5t-32 -57.5t32 -57.5t95 -25.5z" />
    <glyph glyph-name="tilde" unicode="&#x2dc;" horiz-adv-x="1179" 
d="M120 1263q39 55 74.5 91t71 57.5t73 30t81.5 8.5q57 0 104.5 -11.5t91.5 -25t87 -24.5t91 -11q24 0 46 3.5t44.5 12t46.5 22.5t53 34l75 -95q-39 -55 -75 -91t-71.5 -57.5t-73 -30t-80.5 -8.5q-57 0 -105 11t-91.5 24.5t-86.5 24.5t-91 11q-24 0 -46 -3.5t-44.5 -12
t-46.5 -22t-53 -33.5z" />
    <glyph glyph-name="dotaccentcmb" unicode="&#x307;" horiz-adv-x="804" 
d="M402 596q-75 0 -128 16.5t-87.5 44.5t-50.5 66t-16 81t16 81t50.5 66.5t87.5 44.5t128 16t128 -16t87.5 -44.5t50.5 -66.5t16 -81t-16 -81t-50.5 -66t-87.5 -44.5t-128 -16.5z" />
    <glyph glyph-name="endash" unicode="&#x2013;" horiz-adv-x="1443" 
d="M160 682h1123v-183h-1123v183z" />
    <glyph glyph-name="emdash" unicode="&#x2014;" horiz-adv-x="1808" 
d="M160 682h1488v-183h-1488v183z" />
    <glyph glyph-name="quoteleft" unicode="&#x2018;" horiz-adv-x="806" 
d="M414 990q-57 0 -104 17.5t-80 49t-51.5 76.5t-18.5 100q0 57 20.5 119t59.5 125t94.5 124.5t126.5 118.5l115 -90q-33 -34 -59.5 -65t-48.5 -62t-40.5 -64t-33.5 -70l272 -136q0 -54 -20.5 -99t-54.5 -77t-80 -49.5t-97 -17.5z" />
    <glyph glyph-name="quoteright" unicode="&#x2019;" horiz-adv-x="806" 
d="M230 1074q33 34 60 65t49 62t40.5 63.5t33.5 70.5l-273 135q0 55 20.5 100t54.5 77t80 49.5t97 17.5q57 0 104 -17.5t80 -49t51.5 -77t18.5 -100.5q0 -57 -20.5 -118.5t-59.5 -124.5t-94.5 -125t-125.5 -119z" />
    <glyph glyph-name="quotesinglbase" unicode="&#x201a;" horiz-adv-x="826" 
d="M160 23q0 55 20.5 100t54.5 77t80 49.5t97 17.5q57 0 104 -17.5t80 -49t51.5 -77t18.5 -100.5q0 -57 -20.5 -119t-59.5 -125t-94.5 -124.5t-125.5 -118.5l-116 91q33 34 60 65t49 62t40.5 63.5t33.5 70.5l-273 135v0z" />
    <glyph glyph-name="quotedblleft" unicode="&#x201c;" horiz-adv-x="1459" 
d="M1067 990q-57 0 -104 17.5t-80 49t-51.5 76.5t-18.5 100q0 57 20.5 119t59.5 125t94.5 124.5t126.5 118.5l115 -90q-33 -34 -59.5 -65t-48.5 -62t-40.5 -64t-33.5 -70l272 -136q0 -54 -20.5 -99t-54.5 -77t-80 -49.5t-97 -17.5zM414 990q-57 0 -104 17.5t-80 49
t-51.5 76.5t-18.5 100q0 57 20.5 119t59.5 125t94.5 124.5t126.5 118.5l115 -90q-33 -34 -59.5 -65t-48.5 -62t-40.5 -64t-33.5 -70l272 -136q0 -54 -20.5 -99t-54.5 -77t-80 -49.5t-97 -17.5z" />
    <glyph glyph-name="quotedblright" unicode="&#x201d;" horiz-adv-x="1459" 
d="M883 1074q33 34 60 65t49 62t40.5 63.5t33.5 70.5l-273 135q0 55 20.5 100t54.5 77t80 49.5t97 17.5q57 0 104 -17.5t80 -49t51.5 -77t18.5 -100.5q0 -57 -20.5 -118.5t-59.5 -124.5t-94.5 -125t-125.5 -119zM230 1074q33 34 60 65t49 62t40.5 63.5t33.5 70.5l-273 135
q0 55 20.5 100t54.5 77t80 49.5t97 17.5q57 0 104 -17.5t80 -49t51.5 -77t18.5 -100.5q0 -57 -20.5 -118.5t-59.5 -124.5t-94.5 -125t-125.5 -119z" />
    <glyph glyph-name="quotedblbase" unicode="&#x201e;" horiz-adv-x="1443" 
d="M777 23q0 55 20.5 100t54.5 77t80 49.5t97 17.5q57 0 104 -17.5t80 -49t51.5 -77t18.5 -100.5q0 -57 -20.5 -119t-59.5 -125t-94.5 -124.5t-125.5 -118.5l-116 91q33 34 60 65t49 62t40.5 63.5t33.5 70.5zM140 23q0 55 20.5 100t54.5 77t80 49.5t97 17.5q57 0 104 -17.5
t80 -49t51.5 -77t18.5 -100.5q0 -57 -20.5 -119t-59.5 -125t-94.5 -124.5t-125.5 -118.5l-116 91q33 34 60 65t49 62t40.5 63.5t33.5 70.5z" />
    <glyph glyph-name="bullet" unicode="&#x2022;" horiz-adv-x="1201" 
d="M600 391q-111 0 -190.5 24.5t-130.5 66.5t-75 99t-24 122q0 64 24 120.5t75 98.5t130.5 66.5t190.5 24.5q112 0 191.5 -24.5t130.5 -66.5t75 -98.5t24 -120.5q0 -65 -24 -122t-75 -99t-130.5 -66.5t-191.5 -24.5z" />
    <glyph glyph-name="guilsinglleft" unicode="&#x2039;" horiz-adv-x="926" 
d="M140 609l429 401l177 -165l-253 -236l253 -236l-177 -165z" />
    <glyph glyph-name="guilsinglright" unicode="&#x203a;" horiz-adv-x="924" 
d="M177 373l253 236l-253 236l177 165l429 -401l-429 -401z" />
    <glyph glyph-name="Euro" unicode="&#x20ac;" horiz-adv-x="1731" 
d="M60 658h215q-3 39 -3 80q0 32 3 65h-215v189h254q38 109 108 203.5t169.5 164.5t227 110t280.5 40q74 0 144 -10.5t131.5 -27.5t112 -40.5t85.5 -48.5l-93 -175q-27 13 -52 23t-49.5 16.5t-50 9.5t-54.5 3q-67 0 -129.5 -16.5t-116.5 -50t-97 -84t-71 -118.5h512
l-63 -189h-493q-1 -16 -1.5 -31.5t-0.5 -32.5q0 -42 3 -81h444l-63 -190h-340q51 -128 157 -187t265 -59q69 0 137 19.5t128 47.5l70 -151q-44 -32 -105.5 -61t-135 -51t-156 -35t-168.5 -13q-134 0 -251 33.5t-212.5 96.5t-165 154t-107.5 207h-253v190z" />
  </font>
</defs>
</svg>
