<svg width="213" height="60" viewBox="0 0 213 60" fill="none" xmlns="http://www.w3.org/2000/svg">
<g clip-path="url(#clip0_1480_497)">
<path d="M84.4562 34.0498C89.5018 34.0498 92.9173 32.0998 92.9173 27.7498C92.9173 24.8248 91.2872 23.0998 88.415 21.9748L84.7667 20.4748C83.3694 19.8748 82.826 19.4248 82.826 18.6748C82.826 17.9248 83.2918 17.4748 84.9219 17.4748C86.7849 17.4748 88.8032 18.0748 90.6662 18.8248L92.4515 14.3998C90.0452 13.5748 87.5612 13.0498 85.2324 13.0498C80.1092 13.0498 77.3147 15.1498 77.3147 19.0498C77.3147 21.5998 78.7119 23.5498 81.8946 24.8998L85.5429 26.4748C86.7849 26.9998 87.3283 27.3748 87.3283 28.1998C87.3283 29.1748 86.4744 29.6248 84.7667 29.6248C82.2827 29.6248 79.9539 28.7248 77.9357 27.5998L75.6846 32.0248C78.4014 33.4498 81.5841 34.0498 84.4562 34.0498ZM102.387 34.0498C105.57 34.0498 107.511 32.4748 108.753 30.3748H108.83V33.5998H114.186V13.7248H108.753V23.1748C108.753 27.5248 106.967 29.2498 104.25 29.2498C101.922 29.2498 100.369 27.8998 100.369 24.8248V13.7248H94.7803V25.7998C94.7803 31.6498 98.1957 34.0498 102.387 34.0498ZM130.41 13.1248H130.177C126.839 13.1248 124.511 14.8498 123.424 17.8498H123.346V13.6498H117.99V33.5248H123.346V25.2748C123.346 20.4748 125.442 18.6748 129.711 18.6748H130.332V13.1248H130.41ZM140.657 13.0498C134.291 13.0498 130.022 17.3248 130.022 23.5498C130.022 29.8498 134.369 33.9748 141.045 33.9748C145.314 33.9748 148.031 32.0248 149.894 30.4498L147.177 26.6998C146.013 27.8248 143.994 29.3998 141.045 29.3998C137.862 29.3998 135.611 27.6748 135.3 24.5998H150.515V23.5498C150.515 16.8748 146.866 13.0498 140.657 13.0498ZM140.424 17.2498C143.063 17.2498 144.926 18.7498 145.081 21.2248H135.456C135.921 18.5248 137.784 17.2498 140.424 17.2498Z" fill="white"/>
<path d="M91.4424 39.6748L86.6297 53.3248L81.8169 39.6748H75.6846L83.9904 59.3248H89.2689L97.5748 39.6748H91.4424ZM139.104 37.0498H144.538V39.6748H148.729V44.0248H144.538V52.2748C144.538 53.8498 145.081 54.5248 146.711 54.5248H147.643V59.3998H145.236C141.355 59.3998 139.104 57.5248 139.104 53.5498V44.0248H135.378V39.6748H139.104V37.0498ZM107.433 38.9998C101.068 38.9998 96.8761 43.2748 96.8761 49.4998C96.8761 55.7248 101.145 59.9998 107.821 59.9998C112.091 59.9998 114.807 58.0498 116.67 56.4748L113.954 52.7248C112.789 53.8498 110.771 55.4248 107.821 55.4248C104.716 55.4248 102.387 53.6998 102.077 50.6248H117.291V49.5748C117.291 42.8248 113.565 38.9998 107.433 38.9998ZM107.123 43.2748C109.762 43.2748 111.625 44.6998 111.78 47.2498H102.155C102.62 44.4748 104.561 43.2748 107.123 43.2748ZM126.606 59.9998C131.652 59.9998 135.068 58.0498 135.068 53.6998C135.068 50.7748 133.437 49.0498 130.565 47.9248L126.917 46.4248C125.52 45.8248 124.976 45.3748 124.976 44.6248C124.976 43.8748 125.442 43.4248 127.072 43.4248C128.935 43.4248 130.953 44.0248 132.816 44.7748L134.679 40.4248C132.273 39.5998 129.789 39.0748 127.46 39.0748C122.337 39.0748 119.543 41.1748 119.543 44.9998C119.543 47.5498 120.94 49.4998 124.122 50.9248L127.771 52.4248C128.935 53.0248 129.556 53.3998 129.556 54.1498C129.556 55.1248 128.702 55.5748 127.072 55.5748C124.588 55.5748 122.259 54.6748 120.241 53.5498L117.99 57.9748C120.552 59.3248 123.734 59.9998 126.606 59.9998ZM160.296 38.9998C153.775 38.9998 149.04 43.2748 149.04 49.4998C149.04 55.7248 153.853 59.9998 160.296 59.9998C166.816 59.9998 171.629 55.7248 171.629 49.4998C171.629 43.2748 166.816 38.9998 160.296 38.9998ZM160.296 43.9498C163.633 43.9498 165.962 46.1248 165.962 49.4998C165.962 52.8748 163.556 55.0498 160.296 55.0498C156.958 55.0498 154.551 52.8748 154.551 49.4998C154.629 46.1248 157.035 43.9498 160.296 43.9498ZM186.61 39.0748H186.378C183.04 39.0748 180.711 40.7998 179.624 43.7998H179.547V39.5998H174.19V59.2498H179.547V51.2998C179.547 46.4998 181.642 44.6998 185.912 44.6998H186.533V39.0748H186.61ZM194.528 59.9998C199.574 59.9998 202.989 58.0498 202.989 53.6998C202.989 50.7748 201.359 49.0498 198.487 47.9248L194.839 46.4248C193.441 45.8248 192.898 45.3748 192.898 44.6248C192.898 43.8748 193.364 43.4248 194.994 43.4248C196.857 43.4248 198.875 44.0248 200.738 44.7748L202.523 40.4248C200.117 39.5998 197.633 39.0748 195.304 39.0748C190.181 39.0748 187.387 41.1748 187.387 44.9998C187.387 47.5498 188.784 49.4998 191.966 50.9248L195.615 52.4248C196.779 53.0248 197.4 53.3998 197.4 54.1498C197.4 55.1248 196.546 55.5748 194.916 55.5748C192.432 55.5748 190.103 54.6748 188.085 53.5498L185.912 57.9748C188.473 59.3248 191.734 59.9998 194.528 59.9998Z" fill="white"/>
<path fill-rule="evenodd" clip-rule="evenodd" d="M18.9404 4.95039V7.80039V59.4004H31.5156V7.80039V0.900391H18.9404V4.95039Z" fill="#00CCC2"/>
<path fill-rule="evenodd" clip-rule="evenodd" d="M44.1685 0L18.9404 13.275V27.225L44.1685 13.95L56.7437 20.925V59.4H69.3965V27.675V13.725L44.1685 0Z" fill="#00CCC2"/>
<path fill-rule="evenodd" clip-rule="evenodd" d="M0 16.2754C4.19174 14.0254 8.38348 11.7754 12.6528 9.52539V0.900391H0C0 7.87539 0 9.37539 0 16.2754ZM0 23.2504V59.3254H12.6528V16.5754V16.5004L0 23.2504Z" fill="#00CCC2"/>
<path fill-rule="evenodd" clip-rule="evenodd" d="M44.8674 49.9504C45.2556 49.9504 45.6437 50.4004 45.6437 50.9254C45.6437 51.4504 45.3332 51.9004 44.8674 51.9004C44.4793 51.9004 44.0912 51.4504 44.0912 50.9254C44.0912 50.4004 44.4793 49.9504 44.8674 49.9504ZM37.0273 59.4004H42.3058V37.3504L52.1642 34.2754H42.3058H37.0273V59.4004Z" fill="#E91E63"/>
<path fill-rule="evenodd" clip-rule="evenodd" d="M209.276 59.8502C210.984 59.8502 212.459 58.5002 212.459 56.7752C212.459 55.0502 211.062 53.7002 209.276 53.7002C207.491 53.7002 206.094 55.0502 206.094 56.7752C206.094 58.5002 207.569 59.8502 209.276 59.8502Z" fill="#AD2251"/>
<path fill-rule="evenodd" clip-rule="evenodd" d="M212.071 55.2752C211.528 54.3752 210.519 53.7002 209.354 53.7002C207.647 53.7002 206.172 55.0502 206.172 56.7752C206.172 57.3002 206.327 57.8252 206.56 58.2752L212.071 55.2752Z" fill="#E91E63"/>
<path fill-rule="evenodd" clip-rule="evenodd" d="M0 0.900391C0 3.15039 0 5.40039 0 7.65039L12.6528 0.900391H0Z" fill="#009C9D"/>
<path fill-rule="evenodd" clip-rule="evenodd" d="M18.9404 13.2748V27.2248L31.5156 20.6248V7.7998V6.6748L18.9404 13.2748Z" fill="#009C9D"/>
</g>
<defs>
<clipPath id="clip0_1480_497">
<rect width="212.459" height="60" fill="white"/>
</clipPath>
</defs>
</svg>
