<svg width="24" height="24" viewBox="0 0 24 24" fill="none" xmlns="http://www.w3.org/2000/svg">
<path d="M23.4972 6.50469C23.2195 5.52568 22.409 4.75391 21.3808 4.4895C19.5047 4 11.9925 4 11.9925 4C11.9925 4 4.48405 4 2.60413 4.47164C1.59475 4.73604 0.765478 5.52568 0.487805 6.50469C0 8.2912 0 12 0 12C0 12 3.57851e-08 15.7267 0.495309 17.4953C0.772983 18.4743 1.58349 19.2461 2.61163 19.5105C4.51032 20 12 20 12 20C12 20 19.5084 20 21.3884 19.5284C22.4165 19.264 23.227 18.4922 23.5047 17.5132C24 15.7267 24 12.0179 24 12.0179C24 12.0179 24.0112 8.2912 23.4972 6.50469ZM9.606 15.4265V8.57347L15.8499 12L9.606 15.4265Z" fill="#B5BAC1"/>
</svg>
