<svg width="25" height="58" viewBox="0 0 25 58" fill="none" xmlns="http://www.w3.org/2000/svg">
<path d="M22.6351 54.6628C22.2551 54.4938 21.875 54.3248 21.5372 54.1559C21.5794 54.1136 21.6216 54.0714 21.6639 54.0291C21.875 53.6912 21.9595 53.2688 21.9172 52.8041C21.875 52.2549 21.7483 51.6635 21.4949 51.0721C21.2838 50.5652 21.0726 50.0583 20.8193 49.6358C20.5659 49.2134 20.3547 48.8755 20.1858 48.622C20.0169 48.3685 19.8902 48.2418 19.8902 48.2418L19.6368 47.9039L19.5524 48.3263C19.5524 48.3263 19.4257 48.791 19.3412 49.4246C19.2568 50.016 19.1723 50.8609 19.2568 51.5368C19.3412 52.2549 19.5524 52.8041 19.8057 53.1843C18.6233 52.5084 17.4831 51.748 16.4274 50.9454C16.4696 50.9031 16.5118 50.8609 16.5541 50.8186C16.8074 50.5652 17.0186 50.1428 17.0608 49.6358C17.1453 49.0867 17.103 48.4953 16.9764 47.8616C16.8919 47.3547 16.7652 46.8055 16.5963 46.3409C16.4696 45.9184 16.3007 45.496 16.174 45.2425L15.7939 44.3977L15.4561 45.1158C15.3716 45.2848 15.2872 45.5805 15.1605 45.8762C14.9916 46.3409 14.7382 47.1857 14.6537 47.9461C14.6115 48.5798 14.6959 49.1712 14.8649 49.6781C13.8514 48.791 12.8801 47.8194 11.9932 46.7633C12.0355 46.721 12.0777 46.7211 12.1622 46.6788C12.3733 46.5521 12.7111 46.2141 12.8801 45.6227C13.049 45.1158 13.1334 44.5666 13.1757 43.8908C13.2179 43.2993 13.1757 42.7502 13.0912 42.3277C13.049 41.8208 12.9645 41.3984 12.9223 41.1449C12.8801 40.8492 12.8378 40.6803 12.8378 40.6803L12.7534 40.2156L12.4578 40.5958C12.4578 40.5958 12.1622 41.0182 11.8243 41.5251C11.5709 41.9053 11.1486 42.7079 10.9375 43.4683C10.8108 43.933 10.7264 44.4399 10.7686 44.9046C10.7686 44.9891 10.7686 45.1158 10.8108 45.2003C10.0084 44.102 9.24831 42.9614 8.57263 41.7786C8.61486 41.7786 8.69932 41.7363 8.74155 41.7363C8.99493 41.6519 9.375 41.3984 9.67061 40.8492C10.3041 39.7509 10.473 38.4836 10.5574 37.6387C10.5574 37.343 10.5574 37.0051 10.5574 36.7516V36.4982C10.5574 36.2025 10.5574 36.0335 10.5574 36.0335L10.5152 35.6111L10.2196 35.9068C10.2196 35.9068 9.83953 36.2447 9.41723 36.7094C8.91047 37.2586 8.44595 37.8922 8.15034 38.3991C7.89696 38.8638 7.72804 39.3285 7.68581 39.7932C7.68581 39.8776 7.68581 39.9621 7.64358 40.0889C7.34797 39.4552 7.05236 38.7793 6.79899 38.1034C6.54561 37.512 6.37669 36.8784 6.16554 36.287C6.20777 36.287 6.29223 36.287 6.33446 36.287C6.58784 36.2447 7.01014 36.0757 7.43243 35.6111C7.77027 35.1886 8.10811 34.724 8.36149 34.1326C8.48818 33.8791 8.57263 33.6256 8.65709 33.3722C8.74155 33.1187 8.82601 32.9075 8.91047 32.654C8.99493 32.2739 9.07939 31.9781 9.16385 31.6824L9.20608 31.5135C9.29054 31.2178 9.29054 31.0488 9.29054 31.0488L9.33277 30.6264L8.9527 30.8376C8.9527 30.8376 8.53041 31.091 8.02365 31.4712C7.3902 31.9359 6.79899 32.4428 6.41892 32.9075C5.99662 33.3722 5.74324 33.9213 5.57432 34.4283C5.23649 33.0765 5.02534 31.7669 4.85642 30.4151C4.89865 30.4151 4.98311 30.4151 5.02534 30.4151C5.27872 30.4151 5.70101 30.3307 6.20777 29.9927C7.17905 29.2746 7.8125 28.2185 8.27703 27.3736L8.36149 27.2469C8.53041 26.8667 8.69932 26.571 8.82601 26.3176C8.9527 26.0641 8.99493 25.8951 8.99493 25.8951L9.12162 25.4727L8.69932 25.5994C8.69932 25.5994 8.2348 25.7684 7.64358 26.0218C7.09459 26.2753 6.33446 26.6555 5.78547 27.0779C5.36318 27.4159 5.06757 27.7538 4.81419 28.1763C4.77196 28.2607 4.72973 28.3452 4.6875 28.4297C4.64527 27.0779 4.6875 25.6839 4.81419 24.3321C4.85642 24.3321 4.94088 24.3744 4.98311 24.3744C5.06757 24.4166 5.19426 24.4166 5.32095 24.4166C5.57432 24.4166 5.86993 24.3744 6.25 24.2054C6.75676 23.9942 7.26351 23.6562 7.72804 23.1916C8.19257 22.7691 8.57263 22.3889 8.82601 22.051L9.03716 21.7975C9.24831 21.5441 9.41723 21.2906 9.54392 21.1216C9.71284 20.8682 9.7973 20.7414 9.7973 20.7414L10.0084 20.3613L9.58615 20.4035C9.58615 20.4035 9.07939 20.4457 8.48818 20.6147C7.89696 20.7414 7.05236 20.9527 6.46115 21.2906C5.99662 21.5441 5.61655 21.8398 5.27872 22.1355C5.19426 22.22 5.15203 22.3044 5.1098 22.3467C5.32095 20.9949 5.65878 19.6854 6.03885 18.3758C6.08108 18.4181 6.12331 18.4181 6.20777 18.4603C6.41892 18.5448 6.63007 18.587 6.88345 18.587C7.05236 18.587 7.26351 18.5448 7.47466 18.5025C8.02365 18.3758 8.57264 18.1646 9.12162 17.8267C9.62838 17.531 10.0929 17.193 10.4307 16.9395C10.5574 16.8128 10.6841 16.7283 10.8108 16.6438C11.022 16.4749 11.1909 16.3059 11.3176 16.1792C11.5287 15.968 11.6554 15.8412 11.6554 15.8412L11.951 15.5033L11.5287 15.461C11.5287 15.461 11.022 15.4188 10.3885 15.4188C9.50169 15.4188 8.78378 15.5033 8.27703 15.6722C7.77027 15.799 7.34797 16.0102 6.96791 16.2637C6.88345 16.3059 6.79899 16.3904 6.75676 16.4326C6.92568 15.968 7.13682 15.5033 7.30574 15.0808C7.64358 14.2782 8.06588 13.5178 8.44595 12.7575C8.48818 12.7997 8.53041 12.842 8.57263 12.8842C8.78378 13.0532 9.12162 13.2221 9.71284 13.2221C9.75507 13.2221 9.7973 13.2221 9.83953 13.2221C10.3885 13.2221 10.9797 13.0954 11.5287 12.8842C12.0355 12.7152 12.5422 12.504 13.0068 12.2505C13.2179 12.1238 13.3868 12.0393 13.5557 11.9126L14.0203 11.6591C14.2736 11.4902 14.4426 11.4057 14.4426 11.4057L14.7804 11.1522L14.3581 11.0255C14.3581 11.0255 13.8936 10.8988 13.2601 10.772C12.8378 10.6875 12.5 10.6453 12.2044 10.6031C11.8243 10.5608 11.4443 10.5608 11.1486 10.6031C10.5152 10.6453 9.92399 10.8143 9.45946 11.0677C10.1774 9.92717 10.9797 8.82884 11.8666 7.77276C11.9088 7.815 11.951 7.85725 11.9932 7.89949C12.1622 8.11071 12.5 8.36417 13.1334 8.44865C13.4291 8.4909 13.6824 8.53314 14.0203 8.53314C14.3159 8.53314 14.6115 8.4909 14.9071 8.44865C15.3716 8.36417 15.9628 8.27968 16.4696 8.15295C16.7652 8.06846 16.9764 7.98398 17.1875 7.89949C17.3142 7.85725 17.4409 7.815 17.5676 7.77276C17.8632 7.68827 18.0321 7.60379 18.0321 7.60379L18.4544 7.43481L18.0743 7.2236C18.0743 7.2236 17.652 7.01238 17.0608 6.75892C16.3851 6.46322 15.625 6.252 15.0338 6.16752C14.527 6.08303 14.0203 6.12527 13.5557 6.20976C13.4713 6.20976 13.3868 6.252 13.2601 6.29425C13.5557 5.99854 13.8514 5.70284 14.147 5.40714C14.4426 5.15368 15.076 4.56227 15.4561 4.22433C15.5405 4.22433 15.6672 4.26657 15.7939 4.26657C16.3429 4.26657 17.3564 4.0976 18.4966 2.99927C19.4679 2.06992 20.4392 0.422433 20.4814 0.380189L20.6081 0L20.1858 0.0844865C20.0591 0.0844865 16.9764 0.591406 15.4983 2.45011C14.9493 3.126 14.9916 3.71741 15.076 4.01311C14.6959 4.35106 14.0625 4.90022 13.8091 5.15368C13.5135 5.44938 13.1757 5.74508 12.8801 6.08303C12.9223 5.99854 12.9223 5.91406 12.9645 5.82957C13.049 5.40714 13.0912 4.90022 13.0912 4.35106C13.0912 3.80189 12.9645 3.126 12.8801 2.49235L12.7534 2.11216C12.6267 1.43627 12.5422 0.971595 12.5422 0.971595L12.4578 0.506919L12.1622 0.844865C12.1622 0.844865 12.0355 1.01384 11.8243 1.35178C11.6132 1.64749 11.402 2.06992 11.1486 2.66133C10.9375 3.21049 10.6841 3.80189 10.5997 4.43554C10.5152 5.15368 10.5152 5.78733 10.6419 6.33649C10.7686 6.80117 11.022 7.18135 11.3598 7.39257C11.402 7.43481 11.4443 7.43481 11.5287 7.47706C10.6419 8.53314 9.83953 9.63146 9.07939 10.8143C9.12162 10.3496 9.07939 9.75819 8.91047 9.0823C8.82601 8.7866 8.74155 8.44865 8.57263 8.02622C8.44595 7.68827 8.31926 7.30808 8.19257 7.01238C7.93919 6.37873 7.72804 5.91406 7.72804 5.91406L7.55912 5.49162L7.34797 5.91406C7.34797 5.91406 7.26351 6.12527 7.09459 6.46322V6.50546C7.05236 6.67444 6.96791 6.84341 6.88345 7.09687C6.79899 7.35033 6.75676 7.60379 6.71453 7.89949C6.58784 8.57538 6.50338 9.20903 6.54561 9.75819C6.58784 10.4763 6.75676 11.11 7.01014 11.6169C7.22128 12.0816 7.55912 12.3773 7.93919 12.5462C7.98142 12.5885 8.06588 12.5885 8.10811 12.5885C7.68581 13.3489 7.30574 14.1515 6.92568 14.9541C6.71453 15.4188 6.54561 15.8835 6.37669 16.3481C6.37669 16.2637 6.33446 16.1792 6.33446 16.0947C6.25 15.63 6.08108 15.1653 5.8277 14.6584C5.44764 13.898 4.98311 13.1377 4.72973 12.7575C4.34966 12.2083 4.05405 11.7859 4.05405 11.7859L3.75845 11.4057L3.63176 11.8704C3.63176 11.8704 3.58953 12.0816 3.50507 12.4618L3.46284 12.6307C3.42061 12.9687 3.37838 13.4334 3.37838 13.9403C3.37838 14.4894 3.42061 15.1231 3.58953 15.799C3.75845 16.4749 4.05405 17.0663 4.39189 17.531C4.77196 18.0379 5.19426 18.2068 5.48986 18.2491C5.57432 18.2491 5.61655 18.2491 5.65878 18.2491C5.23649 19.5586 4.94088 20.9104 4.6875 22.2622C4.64527 22.1777 4.64527 22.0932 4.60304 22.0087C4.43412 21.5863 4.18074 21.1639 3.84291 20.6992C3.37838 20.1078 2.78716 19.4741 2.36486 19.0517C1.90034 18.587 1.52027 18.2068 1.52027 18.2068L1.18243 17.8689V18.3336C1.18243 18.3336 1.18243 18.587 1.18243 18.9672V19.094C1.22466 19.4741 1.22466 19.9388 1.35135 20.4457C1.47804 20.9949 1.64696 21.6285 1.94257 22.22C2.23818 22.8536 2.61824 23.3605 3.08277 23.7407C3.46284 24.0787 3.88514 24.2054 4.2652 24.2054C4.34966 24.2054 4.39189 24.2054 4.43412 24.2054C4.30743 25.5572 4.2652 26.9512 4.30743 28.3452C4.2652 28.2607 4.22297 28.2185 4.18074 28.134C3.92736 27.7538 3.58953 27.3736 3.16723 27.0357C2.74493 26.6555 2.15372 26.2331 1.39358 25.7261C0.844595 25.346 0.380068 25.0925 0.380068 25.0925L0 24.839L0.0844595 25.3037C0.0844595 25.3037 0.126689 25.5149 0.211149 25.8951C0.295608 26.2331 0.422297 26.74 0.675676 27.2891C0.929054 27.9228 1.68919 29.4436 2.99831 30.2039C3.33615 30.3729 3.63176 30.4574 3.92737 30.4574C4.05405 30.4574 4.13851 30.4574 4.2652 30.4151C4.30743 30.4151 4.39189 30.3729 4.43412 30.3729C4.56081 31.7247 4.81419 33.0765 5.15203 34.4283C4.85642 34.0903 4.39189 33.7101 3.75845 33.3722C3.16723 33.0342 2.40709 32.7385 1.77365 32.4428C1.1402 32.1894 0.675676 32.0204 0.675676 32.0204L0.253378 31.8514L0.422297 32.2739C0.422297 32.2739 0.506757 32.4851 0.675676 32.823C0.760135 33.0342 1.01351 33.5411 1.43581 34.0903C1.60473 34.3438 1.81588 34.5972 1.9848 34.8084C2.19595 35.0619 2.44932 35.2731 2.66047 35.4843C3.20946 35.949 3.75845 36.287 4.30743 36.4559C4.51858 36.5404 4.72973 36.5827 4.94088 36.5827C5.15203 36.5827 5.40541 36.5404 5.57432 36.4559C5.61655 36.4137 5.65878 36.4137 5.74324 36.3714C5.95439 37.0051 6.16554 37.5965 6.37669 38.2302C6.63007 38.906 6.92568 39.5819 7.26351 40.2578C7.17905 40.2156 7.09459 40.1311 7.05237 40.0889C6.6723 39.8354 6.20777 39.6664 5.70101 39.4552C5.06757 39.244 4.30743 39.075 3.63176 38.9483H3.5473C2.87162 38.8216 2.40709 38.7371 2.40709 38.7371L1.94257 38.6526L2.19595 39.0328C2.19595 39.0328 2.32264 39.244 2.53378 39.5397C2.74493 39.8354 3.08277 40.2156 3.50507 40.638C4.09628 41.2294 5.36318 42.2433 6.79899 42.37C6.88345 42.37 6.96791 42.37 7.05237 42.37C7.43243 42.37 7.77027 42.2855 8.06588 42.0743C8.10811 42.032 8.15034 41.9898 8.19257 41.9476C8.86824 43.1726 9.62838 44.3132 10.4307 45.4115C10.3463 45.3693 10.2618 45.327 10.1774 45.2848C9.7973 45.1158 9.29054 45.0313 8.69932 44.9468C8.02365 44.8623 7.17905 44.8623 6.50338 44.8623C5.8277 44.8623 5.32095 44.9046 5.32095 44.9046H4.85642L5.15203 45.2425C5.15203 45.2425 5.32095 45.4115 5.61655 45.665C5.86993 45.8762 6.29223 46.2141 6.79899 46.5521C7.30574 46.89 7.89696 47.1435 8.48818 47.3547C8.99493 47.5237 9.54392 47.6082 10.0084 47.6082C10.1351 47.6082 10.2618 47.6082 10.3463 47.6082C10.853 47.5659 11.2331 47.3969 11.5287 47.059C11.5709 47.0168 11.6132 46.9745 11.6132 46.9323C12.5 47.9883 13.4713 48.9599 14.527 49.847C14.0625 49.7626 13.5135 49.6781 12.7534 49.7626C12.0355 49.8048 11.1909 50.016 10.5997 50.1428L8.99493 50.5229L9.54392 50.9031C9.62838 50.9454 9.75507 51.0299 9.92399 51.1143C10.3041 51.3256 10.7264 51.5368 11.2753 51.748C11.951 52.0015 12.5422 52.1282 13.0912 52.2127C13.3024 52.2549 13.5135 52.2549 13.7247 52.2549C14.1892 52.2549 14.6115 52.2127 14.9916 52.0859C15.5828 51.917 15.8784 51.579 16.0473 51.3256C16.0895 51.2833 16.0895 51.2411 16.1318 51.1566C17.2297 52.0015 18.3699 52.7618 19.5524 53.4377C19.0878 53.4377 18.5389 53.48 17.8209 53.6912C17.1453 53.9024 16.3429 54.2403 15.7939 54.4938C15.1605 54.7895 14.7382 55.0007 14.7382 55.0007L14.3159 55.2119L14.7382 55.3809C14.7382 55.3809 14.9493 55.4654 15.3294 55.5921H15.3716C15.7095 55.6766 16.2162 55.8456 16.7652 55.9301C17.103 55.9723 17.5676 56.0146 18.0743 56.0146C18.2432 56.0146 18.4544 56.0146 18.6233 55.9723C19.3412 55.8878 19.9324 55.7189 20.4392 55.4654C20.9882 55.1697 21.1993 54.7895 21.326 54.4938C21.3682 54.4516 21.3682 54.3671 21.3682 54.3248C21.7483 54.4938 22.1284 54.705 22.5084 54.874C22.5929 54.9162 24.4088 55.7611 24.5777 58L25 57.9578C24.7889 55.6344 22.7196 54.705 22.6351 54.6628Z" fill="#404D8E"/>
</svg>
