<svg width="60" height="138" viewBox="0 0 60 138" fill="none" xmlns="http://www.w3.org/2000/svg">
<path d="M5.59995 129.4C6.49995 129 7.39995 128.6 8.19995 128.2C8.09995 128.1 7.99995 128 7.89995 127.9C7.39995 127.1 7.19995 126.1 7.29995 125C7.39995 123.7 7.69995 122.3 8.29995 120.9C8.79995 119.7 9.29995 118.5 9.89995 117.5C10.5 116.5 11 115.7 11.4 115.1C11.8 114.5 12.1 114.2 12.1 114.2L12.7 113.4L12.9 114.4C12.9 114.4 13.2 115.5 13.4 117C13.6 118.4 13.8 120.4 13.6 122C13.4 123.7 12.8999 125 12.2999 125.9C15.0999 124.3 17.7999 122.5 20.2999 120.6C20.2 120.5 20.0999 120.4 20 120.3C19.4 119.7 18.8999 118.7 18.7999 117.5C18.5999 116.2 18.7 114.8 19 113.3C19.2 112.1 19.5 110.8 19.9 109.7C20.2 108.7 20.6 107.7 20.9 107.1L21.7999 105.1L22.6 106.8C22.8 107.2 23 107.9 23.2999 108.6C23.7 109.7 24.2999 111.7 24.5 113.5C24.5999 115 24.4 116.4 24 117.6C26.4 115.5 28.7 113.2 30.8 110.7C30.7 110.6 30.6 110.6 30.4 110.5C29.9 110.2 29.1 109.4 28.7 108C28.3 106.8 28.1 105.5 28 103.9C27.9 102.5 28 101.2 28.2 100.2C28.3 99 28.5 98 28.6 97.4C28.7 96.7 28.8 96.3 28.8 96.3L29 95.2L29.7 96.1C29.7 96.1 30.4 97.1 31.2 98.3C31.8 99.2 32.8 101.1 33.3 102.9C33.6 104 33.8 105.2 33.7 106.3C33.7 106.5 33.7 106.8 33.6 107C35.5 104.4 37.3 101.7 38.9 98.9C38.8 98.9 38.6 98.8 38.5 98.8C37.9 98.6 37 98 36.3 96.7C34.8 94.1 34.4 91.1 34.2 89.1C34.2 88.4 34.2 87.6 34.2 87V86.4C34.2 85.7 34.2 85.3 34.2 85.3L34.3 84.3L35 85C35 85 35.9 85.8 36.9 86.9C38.1 88.2 39.2 89.7 39.9 90.9C40.5 92 40.9 93.1 41 94.2C41 94.4 41 94.6 41.1 94.9C41.8 93.4 42.5 91.8 43.1 90.2C43.7 88.8 44.1 87.3 44.6 85.9C44.5 85.9 44.3 85.9 44.2 85.9C43.6 85.8 42.6 85.4 41.6 84.3C40.8 83.3 40 82.2 39.4 80.8C39.1 80.2 38.9 79.6 38.7 79C38.5 78.4 38.3 77.9 38.1 77.3C37.9 76.4 37.7 75.7 37.5 75L37.4 74.6C37.2 73.9 37.2 73.5 37.2 73.5L37.1 72.5L38 73C38 73 39 73.6 40.2 74.5C41.7 75.6 43.1 76.8 44 77.9C45 79 45.6 80.3 46 81.5C46.8 78.3 47.3 75.2 47.7 72C47.6 72 47.4 72 47.3 72C46.7 72 45.7 71.8 44.5 71C42.2 69.3 40.7 66.8 39.6 64.8L39.4 64.5C39 63.6 38.6 62.9 38.3 62.3C38 61.7 37.9 61.3 37.9 61.3L37.6 60.3L38.6 60.6C38.6 60.6 39.7 61 41.1 61.6C42.4 62.2 44.2 63.1 45.5 64.1C46.5 64.9 47.2 65.7 47.8 66.7C47.9 66.9 48 67.1 48.1 67.3C48.2 64.1 48.1 60.8 47.8 57.6C47.7 57.6 47.5 57.7 47.4 57.7C47.2 57.8 46.9 57.8 46.6 57.8C46 57.8 45.3 57.7 44.4 57.3C43.2 56.8 42 56 40.9 54.9C39.8 53.9 38.9 53 38.3 52.2L37.8 51.6C37.3 51 36.9 50.4 36.6 50C36.2 49.4 36 49.1 36 49.1L35.5 48.2L36.5 48.3C36.5 48.3 37.7 48.4 39.1 48.8C40.5 49.1 42.5 49.6 43.9 50.4C45 51 45.9 51.7 46.7 52.4C46.9 52.6 47 52.8 47.1 52.9C46.6 49.7 45.8 46.6 44.9 43.5C44.8 43.6 44.7 43.6 44.5 43.7C44 43.9 43.5 44 42.9 44C42.5 44 42 43.9 41.5 43.8C40.2 43.5 38.9 43 37.6 42.2C36.4 41.5 35.2999 40.7 34.5 40.1C34.2 39.8 33.9 39.6 33.6 39.4C33.1 39 32.7 38.6 32.4 38.3C31.9 37.8 31.6 37.5 31.6 37.5L30.9 36.7L31.9 36.6C31.9 36.6 33.1 36.5 34.6 36.5C36.7 36.5 38.4 36.7 39.6 37.1C40.8 37.4 41.8 37.9 42.7 38.5C42.9 38.6 43.1 38.8 43.2 38.9C42.8 37.8 42.3 36.7 41.9 35.7C41.1 33.8 40.1 32 39.2 30.2C39.1 30.3 39 30.4 38.9 30.5C38.4 30.9 37.6 31.3 36.2 31.3C36.1 31.3 36 31.3 35.9 31.3C34.6 31.3 33.2 31 31.9 30.5C30.7 30.1 29.5 29.6 28.4 29C27.9 28.7 27.5 28.5 27.1 28.2L26 27.6C25.4 27.2 25 27 25 27L24.2 26.4L25.2 26.1C25.2 26.1 26.2999 25.8 27.8 25.5C28.8 25.3 29.6 25.2 30.3 25.1C31.2 25 32.1 25 32.8 25.1C34.3 25.2 35.7 25.6 36.8 26.2C35.1 23.5 33.2 20.9 31.1 18.4C31 18.5 30.9 18.6 30.8 18.7C30.4 19.2 29.6 19.8 28.1 20C27.4 20.1 26.7999 20.2 26 20.2C25.2999 20.2 24.6 20.1 23.9 20C22.8 19.8 21.4 19.6 20.2 19.3C19.5 19.1 19 18.9 18.5 18.7C18.2 18.6 17.9 18.5 17.6 18.4C16.9 18.2 16.5 18 16.5 18L15.5 17.6L16.4 17.1C16.4 17.1 17.3999 16.6 18.7999 16C20.3999 15.3 22.2 14.8 23.6 14.6C24.8 14.4 26 14.5 27.1 14.7C27.3 14.7 27.5 14.8 27.8 14.9C27.1 14.2 26.4 13.5 25.7 12.8C25 12.2 23.5 10.8 22.6 10C22.4 10 22.0999 10.1 21.7999 10.1C20.5 10.1 18.1 9.7 15.4 7.1C13.1 4.9 10.7999 1 10.7 0.9L10.4 0L11.4 0.2C11.7 0.2 19 1.4 22.5 5.8C23.7999 7.4 23.7 8.8 23.5 9.5C24.4 10.3 25.9 11.6 26.5 12.2C27.2 12.9 28 13.6 28.7 14.4C28.6 14.2 28.6 14 28.5 13.8C28.2999 12.8 28.2 11.6 28.2 10.3C28.2 9 28.5 7.4 28.7 5.9L29 5C29.2999 3.4 29.5 2.3 29.5 2.3L29.7 1.2L30.4 2C30.4 2 30.7 2.4 31.2 3.2C31.7 3.9 32.2 4.9 32.8 6.3C33.3 7.6 33.9 9 34.1 10.5C34.3 12.2 34.2999 13.7 34 15C33.7 16.1 33.1 17 32.3 17.5C32.2 17.6 32.1 17.6 31.9 17.7C34 20.2 35.9 22.8 37.7 25.6C37.6 24.5 37.7 23.1 38.1 21.5C38.3 20.8 38.5 20 38.9 19C39.2 18.2 39.5 17.3 39.8 16.6C40.4 15.1 40.9 14 40.9 14L41.3 13L41.8 14C41.8 14 42 14.5 42.4 15.3V15.4C42.5 15.8 42.7 16.2 42.9 16.8C43.1 17.4 43.2 18 43.3 18.7C43.6 20.3 43.8 21.8 43.7 23.1C43.6 24.8 43.2 26.3 42.6 27.5C42.1 28.6 41.3 29.3 40.4 29.7C40.3 29.8 40.1 29.8 40 29.8C41 31.6 41.9 33.5 42.8 35.4C43.3 36.5 43.7 37.6 44.1 38.7C44.1 38.5 44.2 38.3 44.2 38.1C44.4 37 44.8 35.9 45.4 34.7C46.3 32.9 47.4 31.1 48 30.2C48.9 28.9 49.6 27.9 49.6 27.9L50.3 27L50.6 28.1C50.6 28.1 50.7 28.6 50.9 29.5L51 29.9C51.1 30.7 51.2 31.8 51.2 33C51.2 34.3 51.1 35.8 50.7 37.4C50.3 39 49.6 40.4 48.8 41.5C47.9 42.7 46.9 43.1 46.2 43.2C46 43.2 45.9 43.2 45.8 43.2C46.8 46.3 47.5 49.5 48.1 52.7C48.2 52.5 48.2 52.3 48.3 52.1C48.7 51.1 49.3 50.1 50.1 49C51.2 47.6 52.6 46.1 53.6 45.1C54.7 44 55.6 43.1 55.6 43.1L56.4 42.3V43.4C56.4 43.4 56.4 44 56.4 44.9V45.2C56.3 46.1 56.3 47.2 56 48.4C55.7 49.7 55.3 51.2 54.6 52.6C53.9 54.1 53 55.3 51.9 56.2C51 57 50 57.3 49.1 57.3C48.9 57.3 48.8 57.3 48.7 57.3C49 60.5 49.1 63.8 49 67.1C49.1 66.9 49.2 66.8 49.3 66.6C49.9 65.7 50.7 64.8 51.7 64C52.7 63.1 54.1 62.1 55.9 60.9C57.2 60 58.3 59.4 58.3 59.4L59.2 58.8L59 59.9C59 59.9 58.9 60.4 58.7 61.3C58.5 62.1 58.2 63.3 57.6 64.6C57 66.1 55.2 69.7 52.1 71.5C51.3 71.9 50.6 72.1 49.9 72.1C49.6 72.1 49.4 72.1 49.1 72C49 72 48.8 71.9 48.7 71.9C48.4 75.1 47.8 78.3 47 81.5C47.7 80.7 48.8 79.8 50.3 79C51.7 78.2 53.5 77.5 55 76.8C56.5 76.2 57.6 75.8 57.6 75.8L58.6 75.4L58.2 76.4C58.2 76.4 58 76.9 57.6 77.7C57.4 78.2 56.8 79.4 55.8 80.7C55.4 81.3 54.9 81.9 54.5 82.4C54 83 53.4 83.5 52.9 84C51.6 85.1 50.3 85.9 49 86.3C48.5 86.5 48 86.6 47.5 86.6C47 86.6 46.4 86.5 46 86.3C45.9 86.2 45.8 86.2 45.6 86.1C45.1 87.6 44.6 89 44.1 90.5C43.5 92.1 42.7999 93.7 42 95.3C42.2 95.2 42.4 95 42.5 94.9C43.4 94.3 44.5 93.9 45.7 93.4C47.2 92.9 49 92.5 50.6 92.2H50.8C52.4 91.9 53.5 91.7 53.5 91.7L54.6 91.5L54 92.4C54 92.4 53.7 92.9 53.2 93.6C52.7 94.3 51.9 95.2 50.9 96.2C49.5 97.6 46.5 100 43.1 100.3C42.9 100.3 42.7 100.3 42.5 100.3C41.6 100.3 40.8 100.1 40.1 99.6C40 99.5 39.9 99.4 39.8 99.3C38.2 102.2 36.4 104.9 34.5 107.5C34.7 107.4 34.9 107.3 35.1 107.2C36 106.8 37.2 106.6 38.6 106.4C40.2 106.2 42.2 106.2 43.8 106.2C45.4 106.2 46.6 106.3 46.6 106.3H47.7L47 107.1C47 107.1 46.6 107.5 45.9 108.1C45.3 108.6 44.3 109.4 43.1 110.2C41.9 111 40.5 111.6 39.1 112.1C37.9 112.5 36.6 112.7 35.5 112.7C35.2 112.7 34.9 112.7 34.7 112.7C33.5 112.6 32.6 112.2 31.9 111.4C31.8 111.3 31.7 111.2 31.7 111.1C29.6 113.6 27.2999 115.9 24.7999 118C25.8999 117.8 27.2 117.6 29 117.8C30.7 117.9 32.7 118.4 34.1 118.7L37.9 119.6L36.6 120.5C36.4 120.6 36.1 120.8 35.7 121C34.8 121.5 33.7999 122 32.5 122.5C30.9 123.1 29.5 123.4 28.2 123.6C27.7 123.7 27.2 123.7 26.7 123.7C25.6 123.7 24.6 123.6 23.7 123.3C22.2999 122.9 21.6 122.1 21.2 121.5C21.1 121.4 21.0999 121.3 21 121.1C18.4 123.1 15.7 124.9 12.9 126.5C14 126.5 15.2999 126.6 17 127.1C18.5999 127.6 20.5 128.4 21.7999 129C23.2999 129.7 24.2999 130.2 24.2999 130.2L25.2999 130.7L24.2999 131.1C24.2999 131.1 23.8 131.3 22.9 131.6H22.7999C22 131.8 20.7999 132.2 19.5 132.4C18.7 132.5 17.6 132.6 16.4 132.6C16 132.6 15.5 132.6 15.1 132.5C13.4 132.3 12 131.9 10.7999 131.3C9.49995 130.6 8.99995 129.7 8.69995 129C8.59995 128.9 8.59995 128.7 8.59995 128.6C7.69995 129 6.79995 129.5 5.89995 129.9C5.69995 130 1.39995 132 0.99995 137.3L-4.95911e-05 137.2C0.49995 131.7 5.39995 129.5 5.59995 129.4Z" fill="#404D8E"/>
</svg>
