<svg width="25" height="58" viewBox="0 0 25 58" fill="none" xmlns="http://www.w3.org/2000/svg">
<path d="M2.36487 54.6628C2.74493 54.4938 3.125 54.3248 3.46284 54.1559C3.42061 54.1136 3.37838 54.0714 3.33615 54.0291C3.125 53.6912 3.04054 53.2688 3.08277 52.8041C3.125 52.2549 3.25169 51.6635 3.50507 51.0721C3.71622 50.5652 3.92736 50.0583 4.18074 49.6358C4.43412 49.2134 4.64527 48.8755 4.81419 48.622C4.98311 48.3685 5.1098 48.2418 5.1098 48.2418L5.36318 47.9039L5.44764 48.3263C5.44764 48.3263 5.57432 48.791 5.65878 49.4246C5.74324 50.016 5.8277 50.8609 5.74324 51.5368C5.65878 52.2549 5.44763 52.8041 5.19426 53.1843C6.37669 52.5084 7.51689 51.748 8.57263 50.9454C8.53041 50.9031 8.48817 50.8609 8.44595 50.8186C8.19257 50.5652 7.98142 50.1428 7.93919 49.6358C7.85473 49.0867 7.89696 48.4953 8.02365 47.8616C8.10811 47.3547 8.2348 46.8055 8.40372 46.3409C8.53041 45.9184 8.69932 45.496 8.82601 45.2425L9.20608 44.3977L9.54392 45.1158C9.62838 45.2848 9.71284 45.5805 9.83953 45.8762C10.0084 46.3409 10.2618 47.1857 10.3463 47.9461C10.3885 48.5798 10.3041 49.1712 10.1351 49.6781C11.1486 48.791 12.1199 47.8194 13.0068 46.7633C12.9645 46.721 12.9223 46.7211 12.8378 46.6788C12.6267 46.5521 12.2889 46.2141 12.1199 45.6227C11.951 45.1158 11.8666 44.5666 11.8243 43.8908C11.7821 43.2993 11.8243 42.7502 11.9088 42.3277C11.951 41.8208 12.0355 41.3984 12.0777 41.1449C12.1199 40.8492 12.1622 40.6803 12.1622 40.6803L12.2466 40.2156L12.5422 40.5958C12.5422 40.5958 12.8378 41.0182 13.1757 41.5251C13.4291 41.9053 13.8514 42.7079 14.0625 43.4683C14.1892 43.933 14.2736 44.4399 14.2314 44.9046C14.2314 44.9891 14.2314 45.1158 14.1892 45.2003C14.9916 44.102 15.7517 42.9614 16.4274 41.7786C16.3851 41.7786 16.3007 41.7363 16.2584 41.7363C16.0051 41.6519 15.625 41.3984 15.3294 40.8492C14.6959 39.7509 14.527 38.4836 14.4426 37.6387C14.4426 37.343 14.4426 37.0051 14.4426 36.7516V36.4982C14.4426 36.2025 14.4426 36.0335 14.4426 36.0335L14.4848 35.6111L14.7804 35.9068C14.7804 35.9068 15.1605 36.2447 15.5828 36.7094C16.0895 37.2586 16.5541 37.8922 16.8497 38.3991C17.103 38.8638 17.272 39.3285 17.3142 39.7932C17.3142 39.8776 17.3142 39.9621 17.3564 40.0889C17.652 39.4552 17.9476 38.7793 18.201 38.1034C18.4544 37.512 18.6233 36.8784 18.8345 36.287C18.7922 36.287 18.7078 36.287 18.6655 36.287C18.4122 36.2447 17.9899 36.0757 17.5676 35.6111C17.2297 35.1886 16.8919 34.724 16.6385 34.1326C16.5118 33.8791 16.4274 33.6256 16.3429 33.3722C16.2584 33.1187 16.174 32.9075 16.0895 32.654C16.0051 32.2739 15.9206 31.9781 15.8361 31.6824L15.7939 31.5135C15.7095 31.2178 15.7095 31.0488 15.7095 31.0488L15.6672 30.6264L16.0473 30.8376C16.0473 30.8376 16.4696 31.091 16.9764 31.4712C17.6098 31.9359 18.201 32.4428 18.5811 32.9075C19.0034 33.3722 19.2568 33.9213 19.4257 34.4283C19.7635 33.0765 19.9747 31.7669 20.1436 30.4151C20.1014 30.4151 20.0169 30.4151 19.9747 30.4151C19.7213 30.4151 19.299 30.3307 18.7922 29.9927C17.8209 29.2746 17.1875 28.2185 16.723 27.3736L16.6385 27.2469C16.4696 26.8667 16.3007 26.571 16.174 26.3176C16.0473 26.0641 16.0051 25.8951 16.0051 25.8951L15.8784 25.4727L16.3007 25.5994C16.3007 25.5994 16.7652 25.7684 17.3564 26.0218C17.9054 26.2753 18.6655 26.6555 19.2145 27.0779C19.6368 27.4159 19.9324 27.7538 20.1858 28.1763C20.228 28.2607 20.2703 28.3452 20.3125 28.4297C20.3547 27.0779 20.3125 25.6839 20.1858 24.3321C20.1436 24.3321 20.0591 24.3744 20.0169 24.3744C19.9324 24.4166 19.8057 24.4166 19.6791 24.4166C19.4257 24.4166 19.1301 24.3744 18.75 24.2054C18.2432 23.9942 17.7365 23.6562 17.272 23.1916C16.8074 22.7691 16.4274 22.3889 16.174 22.051L15.9628 21.7975C15.7517 21.5441 15.5828 21.2906 15.4561 21.1216C15.2872 20.8682 15.2027 20.7414 15.2027 20.7414L14.9916 20.3613L15.4139 20.4035C15.4139 20.4035 15.9206 20.4457 16.5118 20.6147C17.103 20.7414 17.9476 20.9527 18.5389 21.2906C19.0034 21.5441 19.3834 21.8398 19.7213 22.1355C19.8057 22.22 19.848 22.3044 19.8902 22.3467C19.6791 20.9949 19.3412 19.6854 18.9611 18.3758C18.9189 18.4181 18.8767 18.4181 18.7922 18.4603C18.5811 18.5448 18.3699 18.587 18.1166 18.587C17.9476 18.587 17.7365 18.5448 17.5253 18.5025C16.9764 18.3758 16.4274 18.1646 15.8784 17.8267C15.3716 17.531 14.9071 17.193 14.5693 16.9395C14.4426 16.8128 14.3159 16.7283 14.1892 16.6438C13.978 16.4749 13.8091 16.3059 13.6824 16.1792C13.4713 15.968 13.3446 15.8412 13.3446 15.8412L13.049 15.5033L13.4713 15.461C13.4713 15.461 13.978 15.4188 14.6115 15.4188C15.4983 15.4188 16.2162 15.5033 16.723 15.6722C17.2297 15.799 17.652 16.0102 18.0321 16.2637C18.1166 16.3059 18.201 16.3904 18.2432 16.4326C18.0743 15.968 17.8632 15.5033 17.6943 15.0808C17.3564 14.2782 16.9341 13.5178 16.5541 12.7575C16.5118 12.7997 16.4696 12.842 16.4274 12.8842C16.2162 13.0532 15.8784 13.2221 15.2872 13.2221C15.2449 13.2221 15.2027 13.2221 15.1605 13.2221C14.6115 13.2221 14.0203 13.0954 13.4713 12.8842C12.9645 12.7152 12.4578 12.504 11.9932 12.2505C11.7821 12.1238 11.6132 12.0393 11.4443 11.9126L10.9797 11.6591C10.7264 11.4902 10.5574 11.4057 10.5574 11.4057L10.2196 11.1522L10.6419 11.0255C10.6419 11.0255 11.1064 10.8988 11.7399 10.772C12.1622 10.6875 12.5 10.6453 12.7956 10.6031C13.1757 10.5608 13.5557 10.5608 13.8514 10.6031C14.4848 10.6453 15.076 10.8143 15.5405 11.0677C14.8226 9.92717 14.0203 8.82884 13.1334 7.77276C13.0912 7.815 13.049 7.85725 13.0068 7.89949C12.8378 8.11071 12.5 8.36417 11.8666 8.44865C11.5709 8.4909 11.3176 8.53314 10.9797 8.53314C10.6841 8.53314 10.3885 8.4909 10.0929 8.44865C9.62838 8.36417 9.03716 8.27968 8.53041 8.15295C8.2348 8.06846 8.02365 7.98398 7.8125 7.89949C7.68581 7.85725 7.55912 7.815 7.43243 7.77276C7.13683 7.68827 6.96791 7.60379 6.96791 7.60379L6.54561 7.43481L6.92568 7.2236C6.92568 7.2236 7.34797 7.01238 7.93919 6.75892C8.61486 6.46322 9.375 6.252 9.96622 6.16752C10.473 6.08303 10.9797 6.12527 11.4443 6.20976C11.5287 6.20976 11.6132 6.252 11.7399 6.29425C11.4443 5.99854 11.1486 5.70284 10.853 5.40714C10.5574 5.15368 9.92399 4.56227 9.54392 4.22433C9.45946 4.22433 9.33277 4.26657 9.20608 4.26657C8.65709 4.26657 7.64358 4.0976 6.50338 2.99927C5.53209 2.06992 4.56081 0.422433 4.51858 0.380189L4.39189 0L4.81419 0.0844865C4.94088 0.0844865 8.02365 0.591406 9.50169 2.45011C10.0507 3.126 10.0084 3.71741 9.92399 4.01311C10.3041 4.35106 10.9375 4.90022 11.1909 5.15368C11.4865 5.44938 11.8243 5.74508 12.1199 6.08303C12.0777 5.99854 12.0777 5.91406 12.0355 5.82957C11.951 5.40714 11.9088 4.90022 11.9088 4.35106C11.9088 3.80189 12.0355 3.126 12.1199 2.49235L12.2466 2.11216C12.3733 1.43627 12.4578 0.971595 12.4578 0.971595L12.5422 0.506919L12.8378 0.844865C12.8378 0.844865 12.9645 1.01384 13.1757 1.35178C13.3868 1.64749 13.598 2.06992 13.8514 2.66133C14.0625 3.21049 14.3159 3.80189 14.4003 4.43554C14.4848 5.15368 14.4848 5.78733 14.3581 6.33649C14.2314 6.80117 13.978 7.18135 13.6402 7.39257C13.598 7.43481 13.5557 7.43481 13.4713 7.47706C14.3581 8.53314 15.1605 9.63146 15.9206 10.8143C15.8784 10.3496 15.9206 9.75819 16.0895 9.0823C16.174 8.7866 16.2584 8.44865 16.4274 8.02622C16.5541 7.68827 16.6807 7.30808 16.8074 7.01238C17.0608 6.37873 17.272 5.91406 17.272 5.91406L17.4409 5.49162L17.652 5.91406C17.652 5.91406 17.7365 6.12527 17.9054 6.46322V6.50546C17.9476 6.67444 18.0321 6.84341 18.1166 7.09687C18.201 7.35033 18.2432 7.60379 18.2855 7.89949C18.4122 8.57538 18.4966 9.20903 18.4544 9.75819C18.4122 10.4763 18.2432 11.11 17.9899 11.6169C17.7787 12.0816 17.4409 12.3773 17.0608 12.5462C17.0186 12.5885 16.9341 12.5885 16.8919 12.5885C17.3142 13.3489 17.6943 14.1515 18.0743 14.9541C18.2855 15.4188 18.4544 15.8835 18.6233 16.3481C18.6233 16.2637 18.6655 16.1792 18.6655 16.0947C18.75 15.63 18.9189 15.1653 19.1723 14.6584C19.5524 13.898 20.0169 13.1377 20.2703 12.7575C20.6503 12.2083 20.9459 11.7859 20.9459 11.7859L21.2416 11.4057L21.3682 11.8704C21.3682 11.8704 21.4105 12.0816 21.4949 12.4618L21.5372 12.6307C21.5794 12.9687 21.6216 13.4334 21.6216 13.9403C21.6216 14.4894 21.5794 15.1231 21.4105 15.799C21.2416 16.4749 20.9459 17.0663 20.6081 17.531C20.228 18.0379 19.8057 18.2068 19.5101 18.2491C19.4257 18.2491 19.3834 18.2491 19.3412 18.2491C19.7635 19.5586 20.0591 20.9104 20.3125 22.2622C20.3547 22.1777 20.3547 22.0932 20.397 22.0087C20.5659 21.5863 20.8193 21.1639 21.1571 20.6992C21.6216 20.1078 22.2128 19.4741 22.6351 19.0517C23.0997 18.587 23.4797 18.2068 23.4797 18.2068L23.8176 17.8689V18.3336C23.8176 18.3336 23.8176 18.587 23.8176 18.9672V19.094C23.7753 19.4741 23.7753 19.9388 23.6486 20.4457C23.522 20.9949 23.353 21.6285 23.0574 22.22C22.7618 22.8536 22.3818 23.3605 21.9172 23.7407C21.5372 24.0787 21.1149 24.2054 20.7348 24.2054C20.6503 24.2054 20.6081 24.2054 20.5659 24.2054C20.6926 25.5572 20.7348 26.9512 20.6926 28.3452C20.7348 28.2607 20.777 28.2185 20.8193 28.134C21.0726 27.7538 21.4105 27.3736 21.8328 27.0357C22.2551 26.6555 22.8463 26.2331 23.6064 25.7261C24.1554 25.346 24.6199 25.0925 24.6199 25.0925L25 24.839L24.9155 25.3037C24.9155 25.3037 24.8733 25.5149 24.7889 25.8951C24.7044 26.2331 24.5777 26.74 24.3243 27.2891C24.0709 27.9228 23.3108 29.4436 22.0017 30.2039C21.6639 30.3729 21.3682 30.4574 21.0726 30.4574C20.9459 30.4574 20.8615 30.4574 20.7348 30.4151C20.6926 30.4151 20.6081 30.3729 20.5659 30.3729C20.4392 31.7247 20.1858 33.0765 19.848 34.4283C20.1436 34.0903 20.6081 33.7101 21.2416 33.3722C21.8328 33.0342 22.5929 32.7385 23.2264 32.4428C23.8598 32.1894 24.3243 32.0204 24.3243 32.0204L24.7466 31.8514L24.5777 32.2739C24.5777 32.2739 24.4932 32.4851 24.3243 32.823C24.2399 33.0342 23.9865 33.5411 23.5642 34.0903C23.3953 34.3438 23.1841 34.5972 23.0152 34.8084C22.8041 35.0619 22.5507 35.2731 22.3395 35.4843C21.7905 35.949 21.2416 36.287 20.6926 36.4559C20.4814 36.5404 20.2703 36.5827 20.0591 36.5827C19.848 36.5827 19.5946 36.5404 19.4257 36.4559C19.3834 36.4137 19.3412 36.4137 19.2568 36.3714C19.0456 37.0051 18.8345 37.5965 18.6233 38.2302C18.3699 38.906 18.0743 39.5819 17.7365 40.2578C17.8209 40.2156 17.9054 40.1311 17.9476 40.0889C18.3277 39.8354 18.7922 39.6664 19.299 39.4552C19.9324 39.244 20.6926 39.075 21.3682 38.9483H21.4527C22.1284 38.8216 22.5929 38.7371 22.5929 38.7371L23.0574 38.6526L22.8041 39.0328C22.8041 39.0328 22.6774 39.244 22.4662 39.5397C22.2551 39.8354 21.9172 40.2156 21.4949 40.638C20.9037 41.2294 19.6368 42.2433 18.201 42.37C18.1166 42.37 18.0321 42.37 17.9476 42.37C17.5676 42.37 17.2297 42.2855 16.9341 42.0743C16.8919 42.032 16.8497 41.9898 16.8074 41.9476C16.1318 43.1726 15.3716 44.3132 14.5693 45.4115C14.6537 45.3693 14.7382 45.327 14.8226 45.2848C15.2027 45.1158 15.7095 45.0313 16.3007 44.9468C16.9764 44.8623 17.8209 44.8623 18.4966 44.8623C19.1723 44.8623 19.6791 44.9046 19.6791 44.9046H20.1436L19.848 45.2425C19.848 45.2425 19.6791 45.4115 19.3834 45.665C19.1301 45.8762 18.7078 46.2141 18.201 46.5521C17.6943 46.89 17.103 47.1435 16.5118 47.3547C16.0051 47.5237 15.4561 47.6082 14.9916 47.6082C14.8649 47.6082 14.7382 47.6082 14.6537 47.6082C14.147 47.5659 13.7669 47.3969 13.4713 47.059C13.4291 47.0168 13.3868 46.9745 13.3868 46.9323C12.5 47.9883 11.5287 48.9599 10.473 49.847C10.9375 49.7626 11.4865 49.6781 12.2466 49.7626C12.9645 49.8048 13.8091 50.016 14.4003 50.1428L16.0051 50.5229L15.4561 50.9031C15.3716 50.9454 15.2449 51.0299 15.076 51.1143C14.6959 51.3256 14.2736 51.5368 13.7247 51.748C13.049 52.0015 12.4578 52.1282 11.9088 52.2127C11.6976 52.2549 11.4865 52.2549 11.2753 52.2549C10.8108 52.2549 10.3885 52.2127 10.0084 52.0859C9.41723 51.917 9.12162 51.579 8.9527 51.3256C8.91047 51.2833 8.91047 51.2411 8.86824 51.1566C7.77027 52.0015 6.63007 52.7618 5.44764 53.4377C5.91216 53.4377 6.46115 53.48 7.17905 53.6912C7.85473 53.9024 8.65709 54.2403 9.20608 54.4938C9.83953 54.7895 10.2618 55.0007 10.2618 55.0007L10.6841 55.2119L10.2618 55.3809C10.2618 55.3809 10.0507 55.4654 9.67061 55.5921H9.62838C9.29054 55.6766 8.78378 55.8456 8.2348 55.9301C7.89696 55.9723 7.43243 56.0146 6.92568 56.0146C6.75676 56.0146 6.54561 56.0146 6.37669 55.9723C5.65878 55.8878 5.06757 55.7189 4.56081 55.4654C4.01182 55.1697 3.80068 54.7895 3.67399 54.4938C3.63176 54.4516 3.63176 54.3671 3.63176 54.3248C3.25169 54.4938 2.87162 54.705 2.49155 54.874C2.40709 54.9162 0.591215 55.7611 0.422297 58L0 57.9578C0.211147 55.6344 2.28041 54.705 2.36487 54.6628Z" fill="#404D8E"/>
</svg>
