<svg width="60" height="138" viewBox="0 0 60 138" fill="none" xmlns="http://www.w3.org/2000/svg">
<path d="M53.6 129.4C52.7 129 51.8 128.6 51 128.2C51.1 128.1 51.2 128 51.3 127.9C51.8 127.1 52 126.1 51.9 125C51.8 123.7 51.5 122.3 50.9 120.9C50.4 119.7 49.9 118.5 49.3 117.5C48.7 116.5 48.2 115.7 47.8 115.1C47.4 114.5 47.1 114.2 47.1 114.2L46.5 113.4L46.3 114.4C46.3 114.4 46 115.5 45.8 117C45.6 118.4 45.4 120.4 45.6 122C45.8 123.7 46.3 125 46.9 125.9C44.1 124.3 41.4 122.5 38.9 120.6C39 120.5 39.1 120.4 39.2 120.3C39.8 119.7 40.3 118.7 40.4 117.5C40.6 116.2 40.5 114.8 40.2 113.3C40 112.1 39.7 110.8 39.3 109.7C39 108.7 38.6 107.7 38.3 107.1L37.4 105.1L36.6 106.8C36.4 107.2 36.2 107.9 35.9 108.6C35.5 109.7 34.9 111.7 34.7 113.5C34.6 115 34.8 116.4 35.2 117.6C32.8 115.5 30.5 113.2 28.4 110.7C28.5 110.6 28.6 110.6 28.8 110.5C29.3 110.2 30.1 109.4 30.5 108C30.9 106.8 31.1 105.5 31.2 103.9C31.3 102.5 31.2 101.2 31 100.2C30.9 99 30.7 98 30.6 97.4C30.5 96.7 30.4 96.3 30.4 96.3L30.2 95.2L29.5 96.1C29.5 96.1 28.8 97.1 28 98.3C27.4 99.2 26.4 101.1 25.9 102.9C25.6 104 25.4 105.2 25.5 106.3C25.5 106.5 25.5 106.8 25.6 107C23.7 104.4 21.9 101.7 20.3 98.9C20.4 98.9 20.6 98.8 20.7 98.8C21.3 98.6 22.2 98 22.9 96.7C24.4 94.1 24.8 91.1 25 89.1C25 88.4 25 87.6 25 87V86.4C25 85.7 25 85.3 25 85.3L24.9 84.3L24.2 85C24.2 85 23.3 85.8 22.3 86.9C21.1 88.2 20 89.7 19.3 90.9C18.7 92 18.3 93.1 18.2 94.2C18.2 94.4 18.2 94.6 18.1 94.9C17.4 93.4 16.7 91.8 16.1 90.2C15.5 88.8 15.1 87.3 14.6 85.9C14.7 85.9 14.9 85.9 15 85.9C15.6 85.8 16.6 85.4 17.6 84.3C18.4 83.3 19.2 82.2 19.8 80.8C20.1 80.2 20.3 79.6 20.5 79C20.7 78.4 20.9 77.9 21.1 77.3C21.3 76.4 21.5 75.7 21.7 75L21.8 74.6C22 73.9 22 73.5 22 73.5L22.1 72.5L21.2 73C21.2 73 20.2 73.6 19 74.5C17.5 75.6 16.1 76.8 15.2 77.9C14.2 79 13.6 80.3 13.2 81.5C12.4 78.3 11.9 75.2 11.5 72C11.6 72 11.8 72 11.9 72C12.5 72 13.5 71.8 14.7 71C17 69.3 18.5 66.8 19.6 64.8L19.8 64.5C20.2 63.6 20.6 62.9 20.9 62.3C21.2 61.7 21.3 61.3 21.3 61.3L21.6 60.3L20.6 60.6C20.6 60.6 19.5 61 18.1 61.6C16.8 62.2 15 63.1 13.7 64.1C12.7 64.9 12 65.7 11.4 66.7C11.3 66.9 11.2 67.1 11.1 67.3C11 64.1 11.1 60.8 11.4 57.6C11.5 57.6 11.7 57.7 11.8 57.7C12 57.8 12.3 57.8 12.6 57.8C13.2 57.8 13.9 57.7 14.8 57.3C16 56.8 17.2 56 18.3 54.9C19.4 53.9 20.3 53 20.9 52.2L21.4 51.6C21.9 51 22.3 50.4 22.6 50C23 49.4 23.2 49.1 23.2 49.1L23.7 48.2L22.7 48.3C22.7 48.3 21.5 48.4 20.1 48.8C18.7 49.1 16.7 49.6 15.3 50.4C14.2 51 13.3 51.7 12.5 52.4C12.3 52.6 12.2 52.8 12.1 52.9C12.6 49.7 13.4 46.6 14.3 43.5C14.4 43.6 14.5 43.6 14.7 43.7C15.2 43.9 15.7 44 16.3 44C16.7 44 17.2 43.9 17.7 43.8C19 43.5 20.3 43 21.6 42.2C22.8 41.5 23.9 40.7 24.7 40.1C25 39.8 25.3 39.6 25.6 39.4C26.1 39 26.5 38.6 26.8 38.3C27.3 37.8 27.6 37.5 27.6 37.5L28.3 36.7L27.3 36.6C27.3 36.6 26.1 36.5 24.6 36.5C22.5 36.5 20.8 36.7 19.6 37.1C18.4 37.4 17.4 37.9 16.5 38.5C16.3 38.6 16.1 38.8 16 38.9C16.4 37.8 16.9 36.7 17.3 35.7C18.1 33.8 19.1 32 20 30.2C20.1 30.3 20.2 30.4 20.3 30.5C20.8 30.9 21.6 31.3 23 31.3C23.1 31.3 23.2 31.3 23.3 31.3C24.6 31.3 26 31 27.3 30.5C28.5 30.1 29.7 29.6 30.8 29C31.3 28.7 31.7 28.5 32.1 28.2L33.2 27.6C33.8 27.2 34.2 27 34.2 27L35 26.4L34 26.1C34 26.1 32.9 25.8 31.4 25.5C30.4 25.3 29.6 25.2 28.9 25.1C28 25 27.1 25 26.4 25.1C24.9 25.2 23.5 25.6 22.4 26.2C24.1 23.5 26 20.9 28.1 18.4C28.2 18.5 28.3 18.6 28.4 18.7C28.8 19.2 29.6 19.8 31.1 20C31.8 20.1 32.4 20.2 33.2 20.2C33.9 20.2 34.6 20.1 35.3 20C36.4 19.8 37.8 19.6 39 19.3C39.7 19.1 40.2 18.9 40.7 18.7C41 18.6 41.3 18.5 41.6 18.4C42.3 18.2 42.7 18 42.7 18L43.7 17.6L42.8 17.1C42.8 17.1 41.8 16.6 40.4 16C38.8 15.3 37 14.8 35.6 14.6C34.4 14.4 33.2 14.5 32.1 14.7C31.9 14.7 31.7 14.8 31.4 14.9C32.1 14.2 32.8 13.5 33.5 12.8C34.2 12.2 35.7 10.8 36.6 10C36.8 10 37.1 10.1 37.4 10.1C38.7 10.1 41.1 9.7 43.8 7.1C46.1 4.9 48.4 1 48.5 0.9L48.8 0L47.8 0.2C47.5 0.2 40.2 1.4 36.7 5.8C35.4 7.4 35.5 8.8 35.7 9.5C34.8 10.3 33.3 11.6 32.7 12.2C32 12.9 31.2 13.6 30.5 14.4C30.6 14.2 30.6 14 30.7 13.8C30.9 12.8 31 11.6 31 10.3C31 9 30.7 7.4 30.5 5.9L30.2 5C29.9 3.4 29.7 2.3 29.7 2.3L29.5 1.2L28.8 2C28.8 2 28.5 2.4 28 3.2C27.5 3.9 27 4.9 26.4 6.3C25.9 7.6 25.3 9 25.1 10.5C24.9 12.2 24.9 13.7 25.2 15C25.5 16.1 26.1 17 26.9 17.5C27 17.6 27.1 17.6 27.3 17.7C25.2 20.2 23.3 22.8 21.5 25.6C21.6 24.5 21.5 23.1 21.1 21.5C20.9 20.8 20.7 20 20.3 19C20 18.2 19.7 17.3 19.4 16.6C18.8 15.1 18.3 14 18.3 14L17.9 13L17.4 14C17.4 14 17.2 14.5 16.8 15.3V15.4C16.7 15.8 16.5 16.2 16.3 16.8C16.1 17.4 16 18 15.9 18.7C15.6 20.3 15.4 21.8 15.5 23.1C15.6 24.8 16 26.3 16.6 27.5C17.1 28.6 17.9 29.3 18.8 29.7C18.9 29.8 19.1 29.8 19.2 29.8C18.2 31.6 17.3 33.5 16.4 35.4C15.9 36.5 15.5 37.6 15.1 38.7C15.1 38.5 15 38.3 15 38.1C14.8 37 14.4 35.9 13.8 34.7C12.9 32.9 11.8 31.1 11.2 30.2C10.3 28.9 9.6 27.9 9.6 27.9L8.9 27L8.6 28.1C8.6 28.1 8.5 28.6 8.3 29.5L8.2 29.9C8.1 30.7 8 31.8 8 33C8 34.3 8.1 35.8 8.5 37.4C8.9 39 9.6 40.4 10.4 41.5C11.3 42.7 12.3 43.1 13 43.2C13.2 43.2 13.3 43.2 13.4 43.2C12.4 46.3 11.7 49.5 11.1 52.7C11 52.5 11 52.3 10.9 52.1C10.5 51.1 9.9 50.1 9.1 49C8 47.6 6.6 46.1 5.6 45.1C4.5 44 3.6 43.1 3.6 43.1L2.8 42.3V43.4C2.8 43.4 2.8 44 2.8 44.9V45.2C2.9 46.1 2.9 47.2 3.2 48.4C3.5 49.7 3.9 51.2 4.6 52.6C5.3 54.1 6.2 55.3 7.3 56.2C8.2 57 9.2 57.3 10.1 57.3C10.3 57.3 10.4 57.3 10.5 57.3C10.2 60.5 10.1 63.8 10.2 67.1C10.1 66.9 10 66.8 9.9 66.6C9.3 65.7 8.5 64.8 7.5 64C6.5 63.1 5.1 62.1 3.3 60.9C2 60 0.9 59.4 0.9 59.4L0 58.8L0.2 59.9C0.2 59.9 0.3 60.4 0.5 61.3C0.7 62.1 1 63.3 1.6 64.6C2.2 66.1 4 69.7 7.1 71.5C7.9 71.9 8.6 72.1 9.3 72.1C9.6 72.1 9.8 72.1 10.1 72C10.2 72 10.4 71.9 10.5 71.9C10.8 75.1 11.4 78.3 12.2 81.5C11.5 80.7 10.4 79.8 8.9 79C7.5 78.2 5.7 77.5 4.2 76.8C2.7 76.2 1.6 75.8 1.6 75.8L0.6 75.4L1 76.4C1 76.4 1.2 76.9 1.6 77.7C1.8 78.2 2.4 79.4 3.4 80.7C3.8 81.3 4.3 81.9 4.7 82.4C5.2 83 5.8 83.5 6.3 84C7.6 85.1 8.9 85.9 10.2 86.3C10.7 86.5 11.2 86.6 11.7 86.6C12.2 86.6 12.8 86.5 13.2 86.3C13.3 86.2 13.4 86.2 13.6 86.1C14.1 87.6 14.6 89 15.1 90.5C15.7 92.1 16.4 93.7 17.2 95.3C17 95.2 16.8 95 16.7 94.9C15.8 94.3 14.7 93.9 13.5 93.4C12 92.9 10.2 92.5 8.6 92.2H8.4C6.8 91.9 5.7 91.7 5.7 91.7L4.6 91.5L5.2 92.4C5.2 92.4 5.5 92.9 6 93.6C6.5 94.3 7.3 95.2 8.3 96.2C9.7 97.6 12.7 100 16.1 100.3C16.3 100.3 16.5 100.3 16.7 100.3C17.6 100.3 18.4 100.1 19.1 99.6C19.2 99.5 19.3 99.4 19.4 99.3C21 102.2 22.8 104.9 24.7 107.5C24.5 107.4 24.3 107.3 24.1 107.2C23.2 106.8 22 106.6 20.6 106.4C19 106.2 17 106.2 15.4 106.2C13.8 106.2 12.6 106.3 12.6 106.3H11.5L12.2 107.1C12.2 107.1 12.6 107.5 13.3 108.1C13.9 108.6 14.9 109.4 16.1 110.2C17.3 111 18.7 111.6 20.1 112.1C21.3 112.5 22.6 112.7 23.7 112.7C24 112.7 24.3 112.7 24.5 112.7C25.7 112.6 26.6 112.2 27.3 111.4C27.4 111.3 27.5 111.2 27.5 111.1C29.6 113.6 31.9 115.9 34.4 118C33.3 117.8 32 117.6 30.2 117.8C28.5 117.9 26.5 118.4 25.1 118.7L21.3 119.6L22.6 120.5C22.8 120.6 23.1 120.8 23.5 121C24.4 121.5 25.4 122 26.7 122.5C28.3 123.1 29.7 123.4 31 123.6C31.5 123.7 32 123.7 32.5 123.7C33.6 123.7 34.6 123.6 35.5 123.3C36.9 122.9 37.6 122.1 38 121.5C38.1 121.4 38.1 121.3 38.2 121.1C40.8 123.1 43.5 124.9 46.3 126.5C45.2 126.5 43.9 126.6 42.2 127.1C40.6 127.6 38.7 128.4 37.4 129C35.9 129.7 34.9 130.2 34.9 130.2L33.9 130.7L34.9 131.1C34.9 131.1 35.4 131.3 36.3 131.6H36.4C37.2 131.8 38.4 132.2 39.7 132.4C40.5 132.5 41.6 132.6 42.8 132.6C43.2 132.6 43.7 132.6 44.1 132.5C45.8 132.3 47.2 131.9 48.4 131.3C49.7 130.6 50.2 129.7 50.5 129C50.6 128.9 50.6 128.7 50.6 128.6C51.5 129 52.4 129.5 53.3 129.9C53.5 130 57.8 132 58.2 137.3L59.2 137.2C58.7 131.7 53.8 129.5 53.6 129.4Z" fill="#404D8E"/>
</svg>
