<svg width="24" height="24" viewBox="0 0 24 24" fill="none" xmlns="http://www.w3.org/2000/svg">
<path fill-rule="evenodd" clip-rule="evenodd" d="M4 0C1.79086 0 0 1.79086 0 4V20C0 22.2091 1.79086 24 4 24H20C22.2091 24 24 22.2091 24 20V4C24 1.79086 22.2091 0 20 0H4ZM19.996 19.9993V20H16.7036V14.5724C16.7036 13.2789 16.6784 11.6203 14.9881 11.6203C13.2726 11.6203 13.01 13.0257 13.01 14.4791V19.9993H9.71429V8.85112H12.8794V10.3714H12.9258C13.3654 9.4954 14.4424 8.57143 16.0471 8.57143C19.3853 8.57143 20 10.8793 20 13.8752V19.9993H19.996ZM4 9.71429H7.42857V20H4V9.71429ZM4 5.70629C4 4.76434 4.76792 4 5.71429 4C6.66006 4 7.42798 4.76434 7.42857 5.70629C7.42857 6.64825 6.66065 7.42857 5.71429 7.42857C4.76792 7.42857 4 6.64825 4 5.70629Z" fill="#B5BAC1"/>
</svg>
