<svg width="32" height="32" viewBox="0 0 32 32" fill="none" xmlns="http://www.w3.org/2000/svg">
<path d="M16 4C18.7907 4 21 5.50893 21 10.5C21 14.0982 18.7907 17 16 17C13.2093 17 11 13.9821 11 10.3839C11 5.50893 13.2093 4 16 4Z" stroke="#0A1C33" stroke-width="2" stroke-miterlimit="10"/>
<path d="M12.6292 18C11.2809 19.051 10.7191 19.2612 9.82022 19.6816C7.91011 20.5224 6 20.9428 6 23.1499C6 23.7805 6 23.9907 6 24.306C6 25.6723 6.33708 25.7774 7.68539 26.408C10.1573 27.6692 12.6292 28.0896 16 27.9845C19.3708 27.9845 21.9551 27.5641 24.3146 26.408C25.6629 25.6723 26 25.6723 26 24.306C26 23.9907 26 23.7805 26 23.1499C26 20.8377 24.0899 20.5224 22.1798 19.6816C21.2809 19.2612 20.7191 19.051 19.3708 18" stroke="#0A1C33" stroke-width="2" stroke-miterlimit="10"/>
</svg>
