<svg width="343" height="333" viewBox="0 0 343 333" fill="none" xmlns="http://www.w3.org/2000/svg">
<mask id="mask0_1356_324" style="mask-type:alpha" maskUnits="userSpaceOnUse" x="26" y="0" width="284" height="333">
<path d="M51.3096 258.226C54.2393 259.251 58.1943 260.569 63.1748 262.181C68.1553 263.646 73.7949 265.184 80.0938 266.795C86.3926 268.26 92.9844 269.578 99.8691 270.75C106.9 271.775 113.858 272.288 120.743 272.288C131.437 272.288 140.958 270.896 149.308 268.113C157.657 265.184 164.688 261.302 170.401 256.468C176.114 251.634 180.436 246.141 183.365 239.988C186.441 233.689 187.979 227.244 187.979 220.652C187.979 213.035 186.075 205.931 182.267 199.339C178.458 192.747 172.965 187.181 165.787 182.64C158.756 178.099 150.187 174.803 140.079 172.752C130.118 170.555 118.912 170.115 106.461 171.434V143.748L189.298 79.8076L141.617 82.2246H46.0361V0.486328H296.085V47.2881L188.858 128.147C208.487 128.733 225.772 131.663 240.714 136.937C255.802 142.21 268.399 149.241 278.507 158.03C288.614 166.819 296.231 177 301.358 188.572C306.632 200.145 309.269 212.522 309.269 225.706C309.269 241.673 305.606 256.248 298.282 269.432C290.958 282.469 280.704 293.675 267.521 303.05C254.483 312.278 238.81 319.456 220.499 324.583C202.188 329.563 182.047 332.054 160.074 332.054C147.477 332.054 135.099 331.175 122.94 329.417C110.929 327.806 99.2832 325.462 88.0039 322.386C76.7246 319.31 65.8848 315.574 55.4844 311.18C45.2305 306.785 35.709 301.878 26.9199 296.458L51.3096 258.226Z" fill="#0D1A59"/>
</mask>
<g mask="url(#mask0_1356_324)">
<g filter="url(#filter0_f_1356_324)">
<ellipse cx="180.5" cy="-10.5" rx="130.5" ry="97.5" fill="#3066FF" fill-opacity="0.4"/>
</g>
<g filter="url(#filter1_f_1356_324)">
<ellipse cx="113.5" cy="367" rx="211.5" ry="144" fill="#FF30DE" fill-opacity="0.3"/>
</g>
</g>
<defs>
<filter id="filter0_f_1356_324" x="-450" y="-608" width="1261" height="1195" filterUnits="userSpaceOnUse" color-interpolation-filters="sRGB">
<feFlood flood-opacity="0" result="BackgroundImageFix"/>
<feBlend mode="normal" in="SourceGraphic" in2="BackgroundImageFix" result="shape"/>
<feGaussianBlur stdDeviation="250" result="effect1_foregroundBlur_1356_324"/>
</filter>
<filter id="filter1_f_1356_324" x="-598" y="-277" width="1423" height="1288" filterUnits="userSpaceOnUse" color-interpolation-filters="sRGB">
<feFlood flood-opacity="0" result="BackgroundImageFix"/>
<feBlend mode="normal" in="SourceGraphic" in2="BackgroundImageFix" result="shape"/>
<feGaussianBlur stdDeviation="250" result="effect1_foregroundBlur_1356_324"/>
</filter>
</defs>
</svg>
